<svg width="13" height="14" viewBox="0 0 13 14" fill="none" xmlns="http://www.w3.org/2000/svg">
  <path
    d="M7.25454 11.909V8.25441H10.9091C11.6182 8.25441 12.1091 7.70895 12.1091 7.05441C12.1091 6.34531 11.5636 5.8544 10.9091 5.8544H7.25454V2.14531C7.25454 1.49077 6.70909 0.945312 6.05455 0.945312C5.34545 0.945312 4.85454 1.49077 4.85454 2.14531V5.8544H1.2C0.490909 5.8544 0 6.39986 0 7.05441C0 7.70895 0.545455 8.25441 1.2 8.25441H4.85454V11.909C4.85454 12.5635 5.4 13.109 6.05455 13.109C6.70909 13.109 7.25454 12.5635 7.25454 11.909Z"
    fill="#fff"/>
</svg>
