<svg width="24" height="24" viewBox="0 0 24 24" fill="none" xmlns="http://www.w3.org/2000/svg">
    <g clip-path="url(#clip0_645_153)">
        <path
            d="M3.92903 1.52926C1.76129 1.52926 0 3.29055 0 5.45442V20.0712C0 22.2389 1.76129 24.0002 3.92903 24.0002H18.5458C20.7097 24.0002 22.4748 22.2389 22.4748 20.0712V12.7628C22.4748 12.3912 22.1729 12.0854 21.7974 12.0854C21.4219 12.0854 21.12 12.3873 21.12 12.7628V20.0712C21.12 21.4918 19.9665 22.6454 18.5458 22.6454H3.92903C2.50839 22.6454 1.35484 21.4918 1.35484 20.0712V5.45442C1.35484 4.03378 2.50839 2.88023 3.92903 2.88023H11.2374C11.609 2.88023 11.9148 2.57829 11.9148 2.20281C11.9148 1.82733 11.6129 1.52539 11.2374 1.52539H3.92903V1.52926Z"
            fill="white" />
        <path
            d="M23.3069 0C23.1443 0 22.9701 0.0735484 22.8346 0.205161L13.4398 9.60387V5.56258C13.4398 5.19097 13.1379 4.88516 12.7624 4.88516C12.3869 4.88516 12.085 5.1871 12.085 5.56258V11.249C12.085 11.431 12.1546 11.6013 12.2824 11.729C12.4101 11.8568 12.5804 11.9265 12.7624 11.9265H18.4488C18.8204 11.9265 19.1263 11.6245 19.1263 11.249C19.1263 10.8735 18.8243 10.5716 18.4488 10.5716H14.3959L23.7985 1.16516C23.9301 1.03355 23.9998 0.859355 23.9998 0.677419C23.9998 0.499355 23.9301 0.332903 23.8024 0.209032C23.6437 0.0425806 23.4463 0.00387097 23.3069 0Z"
            fill="white" />
    </g>
    <defs>
        <clipPath id="clip0_645_153">
            <rect width="24" height="24" fill="white" />
        </clipPath>
    </defs>
</svg>
    