<!--
  - Copyright 2024 ByOmakase, LLC (https://byomakase.org)
  -
  - Licensed under the Apache License, Version 2.0 (the "License");
  - you may not use this file except in compliance with the License.
  - You may obtain a copy of the License at
  -
  -     http://www.apache.org/licenses/LICENSE-2.0
  -
  - Unless required by applicable law or agreed to in writing, software
  - distributed under the License is distributed on an "AS IS" BASIS,
  - WITHOUT WARRANTIES OR CONDITIONS OF ANY KIND, either express or implied.
  - See the License for the specific language governing permissions and
  - limitations under the License.
  -->

<svg fill="none" viewBox="0 0 11 12" xmlns="http://www.w3.org/2000/svg">
  <g fill="#fff">
    <path
      d="M1.25538 0H0.193846C0.0867879 0 0 0.0867879 0 0.193846V11.8062C0 11.9132 0.0867879 12 0.193846 12H1.25538C1.36244 12 1.44923 11.9132 1.44923 11.8062V0.193846C1.44923 0.0867879 1.36244 0 1.25538 0Z"/>
    <path
      d="m3.4246 5.9908c0.00257 0.08817 0.03513 0.17283 0.09231 0.24l6.1662 5.6954c0.05028 0.0466 0.11606 0.0729 0.18462 0.0738 0.07974-0.0035 0.1554-0.0364 0.2123-0.0923 0.0472-0.0536 0.0735-0.1224 0.0739-0.1939v-11.428c-0.0044-0.052495-0.0228-0.10286-0.0532-0.14588-0.0304-0.043018-0.0718-0.077122-0.11977-0.098778-0.04802-0.021656-0.10096-0.030077-0.15333-0.024389s-0.10227 0.025277-0.14452 0.056738l-6.1385 5.6677c-0.03545 0.03158-0.0643 0.06985-0.08489 0.11263-0.0206 0.04277-0.03253 0.0892-0.03511 0.1366z"/>
  </g>
</svg>
