<svg width="24" height="24" viewBox="0 0 24 24" fill="none" xmlns="http://www.w3.org/2000/svg">
    <g clip-path="url(#clip0_633_938)">
        <path
            d="M21.49 11.71C20.92 11.71 20.46 12.17 20.46 12.74V19.82C20.46 20.99 19.51 21.94 18.34 21.94H4.18C3.01 21.94 2.06 20.99 2.06 19.82V5.65998C2.06 4.48998 3.01 3.53998 4.18 3.53998H11.26C11.83 3.53998 12.29 3.07998 12.29 2.50998C12.29 1.93998 11.83 1.47998 11.26 1.47998H4.18C1.87 1.47998 0 3.34998 0 5.65998V19.82C0 22.12 1.87 24 4.18 24H18.34C20.64 24 22.52 22.13 22.52 19.82V12.74C22.52 12.17 22.06 11.71 21.49 11.71Z"
            fill="white" />
        <path
            d="M23.6998 0.3C23.5098 0.11 23.2498 0 22.9698 0H17.4598C16.8898 0 16.4298 0.46 16.4298 1.03C16.4298 1.6 16.8898 2.06 17.4598 2.06H20.4798L12.0098 10.53C11.6098 10.93 11.5998 11.59 12.0098 11.99C12.1998 12.19 12.4598 12.29 12.7398 12.3C13.0098 12.3 13.2698 12.19 13.4698 12L21.9398 3.53V6.54C21.9398 7.11 22.3998 7.57 22.9698 7.57C23.5398 7.57 23.9998 7.11 23.9998 6.54V1.03C23.9998 0.75 23.8898 0.49 23.6998 0.3Z"
            fill="white" />
    </g>
    <defs>
        <clipPath id="clip0_633_938">
            <rect width="24" height="24" fill="white" />
        </clipPath>
    </defs>
</svg>