<!--
  - Copyright 2024 ByOmakase, LLC (https://byomakase.org)
  -
  - Licensed under the Apache License, Version 2.0 (the "License");
  - you may not use this file except in compliance with the License.
  - You may obtain a copy of the License at
  -
  -     http://www.apache.org/licenses/LICENSE-2.0
  -
  - Unless required by applicable law or agreed to in writing, software
  - distributed under the License is distributed on an "AS IS" BASIS,
  - WITHOUT WARRANTIES OR CONDITIONS OF ANY KIND, either express or implied.
  - See the License for the specific language governing permissions and
  - limitations under the License.
  -->

<svg fill="none" viewBox="0 0 16 16" xmlns="http://www.w3.org/2000/svg">
  <g fill="#fff">
    <path
      d="m1.91 15.7h3.71c0.11139 0 0.21822-0.0442 0.29699-0.123 0.07876-0.0787 0.12301-0.1856 0.12301-0.297s-0.04425-0.2182-0.12301-0.297c-0.07877-0.0787-0.1856-0.123-0.29699-0.123h-3.71c-0.28378 0-0.55594-0.1127-0.7566-0.3134-0.20067-0.2006-0.3134-0.4728-0.3134-0.7566v-3.71c0-0.11136-0.04425-0.21819-0.12302-0.29695-0.078765-0.07877-0.18559-0.12302-0.29698-0.12302s-0.21822 0.04425-0.29698 0.12302c-0.078765 0.07876-0.12302 0.18559-0.12302 0.29695v3.71c0.0026273 0.5058 0.2047 0.9901 0.56233 1.3477 0.35763 0.3576 0.84192 0.5597 1.3477 0.5623z"/>
    <path
      d="m5.62 0.84c0.10432-0.00998 0.20114-0.058598 0.27145-0.13631s0.10903-0.1789 0.10855-0.28369c4.8e-4 -0.1048-0.03824-0.20598-0.10855-0.28369-0.07031-0.07771-0.16713-0.12633-0.27145-0.13631h-3.71c-0.50575 0.0026273-0.99004 0.2047-1.3477 0.56233-0.35763 0.35763-0.5597 0.84192-0.56233 1.3477v3.71c0.0099795 0.10432 0.058598 0.20114 0.13631 0.27145 0.07771 0.07031 0.1789 0.10903 0.28369 0.10855 0.11139 0 0.21822-0.04425 0.29698-0.12301 0.078765-0.07877 0.12302-0.1856 0.12302-0.29699v-3.67c0-0.28378 0.11273-0.55594 0.3134-0.7566 0.20066-0.20067 0.47282-0.3134 0.7566-0.3134h3.71z"/>
    <path
      d="m15.28 6c0.1114 0 0.2182-0.04425 0.297-0.12301 0.0788-0.07877 0.123-0.1856 0.123-0.29699v-3.67c-0.0026-0.50575-0.2047-0.99004-0.5623-1.3477-0.3577-0.35763-0.8419-0.5597-1.3477-0.56233h-3.71c-0.11139 0-0.21822 0.04425-0.29698 0.12302-0.07877 0.078765-0.12302 0.18559-0.12302 0.29698s0.04425 0.21822 0.12302 0.29698c0.07876 0.078765 0.18559 0.12302 0.29698 0.12302h3.71c0.2838 0 0.5559 0.11273 0.7566 0.3134 0.2007 0.20066 0.3134 0.47282 0.3134 0.7566v3.71c0.01 0.10432 0.0586 0.20114 0.1363 0.27145s0.1789 0.10903 0.2837 0.10855z"/>
    <path
      d="m10.08 15.7h3.71c0.5058-0.0026 0.99-0.2047 1.3477-0.5623 0.3576-0.3576 0.5597-0.8419 0.5623-1.3477v-3.71c0-0.11136-0.0442-0.21819-0.123-0.29695-0.0788-0.07877-0.1856-0.12302-0.297-0.12302s-0.2182 0.04425-0.297 0.12302c-0.0787 0.07876-0.123 0.18559-0.123 0.29695v3.71c0 0.2838-0.1127 0.556-0.3134 0.7566-0.2007 0.2007-0.4728 0.3134-0.7566 0.3134h-3.71c-0.11139 0-0.21822 0.0443-0.29698 0.123-0.07877 0.0788-0.12302 0.1856-0.12302 0.297s0.04425 0.2183 0.12302 0.297c0.07876 0.0788 0.18559 0.123 0.29698 0.123z"/>
  </g>
</svg>
