<svg width="24" height="24" viewBox="0 0 24 24" fill="none" xmlns="http://www.w3.org/2000/svg">
<path d="M17.6775 3.285H6.315C4.4925 3.285 3 4.77 3 6.6V14.415C3 16.245 4.4925 17.73 6.315 17.73H8.5275L11.13 20.3625C11.595 20.835 12.36 20.835 12.8175 20.3625L15.42 17.73H17.685C19.5075 17.73 21 16.245 21 14.415V6.6C20.9925 4.77 19.515 3.285 17.6775 3.285ZM11.3025 6.3825C11.3325 6.285 11.4 6.21 11.46 6.1425C11.535 6.075 11.6175 6.015 11.7 5.985C11.9775 5.865 12.3075 5.94 12.5325 6.1425C12.6675 6.285 12.7575 6.48 12.7575 6.6825C12.7575 6.885 12.6675 7.08 12.5325 7.215C12.39 7.3575 12.195 7.44 11.9925 7.44C11.895 7.44 11.7975 7.41 11.7 7.38C11.61 7.3425 11.535 7.2825 11.46 7.215C11.325 7.0725 11.235 6.8775 11.235 6.6825C11.235 6.585 11.2575 6.48 11.295 6.39H11.3025V6.3825ZM12.7575 14.3475C12.7575 14.7675 12.42 15.105 12 15.105C11.58 15.105 11.2425 14.7675 11.2425 14.3475V9.27C11.2425 8.85 11.58 8.5125 12 8.5125C12.42 8.5125 12.7575 8.85 12.7575 9.27V14.3475Z" fill="#000"/>
</svg>
