<?xml version="1.0" encoding="UTF-8"?>
<svg id="Layer_2" xmlns="http://www.w3.org/2000/svg" viewBox="0 0 20 20">
    <defs>
        <style>.cls-1{fill:#000000;}</style>
    </defs>
    <g id="Capa_1">
        <path class="cls-1"
              d="M18.66,20H1.34c-.74,0-1.34-.6-1.34-1.34V1.34C0,.6.6,0,1.34,0h17.33c.74,0,1.34.6,1.34,1.34v17.33c0,.74-.6,1.34-1.34,1.34ZM1.74,18.26h16.52V1.74H1.74v16.52Z"/>
        <path class="cls-1"
              d="M15.22,7.39h-6.96c-.48,0-.87-.39-.87-.87s.39-.87.87-.87h6.96c.48,0,.87.39.87.87s-.39.87-.87.87Z"/>
        <path class="cls-1"
              d="M15.22,10.87h-6.96c-.48,0-.87-.39-.87-.87s.39-.87.87-.87h6.96c.48,0,.87.39.87.87s-.39.87-.87.87Z"/>
        <path class="cls-1"
              d="M15.22,14.35h-6.96c-.48,0-.87-.39-.87-.87s.39-.87.87-.87h6.96c.48,0,.87.39.87.87s-.39.87-.87.87Z"/>
        <path class="cls-1"
              d="M4.78,7.39c-.12,0-.23-.03-.34-.06-.1-.04-.2-.11-.28-.19-.08-.09-.15-.17-.19-.29-.04-.1-.06-.22-.06-.33,0-.23.09-.45.25-.62.08-.08.17-.14.29-.18.21-.09.44-.09.66,0,.1.04.2.1.29.18.16.17.25.39.25.62,0,.11-.03.23-.07.33-.04.11-.1.2-.18.29-.16.17-.38.25-.62.25Z"/>
        <path class="cls-1"
              d="M4.78,10.87c-.12,0-.23-.02-.34-.06-.1-.04-.2-.11-.28-.19-.08-.09-.15-.17-.19-.29-.04-.1-.06-.22-.06-.33s.02-.23.06-.33.11-.2.19-.29c.08-.08.17-.14.29-.18.21-.09.44-.09.66,0,.1.04.2.1.29.18.08.09.14.18.18.29s.07.22.07.33-.03.23-.07.33c-.04.11-.1.2-.18.29-.09.08-.18.15-.29.19-.1.04-.22.06-.33.06Z"/>
        <path class="cls-1"
              d="M4.78,14.35c-.12,0-.23-.02-.34-.06-.1-.04-.2-.11-.28-.19-.08-.09-.15-.17-.19-.29-.04-.1-.06-.21-.06-.33,0-.11.02-.23.06-.33s.11-.2.19-.28c.08-.09.17-.15.29-.19.31-.13.7-.06.95.19.08.08.14.17.18.28s.07.22.07.33-.03.23-.07.33c-.04.11-.1.2-.18.29-.09.08-.18.15-.29.19-.1.04-.22.06-.33.06Z"/>
    </g>
</svg>