<!--
  - Copyright 2024 ByOmakase, LLC (https://byomakase.org)
  -
  - Licensed under the Apache License, Version 2.0 (the "License");
  - you may not use this file except in compliance with the License.
  - You may obtain a copy of the License at
  -
  -     http://www.apache.org/licenses/LICENSE-2.0
  -
  - Unless required by applicable law or agreed to in writing, software
  - distributed under the License is distributed on an "AS IS" BASIS,
  - WITHOUT WARRANTIES OR CONDITIONS OF ANY KIND, either express or implied.
  - See the License for the specific language governing permissions and
  - limitations under the License.
  -->

<svg width="106" height="106" viewBox="0 0 106 106" fill="none" xmlns="http://www.w3.org/2000/svg">
  <path
    d="M53.0001 0.320007C23.9526 0.320007 0.320068 23.9525 0.320068 53C0.320068 82.0475 23.9526 105.68 53.0001 105.68C82.0476 105.68 105.68 82.0475 105.68 53C105.68 23.9525 82.0476 0.320007 53.0001 0.320007ZM53.0001 103.18C25.3301 103.18 2.82007 80.67 2.82007 53C2.82007 25.33 25.3301 2.82001 53.0001 2.82001C80.6701 2.82001 103.18 25.33 103.18 53C103.18 80.67 80.6701 103.18 53.0001 103.18Z"
    fill="white"/>
  <path d="M76.49 28.9H61.425C60.735 28.9 60.175 29.46 60.175 30.15V75.85C60.175 76.54 60.735 77.1 61.425 77.1H76.49C77.18 77.1 77.74 76.54 77.74 75.85V30.15C77.74 29.4575 77.18 28.9 76.49 28.9ZM75.24 74.6H62.675V31.4H75.24V74.6Z" fill="white"/>
  <path d="M44.575 28.9H29.51C28.82 28.9 28.26 29.46 28.26 30.15V75.85C28.26 76.54 28.82 77.1 29.51 77.1H44.575C45.265 77.1 45.825 76.54 45.825 75.85V30.15C45.825 29.4575 45.265 28.9 44.575 28.9ZM43.325 74.6H30.76V31.4H43.325V74.6Z" fill="white"/>
</svg>
