<!--
  - Copyright 2024 ByOmakase, LLC (https://byomakase.org)
  -
  - Licensed under the Apache License, Version 2.0 (the "License");
  - you may not use this file except in compliance with the License.
  - You may obtain a copy of the License at
  -
  -     http://www.apache.org/licenses/LICENSE-2.0
  -
  - Unless required by applicable law or agreed to in writing, software
  - distributed under the License is distributed on an "AS IS" BASIS,
  - WITHOUT WARRANTIES OR CONDITIONS OF ANY KIND, either express or implied.
  - See the License for the specific language governing permissions and
  - limitations under the License.
  -->

<svg width="105" height="114" viewBox="0 0 105 114" fill="none" xmlns="http://www.w3.org/2000/svg">
  <g clip-path="url(#clip0_280_117)">
    <path
      d="M0.124301 58.0293C-0.388447 65.4895 0.692892 72.8559 3.3404 79.9277C5.87875 86.7127 9.70405 92.7743 14.7071 97.9475C19.5402 102.943 25.2438 106.882 31.6583 109.654C44.8755 115.366 59.4659 115.449 72.7415 109.885C97.8103 99.3816 110.761 70.9369 102.227 45.1319C97.7062 31.4654 88.063 20.515 75.0794 14.296C68.7766 11.2779 62.0627 9.56198 55.1203 9.19646C47.9342 8.81824 40.8497 9.91481 34.0646 12.4532C30.4906 13.7909 27.0461 15.5297 23.8325 17.6213L22.01 18.8067L25.8201 1.61693C25.8962 1.26918 25.8353 0.913808 25.6449 0.614282C25.4545 0.314756 25.1575 0.106611 24.8098 0.0304605C24.0991 -0.124379 23.3883 0.327448 23.2284 1.04073L18.5502 22.1649C18.4487 22.6193 18.5375 23.0787 18.799 23.462C19.063 23.8478 19.4666 24.0991 19.9311 24.1677L41.337 27.3C42.0604 27.4066 42.7331 26.904 42.8397 26.1806C42.893 25.8303 42.8042 25.48 42.5935 25.1957C42.3803 24.9089 42.0706 24.7236 41.7178 24.6728L22.3374 21.8425L24.2057 20.5581C27.5588 18.2508 31.1887 16.3597 34.9937 14.9382C47.7667 10.1585 61.5982 10.7779 73.9345 16.6871C86.2633 22.5914 95.4141 32.9859 99.7065 45.9594C107.809 70.4596 95.5131 97.4652 71.7135 107.438C65.4996 110.043 58.9786 111.345 52.4626 111.345C45.7639 111.345 39.0728 109.969 32.7117 107.223C20.1545 101.796 10.6052 91.7717 5.82291 78.9987C3.30232 72.2619 2.27682 65.2459 2.77434 58.141C2.79973 57.7704 2.66773 57.4049 2.40882 57.1333C2.15498 56.8668 1.81484 56.7221 1.44678 56.7221C1.43663 56.7221 1.42394 56.7221 1.41378 56.7221C0.736044 56.7348 0.169991 57.3084 0.124301 58.0268V58.0293Z"
      fill="white"/>
    <path
      d="M77.7167 62.0703L38.8621 39.6389C38.4687 39.413 37.9864 39.413 37.593 39.6389C37.1995 39.8648 36.9584 40.2837 36.9584 40.738V85.6009C36.9584 86.0553 37.1995 86.4741 37.593 86.7C37.7884 86.8142 38.0093 86.8701 38.2276 86.8701C38.4458 86.8701 38.6667 86.8142 38.8621 86.7L77.7142 64.2686C78.1076 64.0426 78.3488 63.6238 78.3488 63.1695C78.3488 62.7151 78.1076 62.2963 77.7167 62.0703ZM39.4967 83.4027V42.9362L74.5438 63.1695L39.4967 83.4027Z"
      fill="white"/>
  </g>
  <defs>
    <clipPath id="clip0_280_117">
      <rect width="104.844" height="114" fill="white"/>
    </clipPath>
  </defs>
</svg>
