<!--
  - Copyright 2024 ByOmakase, LLC (https://byomakase.org)
  -
  - Licensed under the Apache License, Version 2.0 (the "License");
  - you may not use this file except in compliance with the License.
  - You may obtain a copy of the License at
  -
  -     http://www.apache.org/licenses/LICENSE-2.0
  -
  - Unless required by applicable law or agreed to in writing, software
  - distributed under the License is distributed on an "AS IS" BASIS,
  - WITHOUT WARRANTIES OR CONDITIONS OF ANY KIND, either express or implied.
  - See the License for the specific language governing permissions and
  - limitations under the License.
  -->

<svg viewBox="0 0 7 13" xmlns="http://www.w3.org/2000/svg">
  <g>
    <path d="M5.21 0H6.35C6.47 0 6.56 0.1 6.56 0.21V12.79C6.56 12.91 6.46 13 6.35 13H5.21C5.09 13 5 12.9 5 12.79V0.21C5 0.09 5.1 0 5.21 0Z" fill="#fff"/>
    <path d="M0.21 0H1.36C1.48 0 1.57 0.1 1.57 0.21V12.79C1.57 12.91 1.47 13 1.36 13H0.21C0.09 13 0 12.9 0 12.79V0.21C0 0.09 0.1 0 0.21 0Z" fill="#fff"/>
  </g>
</svg>
