<!--
  - Copyright 2024 ByOmakase, LLC (https://byomakase.org)
  -
  - Licensed under the Apache License, Version 2.0 (the "License");
  - you may not use this file except in compliance with the License.
  - You may obtain a copy of the License at
  -
  -     http://www.apache.org/licenses/LICENSE-2.0
  -
  - Unless required by applicable law or agreed to in writing, software
  - distributed under the License is distributed on an "AS IS" BASIS,
  - WITHOUT WARRANTIES OR CONDITIONS OF ANY KIND, either express or implied.
  - See the License for the specific language governing permissions and
  - limitations under the License.
  -->

<svg fill="none" viewBox="0 0 16 14" xmlns="http://www.w3.org/2000/svg">
  <g fill="#fff">
    <path
      d="m11.42 7.01c0-0.05-0.02-0.1-0.05-0.14l-3.56-3.29s-0.07-0.04-0.11-0.04c-0.05 0-0.09 0.02-0.12 0.05s-0.04 0.07-0.04 0.11v6.61c0 0.13 0.18 0.21 0.27 0.12l3.55-3.28s0.06-0.09 0.07-0.14h-0.01z"/>
    <path
      d="m8.74 0c-3.63 0-6.7 2.84-6.97 6.47v0.19l-0.92-0.91c-0.2-0.19-0.51-0.19-0.69 0-0.11 0.1-0.16 0.22-0.16 0.35s0.05 0.25 0.15 0.35l1.8 1.8c0.11 0.11 0.26 0.17 0.39 0.16 0.12 0 0.22-0.06 0.28-0.13l1.83-1.83c0.1-0.1 0.15-0.22 0.15-0.35s-0.05-0.25-0.15-0.35c-0.2-0.19-0.51-0.19-0.69 0l-0.78 0.78 0.03-0.25c0.35-2.89 2.82-5.08 5.74-5.08 3.19 0 5.79 2.6 5.79 5.79s-2.6 5.79-5.79 5.79c-0.33 0-0.6 0.27-0.6 0.61s0.27 0.61 0.6 0.61c3.86 0 7-3.14 7-7s-3.15-7-7.01-7z"/>
  </g>
</svg>
