<svg width="16" height="16" viewBox="0 0 16 16" fill="none" xmlns="http://www.w3.org/2000/svg">
    <path
            d="M15.14 0.56C14.78 0.2 14.3 0 13.79 0H1.91C1.4 0 0.92 0.2 0.56 0.56C0.2 0.92 0 1.4 0 1.91V13.79C0 14.3 0.2 14.78 0.56 15.14C0.92 15.5 1.4 15.7 1.91 15.7H13.79C14.3 15.7 14.78 15.5 15.14 15.14C15.5 14.78 15.7 14.3 15.7 13.79V1.91C15.7 1.4 15.5 0.92 15.14 0.56ZM14.86 5.62V13.79C14.86 14.07 14.75 14.35 14.55 14.55C14.35 14.75 14.08 14.86 13.79 14.86H1.91C1.63 14.86 1.35 14.75 1.15 14.55C0.95 14.35 0.84 14.08 0.84 13.79V1.91C0.84 1.63 0.95 1.35 1.15 1.15C1.35 0.95 1.62 0.84 1.91 0.84H13.79C14.07 0.84 14.35 0.95 14.55 1.15C14.75 1.35 14.86 1.62 14.86 1.91V5.62Z"
            fill="white" />
    <path d="M15.37 2.92993H0.27002V3.76993H15.37V2.92993Z" fill="white" />
    <path d="M15.37 11.9299H0.27002V12.7699H15.37V11.9299Z" fill="white" />
    <path d="M5.85003 12.04L3.03003 14.86H4.22003L6.45003 12.63L5.85003 12.04Z" fill="white" />
    <path d="M8.85003 12.04L6.03003 14.86H7.22003L9.45003 12.63L8.85003 12.04Z" fill="white" />
    <path
            d="M14.41 1.07007L12.59 2.89007L13.18 3.48007L14.83 1.83007C14.81 1.58007 14.71 1.34007 14.53 1.16007C14.49 1.12007 14.44 1.10007 14.4 1.07007H14.41Z"
            fill="white" />
    <path d="M12.03 14.86H13.22L14.86 13.22V12.05L14.85 12.04L12.03 14.86Z" fill="white" />
    <path d="M11.85 12.04L9.03003 14.86H10.08H10.22L12.45 12.63L11.85 12.04Z" fill="white" />
    <path d="M7.18998 3.48009L9.82998 0.840088H8.63998L6.59998 2.88009L7.18998 3.48009Z" fill="white" />
    <path d="M3.82997 0.840088H2.63997L0.839966 2.64009V3.13009L1.18997 3.48009L3.82997 0.840088Z" fill="white" />
    <path d="M4.18998 3.48009L6.82998 0.840088H5.63998L3.59998 2.88009L4.18998 3.48009Z" fill="white" />
    <path d="M10.19 3.48009L12.83 0.840088H11.64L9.59998 2.88009L10.19 3.48009Z" fill="white" />
    <path d="M2.85 12.04L0.880005 14.01C0.920005 14.21 1 14.4 1.15 14.55C1.22 14.62 1.3 14.66 1.38 14.7L3.45001 12.63L2.86 12.04H2.85Z" fill="white" />
    <path
            d="M1.91002 14.86C1.72002 14.86 1.54002 14.79 1.38002 14.7L0.77002 15.31C1.10002 15.56 1.49002 15.7 1.91002 15.7H2.19002L3.03002 14.86H1.91002Z"
            fill="white" />
    <path
            d="M13.7899 0.84001C14.0199 0.84001 14.2299 0.93001 14.4099 1.07001L15.0099 0.47001C14.6699 0.18001 14.2399 0.0100098 13.7799 0.0100098H13.6599L12.8199 0.85001H13.7799L13.7899 0.84001Z"
            fill="white" />
    <path
            d="M0.84 13.79V3.13001L0.6 2.89001L0.84 2.65001V1.92001C0.84 1.64001 0.95 1.36001 1.15 1.16001C1.35 0.96001 1.62 0.85001 1.91 0.85001H2.64L3.48 0.0100098H1.91C1.4 0.0100098 0.92 0.21001 0.56 0.57001C0.2 0.92001 0 1.40001 0 1.91001V13.79C0 14.1 0.09 14.4 0.23 14.66L0.89 14C0.87 13.93 0.85 13.86 0.85 13.78L0.84 13.79Z"
            fill="white" />
    <path d="M7.22 14.8601L6.38 15.7001H8.19L9.03 14.8601H7.22Z" fill="white" />
    <path d="M10.68 14.8601H10.22L9.38 15.7001H10.08H10.68H11.19L12.03 14.8601H10.68Z" fill="white" />
    <path
            d="M14.84 1.81989C14.84 1.81989 14.86 1.87989 14.86 1.90989V12.0499L15.45 12.6399L14.86 13.2299V13.7999C14.86 14.0799 14.75 14.3599 14.55 14.5599C14.35 14.7599 14.08 14.8699 13.79 14.8699H13.22L12.38 15.7099H13.79C14.3 15.7099 14.78 15.5099 15.14 15.1499C15.5 14.7899 15.7 14.3099 15.7 13.7999V1.90989C15.7 1.63989 15.64 1.37989 15.53 1.13989L14.84 1.82989V1.81989Z"
            fill="white" />
    <path d="M5.62 14.8601H4.87H4.22L3.38 15.7001H4.87H5.19L6.03 14.8601H5.62Z" fill="white" />
    <path d="M10.08 0.84H11.5H11.64L12.48 0H11.5H10.67L9.82996 0.84H10.08Z" fill="white" />
    <path d="M8.63996 0.84L9.47996 0H7.66996L6.82996 0.84H8.63996Z" fill="white" />
    <path d="M4.02996 0.84H5.61996H5.63996L6.47996 0H5.61996H4.66996L3.82996 0.84H4.02996Z" fill="white" />
    <path d="M15.45 12.63L14.86 12.05V13.22L15.45 12.63Z" fill="white" />
    <path d="M0.599976 2.87989L0.839976 3.12989V2.63989L0.599976 2.87989Z" fill="white" />
    <path d="M6.83001 0.84L7.67001 0H6.48001L5.64001 0.84H6.83001Z" fill="white" />
    <path d="M10.0799 14.8601H9.02994L8.18994 15.7001H9.37994L10.2199 14.8601H10.0799Z" fill="white" />
    <path
            d="M14.5501 1.14995C14.7301 1.32995 14.8301 1.56995 14.8501 1.81995L15.5401 1.12995C15.4501 0.919951 15.3201 0.719951 15.1501 0.549951C15.1101 0.509951 15.0701 0.479951 15.0301 0.449951L14.4301 1.04995C14.4301 1.04995 14.5201 1.09995 14.5601 1.13995L14.5501 1.14995Z"
            fill="white" />
    <path d="M6.02994 14.8601L5.18994 15.7001H5.61994H6.37994L7.21994 14.8601H6.02994Z" fill="white" />
    <path d="M12.0299 14.8601L11.1899 15.7001H12.3799L13.2199 14.8601H12.0299Z" fill="white" />
    <path d="M3.02994 14.8601L2.18994 15.7001H3.37994L4.21994 14.8601H3.02994Z" fill="white" />
    <path d="M12.83 0.84L13.67 0H12.48L11.64 0.84H12.83Z" fill="white" />
    <path d="M9.83001 0.84L10.67 0H10.08H9.48001L8.64001 0.84H9.83001Z" fill="white" />
    <path
            d="M1.14997 14.55C0.999971 14.4 0.919971 14.21 0.879971 14.01L0.219971 14.67C0.309971 14.84 0.419971 15 0.559971 15.14C0.619971 15.2 0.699971 15.26 0.769971 15.31L1.37997 14.7C1.29997 14.65 1.21997 14.61 1.14997 14.55Z"
            fill="white" />
    <path d="M3.83001 0.84L4.67001 0H4.03001H3.48001L2.64001 0.84H3.83001Z" fill="white" />
</svg>