<!--
  - Copyright 2024 ByOmakase, LLC (https://byomakase.org)
  -
  - Licensed under the Apache License, Version 2.0 (the "License");
  - you may not use this file except in compliance with the License.
  - You may obtain a copy of the License at
  -
  -     http://www.apache.org/licenses/LICENSE-2.0
  -
  - Unless required by applicable law or agreed to in writing, software
  - distributed under the License is distributed on an "AS IS" BASIS,
  - WITHOUT WARRANTIES OR CONDITIONS OF ANY KIND, either express or implied.
  - See the License for the specific language governing permissions and
  - limitations under the License.
  -->

<svg fill="none" viewBox="0 0 17 14" xmlns="http://www.w3.org/2000/svg">
  <path
    d="m13.33 0h-10.25c-0.81606 0.0026367-1.5979 0.32799-2.1749 0.90503-0.57704 0.57704-0.90239 1.3589-0.90503 2.175v6.15c0.0052666 0.81432 0.33169 1.5936 0.90845 2.1685 0.57676 0.5749 1.3572 0.8989 2.1715 0.9015h2.28c0.1783 0.0064 0.34991 0.0695 0.48999 0.18l1.36 1.16c0.28139 0.2325 0.63499 0.3597 1 0.3597s0.71861-0.1272 1-0.3597l1.35-1.16c0.135-0.1192 0.3099-0.1834 0.49-0.18h2.28c0.8143-0.0026 1.5947-0.3266 2.1715-0.9015s0.9032-1.3542 0.9084-2.1685v-6.15c-0.0026-0.81606-0.3278-1.598-0.9049-2.175-0.577-0.57704-1.359-0.90239-2.175-0.90503zm-10.25 9.74h-0.26001c-0.20422 0-0.40003-0.08112-0.54444-0.22552-0.1444-0.14441-0.22558-0.34028-0.22558-0.5445s0.08118-0.40003 0.22558-0.54443c0.14441-0.14441 0.34022-0.22553 0.54444-0.22553h0.26001c0.20421 0 0.40003 0.08112 0.54443 0.22553 0.1444 0.1444 0.22559 0.34021 0.22559 0.54443s-0.08119 0.40009-0.22559 0.5445c-0.1444 0.1444-0.34022 0.22552-0.54443 0.22552zm4.61 0h-1.53c-0.20421 0-0.40003-0.08112-0.54443-0.22552-0.1444-0.14441-0.22546-0.34028-0.22546-0.5445s0.08106-0.40003 0.22546-0.54443c0.1444-0.14441 0.34022-0.22553 0.54443-0.22553h1.53c0.20422 0 0.40015 0.08112 0.54456 0.22553 0.1444 0.1444 0.22546 0.34021 0.22546 0.54443s-0.08106 0.40009-0.22546 0.5445c-0.14441 0.1444-0.34034 0.22552-0.54456 0.22552zm-4.87-3.07c-0.20422 0-0.40003-0.08112-0.54444-0.22552-0.1444-0.1444-0.22558-0.34022-0.22558-0.54444 0-0.20421 0.08118-0.40009 0.22558-0.54449 0.14441-0.1444 0.34022-0.22553 0.54444-0.22553h6.67c0.20422 0 0.40003 0.08113 0.54448 0.22553 0.1444 0.1444 0.2255 0.34028 0.2255 0.54449 0 0.20422-0.0811 0.40004-0.2255 0.54444-0.14445 0.1444-0.34026 0.22552-0.54448 0.22552h-6.67zm10.77 3.07h-2.8199c-0.2043 0-0.4002-0.08112-0.5446-0.22552-0.1444-0.14441-0.2255-0.34028-0.2255-0.5445s0.0811-0.40003 0.2255-0.54443c0.1444-0.14441 0.3403-0.22553 0.5446-0.22553h2.8199c0.2042 0 0.4 0.08112 0.5444 0.22553 0.1444 0.1444 0.2256 0.34021 0.2256 0.54443s-0.0812 0.40009-0.2256 0.5445c-0.1444 0.1444-0.3402 0.22552-0.5444 0.22552zm0-3.07h-1c-0.2042 0-0.4-0.08112-0.5444-0.22552s-0.2256-0.34022-0.2256-0.54444c0-0.20421 0.0812-0.40009 0.2256-0.54449s0.3402-0.22553 0.5444-0.22553h1c0.2042 0 0.4 0.08113 0.5444 0.22553s0.2256 0.34028 0.2256 0.54449c0 0.20422-0.0812 0.40004-0.2256 0.54444s-0.3402 0.22552-0.5444 0.22552z"
    fill="#fff"/>
</svg>
