<!--
  - Copyright 2024 ByOmakase, LLC (https://byomakase.org)
  -
  - Licensed under the Apache License, Version 2.0 (the "License");
  - you may not use this file except in compliance with the License.
  - You may obtain a copy of the License at
  -
  -     http://www.apache.org/licenses/LICENSE-2.0
  -
  - Unless required by applicable law or agreed to in writing, software
  - distributed under the License is distributed on an "AS IS" BASIS,
  - WITHOUT WARRANTIES OR CONDITIONS OF ANY KIND, either express or implied.
  - See the License for the specific language governing permissions and
  - limitations under the License.
  -->

<svg fill="none" viewBox="0 0 19 15" xmlns="http://www.w3.org/2000/svg">
  <g fill="#fff">
    <path
      d="m18.14 7.6c-0.0021-2.7486-1.0085-5.4016-2.83-7.46-0.0386-0.044161-0.0863-0.079512-0.1398-0.10366-0.0535-0.024152-0.1115-0.036543-0.1702-0.036336-0.1085 0.0010229-0.2125 0.044029-0.29 0.12l-0.12 0.12c-0.0717 0.077597-0.1115 0.17936-0.1115 0.285 0 0.10564 0.0398 0.2074 0.1115 0.285 1.6273 1.8416 2.5395 4.2061 2.5707 6.6634 0.0311 2.4573-0.8207 4.8443-2.4007 6.7266-0.0689 0.077-0.107 0.1767-0.107 0.28s0.0381 0.203 0.107 0.28l0.12 0.12c0.0377 0.0385 0.0829 0.069 0.1327 0.0896 0.0499 0.0207 0.1034 0.031 0.1573 0.0304 0.0609-9e-4 0.121-0.0147 0.1761-0.0406 0.0552-0.0259 0.1042-0.0632 0.1439-0.1094 1.7115-2.0281 2.6502-4.5963 2.65-7.25z"/>
    <path
      d="m8.84 1.05c-0.07074-0.03595-0.15076-0.04946-0.22937-0.03874-0.07862 0.01072-0.1521 0.04516-0.21063 0.09874l-5.14 4.26h-2.84c-0.054678-0.00134-0.10907 0.00828-0.15997 0.02829-0.050903 0.02-0.09729 0.04999-0.13643 0.0882-0.039138 0.0382-0.070235 0.08385-0.091462 0.13426-0.021227 0.05041-0.032154 0.10455-0.032138 0.15925v3.64c0 0.11139 0.04425 0.21822 0.12301 0.29698 0.078765 0.07877 0.18559 0.12302 0.29698 0.12302h2.84l5.14 4.26c0.06086 0.0496 0.13467 0.0807 0.21267 0.0895 0.078 0.0089 0.1569-0.0048 0.22733-0.0395 0.07038-0.0334 0.13009-0.0856 0.17247-0.151 0.04238-0.0653 0.06576-0.1411 0.06753-0.219v-12.35c-0.00216-0.07907-0.02559-0.15609-0.06782-0.22296-0.04224-0.06687-0.10171-0.12112-0.17218-0.15704z"/>
    <path
      d="m13.36 11.68c0.9062-1.2198 1.3805-2.7067 1.3479-4.2259s-0.5702-2.9844-1.5279-4.1642c-0.0352-0.04629-0.0805-0.08388-0.1326-0.10989-0.052-0.026-0.1093-0.03973-0.1674-0.04011-0.0525-0.00102-0.1046 0.00916-0.1529 0.02985s-0.0916 0.05142-0.1271 0.09015l-0.13 0.12c-0.071 0.07595-0.1105 0.17603-0.1105 0.28s0.0395 0.20405 0.1105 0.28c0.8091 1.005 1.2626 2.2496 1.2897 3.5394 0.0272 1.2899-0.3736 2.5525-1.1397 3.5906-0.0635 0.0756-0.0983 0.1712-0.0983 0.27 0 0.0987 0.0348 0.1943 0.0983 0.27l0.12 0.12c0.0396 0.0388 0.0865 0.0694 0.138 0.09s0.1065 0.0308 0.162 0.03l0.06 0.5v-0.5c0.0525-0.0096 0.1025-0.0296 0.1472-0.0588 0.0446-0.0292 0.083-0.067 0.1128-0.1112z"/>
  </g>
</svg>
