<svg width="24" height="24" viewBox="0 0 24 24" fill="none" xmlns="http://www.w3.org/2000/svg">
    <path d="M19.5675 4.5975H4.4325C4.05 4.5975 3.69 4.7475 3.42 5.0175C3.15 5.2875 3 5.6475 3 6.03V17.9625C3 18.15 3.0375 18.3375 3.1125 18.5175C3.1875 18.69 3.2925 18.855 3.4275 18.99C3.5625 19.125 3.72 19.23 3.9 19.305C4.0725 19.38 4.2675 19.41 4.455 19.41H19.5525C19.935 19.41 20.3025 19.26 20.5725 18.99C20.8425 18.72 21 18.3525 21 17.97V6.0375C21 5.655 20.8425 5.295 20.58 5.025C20.31 4.755 19.95 4.605 19.5675 4.605V4.5975ZM20.2875 17.955C20.2875 18.15 20.2125 18.3375 20.07 18.48C19.935 18.615 19.74 18.6975 19.545 18.6975H4.455C4.26 18.6975 4.0725 18.6225 3.93 18.48C3.7875 18.345 3.7125 18.1575 3.705 17.955V6.0225C3.705 5.8275 3.7875 5.6475 3.9225 5.5125C4.0575 5.3775 4.245 5.3025 4.4325 5.3025H19.56C19.6575 5.3025 19.7475 5.3175 19.8375 5.355C19.9275 5.3925 20.0025 5.445 20.07 5.5125C20.1375 5.58 20.19 5.6625 20.2275 5.745C20.265 5.835 20.28 5.925 20.28 6.0225V17.955H20.2875Z" fill="#000000"/>
    <path d="M4.44 19.4325C4.245 19.4325 4.0575 19.395 3.885 19.32C3.705 19.245 3.54 19.14 3.405 18.9975C3.2625 18.8625 3.1575 18.6975 3.0825 18.5175C3.0075 18.3375 2.97 18.1425 2.97 17.9475V6.01499C2.97 5.62499 3.1275 5.25749 3.405 4.97999C3.6825 4.70999 4.0575 4.55249 4.44 4.55249H19.5675C19.95 4.55249 20.3325 4.70999 20.6025 4.97999C20.88 5.25749 21.0375 5.62499 21.0375 6.01499V17.9475C21.0375 18.345 20.88 18.7125 20.595 18.9975C20.3175 19.275 19.935 19.4325 19.545 19.4325H4.44ZM4.4325 4.63499C4.065 4.63499 3.705 4.78499 3.45 5.03999C3.1875 5.30249 3.0375 5.65499 3.0375 6.02249V17.955C3.0375 18.1425 3.075 18.3225 3.1425 18.495C3.2175 18.6675 3.315 18.825 3.45 18.9525C3.585 19.08 3.735 19.185 3.9075 19.26C4.08 19.3275 4.2525 19.365 4.44 19.365H19.545C19.9125 19.365 20.28 19.215 20.5425 18.9525C20.8125 18.69 20.955 18.33 20.9625 17.955V6.02249C20.9625 5.64749 20.8125 5.30249 20.55 5.03999C20.2875 4.78499 19.9275 4.63499 19.5675 4.63499H4.4325ZM19.545 18.7275H4.455C4.245 18.7275 4.05 18.645 3.9 18.5025C3.75 18.36 3.6675 18.1575 3.6675 17.955V6.02249C3.6675 5.81999 3.75 5.62499 3.8925 5.48249C4.035 5.33999 4.23 5.26499 4.4325 5.26499H19.56C19.6575 5.26499 19.755 5.28749 19.8525 5.32499C19.9425 5.36249 20.025 5.41499 20.1 5.48999C20.175 5.56499 20.2275 5.64749 20.265 5.73749C20.3025 5.82749 20.325 5.92499 20.325 6.02999V17.9625C20.325 18.1725 20.2425 18.3675 20.1 18.51C19.9575 18.6525 19.755 18.735 19.5525 18.735L19.545 18.7275ZM4.4325 5.33999C4.2525 5.33999 4.0725 5.40749 3.945 5.54249C3.8175 5.66999 3.7425 5.84999 3.7425 6.02999V17.955C3.7425 18.1425 3.8175 18.3225 3.9525 18.45C4.0875 18.585 4.26 18.6525 4.455 18.6525H19.5525C19.74 18.6525 19.92 18.5775 20.0475 18.45C20.1825 18.315 20.25 18.1425 20.25 17.955V6.02249C20.25 5.93249 20.235 5.84249 20.1975 5.75999C20.1675 5.67749 20.115 5.60249 20.0475 5.53499C19.9875 5.47499 19.905 5.42249 19.8225 5.38499C19.74 5.34749 19.65 5.33249 19.56 5.33249H4.4325V5.33999Z" fill="#000000"/>
    <path d="M6.09 8.07H6.6825L7.4025 10.47C7.4775 10.74 7.545 10.9875 7.6125 11.22C7.68 11.4525 7.7475 11.685 7.8225 11.9475C7.8225 11.82 7.905 11.6925 7.9425 11.5725L8.0475 11.2125L8.1525 10.845C8.1525 10.725 8.2275 10.5975 8.265 10.4625L8.9775 8.0625H9.555L8.1375 12.5175H7.485L6.09 8.0625V8.07Z" fill="#000000"/>
    <path d="M8.16001 12.5625H7.45501V12.5325L6.03751 8.02499H6.71251V8.05499L7.50751 10.68C7.56001 10.8675 7.60501 11.04 7.65751 11.205C7.71001 11.3775 7.76251 11.55 7.81501 11.7375L7.83001 11.79C7.83001 11.79 7.85251 11.7225 7.86751 11.6925C7.89001 11.6475 7.90501 11.6025 7.92001 11.565L8.12251 10.845C8.12251 10.77 8.15251 10.6875 8.18251 10.605C8.19751 10.5525 8.22001 10.5075 8.23501 10.455L8.95501 8.02499H9.61501L9.60001 8.07749L8.17501 12.5625H8.16001ZM7.50751 12.4875H8.10751L9.50251 8.10749H9.00751L8.30251 10.485C8.28751 10.5375 8.27251 10.59 8.25001 10.6425C8.22001 10.7175 8.19001 10.7925 8.19001 10.86L7.98751 11.595C7.97251 11.64 7.95751 11.685 7.93501 11.73C7.90501 11.805 7.86751 11.8875 7.86751 11.955V12.2175L7.74001 11.7675C7.68751 11.58 7.63501 11.4075 7.58251 11.235C7.53751 11.07 7.48501 10.8975 7.43251 10.71L7.37251 10.485L6.66001 8.10749H6.14251L7.51501 12.4875H7.50751Z" fill="#000000"/>
    <path d="M11.7075 8.54248H10.2375V8.06998H13.7475V8.54248H12.2775V12.525H11.7075V8.54248Z" fill="#000000"/>
    <path d="M12.315 12.5625H11.67V8.58H10.2V8.0325H13.785V8.58H12.315V12.5625ZM11.7525 12.4875H12.2475V8.505H13.7175V8.1075H10.2825V8.505H11.7525V12.4875Z" fill="#000000"/>
    <path d="M15.87 8.54248H14.4V8.06998H17.91V8.54248H16.44V12.525H15.87V8.54248Z" fill="#000000"/>
    <path d="M16.4775 12.5625H15.8325V8.58H14.3625V8.0325H17.94V8.58H16.47V12.5625H16.4775ZM15.9075 12.4875H16.4025V8.505H17.8725V8.1075H14.4375V8.505H15.9075V12.4875Z" fill="#000000"/>
    <path d="M8.94 15.135H5.775C5.6625 15.135 5.58 15.2775 5.58 15.435C5.58 15.5925 5.6625 15.735 5.775 15.735H8.94C9.045 15.735 9.135 15.6 9.135 15.435C9.135 15.27 9.045 15.135 8.94 15.135Z" fill="#000000"/>
    <path d="M8.94 15.765H5.775C5.6475 15.765 5.5425 15.615 5.5425 15.4275C5.5425 15.27 5.6325 15.09 5.775 15.09H8.94C9.0675 15.09 9.1725 15.24 9.1725 15.4275C9.1725 15.615 9.0675 15.765 8.94 15.765ZM5.775 15.1725C5.6925 15.1725 5.6175 15.2925 5.6175 15.435C5.6175 15.5775 5.6925 15.6975 5.775 15.6975H8.94C9.015 15.6975 9.0975 15.585 9.0975 15.435C9.0975 15.285 9.015 15.1725 8.94 15.1725H5.775Z" fill="#000000"/>
    <path d="M18.2925 15.135H11.0775C10.9725 15.135 10.8825 15.2775 10.8825 15.435C10.8825 15.5925 10.9725 15.735 11.0775 15.735H18.2925C18.405 15.735 18.4875 15.6 18.4875 15.435C18.4875 15.27 18.405 15.135 18.2925 15.135Z" fill="#000000"/>
    <path d="M18.2925 15.765H11.0775C10.95 15.765 10.845 15.6075 10.845 15.4275C10.845 15.2475 10.9575 15.09 11.0775 15.09H18.2925C18.42 15.09 18.525 15.24 18.525 15.4275C18.525 15.615 18.42 15.765 18.2925 15.765ZM11.0775 15.1725C10.995 15.1725 10.92 15.3 10.92 15.435C10.92 15.57 10.995 15.6975 11.0775 15.6975H18.2925C18.375 15.6975 18.45 15.5775 18.45 15.435C18.45 15.2925 18.375 15.1725 18.2925 15.1725H11.0775Z" fill="#000000"/>
    <path d="M18.2175 16.5225H5.7C5.595 16.5225 5.505 16.6575 5.505 16.8225C5.505 16.9875 5.595 17.1225 5.7 17.1225H18.2175C18.33 17.1225 18.42 16.9875 18.42 16.8225C18.42 16.6575 18.33 16.5225 18.2175 16.5225Z" fill="#000000"/>
    <path d="M18.2175 17.16H5.7C5.5725 17.16 5.4675 17.01 5.4675 16.8225C5.4675 16.635 5.5725 16.485 5.7 16.485H18.2175C18.3525 16.485 18.4575 16.635 18.4575 16.8225C18.4575 17.01 18.345 17.16 18.2175 17.16ZM5.7 16.56C5.625 16.56 5.5425 16.6725 5.5425 16.8225C5.5425 16.9725 5.625 17.085 5.7 17.085H18.2175C18.3075 17.085 18.3825 16.965 18.3825 16.8225C18.3825 16.68 18.3075 16.56 18.2175 16.56H5.7Z" fill="#000000"/>
</svg>
