<!--
  - Copyright 2024 ByOmakase, LLC (https://byomakase.org)
  -
  - Licensed under the Apache License, Version 2.0 (the "License");
  - you may not use this file except in compliance with the License.
  - You may obtain a copy of the License at
  -
  -     http://www.apache.org/licenses/LICENSE-2.0
  -
  - Unless required by applicable law or agreed to in writing, software
  - distributed under the License is distributed on an "AS IS" BASIS,
  - WITHOUT WARRANTIES OR CONDITIONS OF ANY KIND, either express or implied.
  - See the License for the specific language governing permissions and
  - limitations under the License.
  -->

<svg width="114" height="114" viewBox="0 0 114 114" fill="none" xmlns="http://www.w3.org/2000/svg">
  <g filter="url(#filter0_d_261_534)">
    <path
      d="M57.0001 0.320007C27.9526 0.320007 4.32007 23.9525 4.32007 53C4.32007 82.0475 27.9526 105.68 57.0001 105.68C86.0476 105.68 109.68 82.0475 109.68 53C109.68 23.9525 86.0476 0.320007 57.0001 0.320007ZM57.0001 103.18C29.3301 103.18 6.82007 80.67 6.82007 53C6.82007 25.33 29.3301 2.82001 57.0001 2.82001C84.6701 2.82001 107.18 25.33 107.18 53C107.18 80.67 84.6701 103.18 57.0001 103.18Z"
      fill="white"/>
    <path d="M80.49 28.9H65.425C64.735 28.9 64.175 29.46 64.175 30.15V75.85C64.175 76.54 64.735 77.1 65.425 77.1H80.49C81.18 77.1 81.74 76.54 81.74 75.85V30.15C81.74 29.4575 81.18 28.9 80.49 28.9ZM79.24 74.6H66.675V31.4H79.24V74.6Z" fill="white"/>
    <path d="M48.575 28.9H33.51C32.82 28.9 32.26 29.46 32.26 30.15V75.85C32.26 76.54 32.82 77.1 33.51 77.1H48.575C49.265 77.1 49.825 76.54 49.825 75.85V30.15C49.825 29.4575 49.265 28.9 48.575 28.9ZM47.325 74.6H34.76V31.4H47.325V74.6Z" fill="white"/>
  </g>
  <defs>
    <filter id="filter0_d_261_534" x="0.320068" y="0.320007" width="113.36" height="113.36" filterUnits="userSpaceOnUse" color-interpolation-filters="sRGB">
      <feFlood flood-opacity="0" result="BackgroundImageFix"/>
      <feColorMatrix in="SourceAlpha" type="matrix" values="0 0 0 0 0 0 0 0 0 0 0 0 0 0 0 0 0 0 127 0" result="hardAlpha"/>
      <feOffset dy="4"/>
      <feGaussianBlur stdDeviation="2"/>
      <feComposite in2="hardAlpha" operator="out"/>
      <feColorMatrix type="matrix" values="0 0 0 0 0 0 0 0 0 0 0 0 0 0 0 0 0 0 0.65 0"/>
      <feBlend mode="normal" in2="BackgroundImageFix" result="effect1_dropShadow_261_534"/>
      <feBlend mode="normal" in="SourceGraphic" in2="effect1_dropShadow_261_534" result="shape"/>
    </filter>
  </defs>
</svg>
