<!--
  - Copyright 2024 ByOmakase, LLC (https://byomakase.org)
  -
  - Licensed under the Apache License, Version 2.0 (the "License");
  - you may not use this file except in compliance with the License.
  - You may obtain a copy of the License at
  -
  -     http://www.apache.org/licenses/LICENSE-2.0
  -
  - Unless required by applicable law or agreed to in writing, software
  - distributed under the License is distributed on an "AS IS" BASIS,
  - WITHOUT WARRANTIES OR CONDITIONS OF ANY KIND, either express or implied.
  - See the License for the specific language governing permissions and
  - limitations under the License.
  -->

<svg width="114" height="114" viewBox="0 0 114 114" fill="none" xmlns="http://www.w3.org/2000/svg">
  <g filter="url(#filter0_d_261_530)">
    <path
      d="M57.0001 0.320007C27.9526 0.320007 4.32007 23.9525 4.32007 53C4.32007 82.0475 27.9526 105.68 57.0001 105.68C86.0476 105.68 109.68 82.0475 109.68 53C109.68 23.9525 86.0476 0.320007 57.0001 0.320007ZM57.0001 103.18C29.3301 103.18 6.82007 80.67 6.82007 53C6.82007 25.33 29.3301 2.82001 57.0001 2.82001C84.6701 2.82001 107.18 25.33 107.18 53C107.18 80.67 84.6701 103.18 57.0001 103.18Z"
      fill="white"/>
    <path
      d="M81.9476 51.9175L43.6801 29.825C43.2926 29.6025 42.8176 29.6025 42.4301 29.825C42.0426 30.0475 41.8051 30.46 41.8051 30.9075V75.0925C41.8051 75.54 42.0426 75.9525 42.4301 76.175C42.6226 76.2875 42.8401 76.3425 43.0551 76.3425C43.2701 76.3425 43.4876 76.2875 43.6801 76.175L81.9451 54.0825C82.3326 53.86 82.5701 53.4475 82.5701 53C82.5701 52.5525 82.3326 52.14 81.9476 51.9175ZM44.3051 72.9275V33.0725L78.8226 53L44.3051 72.9275Z"
      fill="white"/>
  </g>
  <defs>
    <filter id="filter0_d_261_530" x="0.320068" y="0.320007" width="113.36" height="113.36" filterUnits="userSpaceOnUse" color-interpolation-filters="sRGB">
      <feFlood flood-opacity="0" result="BackgroundImageFix"/>
      <feColorMatrix in="SourceAlpha" type="matrix" values="0 0 0 0 0 0 0 0 0 0 0 0 0 0 0 0 0 0 127 0" result="hardAlpha"/>
      <feOffset dy="4"/>
      <feGaussianBlur stdDeviation="2"/>
      <feComposite in2="hardAlpha" operator="out"/>
      <feColorMatrix type="matrix" values="0 0 0 0 0 0 0 0 0 0 0 0 0 0 0 0 0 0 0.65 0"/>
      <feBlend mode="normal" in2="BackgroundImageFix" result="effect1_dropShadow_261_530"/>
      <feBlend mode="normal" in="SourceGraphic" in2="effect1_dropShadow_261_530" result="shape"/>
    </filter>
  </defs>
</svg>
