<svg width="21" height="21" viewBox="0 0 21 21" fill="none" xmlns="http://www.w3.org/2000/svg">
    <g clip-path="url(#clip0_1165_288)">
        <path
            d="M10.5 21C16.299 21 21 16.299 21 10.5C21 4.70101 16.299 0 10.5 0C4.70101 0 0 4.70101 0 10.5C0 16.299 4.70101 21 10.5 21Z"
            fill="#009CEB" />
        <path
            d="M10.85 15.44C10.75 15.34 10.62 15.29 10.48 15.29C8.92999 15.29 7.47999 14.53 6.57999 13.24C5.83999 12.17 5.56999 10.93 5.79999 9.65C5.96999 8.71 6.39999 7.85 7.04999 7.18L7.26999 6.96L7.19999 8.15C7.17999 8.45 7.39999 8.69 7.68999 8.71C7.97999 8.71 8.20999 8.5 8.22999 8.22L8.35999 5.89C8.35999 5.75 8.31999 5.61 8.22999 5.5C8.13999 5.4 8.00999 5.34 7.86999 5.33L5.52999 5.2C5.39999 5.19 5.27999 5.23 5.17999 5.31C5.06999 5.41 4.99999 5.55 4.98999 5.69C4.96999 5.96 5.19999 6.21 5.48999 6.25L6.48999 6.3L6.30999 6.48C5.50999 7.3 4.97999 8.34 4.77999 9.49C4.49999 11.01 4.83999 12.55 5.72999 13.83C6.81999 15.39 8.58999 16.32 10.48 16.32C10.76 16.32 10.99 16.09 10.99 15.82C10.99 15.67 10.95 15.55 10.85 15.45V15.44Z"
            fill="white" />
        <path
            d="M15.53 14.6799H14.55L14.73 14.4799C16.61 12.4899 16.84 9.40994 15.27 7.17994C14.19 5.61994 12.4 4.68994 10.49 4.68994C10.19 4.68994 9.94998 4.90994 9.94998 5.19994C9.94998 5.48994 10.19 5.71994 10.48 5.71994C12.05 5.71994 13.52 6.47994 14.42 7.75994C15.73 9.63994 15.51 12.1999 13.91 13.8499L13.71 14.0599V12.8499C13.72 12.5599 13.49 12.3299 13.2 12.3099C12.92 12.3099 12.69 12.5499 12.69 12.8299L12.66 15.1699C12.66 15.3099 12.72 15.4499 12.8 15.5299C12.9 15.6399 13.02 15.6899 13.17 15.6899L15.52 15.7299C15.81 15.7299 16.04 15.4999 16.04 15.2099C16.04 14.9299 15.82 14.6999 15.53 14.6799Z"
            fill="white" />
    </g>
    <defs>
        <clipPath id="clip0_1165_288">
            <rect width="21" height="21" fill="white" />
        </clipPath>
    </defs>
</svg>