<svg width="24" height="23" viewBox="0 0 24 23" fill="none" xmlns="http://www.w3.org/2000/svg">
    <g clip-path="url(#clip0_1167_394)">
        <path
            d="M2.86 8.66C2.69 8.83 2.45 8.88 2.22 8.8C2.13 8.77 2.06 8.72 2 8.66C1.9 8.56 1.84 8.43 1.82 8.29L1.42 4L0.18 2.75C-0.06 2.51 -0.06 2.13 0.18 1.89L1.89 0.18C2.13 -0.06 2.51 -0.06 2.75 0.18L4 1.43L8.29 1.83C8.52 1.85 8.73 2.01 8.8 2.23C8.88 2.45 8.82 2.7 8.66 2.87L2.86 8.66ZM5.18 9.64C5.18 9.64 5.16 9.62 5.15 9.61C5.04 9.5 4.97 9.34 4.97 9.18V9.06C4.97 8.76 5.19 8.5 5.49 8.46C6.25 8.35 6.93 8 7.47 7.46C8.05 6.88 8.4 6.14 8.49 5.33C8.52 5.02 8.78 4.79 9.09 4.79H9.2C9.37 4.79 9.53 4.86 9.65 4.99C9.77 5.12 9.82 5.29 9.8 5.46C9.69 6.58 9.2 7.6 8.4 8.41C7.65 9.16 6.7 9.63 5.66 9.78C5.49 9.81 5.31 9.75 5.18 9.64Z"
            fill="#009CEB" />
        <path
            d="M15.3401 2.93006C15.1701 2.76006 15.1201 2.52006 15.2001 2.29006C15.2301 2.20006 15.2801 2.13006 15.3401 2.07006C15.4401 1.97006 15.5701 1.91006 15.7101 1.89006L20.0001 1.49006L21.2501 0.240059C21.4901 5.85914e-05 21.8701 5.85914e-05 22.1101 0.240059L23.8201 1.95006C24.0601 2.19006 24.0601 2.57006 23.8201 2.81006L22.5701 4.06006L22.1701 8.35006C22.1501 8.58006 21.9901 8.79006 21.7701 8.86006C21.5501 8.94006 21.3001 8.88006 21.1301 8.72006L15.3401 2.93006ZM14.3601 5.25006C14.3601 5.25006 14.3801 5.23006 14.3901 5.22006C14.5001 5.11006 14.6601 5.04006 14.8201 5.04006H14.9401C15.2401 5.04006 15.5001 5.26006 15.5401 5.56006C15.6501 6.32006 16.0001 7.00006 16.5401 7.54006C17.1201 8.12006 17.8601 8.47006 18.6701 8.56006C18.9801 8.59006 19.2101 8.85006 19.2101 9.16006V9.27006C19.2101 9.44006 19.1401 9.60006 19.0101 9.72006C18.8801 9.84006 18.7101 9.89006 18.5401 9.87006C17.4201 9.76006 16.4001 9.27006 15.5901 8.47006C14.8401 7.72006 14.3701 6.77006 14.2201 5.73006C14.1901 5.56006 14.2501 5.38006 14.3601 5.25006Z"
            fill="#009CEB" />
        <path
            d="M21.1401 13.6499C21.3101 13.4799 21.5501 13.4299 21.7801 13.5099C21.8701 13.5399 21.9401 13.5899 22.0001 13.6499C22.1001 13.7499 22.1601 13.8799 22.1801 14.0199L22.5801 18.3099L23.8301 19.5599C24.0701 19.7999 24.0701 20.1799 23.8301 20.4199L22.1201 22.1299C21.8801 22.3699 21.5001 22.3699 21.2601 22.1299L20.0101 20.8799L15.7201 20.4799C15.4901 20.4599 15.2801 20.2999 15.2101 20.0799C15.1301 19.8599 15.1901 19.6099 15.3501 19.4399L21.1501 13.6399L21.1401 13.6499ZM18.8201 12.6699C18.8201 12.6699 18.8401 12.6899 18.8501 12.6999C18.9601 12.8099 19.0301 12.9699 19.0301 13.1299V13.2499C19.0301 13.5499 18.8101 13.8099 18.5101 13.8499C17.7501 13.9599 17.0701 14.3099 16.5301 14.8499C15.9501 15.4299 15.6001 16.1699 15.5101 16.9799C15.4801 17.2899 15.2201 17.5199 14.9101 17.5199H14.8001C14.6301 17.5199 14.4701 17.4499 14.3501 17.3199C14.2301 17.1899 14.1801 17.0199 14.2001 16.8499C14.3101 15.7299 14.8001 14.7099 15.6001 13.8999C16.3501 13.1499 17.3001 12.6799 18.3401 12.5299C18.5101 12.4999 18.6901 12.5599 18.8201 12.6699Z"
            fill="#009CEB" />
        <path
            d="M8.66 19.4699C8.83 19.6399 8.88 19.8799 8.8 20.1099C8.77 20.1999 8.72 20.2699 8.66 20.3299C8.56 20.4299 8.43 20.4899 8.29 20.5099L4 20.9099L2.75 22.1599C2.51 22.3999 2.13 22.3999 1.89 22.1599L0.18 20.4499C-0.06 20.2099 -0.06 19.8299 0.18 19.5899L1.43 18.3399L1.83 14.0499C1.85 13.8199 2.01 13.6099 2.23 13.5399C2.45 13.4599 2.7 13.5199 2.87 13.6799L8.67 19.4799L8.66 19.4699ZM9.64 17.1499C9.64 17.1499 9.62 17.1699 9.61 17.1799C9.5 17.2899 9.34 17.3599 9.18 17.3599H9.06C8.76 17.3599 8.5 17.1399 8.46 16.8399C8.35 16.0799 8 15.3999 7.46 14.8599C6.88 14.2799 6.14 13.9299 5.33 13.8399C5.02 13.8099 4.79 13.5499 4.79 13.2399V13.1299C4.79 12.9599 4.86 12.7999 4.99 12.6799C5.12 12.5599 5.29 12.5099 5.46 12.5299C6.58 12.6399 7.6 13.1299 8.41 13.9299C9.16 14.6799 9.63 15.6299 9.78 16.6699C9.81 16.8399 9.75 17.0199 9.64 17.1499Z"
            fill="#009CEB" />
    </g>
    <defs>
        <clipPath id="clip0_1167_394">
            <rect width="24" height="22.34" fill="white" />
        </clipPath>
    </defs>
</svg>