<?xml version="1.0" encoding="utf-8"?><!--
  - Copyright 2024 ByOmakase, LLC (https://byomakase.org)
  -
  - Licensed under the Apache License, Version 2.0 (the "License");
  - you may not use this file except in compliance with the License.
  - You may obtain a copy of the License at
  -
  -     http://www.apache.org/licenses/LICENSE-2.0
  -
  - Unless required by applicable law or agreed to in writing, software
  - distributed under the License is distributed on an "AS IS" BASIS,
  - WITHOUT WARRANTIES OR CONDITIONS OF ANY KIND, either express or implied.
  - See the License for the specific language governing permissions and
  - limitations under the License.
  -->

<!-- Uploaded to: SVG Repo, www.svgrepo.com, Generator: SVG Repo Mixer Tools -->
<svg width="24" height="24" viewBox="0 0 24 24" fill="none" xmlns="http://www.w3.org/2000/svg">
    <path d="M13.65 12L20.6625 4.98751C21.12 4.53001 21.12 3.79501 20.6625 3.33751C20.205 2.88001 19.47 2.88001 19.0125 3.33751L12 10.35L4.9875 3.34501C4.53 2.88751 3.795 2.88751 3.3375 3.34501C2.88 3.80251 2.88 4.53751 3.3375 4.99501L10.35 12.0075L3.3375 19.02C2.88 19.4775 2.88 20.2125 3.3375 20.67C3.5625 20.895 3.8625 21.015 4.1625 21.015C4.4625 21.015 4.7625 20.9025 4.9875 20.67L12 13.6575L19.0125 20.67C19.2375 20.895 19.5375 21.015 19.8375 21.015C20.1375 21.015 20.4375 20.9025 20.6625 20.67C21.12 20.2125 21.12 19.4775 20.6625 19.02L13.65 12.0075V12Z" fill="#CACFEA"/>
</svg>