<svg width="18" height="18" viewBox="0 0 18 18" fill="none" xmlns="http://www.w3.org/2000/svg">
  <path
    d="M10.2368 9.00007L15.4962 3.74069C15.8393 3.39757 15.8393 2.84632 15.4962 2.50319C15.1531 2.16007 14.6018 2.16007 14.2587 2.50319L8.99934 7.76257L3.73996 2.50882C3.39684 2.16569 2.84559 2.16569 2.50246 2.50882C2.15934 2.85194 2.15934 3.40319 2.50246 3.74632L7.76184 9.00569L2.50246 14.2651C2.15934 14.6082 2.15934 15.1594 2.50246 15.5026C2.67121 15.6713 2.89621 15.7613 3.12121 15.7613C3.34621 15.7613 3.57121 15.6769 3.73996 15.5026L8.99934 10.2432L14.2587 15.5026C14.4275 15.6713 14.6525 15.7613 14.8775 15.7613C15.1025 15.7613 15.3275 15.6769 15.4962 15.5026C15.8393 15.1594 15.8393 14.6082 15.4962 14.2651L10.2368 9.00569V9.00007Z"
    fill="#BBBBBB" />
</svg>