<svg width="24" height="24" viewBox="0 0 24 24" fill="none" xmlns="http://www.w3.org/2000/svg">
  <g clip-path="url(#clip0_3547_129)">
    <path
      d="M17.67 3.5H6.32C4.5 3.5 3 4.94 3 6.74V14.36C3 16.14 4.49 17.6 6.32 17.6H8.53L11.13 20.16C11.6 20.62 12.36 20.62 12.82 20.16L15.42 17.6H17.69C19.51 17.6 21.01 16.15 21.01 14.36V6.74C21.01 4.96 19.52 3.5 17.69 3.5H17.68H17.67ZM12.71 13.76C12.71 14.12 12.39 14.4 11.99 14.4C11.59 14.4 11.27 14.12 11.27 13.76V9.44C11.27 9.08 11.59 8.8 11.99 8.8C12.39 8.8 12.71 9.08 12.71 9.44V13.76ZM12.5 7.7C12.36 7.82 12.18 7.89 11.99 7.89C11.9 7.89 11.8 7.86 11.71 7.84C11.62 7.81 11.55 7.75 11.48 7.7C11.35 7.58 11.27 7.42 11.27 7.25C11.27 7.16 11.29 7.07 11.33 7.01C11.36 6.92 11.42 6.85 11.48 6.8C11.55 6.74 11.63 6.69 11.71 6.66C11.97 6.56 12.29 6.62 12.5 6.8C12.63 6.92 12.71 7.08 12.71 7.26C12.71 7.44 12.62 7.6 12.5 7.71V7.7Z"
      fill="#BBBBBB" />
  </g>
  <defs>
    <clipPath id="clip0_3547_129">
      <rect width="24" height="24" fill="white" />
    </clipPath>
  </defs>
</svg>