<svg width="24" height="24" viewBox="0 0 24 24" fill="none" xmlns="http://www.w3.org/2000/svg">
  <g clip-path="url(#clip0_3547_134)">
    <path
      d="M20.84 18.8L12.96 4.1C12.76 3.73 12.39 3.5 11.98 3.5C11.57 3.5 11.19 3.73 11 4.1L3.12 18.8C3.03 18.97 2.99 19.15 2.99 19.33V19.39C2.99 19.57 3.04 19.76 3.14 19.92C3.34 20.28 3.7 20.49 4.11 20.49H19.86C20.27 20.49 20.63 20.28 20.83 19.92C21.03 19.57 21.04 19.15 20.85 18.79H20.83L20.84 18.8ZM11.26 9.6C11.26 9.22 11.58 8.92 11.98 8.92C12.38 8.92 12.7 9.22 12.7 9.6V14.14C12.7 14.52 12.38 14.82 11.98 14.82C11.58 14.82 11.26 14.52 11.26 14.14V9.6ZM12.66 16.71C12.63 16.8 12.57 16.87 12.51 16.94C12.44 17 12.36 17.05 12.28 17.08C12.02 17.18 11.7 17.12 11.49 16.94C11.36 16.82 11.28 16.64 11.28 16.46C11.28 16.28 11.37 16.1 11.49 15.99C11.63 15.87 11.81 15.78 12 15.78C12.09 15.78 12.19 15.81 12.28 15.83C12.37 15.86 12.44 15.92 12.51 15.97C12.64 16.09 12.72 16.27 12.72 16.44C12.72 16.53 12.7 16.62 12.66 16.7V16.71Z"
      fill="#FF8800" />
  </g>
  <defs>
    <clipPath id="clip0_3547_134">
      <rect width="24" height="24" fill="white" />
    </clipPath>
  </defs>
</svg>