<?xml version="1.0" encoding="utf-8"?><!--
  - Copyright 2024 ByOmakase, LLC (https://byomakase.org)
  -
  - Licensed under the Apache License, Version 2.0 (the "License");
  - you may not use this file except in compliance with the License.
  - You may obtain a copy of the License at
  -
  -     http://www.apache.org/licenses/LICENSE-2.0
  -
  - Unless required by applicable law or agreed to in writing, software
  - distributed under the License is distributed on an "AS IS" BASIS,
  - WITHOUT WARRANTIES OR CONDITIONS OF ANY KIND, either express or implied.
  - See the License for the specific language governing permissions and
  - limitations under the License.
  -->

<!-- Uploaded to: SVG Repo, www.svgrepo.com, Generator: SVG Repo Mixer Tools -->
<svg width="24" height="24" viewBox="0 0 24 24" fill="none" xmlns="http://www.w3.org/2000/svg">
    <path d="M20.865 18.6225L12.9825 4.2975C12.78 3.9375 12.4125 3.72 12 3.72C11.5875 3.72 11.2125 3.9375 11.0175 4.2975L3.1425 18.6225C2.955 18.975 2.955 19.38 3.1575 19.725C3.36 20.07 3.72 20.28 4.125 20.28H19.8825C20.2875 20.28 20.6475 20.0775 20.85 19.725C21.0525 19.38 21.06 18.975 20.865 18.6225ZM11.82 9.495C11.88 9.495 11.94 9.48 12 9.48C12.5175 9.48 12.975 9.8475 13.065 10.3725C13.0875 10.4925 13.08 10.6125 13.065 10.725L12.3525 14.94C12.3225 15.1125 12.1725 15.24 12 15.24H11.94C11.7825 15.2175 11.67 15.09 11.6475 14.9475L10.935 10.7325C10.8375 10.1475 11.235 9.6 11.82 9.5025V9.495ZM12 18.12C11.4075 18.12 10.92 17.6325 10.92 17.04C10.92 16.4475 11.4075 15.96 12 15.96C12.5925 15.96 13.08 16.4475 13.08 17.04C13.08 17.6325 12.5925 18.12 12 18.12Z" fill="#FDF5AD"/>
</svg>