<svg width="21" height="21" viewBox="0 0 21 21" fill="none" xmlns="http://www.w3.org/2000/svg">
    <g clip-path="url(#clip0_1165_283)">
        <path
            d="M10.5 21C16.299 21 21 16.299 21 10.5C21 4.70101 16.299 0 10.5 0C4.70101 0 0 4.70101 0 10.5C0 16.299 4.70101 21 10.5 21Z"
            fill="#009CEB" />
        <path d="M13.27 10.02H7.73001V10.98H13.27V10.02Z" fill="white" />
        <path
            d="M14.83 15.24H6.17001C5.36001 15.24 4.70001 14.58 4.70001 13.77V7.23001C4.70001 6.42001 5.36001 5.76001 6.17001 5.76001H14.83C15.64 5.76001 16.3 6.42001 16.3 7.23001V13.76C16.3 14.57 15.64 15.23 14.83 15.23V15.24ZM6.17001 6.76001C5.91001 6.76001 5.70001 6.97001 5.70001 7.23001V13.76C5.70001 14.02 5.91001 14.23 6.17001 14.23H14.83C15.09 14.23 15.3 14.02 15.3 13.76V7.23001C15.3 6.97001 15.09 6.76001 14.83 6.76001H6.17001Z"
            fill="white" />
    </g>
    <defs>
        <clipPath id="clip0_1165_283">
            <rect width="21" height="21" fill="white" />
        </clipPath>
    </defs>
</svg>