<svg width="24" height="21" viewBox="0 0 24 21" fill="none" xmlns="http://www.w3.org/2000/svg">
    <g clip-path="url(#clip0_1167_357)">
        <path
            d="M5.23999 11.0799V19.2999C5.23999 19.7899 5.63999 20.1899 6.12999 20.1899C6.61999 20.1899 7.01999 19.7899 7.01999 19.2999V11.0799C7.01999 10.5899 6.61999 10.1899 6.12999 10.1899C5.63999 10.1899 5.23999 10.5899 5.23999 11.0799Z"
            fill="#009CEB" />
        <path
            d="M2.46 20.19H4.41V10.43C4.41 10.43 4.42 10.34 4.42 10.29C4.42 6.08 7.82 2.66 11.99 2.66C16.16 2.66 19.56 6.08 19.56 10.29C19.56 10.35 19.56 10.42 19.58 10.48V20.19H21.53C22.89 20.19 23.99 19.05 23.99 17.65V12.56C23.99 11.4 23.24 10.42 22.21 10.12C22.12 4.53 17.57 0 11.98 0C6.39 0 1.86 4.52 1.77 10.12C0.75 10.43 0 11.4 0 12.56V17.65C0 19.05 1.1 20.19 2.46 20.19Z"
            fill="#009CEB" />
        <path
            d="M16.99 11.0799V19.2999C16.99 19.7899 17.39 20.1899 17.88 20.1899C18.37 20.1899 18.77 19.7899 18.77 19.2999V11.0799C18.77 10.5899 18.37 10.1899 17.88 10.1899C17.39 10.1899 16.99 10.5899 16.99 11.0799Z"
            fill="#009CEB" />
    </g>
    <defs>
        <clipPath id="clip0_1167_357">
            <rect width="24" height="20.19" fill="white" />
        </clipPath>
    </defs>
</svg>