<svg width="14" height="12" viewBox="0 0 14 12" fill="none" xmlns="http://www.w3.org/2000/svg">
    <path d="M10.343 5.14148H3.6568V6.3001H10.343V5.14148Z" fill="#009CEB" />
    <path
        d="M12.2259 11.4414H1.77414C0.796552 11.4414 0 10.6448 0 9.66724V1.77414C0 0.796552 0.796552 0 1.77414 0H12.2259C13.2034 0 14 0.796552 14 1.77414V9.65517C14 10.6328 13.2034 11.4293 12.2259 11.4293V11.4414ZM1.77414 1.2069C1.46035 1.2069 1.2069 1.46034 1.2069 1.77414V9.65517C1.2069 9.96897 1.46035 10.2224 1.77414 10.2224H12.2259C12.5397 10.2224 12.7931 9.96897 12.7931 9.65517V1.77414C12.7931 1.46034 12.5397 1.2069 12.2259 1.2069H1.77414Z"
        fill="#009CEB" />
</svg>