<svg width="14" height="14" viewBox="0 0 14 14" fill="none" xmlns="http://www.w3.org/2000/svg">
    <path
        d="M7.425 12.9456C7.30457 12.8252 7.14802 12.765 6.97942 12.765C5.11284 12.765 3.36667 11.8498 2.28285 10.2963C1.3917 9.00774 1.06656 7.51447 1.34353 5.97303C1.54826 4.84104 2.06608 3.80539 2.84885 2.99854L3.11378 2.7336L3.02948 4.16666C3.0054 4.52793 3.27033 4.81696 3.61957 4.84104C3.9688 4.84104 4.24578 4.58815 4.26986 4.25096L4.42641 1.44506C4.42641 1.27646 4.37824 1.10787 4.26986 0.975398C4.16148 0.854973 4.00493 0.782718 3.83633 0.770676L1.01839 0.614123C0.861834 0.602081 0.717324 0.650251 0.596899 0.746591C0.464431 0.867016 0.380134 1.03561 0.368091 1.20421C0.344006 1.52935 0.620984 1.83042 0.970216 1.87859L2.17447 1.9388L1.9577 2.15556C0.994301 3.14305 0.356049 4.39547 0.115199 5.78035C-0.221991 7.61081 0.187454 9.46536 1.25924 11.0068C2.57187 12.8854 4.70339 14.0054 6.97942 14.0054C7.31661 14.0054 7.59359 13.7284 7.59359 13.4033C7.59359 13.2226 7.54542 13.0781 7.425 12.9577V12.9456Z"
        fill="#009CEB" />
    <path
        d="M13.0609 12.0305H11.8807L12.0975 11.7896C14.3615 9.39315 14.6384 5.68406 12.7478 2.99858C11.4472 1.11995 9.29157 0 6.99145 0C6.63018 0 6.34116 0.264935 6.34116 0.614167C6.34116 0.963399 6.63018 1.24038 6.97941 1.24038C8.87008 1.24038 10.6403 2.15561 11.7242 3.69705C13.3017 5.96104 13.0368 9.04392 11.11 11.0309L10.8691 11.2838V9.82668C10.8812 9.47745 10.6042 9.20047 10.255 9.17638C9.91778 9.17638 9.6408 9.4654 9.6408 9.80259L9.60467 12.6205C9.60467 12.7891 9.67693 12.9577 9.77327 13.0541C9.89369 13.1865 10.0382 13.2467 10.2188 13.2467L13.0488 13.2949C13.3981 13.2949 13.675 13.0179 13.675 12.6687C13.675 12.3315 13.4101 12.0545 13.0609 12.0305Z"
        fill="#009CEB" />
</svg>