<?xml version="1.0" encoding="UTF-8"?>
<svg xmlns="http://www.w3.org/2000/svg" xmlns:xlink="http://www.w3.org/1999/xlink" version="1.1" viewBox="0 0 1000 595">
  <defs>
    <style>
      .cls-1, .cls-2 {
        fill: none;
      }

      .cls-3 {
        fill: #231f20;
      }

      .cls-4 {
        clip-path: url(#clippath-1);
      }

      .cls-5 {
        fill: #fff;
      }

      .cls-2 {
        stroke: #fff;
        stroke-miterlimit: 10;
        stroke-opacity: .4;
        stroke-width: .7px;
      }

      .cls-6 {
        fill: #b28abf;
      }

      .cls-7 {
        stroke: #000;
      }

      .cls-8 {
        fill: #939598;
      }

      .cls-9 {
        clip-path: url(#clippath);
      }
    </style>
    <clipPath id="clippath">
      <rect class="cls-1" x="-2.2" y="0" width="1003" height="594.3"/>
    </clipPath>
    <clipPath id="clippath-1">
      <rect class="cls-1" x="696.8" y="544.1" width="275.5" height="24.2"/>
    </clipPath>
  </defs>
  <!-- Generator: Adobe Illustrator 28.6.0, SVG Export Plug-In . SVG Version: 1.2.0 Build 709)  -->
  <g>
    <g id="Layer_1">
      <g class="cls-9">
        <g id="Layer_1-2" data-name="Layer_1">
          <rect class="cls-7" x="-2.2" y="0" width="1003" height="594.3"/>
          <g class="cls-4">
            <g>
              <path class="cls-8" d="M801.2,550.1v12.3c0,3.7-2.2,5.9-5.7,5.9s-5.7-2.2-5.7-5.9v-12.3c0-3.7,2.2-5.9,5.7-5.9s5.7,2.2,5.7,5.9ZM793.3,550.1v12.2c0,1.7.8,2.7,2.2,2.7s2.2-.9,2.2-2.7v-12.2c0-1.7-.8-2.7-2.2-2.7s-2.2.9-2.2,2.7Z"/>
              <path class="cls-6" d="M816.2,568v-16.3h0l-2.9,12.9h-2.1l-3-12.9h0v16.3h-3.4v-23.5h4.7l2.8,12.6h0l2.7-12.6h4.8v23.5h-3.6Z"/>
              <path class="cls-6" d="M831.3,568l-.8-5.3h-3.9l-.8,5.3h-3.6l4.1-23.5h4.5l4.1,23.5h-3.6ZM827.1,559.4h3l-1.4-9.9h0l-1.4,9.9h-.2Z"/>
              <path class="cls-6" d="M849.5,568h-3.8l-3.5-10.3-1.5,3v7.2h-3.6v-23.5h3.6v9.8h0l4.9-9.8h3.7l-4.8,9.3,4.9,14.2h0Z"/>
              <path class="cls-6" d="M859.4,568l-.8-5.3h-3.9l-.8,5.3h-3.6l4.1-23.5h4.5l4.1,23.5h-3.6ZM855.2,559.4h3l-1.4-9.9h0l-1.4,9.9h-.2Z"/>
              <path class="cls-6" d="M875.1,549.5v.7l-3.4.3v-.7c0-1.6-.6-2.3-1.8-2.3s-1.8.6-1.8,1.9v.5c0,1.3.7,2.4,3,4.5,3.2,2.9,4.2,4.8,4.2,7.5v1.1c0,3.5-2.2,5.3-5.4,5.3s-5.5-1.9-5.5-5.4v-1.5l3.4-.3v1.6c0,1.6.7,2.3,2,2.3s1.9-.6,1.9-2.2v-.7c0-1.5-.7-2.5-3-4.7-3.2-2.9-4.2-4.8-4.2-7.4v-.6c0-3.5,2-5.3,5.3-5.3s5.3,1.9,5.3,5.4h0Z"/>
              <path class="cls-6" d="M881.1,547.8v6.6h5.2v3.3h-5.2v7h6.4v3.3h-10v-23.5h10v3.3h-6.4Z"/>
              <path class="cls-6" d="M902.1,544.5c3.8,0,5.9,2.1,5.9,5.9v1.9c0,3.9-2.1,5.9-5.9,5.9h-1.6v9.7h-3.6v-23.5h5.2ZM900.5,554.9h1.4c1.7,0,2.5-.9,2.5-2.9v-1.4c0-2-.8-2.9-2.5-2.9h-1.4v7.2h0Z"/>
              <path class="cls-6" d="M920.1,564.6v3.4h-9.5v-23.5h3.6v20.1h5.9Z"/>
              <path class="cls-6" d="M930.2,568l-.8-5.3h-3.9l-.8,5.3h-3.6l4.1-23.5h4.5l4.1,23.5h-3.6ZM925.9,559.4h3l-1.4-9.9h0l-1.4,9.9h-.2Z"/>
              <path class="cls-6" d="M941.4,568h-3.6v-10.6l-4.9-12.8h3.8l3,8.3h0l2.8-8.3h3.7l-4.9,12.9v10.6h.1Z"/>
              <path class="cls-6" d="M951.3,547.8v6.6h5.2v3.3h-5.2v7h6.4v3.3h-10v-23.5h10v3.3h-6.4Z"/>
              <path class="cls-8" d="M965.7,558h-1.6v9.9h-3.6v-23.5h5.1c3.8,0,5.9,2.1,5.9,5.9v1.7c0,2.5-.9,4.2-2.5,5.2l3.3,10.7h-3.8l-2.8-9.9h0ZM964,554.7h1.4c1.7,0,2.5-.9,2.5-2.9v-1.2c0-2-.8-2.9-2.5-2.9h-1.4v7h0Z"/>
              <path class="cls-5" d="M910.6,544.5v23.5h9.5v-3.4h-5.9v-20.1h-3.6Z"/>
              <path class="cls-5" d="M801.2,562.4v-12.3c0-3.7-2.2-5.9-5.7-5.9v3.3c1.4,0,2.2.9,2.2,2.7v12.2c0,1.7-.8,2.7-2.2,2.7v3.3c3.6,0,5.7-2.2,5.7-5.9h0Z"/>
              <path class="cls-5" d="M957.8,547.8v-3.3h-10v23.5h10v-3.3h-6.4v-7h5.2v-3.3h-5.2v-6.6h6.4Z"/>
              <path class="cls-5" d="M925.2,544.5l-4.1,23.5h3.6l.8-5.3h3.9l.8,5.3h3.6l-4.1-23.5h-4.5ZM925.9,559.4l1.4-9.9h0l1.4,9.9h-3,.2Z"/>
              <path class="cls-5" d="M941.4,568v-10.6l4.9-12.9h-3.7l-2.8,8.3h0l-3-8.3h-3.7l4.9,12.8v10.6h3.5-.1Z"/>
              <path class="cls-5" d="M897,544.5v23.5h3.6v-9.7h1.6c3.8,0,5.9-2.1,5.9-5.9v-1.9c0-3.9-2.1-5.9-5.9-5.9h-5.2ZM904.5,550.6v1.4c0,2-.8,2.9-2.5,2.9h-1.4v-7.2h1.4c1.7,0,2.5.9,2.5,2.9h0Z"/>
              <path class="cls-5" d="M887.6,547.8v-3.3h-10v23.5h10v-3.3h-6.4v-7h5.2v-3.3h-5.2v-6.6h6.4Z"/>
              <path class="cls-5" d="M965.5,554.7h-1.4v-7h1.4v-3.3h-5v23.5h3.6v-9.9h1.4v-3.3Z"/>
              <path class="cls-5" d="M822.3,568h3.6l.8-5.3h3.9l.8,5.3h3.6l-4.1-23.5h-4.5l-4.1,23.5h0ZM828.5,549.5h0l1.4,9.9h-3l1.4-9.9h.2Z"/>
              <path class="cls-5" d="M819.7,568v-23.5h-4.8l-2.7,12.6h0l-2.8-12.6h-4.7v23.5h3.4v-16.3h0l3,12.9h2.1l2.9-12.9h0v16.3h3.6Z"/>
              <path class="cls-5" d="M864.4,561.4v1.5c0,3.5,2.2,5.4,5.5,5.4s5.4-1.8,5.4-5.3v-1.1c0-2.7-1.1-4.6-4.2-7.5-2.3-2.1-3-3.2-3-4.5v-.5c0-1.3.7-1.9,1.8-1.9s1.8.7,1.8,2.3v.7l3.4-.3v-.7c0-3.5-2-5.4-5.3-5.4s-5.3,1.8-5.3,5.3v.6c0,2.5,1.1,4.5,4.2,7.4,2.3,2.1,3,3.2,3,4.7v.7c0,1.7-.9,2.2-1.9,2.2s-2-.8-2-2.3v-1.6l-3.4.3h0Z"/>
              <path class="cls-5" d="M850.4,568h3.6l.8-5.3h3.9l.8,5.3h3.6l-4.1-23.5h-4.5l-4.1,23.5h0ZM856.6,549.5h0l1.4,9.9h-3l1.4-9.9h.2Z"/>
              <path class="cls-5" d="M837.2,544.5v23.5h3.6v-7.2l1.5-3,3.5,10.3h3.8l-4.9-14.2,4.8-9.3h-3.7l-4.9,9.8h0v-9.8h-3.7Z"/>
              <path class="cls-5" d="M778.8,544.1h-15.9c-2.3,0-4.1,1.8-4.1,4.1v16c0,2.3,1.8,4.1,4.1,4.1h15.9c2.3,0,4.1-1.8,4.1-4.1v-16c0-2.3-1.8-4.1-4.1-4.1Z"/>
              <path class="cls-3" d="M774.1,549.9h-6.5c-1.7,0-3,1.3-3,3v6.5c0,1.7,1.3,3,3,3h6.5c1.7,0,3-1.3,3-3v-6.5c0-1.7-1.3-3-3-3Z"/>
              <path class="cls-5" d="M747.8,544.1h-16c-2.3,0-4.1,1.8-4.1,4.1v16c0,2.3,1.8,4.1,4.1,4.1h16c2.3,0,4.1-1.8,4.1-4.1v-16c0-2.3-1.8-4.1-4.1-4.1Z"/>
              <path class="cls-3" d="M736.5,549.2h-.5c-1,0-1.9.8-1.9,1.9v10.4c0,1,.8,1.9,1.9,1.9h.5c1,0,1.9-.8,1.9-1.9v-10.4c0-1-.8-1.9-1.9-1.9Z"/>
              <path class="cls-3" d="M743.8,549.2h-.5c-1,0-1.9.8-1.9,1.9v10.4c0,1,.8,1.9,1.9,1.9h.5c1,0,1.9-.8,1.9-1.9v-10.4c0-1-.8-1.9-1.9-1.9Z"/>
              <path class="cls-5" d="M716.8,544.1h-16c-2.3,0-4.1,1.8-4.1,4.1v16c0,2.3,1.8,4.1,4.1,4.1h16c2.3,0,4.1-1.8,4.1-4.1v-16c0-2.3-1.8-4.1-4.1-4.1Z"/>
              <path class="cls-3" d="M713.7,553.9l-6.5-4.4c-1.9-1.2-4.4,0-4.4,2.3v8.7c0,2.2,2.5,3.6,4.4,2.3l6.5-4.4c1.7-1.1,1.7-3.5,0-4.7h0v.2Z"/>
            </g>
          </g>
          <path class="cls-5" d="M703.8,531.7c.5.6.8,1.6.8,2.8s-.3,2.2-.8,2.8-1.3,1-2.3,1-1.5-.3-2-.8v3.4h-2.7v-9.9h2.2l.2,1c.5-.8,1.3-1.2,2.3-1.2s1.7.3,2.3,1h0ZM699.8,533.2c-.2.3-.3.7-.3,1.1v.4c0,.5,0,.8.3,1.1s.5.4.9.4c.8,0,1.2-.5,1.2-1.4v-.7c0-.9-.4-1.4-1.2-1.4s-.7,0-.9.4h0Z"/>
          <path class="cls-5" d="M712.6,531.7c.7.6,1.1,1.6,1.1,2.8s-.4,2.2-1.1,2.8c-.7.6-1.7,1-3,1s-2.3-.3-3-1c-.7-.6-1.1-1.6-1.1-2.8s.4-2.2,1.1-2.8c.7-.6,1.7-1,3-1s2.3.3,3,1h0ZM708.2,534.1v.8c0,1,.4,1.5,1.3,1.5s1.4-.5,1.4-1.5v-.8c0-1-.4-1.5-1.4-1.5s-1.3.5-1.3,1.5Z"/>
          <path class="cls-5" d="M721.5,538.1l-1.1-4h0l-1.1,4h-2.6l-2.6-7.2h2.9l1.1,4.3h0l1.1-4.3h2.7l1.1,4.3h0l1.1-4.3h2.6l-2.6,7.2h-2.6Z"/>
          <path class="cls-5" d="M734.2,531.7c.7.6,1,1.6,1,2.8v.5h-5.4c0,.5,0,.9.3,1.2s.6.4,1.1.4.8,0,1-.3c.2-.2.3-.4.3-.8h2.6c0,.9-.3,1.6-1,2.1s-1.6.7-2.9.7-2.4-.3-3.1-.9c-.7-.6-1.1-1.6-1.1-2.8s.4-2.2,1.1-2.8c.7-.6,1.7-1,3-1s2.3.3,3,.9h.1ZM729.9,533.7h2.6c0-.4,0-.7-.3-.9s-.5-.3-.9-.3c-.9,0-1.3.4-1.4,1.2h0Z"/>
          <path class="cls-5" d="M741.5,530.8h.2v2.3h-.9c-.6,0-1,0-1.2.4-.2.3-.4.7-.4,1.3v3.2h-2.7v-7.2h2.2l.2,1.1c.2-.4.4-.7.8-1,.4-.2.8-.3,1.2-.3h.6v.2Z"/>
          <path class="cls-5" d="M749.6,531.7c.7.6,1,1.6,1,2.8v.5h-5.4c0,.5,0,.9.3,1.2s.6.4,1.1.4.8,0,1-.3c.2-.2.3-.4.3-.8h2.6c0,.9-.3,1.6-1,2.1s-1.6.7-2.9.7-2.4-.3-3.1-.9c-.7-.6-1.1-1.6-1.1-2.8s.4-2.2,1.1-2.8c.7-.6,1.7-1,3-1s2.3.3,3,.9h.1ZM745.2,533.7h2.6c0-.4,0-.7-.3-.9s-.5-.3-.9-.3c-.9,0-1.3.4-1.4,1.2h0Z"/>
          <path class="cls-5" d="M757.2,538.1l-.2-1c-.5.8-1.3,1.2-2.3,1.2s-1.7-.3-2.3-1c-.5-.6-.8-1.6-.8-2.8s.3-2.2.8-2.8,1.3-1,2.3-1,1.5.3,2,.8v-3.4h2.7v9.9h-2.2ZM754.3,534.1v.7c0,.9.4,1.4,1.2,1.4s.7,0,.9-.4c.2-.3.3-.6.3-1.1v-.4c0-.5,0-.8-.3-1.1s-.5-.4-.9-.4c-.8,0-1.2.5-1.2,1.4h0Z"/>
          <path class="cls-5" d="M770.4,530.7c1,0,1.7.3,2.3,1,.5.6.8,1.6.8,2.8s-.3,2.2-.8,2.8-1.3,1-2.3,1-1.8-.4-2.3-1.2l-.2,1h-2.2v-9.9h2.7v3.4c.5-.6,1.2-.8,2-.8h0ZM768.6,533.2c-.2.3-.3.7-.3,1.1v.4c0,.5,0,.8.3,1.1s.5.4.9.4c.8,0,1.2-.5,1.2-1.4v-.7c0-.9-.4-1.4-1.2-1.4s-.7,0-.9.4h0Z"/>
          <path class="cls-5" d="M778.3,540.2c-.5.5-1.3.8-2.3.8s-1.1,0-1.6-.2v-1.6h1.1c.7,0,1.1-.3,1.2-1l-2.9-7.2h2.9l1.4,4.8h0l1.3-4.8h2.7l-2.6,7c-.4,1-.8,1.8-1.4,2.3h.2Z"/>
          <g>
            <path class="cls-2" d="M68.3,326.7l-34.5,7.4c-3,.6-4.9,3.6-4.2,6.5l7.4,34.5c.6,3,3.6,4.9,6.5,4.2l34.5-7.4c3-.6,4.9-3.6,4.2-6.5l-7.4-34.5c-.6-3-3.6-4.9-6.5-4.2Z"/>
            <path class="cls-2" d="M59.9,339.9l-12.7,2.7c-3,.6-4.9,3.6-4.2,6.5l2.7,12.7c.6,3,3.6,4.9,6.5,4.2l12.7-2.7c3-.6,4.9-3.6,4.2-6.5l-2.7-12.7c-.6-3-3.6-4.9-6.5-4.2Z"/>
            <path class="cls-2" d="M12.7,338.6l-34.5,7.4c-3,.6-4.9,3.6-4.2,6.5l7.4,34.5c.6,3,3.6,4.9,6.5,4.2l34.5-7.4c3-.6,4.9-3.5,4.2-6.5l-7.4-34.5c-.6-3-3.6-4.9-6.5-4.2Z"/>
            <path class="cls-2" d="M-7.8,352.8l-3.1.7c-1.3.3-2.2,1.6-1.9,2.9l4.6,21.6c.3,1.3,1.6,2.2,2.9,1.9l3.1-.7c1.3-.3,2.2-1.6,1.9-2.9l-4.6-21.6c-.3-1.3-1.6-2.2-2.9-1.9Z"/>
            <path class="cls-2" d="M5.8,349.9l-3.1.7c-1.3.3-2.2,1.6-1.9,2.9l4.6,21.6c.3,1.3,1.6,2.2,2.9,1.9l3.1-.7c1.3-.3,2.2-1.6,1.9-2.9l-4.6-21.6c-.3-1.3-1.6-2.2-2.9-1.9Z"/>
            <path class="cls-2" d="M234.6,291.2l-34.5,7.4c-3,.6-4.9,3.6-4.2,6.5l7.4,34.5c.6,3,3.6,4.9,6.5,4.2l34.5-7.4c3-.6,4.9-3.6,4.2-6.5l-7.4-34.5c-.6-3-3.6-4.9-6.5-4.2Z"/>
            <path class="cls-2" d="M226.2,304.4l-12.7,2.7c-3,.6-4.9,3.6-4.2,6.5l2.7,12.7c.6,3,3.6,4.9,6.5,4.2l12.7-2.7c3-.6,4.9-3.6,4.2-6.5l-2.7-12.7c-.6-3-3.6-4.9-6.5-4.2Z"/>
            <path class="cls-2" d="M179,303.1l-34.5,7.4c-3,.6-4.9,3.6-4.2,6.5l7.4,34.5c.6,3,3.6,4.9,6.5,4.2l34.5-7.4c3-.6,4.9-3.6,4.2-6.5l-7.4-34.5c-.6-3-3.6-4.9-6.5-4.2Z"/>
            <path class="cls-2" d="M158.4,317.3l-3.1.7c-1.3.3-2.2,1.6-1.9,2.9l4.6,21.6c.3,1.3,1.6,2.2,2.9,1.9l3.1-.7c1.3-.3,2.2-1.6,1.9-3l-4.6-21.6c-.3-1.3-1.6-2.2-2.9-1.9h0Z"/>
            <path class="cls-2" d="M172.1,314.3l-3.1.7c-1.3.3-2.2,1.6-1.9,2.9l4.6,21.6c.3,1.3,1.6,2.2,2.9,1.9l3.1-.7c1.3-.3,2.2-1.6,1.9-2.9l-4.6-21.6c-.3-1.3-1.6-2.2-2.9-1.9Z"/>
            <path class="cls-2" d="M123.3,315l-34.5,7.4c-3,.6-4.9,3.5-4.2,6.5l7.4,34.5c.6,3,3.6,4.9,6.5,4.2l34.5-7.4c3-.6,4.9-3.6,4.2-6.5l-7.4-34.5c-.6-3-3.6-4.9-6.5-4.2Z"/>
            <path class="cls-2" d="M119.3,335.1l-14.7-5.9c-3.8-1.5-7.8,1.8-6.9,5.8l3.7,17.2c.9,4,5.8,5.4,8.7,2.5l11-11.3c2.5-2.6,1.6-7-1.8-8.3h0Z"/>
            <path class="cls-2" d="M400.9,255.7l-34.5,7.4c-3,.6-4.9,3.6-4.2,6.5l7.4,34.5c.6,3,3.5,4.9,6.5,4.2l34.5-7.4c3-.6,4.9-3.6,4.2-6.5l-7.4-34.5c-.6-3-3.5-4.9-6.5-4.2h0Z"/>
            <path class="cls-2" d="M392.4,268.9l-12.7,2.7c-3,.6-4.9,3.6-4.2,6.5l2.7,12.7c.6,3,3.6,4.9,6.5,4.2l12.7-2.7c3-.6,4.9-3.5,4.2-6.5l-2.7-12.7c-.6-3-3.6-4.9-6.5-4.2Z"/>
            <path class="cls-2" d="M345.2,267.6l-34.5,7.4c-3,.6-4.9,3.6-4.2,6.5l7.4,34.5c.6,3,3.6,4.9,6.5,4.2l34.5-7.4c3-.6,4.9-3.5,4.2-6.5l-7.4-34.5c-.6-3-3.6-4.9-6.5-4.2Z"/>
            <path class="cls-2" d="M324.7,281.8l-3.1.7c-1.3.3-2.2,1.6-1.9,2.9l4.6,21.6c.3,1.3,1.6,2.2,3,1.9l3.1-.7c1.3-.3,2.2-1.6,1.9-2.9l-4.6-21.6c-.3-1.3-1.6-2.2-2.9-1.9h-.1Z"/>
            <path class="cls-2" d="M338.4,278.8l-3.1.7c-1.3.3-2.2,1.6-1.9,2.9l4.6,21.6c.3,1.3,1.6,2.2,2.9,1.9l3.1-.7c1.3-.3,2.2-1.6,1.9-2.9l-4.6-21.6c-.3-1.3-1.6-2.2-3-1.9h.1Z"/>
            <path class="cls-2" d="M289.6,279.5l-34.5,7.4c-3,.6-4.9,3.6-4.2,6.5l7.4,34.5c.6,3,3.6,4.9,6.5,4.2l34.5-7.4c3-.6,4.9-3.6,4.2-6.5l-7.4-34.5c-.6-3-3.6-4.9-6.5-4.2h0Z"/>
            <path class="cls-2" d="M285.6,299.6l-14.7-5.9c-3.8-1.5-7.8,1.8-6.9,5.8l3.7,17.2c.9,4,5.8,5.4,8.7,2.5l11-11.3c2.5-2.6,1.6-7-1.8-8.3h0Z"/>
            <path class="cls-2" d="M567.2,220.2l-34.5,7.4c-3,.6-4.9,3.6-4.2,6.5l7.4,34.5c.6,3,3.6,4.9,6.5,4.2l34.5-7.4c3-.6,4.9-3.6,4.2-6.5l-7.4-34.5c-.6-3-3.6-4.9-6.5-4.2Z"/>
            <path class="cls-2" d="M558.7,233.4l-12.7,2.7c-3,.6-4.9,3.6-4.2,6.5l2.7,12.7c.6,3,3.6,4.9,6.5,4.2l12.7-2.7c3-.6,4.9-3.6,4.2-6.5l-2.7-12.7c-.6-3-3.6-4.9-6.5-4.2Z"/>
            <path class="cls-2" d="M511.5,232.1l-34.5,7.4c-3,.6-4.9,3.6-4.2,6.5l7.4,34.5c.6,3,3.6,4.9,6.5,4.2l34.5-7.4c3-.6,4.9-3.6,4.2-6.5l-7.4-34.5c-.6-3-3.6-4.9-6.5-4.2h0Z"/>
            <path class="cls-2" d="M491,246.3l-3.1.7c-1.3.3-2.2,1.6-1.9,2.9l4.6,21.6c.3,1.3,1.6,2.2,2.9,1.9l3.1-.7c1.3-.3,2.2-1.6,1.9-2.9l-4.6-21.6c-.3-1.3-1.6-2.2-2.9-1.9h0Z"/>
            <path class="cls-2" d="M504.7,243.4l-3.1.7c-1.3.3-2.2,1.6-1.9,2.9l4.6,21.6c.3,1.3,1.6,2.2,2.9,1.9l3.1-.7c1.3-.3,2.2-1.6,1.9-2.9l-4.6-21.6c-.3-1.3-1.6-2.2-2.9-1.9h0Z"/>
            <path class="cls-2" d="M455.8,244l-34.5,7.4c-3,.6-4.9,3.6-4.2,6.5l7.4,34.5c.6,3,3.6,4.9,6.5,4.2l34.5-7.4c3-.6,4.9-3.6,4.2-6.5l-7.4-34.5c-.6-3-3.6-4.9-6.5-4.2h0Z"/>
            <path class="cls-2" d="M451.9,264.2l-14.7-5.9c-3.8-1.5-7.8,1.8-6.9,5.8l3.7,17.2c.9,4,5.8,5.4,8.7,2.5l11-11.3c2.5-2.6,1.6-7-1.8-8.3h0Z"/>
            <path class="cls-2" d="M733.5,184.7l-34.5,7.4c-3,.6-4.9,3.6-4.2,6.5l7.4,34.5c.6,3,3.6,4.9,6.5,4.2l34.5-7.4c3-.6,4.9-3.6,4.2-6.5l-7.4-34.5c-.6-3-3.6-4.9-6.5-4.2Z"/>
            <path class="cls-2" d="M725,197.9l-12.7,2.7c-3,.6-4.9,3.6-4.2,6.5l2.7,12.7c.6,3,3.6,4.9,6.5,4.2l12.7-2.7c3-.6,4.9-3.6,4.2-6.5l-2.7-12.7c-.6-3-3.5-4.9-6.5-4.2Z"/>
            <path class="cls-2" d="M677.8,196.6l-34.5,7.4c-3,.6-4.9,3.6-4.2,6.5l7.4,34.5c.6,3,3.6,4.9,6.5,4.2l34.5-7.4c3-.6,4.9-3.6,4.2-6.5l-7.4-34.5c-.6-3-3.6-4.9-6.5-4.2Z"/>
            <path class="cls-2" d="M657.3,210.8l-3.1.7c-1.3.3-2.2,1.6-1.9,2.9l4.6,21.6c.3,1.3,1.6,2.2,3,1.9l3.1-.7c1.3-.3,2.2-1.6,1.9-2.9l-4.6-21.6c-.3-1.3-1.6-2.2-3-1.9Z"/>
            <path class="cls-2" d="M670.9,207.9l-3.1.7c-1.3.3-2.2,1.6-1.9,2.9l4.6,21.6c.3,1.3,1.6,2.2,2.9,1.9l3.1-.7c1.3-.3,2.2-1.6,1.9-2.9l-4.6-21.6c-.3-1.3-1.6-2.2-2.9-1.9Z"/>
            <path class="cls-2" d="M622.1,208.5l-34.5,7.4c-3,.6-4.9,3.6-4.2,6.5l7.4,34.5c.6,3,3.6,4.9,6.5,4.2l34.5-7.4c3-.6,4.9-3.6,4.2-6.5l-7.4-34.5c-.6-3-3.6-4.9-6.5-4.2h0Z"/>
            <path class="cls-2" d="M618.2,228.7l-14.7-5.9c-3.8-1.5-7.8,1.8-6.9,5.8l3.7,17.2c.9,4,5.8,5.4,8.7,2.5l11-11.3c2.5-2.6,1.6-7-1.8-8.3h0Z"/>
            <path class="cls-2" d="M899.7,149.2l-34.5,7.4c-3,.6-4.9,3.6-4.2,6.5l7.4,34.5c.6,3,3.5,4.9,6.5,4.2l34.5-7.4c3-.6,4.9-3.5,4.2-6.5l-7.4-34.5c-.6-3-3.5-4.9-6.5-4.2Z"/>
            <path class="cls-2" d="M891.3,162.4l-12.7,2.7c-3,.6-4.9,3.6-4.2,6.5l2.7,12.7c.6,3,3.6,4.9,6.5,4.2l12.7-2.7c3-.6,4.9-3.6,4.2-6.5l-2.7-12.7c-.6-3-3.6-4.9-6.5-4.2Z"/>
            <path class="cls-2" d="M844.1,161.1l-34.5,7.4c-3,.6-4.9,3.6-4.2,6.5l7.4,34.5c.6,3,3.5,4.9,6.5,4.2l34.5-7.4c3-.6,4.9-3.6,4.2-6.5l-7.4-34.5c-.6-3-3.5-4.9-6.5-4.2Z"/>
            <path class="cls-2" d="M823.5,175.3l-3.1.7c-1.3.3-2.2,1.6-1.9,2.9l4.6,21.6c.3,1.3,1.6,2.2,3,1.9l3.1-.7c1.3-.3,2.2-1.6,1.9-2.9l-4.6-21.6c-.3-1.3-1.6-2.2-3-1.9Z"/>
            <path class="cls-2" d="M837.2,172.4l-3.1.7c-1.3.3-2.2,1.6-1.9,2.9l4.6,21.6c.3,1.3,1.6,2.2,2.9,1.9l3.1-.7c1.3-.3,2.2-1.6,1.9-2.9l-4.6-21.6c-.3-1.3-1.6-2.2-3-1.9h0Z"/>
            <path class="cls-2" d="M788.4,173l-34.5,7.4c-3,.6-4.9,3.6-4.2,6.5l7.4,34.5c.6,3,3.6,4.9,6.5,4.2l34.5-7.4c3-.6,4.9-3.6,4.2-6.5l-7.4-34.5c-.6-3-3.6-4.9-6.5-4.2Z"/>
            <path class="cls-2" d="M784.4,193.2l-14.7-5.9c-3.8-1.5-7.8,1.8-6.9,5.8l3.7,17.2c.9,4,5.8,5.4,8.7,2.5l11-11.3c2.5-2.6,1.6-7-1.8-8.3h0Z"/>
            <path class="cls-2" d="M1010.3,125.6l-34.5,7.4c-3,.6-4.9,3.6-4.2,6.5l7.4,34.5c.6,3,3.6,4.9,6.5,4.2l34.5-7.4c3-.6,4.9-3.6,4.2-6.5l-7.3-34.5c-.6-3-3.5-4.9-6.5-4.2h0Z"/>
            <path class="cls-2" d="M989.8,139.8l-3.1.7c-1.3.3-2.2,1.6-1.9,2.9l4.6,21.6c.3,1.3,1.6,2.2,2.9,1.9l3.1-.7c1.3-.3,2.2-1.6,1.9-2.9l-4.6-21.6c-.3-1.3-1.6-2.2-2.9-1.9Z"/>
            <path class="cls-2" d="M1003.5,136.9l-3.1.7c-1.3.3-2.2,1.6-1.9,2.9l4.6,21.6c.3,1.3,1.6,2.2,3,1.9l3.1-.7c1.3-.3,2.2-1.6,1.9-2.9l-4.6-21.6c-.3-1.3-1.6-2.2-3-1.9Z"/>
            <path class="cls-2" d="M954.7,137.5l-34.5,7.4c-3,.6-4.9,3.6-4.2,6.5l7.4,34.5c.6,3,3.6,4.9,6.5,4.2l34.5-7.4c3-.6,4.9-3.6,4.2-6.5l-7.4-34.5c-.6-3-3.6-4.9-6.5-4.2Z"/>
            <path class="cls-2" d="M950.7,157.7l-14.7-5.9c-3.8-1.5-7.8,1.8-6.9,5.8l3.7,17.2c.9,4,5.8,5.4,8.7,2.5l11-11.3c2.5-2.6,1.6-7-1.8-8.3h0Z"/>
            <path class="cls-2" d="M135.2,371l-34.5,7.4c-3,.6-4.9,3.6-4.2,6.5l7.4,34.5c.6,3,3.6,4.9,6.5,4.2l34.5-7.4c3-.6,4.9-3.6,4.2-6.5l-7.4-34.5c-.6-3-3.6-4.9-6.5-4.2Z"/>
            <path class="cls-2" d="M126.7,384.2l-12.7,2.7c-3,.6-4.9,3.6-4.2,6.5l2.7,12.7c.6,3,3.6,4.9,6.5,4.2l12.7-2.7c3-.6,4.9-3.6,4.2-6.5l-2.7-12.7c-.6-3-3.6-4.9-6.5-4.2Z"/>
            <path class="cls-2" d="M79.5,382.9l-34.5,7.4c-3,.6-4.9,3.6-4.2,6.5l7.4,34.5c.6,3,3.6,4.9,6.5,4.2l34.5-7.4c3-.6,4.9-3.5,4.2-6.5l-7.4-34.5c-.6-3-3.6-4.9-6.5-4.2Z"/>
            <path class="cls-2" d="M59,397.1l-3.1.7c-1.3.3-2.2,1.6-1.9,2.9l4.6,21.6c.3,1.3,1.6,2.2,2.9,1.9l3.1-.7c1.3-.3,2.2-1.6,1.9-2.9l-4.6-21.6c-.3-1.3-1.6-2.2-2.9-1.9Z"/>
            <path class="cls-2" d="M72.7,394.2l-3.1.7c-1.3.3-2.2,1.6-1.9,2.9l4.6,21.6c.3,1.3,1.6,2.2,2.9,1.9l3.1-.7c1.3-.3,2.2-1.6,1.9-2.9l-4.6-21.6c-.3-1.3-1.6-2.2-2.9-1.9Z"/>
            <path class="cls-2" d="M23.8,394.8l-34.5,7.4c-3,.6-4.9,3.6-4.2,6.5l7.4,34.5c.6,3,3.6,4.9,6.5,4.2l34.5-7.4c3-.6,4.9-3.5,4.2-6.5l-7.4-34.5c-.6-3-3.6-4.9-6.5-4.2Z"/>
            <path class="cls-2" d="M19.8,414.9l-14.7-5.9c-3.8-1.5-7.8,1.8-6.9,5.8l3.7,17.2c.9,4,5.8,5.4,8.7,2.5l11-11.3c2.5-2.6,1.6-7-1.8-8.3h0Z"/>
            <path class="cls-2" d="M301.5,335.5l-34.5,7.4c-3,.6-4.9,3.6-4.2,6.5l7.4,34.5c.6,3,3.6,4.9,6.5,4.2l34.5-7.4c3-.6,4.9-3.5,4.2-6.5l-7.4-34.5c-.6-3-3.6-4.9-6.5-4.2Z"/>
            <path class="cls-2" d="M293,348.7l-12.7,2.7c-3,.6-4.9,3.6-4.2,6.5l2.7,12.7c.6,3,3.6,4.9,6.5,4.2l12.7-2.7c3-.6,4.9-3.6,4.2-6.5l-2.7-12.7c-.6-3-3.6-4.9-6.5-4.2Z"/>
            <path class="cls-2" d="M245.8,347.4l-34.5,7.4c-3,.6-4.9,3.5-4.2,6.5l7.4,34.5c.6,3,3.6,4.9,6.5,4.2l34.5-7.4c3-.6,4.9-3.6,4.2-6.5l-7.4-34.5c-.6-3-3.6-4.9-6.5-4.2h0Z"/>
            <path class="cls-2" d="M225.2,361.6l-3.1.7c-1.3.3-2.2,1.6-1.9,3l4.6,21.6c.3,1.3,1.6,2.2,2.9,1.9l3.1-.7c1.3-.3,2.2-1.6,1.9-3l-4.6-21.6c-.3-1.3-1.6-2.2-2.9-1.9Z"/>
            <path class="cls-2" d="M238.9,358.7l-3.1.7c-1.3.3-2.2,1.6-1.9,3l4.6,21.6c.3,1.3,1.6,2.2,2.9,1.9l3.1-.7c1.3-.3,2.2-1.6,1.9-3l-4.6-21.6c-.3-1.3-1.6-2.2-3-1.9h.1Z"/>
            <path class="cls-2" d="M190.1,359.3l-34.5,7.4c-3,.6-4.9,3.6-4.2,6.5l7.4,34.5c.6,3,3.6,4.9,6.5,4.2l34.5-7.4c3-.6,4.9-3.6,4.2-6.5l-7.4-34.5c-.6-3-3.5-4.9-6.5-4.2Z"/>
            <path class="cls-2" d="M186.1,379.5l-14.7-5.9c-3.8-1.5-7.8,1.8-6.9,5.8l3.7,17.2c.9,4,5.8,5.4,8.7,2.5l11-11.3c2.5-2.6,1.6-7-1.8-8.3h0Z"/>
            <path class="cls-2" d="M467.7,300l-34.5,7.4c-3,.6-4.9,3.6-4.2,6.5l7.4,34.5c.6,3,3.6,4.9,6.5,4.2l34.5-7.4c3-.6,4.9-3.6,4.2-6.5l-7.4-34.5c-.6-3-3.6-4.9-6.5-4.2Z"/>
            <path class="cls-2" d="M459.3,313.2l-12.7,2.7c-3,.6-4.9,3.5-4.2,6.5l2.7,12.7c.6,3,3.5,4.9,6.5,4.2l12.7-2.7c3-.6,4.9-3.6,4.2-6.5l-2.7-12.7c-.6-3-3.6-4.9-6.5-4.2Z"/>
            <path class="cls-2" d="M412.1,311.9l-34.5,7.4c-3,.6-4.9,3.6-4.2,6.5l7.4,34.5c.6,3,3.6,4.9,6.5,4.2l34.5-7.4c3-.6,4.9-3.6,4.2-6.5l-7.4-34.5c-.6-3-3.6-4.9-6.5-4.2Z"/>
            <path class="cls-2" d="M391.5,326.1l-3.1.7c-1.3.3-2.2,1.6-1.9,3l4.6,21.6c.3,1.3,1.6,2.2,2.9,1.9l3.1-.7c1.3-.3,2.2-1.6,1.9-2.9l-4.6-21.6c-.3-1.3-1.6-2.2-2.9-1.9h0Z"/>
            <path class="cls-2" d="M405.2,323.2l-3.1.7c-1.3.3-2.2,1.6-1.9,2.9l4.6,21.6c.3,1.3,1.6,2.2,3,1.9l3.1-.7c1.3-.3,2.2-1.6,1.9-2.9l-4.6-21.6c-.3-1.3-1.6-2.2-2.9-1.9h-.1Z"/>
            <path class="cls-2" d="M356.4,323.8l-34.5,7.4c-3,.6-4.9,3.6-4.2,6.5l7.4,34.5c.6,3,3.6,4.9,6.5,4.2l34.5-7.4c3-.6,4.9-3.6,4.2-6.5l-7.4-34.5c-.6-3-3.6-4.9-6.5-4.2Z"/>
            <path class="cls-2" d="M352.4,344l-14.7-5.9c-3.8-1.5-7.8,1.8-6.9,5.8l3.7,17.2c.9,4,5.8,5.4,8.7,2.5l11-11.3c2.5-2.6,1.6-7-1.8-8.3h0Z"/>
            <path class="cls-2" d="M634,264.5l-34.5,7.4c-3,.6-4.9,3.5-4.2,6.5l7.4,34.5c.6,3,3.6,4.9,6.5,4.2l34.5-7.4c3-.6,4.9-3.6,4.2-6.5l-7.4-34.5c-.6-3-3.5-4.9-6.5-4.2Z"/>
            <path class="cls-2" d="M625.5,277.7l-12.7,2.7c-3,.6-4.9,3.6-4.2,6.5l2.7,12.7c.6,3,3.6,4.9,6.5,4.2l12.7-2.7c3-.6,4.9-3.5,4.2-6.5l-2.7-12.7c-.6-3-3.5-4.9-6.5-4.2Z"/>
            <path class="cls-2" d="M578.3,276.4l-34.5,7.4c-3,.6-4.9,3.5-4.2,6.5l7.4,34.5c.6,3,3.6,4.9,6.5,4.2l34.5-7.4c3-.6,4.9-3.6,4.2-6.5l-7.4-34.5c-.6-3-3.6-4.9-6.5-4.2Z"/>
            <path class="cls-2" d="M557.8,290.6l-3.1.7c-1.3.3-2.2,1.6-1.9,2.9l4.6,21.6c.3,1.3,1.6,2.2,3,1.9l3.1-.7c1.3-.3,2.2-1.6,1.9-2.9l-4.6-21.6c-.3-1.3-1.6-2.2-2.9-1.9h0Z"/>
            <path class="cls-2" d="M571.5,287.7l-3.1.7c-1.3.3-2.2,1.6-1.9,2.9l4.6,21.6c.3,1.3,1.6,2.2,3,1.9l3.1-.7c1.3-.3,2.2-1.6,1.9-2.9l-4.6-21.6c-.3-1.3-1.6-2.2-2.9-1.9h0Z"/>
            <path class="cls-2" d="M522.7,288.3l-34.5,7.4c-3,.6-4.9,3.6-4.2,6.5l7.4,34.5c.6,3,3.6,4.9,6.5,4.2l34.5-7.4c3-.6,4.9-3.6,4.2-6.5l-7.4-34.5c-.6-3-3.6-4.9-6.5-4.2Z"/>
            <path class="cls-2" d="M518.7,308.5l-14.7-5.9c-3.8-1.5-7.8,1.8-6.9,5.8l3.7,17.2c.9,4,5.8,5.4,8.7,2.5l11-11.3c2.5-2.6,1.6-7-1.8-8.3h0Z"/>
            <path class="cls-2" d="M800.3,229l-34.5,7.4c-3,.6-4.9,3.6-4.2,6.5l7.4,34.5c.6,3,3.6,4.9,6.5,4.2l34.5-7.4c3-.6,4.9-3.6,4.2-6.5l-7.4-34.5c-.6-3-3.6-4.9-6.5-4.2h0Z"/>
            <path class="cls-2" d="M791.8,242.2l-12.7,2.7c-3,.6-4.9,3.6-4.2,6.5l2.7,12.7c.6,3,3.6,4.9,6.5,4.2l12.7-2.7c3-.6,4.9-3.6,4.2-6.5l-2.7-12.7c-.6-3-3.6-4.9-6.5-4.2h0Z"/>
            <path class="cls-2" d="M744.6,240.9l-34.5,7.4c-3,.6-4.9,3.6-4.2,6.5l7.4,34.5c.6,3,3.5,4.9,6.5,4.2l34.5-7.4c3-.6,4.9-3.6,4.2-6.5l-7.4-34.5c-.6-3-3.5-4.9-6.5-4.2h0Z"/>
            <path class="cls-2" d="M724.1,255.1l-3.1.7c-1.3.3-2.2,1.6-1.9,3l4.6,21.6c.3,1.3,1.6,2.2,2.9,1.9l3.1-.7c1.3-.3,2.2-1.6,1.9-3l-4.6-21.6c-.3-1.3-1.6-2.2-2.9-1.9h0Z"/>
            <path class="cls-2" d="M737.8,252.2l-3.1.7c-1.3.3-2.2,1.6-1.9,2.9l4.6,21.6c.3,1.3,1.6,2.2,2.9,1.9l3.1-.7c1.3-.3,2.2-1.6,1.9-3l-4.6-21.6c-.3-1.3-1.6-2.2-2.9-1.9h0Z"/>
            <path class="cls-2" d="M688.9,252.8l-34.5,7.4c-3,.6-4.9,3.6-4.2,6.5l7.4,34.5c.6,3,3.5,4.9,6.5,4.2l34.5-7.4c3-.6,4.9-3.6,4.2-6.5l-7.4-34.5c-.6-3-3.5-4.9-6.5-4.2h0Z"/>
            <path class="cls-2" d="M685,273l-14.7-5.9c-3.8-1.5-7.8,1.8-6.9,5.8l3.7,17.2c.9,4,5.8,5.4,8.7,2.5l11-11.3c2.5-2.6,1.6-7-1.8-8.3h0Z"/>
            <path class="cls-2" d="M966.6,193.5l-34.5,7.4c-3,.6-4.9,3.6-4.2,6.5l7.4,34.5c.6,3,3.6,4.9,6.5,4.2l34.5-7.4c3-.6,4.9-3.6,4.2-6.5l-7.4-34.5c-.6-3-3.6-4.9-6.5-4.2Z"/>
            <path class="cls-2" d="M958.1,206.7l-12.7,2.7c-3,.6-4.9,3.6-4.2,6.5l2.7,12.7c.6,3,3.5,4.9,6.5,4.2l12.7-2.7c3-.6,4.9-3.6,4.2-6.5l-2.7-12.7c-.6-3-3.6-4.9-6.5-4.2Z"/>
            <path class="cls-2" d="M910.9,205.4l-34.5,7.4c-3,.6-4.9,3.6-4.2,6.5l7.4,34.5c.6,3,3.6,4.9,6.5,4.2l34.5-7.4c3-.6,4.9-3.6,4.2-6.5l-7.4-34.5c-.6-3-3.6-4.9-6.5-4.2h0Z"/>
            <path class="cls-2" d="M890.4,219.6l-3.1.7c-1.3.3-2.2,1.6-1.9,2.9l4.6,21.6c.3,1.3,1.6,2.2,2.9,1.9l3.1-.7c1.3-.3,2.2-1.6,1.9-2.9l-4.6-21.6c-.3-1.3-1.6-2.2-3-1.9h0Z"/>
            <path class="cls-2" d="M904.1,216.7l-3.1.7c-1.3.3-2.2,1.6-1.9,2.9l4.6,21.6c.3,1.3,1.6,2.2,3,1.9l3.1-.7c1.3-.3,2.2-1.6,1.9-2.9l-4.6-21.6c-.3-1.3-1.6-2.2-2.9-1.9h0Z"/>
            <path class="cls-2" d="M855.2,217.3l-34.5,7.4c-3,.6-4.9,3.6-4.2,6.5l7.4,34.5c.6,3,3.6,4.9,6.5,4.2l34.5-7.4c3-.6,4.9-3.6,4.2-6.5l-7.4-34.5c-.6-3-3.6-4.9-6.5-4.2h0Z"/>
            <path class="cls-2" d="M851.3,237.5l-14.7-5.9c-3.8-1.5-7.8,1.8-6.9,5.8l3.7,17.2c.9,4,5.8,5.4,8.7,2.5l11-11.3c2.5-2.6,1.6-7-1.8-8.3h0Z"/>
            <path class="cls-2" d="M1021.5,181.8l-34.5,7.4c-3,.6-4.9,3.6-4.2,6.5l7.4,34.5c.6,3,3.6,4.9,6.5,4.2l34.5-7.4c3-.6,4.8-3.6,4.2-6.5l-7.4-34.5c-.6-3-3.6-4.9-6.5-4.2h0Z"/>
            <path class="cls-2" d="M1017.5,202l-14.7-5.9c-3.8-1.5-7.8,1.8-6.9,5.8l3.7,17.2c.9,4,5.8,5.4,8.7,2.5l11-11.3c2.5-2.6,1.6-7-1.8-8.3h0Z"/>
            <path class="cls-2" d="M92.3,438.8l-34.5,7.4c-3,.6-4.9,3.6-4.2,6.5l7.4,34.5c.6,3,3.6,4.9,6.5,4.2l34.5-7.4c3-.6,4.9-3.6,4.2-6.5l-7.4-34.5c-.6-3-3.6-4.9-6.5-4.2Z"/>
            <path class="cls-2" d="M83.8,451.9l-12.7,2.7c-3,.6-4.9,3.6-4.2,6.5l2.7,12.7c.6,3,3.6,4.9,6.5,4.2l12.7-2.7c3-.6,4.9-3.6,4.2-6.5l-2.7-12.7c-.6-3-3.6-4.9-6.5-4.2Z"/>
            <path class="cls-2" d="M36.6,450.7l-34.5,7.4c-3,.6-4.9,3.5-4.2,6.5l7.4,34.5c.6,3,3.6,4.9,6.5,4.2l34.5-7.4c3-.6,4.9-3.6,4.2-6.5l-7.4-34.5c-.6-3-3.6-4.9-6.5-4.2Z"/>
            <path class="cls-2" d="M16.1,464.8l-3.1.7c-1.3.3-2.2,1.6-1.9,2.9l4.6,21.6c.3,1.3,1.6,2.2,2.9,1.9l3.1-.7c1.3-.3,2.2-1.6,1.9-2.9l-4.6-21.6c-.3-1.3-1.6-2.2-2.9-1.9Z"/>
            <path class="cls-2" d="M29.8,461.9l-3.1.7c-1.3.3-2.2,1.6-1.9,3l4.6,21.6c.3,1.3,1.6,2.2,2.9,1.9l3.1-.7c1.3-.3,2.2-1.6,1.9-3l-4.6-21.6c-.3-1.3-1.6-2.2-2.9-1.9Z"/>
            <path class="cls-2" d="M258.6,403.3l-34.5,7.4c-3,.6-4.9,3.5-4.2,6.5l7.4,34.5c.6,3,3.6,4.9,6.5,4.2l34.5-7.4c3-.6,4.9-3.6,4.2-6.5l-7.4-34.5c-.6-3-3.5-4.9-6.5-4.2Z"/>
            <path class="cls-2" d="M250.1,416.4l-12.7,2.7c-3,.6-4.9,3.6-4.2,6.5l2.7,12.7c.6,3,3.6,4.9,6.5,4.2l12.7-2.7c3-.6,4.9-3.6,4.2-6.5l-2.7-12.7c-.6-3-3.5-4.9-6.5-4.2Z"/>
            <path class="cls-2" d="M202.9,415.2l-34.5,7.4c-3,.6-4.9,3.6-4.2,6.5l7.4,34.5c.6,3,3.6,4.9,6.5,4.2l34.5-7.4c3-.6,4.9-3.6,4.2-6.5l-7.4-34.5c-.6-3-3.6-4.9-6.5-4.2Z"/>
            <path class="cls-2" d="M182.4,429.4l-3.1.7c-1.3.3-2.2,1.6-1.9,2.9l4.6,21.6c.3,1.3,1.6,2.2,2.9,1.9l3.1-.7c1.3-.3,2.2-1.6,1.9-2.9l-4.6-21.6c-.3-1.3-1.6-2.2-2.9-1.9Z"/>
            <path class="cls-2" d="M196,426.4l-3.1.7c-1.3.3-2.2,1.6-1.9,2.9l4.6,21.6c.3,1.3,1.6,2.2,2.9,1.9l3.1-.7c1.3-.3,2.2-1.6,1.9-2.9l-4.6-21.6c-.3-1.3-1.6-2.2-2.9-1.9Z"/>
            <path class="cls-2" d="M147.2,427l-34.5,7.4c-3,.6-4.9,3.6-4.2,6.5l7.4,34.5c.6,3,3.6,4.9,6.5,4.2l34.5-7.4c3-.6,4.9-3.5,4.2-6.5l-7.4-34.5c-.6-3-3.6-4.9-6.5-4.2Z"/>
            <path class="cls-2" d="M143.2,447.2l-14.7-5.9c-3.8-1.5-7.8,1.8-6.9,5.8l3.7,17.2c.9,4,5.8,5.4,8.7,2.5l11-11.3c2.5-2.6,1.6-7-1.8-8.3h0Z"/>
            <path class="cls-2" d="M424.8,367.8l-34.5,7.4c-3,.6-4.9,3.6-4.2,6.5l7.4,34.5c.6,3,3.6,4.9,6.5,4.2l34.5-7.4c3-.6,4.9-3.6,4.2-6.5l-7.4-34.5c-.6-3-3.6-4.9-6.5-4.2Z"/>
            <path class="cls-2" d="M416.3,381l-12.7,2.7c-3,.6-4.9,3.6-4.2,6.5l2.7,12.7c.6,3,3.6,4.9,6.5,4.2l12.7-2.7c3-.6,4.9-3.6,4.2-6.5l-2.7-12.7c-.6-3-3.6-4.9-6.5-4.2Z"/>
            <path class="cls-2" d="M369.2,379.7l-34.5,7.4c-3,.6-4.9,3.6-4.2,6.5l7.4,34.5c.6,3,3.6,4.9,6.5,4.2l34.5-7.4c3-.6,4.9-3.6,4.2-6.5l-7.4-34.5c-.6-3-3.6-4.9-6.5-4.2Z"/>
            <path class="cls-2" d="M348.6,393.9l-3.1.7c-1.3.3-2.2,1.6-1.9,2.9l4.6,21.6c.3,1.3,1.6,2.2,2.9,1.9l3.1-.7c1.3-.3,2.2-1.6,1.9-2.9l-4.6-21.6c-.3-1.3-1.6-2.2-2.9-1.9Z"/>
            <path class="cls-2" d="M362.3,390.9l-3.1.7c-1.3.3-2.2,1.6-1.9,2.9l4.6,21.6c.3,1.3,1.6,2.2,2.9,1.9l3.1-.7c1.3-.3,2.2-1.6,1.9-2.9l-4.6-21.6c-.3-1.3-1.6-2.2-3-1.9h.1Z"/>
            <path class="cls-2" d="M313.5,391.5l-34.5,7.4c-3,.6-4.9,3.6-4.2,6.5l7.4,34.5c.6,3,3.6,4.9,6.5,4.2l34.5-7.4c3-.6,4.9-3.6,4.2-6.5l-7.4-34.5c-.6-3-3.6-4.9-6.5-4.2Z"/>
            <path class="cls-2" d="M309.5,411.7l-14.7-5.9c-3.8-1.5-7.8,1.8-6.9,5.8l3.7,17.2c.9,4,5.8,5.4,8.7,2.5l11-11.3c2.5-2.6,1.6-7-1.8-8.3h0Z"/>
            <path class="cls-2" d="M591.1,332.3l-34.5,7.4c-3,.6-4.9,3.5-4.2,6.5l7.4,34.5c.6,3,3.6,4.9,6.5,4.2l34.5-7.4c3-.6,4.9-3.6,4.2-6.5l-7.4-34.5c-.6-3-3.6-4.9-6.5-4.2Z"/>
            <path class="cls-2" d="M582.6,345.5l-12.7,2.7c-3,.6-4.9,3.6-4.2,6.5l2.7,12.7c.6,3,3.6,4.9,6.5,4.2l12.7-2.7c3-.6,4.9-3.6,4.2-6.5l-2.7-12.7c-.6-3-3.6-4.9-6.5-4.2Z"/>
            <path class="cls-2" d="M535.4,344.2l-34.5,7.4c-3,.6-4.9,3.6-4.2,6.5l7.4,34.5c.6,3,3.6,4.9,6.5,4.2l34.5-7.4c3-.6,4.9-3.6,4.2-6.5l-7.4-34.5c-.6-3-3.5-4.9-6.5-4.2h0Z"/>
            <path class="cls-2" d="M514.9,358.3l-3.1.7c-1.3.3-2.2,1.6-1.9,2.9l4.6,21.6c.3,1.3,1.6,2.2,2.9,1.9l3.1-.7c1.3-.3,2.2-1.6,1.9-3l-4.6-21.6c-.3-1.3-1.6-2.2-2.9-1.9h0Z"/>
            <path class="cls-2" d="M528.6,355.4l-3.1.7c-1.3.3-2.2,1.6-1.9,3l4.6,21.6c.3,1.3,1.6,2.2,3,1.9l3.1-.7c1.3-.3,2.2-1.6,1.9-3l-4.6-21.6c-.3-1.3-1.6-2.2-2.9-1.9h0Z"/>
            <path class="cls-2" d="M479.7,356l-34.5,7.4c-3,.6-4.9,3.5-4.2,6.5l7.4,34.5c.6,3,3.6,4.9,6.5,4.2l34.5-7.4c3-.6,4.9-3.6,4.2-6.5l-7.4-34.5c-.6-3-3.6-4.9-6.5-4.2Z"/>
            <path class="cls-2" d="M475.8,376.2l-14.7-5.9c-3.8-1.5-7.8,1.8-6.9,5.8l3.7,17.2c.9,4,5.8,5.4,8.7,2.5l11-11.3c2.5-2.6,1.6-7-1.8-8.3h0Z"/>
            <path class="cls-2" d="M757.4,296.8l-34.5,7.4c-3,.6-4.9,3.6-4.2,6.5l7.4,34.5c.6,3,3.5,4.9,6.5,4.2l34.5-7.4c3-.6,4.9-3.6,4.2-6.5l-7.4-34.5c-.6-3-3.5-4.9-6.5-4.2Z"/>
            <path class="cls-2" d="M748.9,310l-12.7,2.7c-3,.6-4.9,3.6-4.2,6.5l2.7,12.7c.6,3,3.6,4.9,6.5,4.2l12.7-2.7c3-.6,4.9-3.6,4.2-6.5l-2.7-12.7c-.6-3-3.5-4.9-6.5-4.2Z"/>
            <path class="cls-2" d="M701.7,308.7l-34.5,7.4c-3,.6-4.9,3.5-4.2,6.5l7.4,34.5c.6,3,3.6,4.9,6.5,4.2l34.5-7.4c3-.6,4.9-3.6,4.2-6.5l-7.4-34.5c-.6-3-3.6-4.9-6.5-4.2Z"/>
            <path class="cls-2" d="M681.2,322.9l-3.1.7c-1.3.3-2.2,1.6-1.9,2.9l4.6,21.6c.3,1.3,1.6,2.2,2.9,1.9l3.1-.7c1.3-.3,2.2-1.6,1.9-2.9l-4.6-21.6c-.3-1.3-1.6-2.2-3-1.9h0Z"/>
            <path class="cls-2" d="M694.9,319.9l-3.1.7c-1.3.3-2.2,1.6-1.9,2.9l4.6,21.6c.3,1.3,1.6,2.2,2.9,1.9l3.1-.7c1.3-.3,2.2-1.6,1.9-2.9l-4.6-21.6c-.3-1.3-1.6-2.2-2.9-1.9Z"/>
            <path class="cls-2" d="M646,320.5l-34.5,7.4c-3,.6-4.9,3.6-4.2,6.5l7.4,34.5c.6,3,3.5,4.9,6.5,4.2l34.5-7.4c3-.6,4.9-3.6,4.2-6.5l-7.4-34.5c-.6-3-3.5-4.9-6.5-4.2Z"/>
            <path class="cls-2" d="M642.1,340.8l-14.7-5.9c-3.8-1.5-7.8,1.8-6.9,5.8l3.7,17.2c.9,4,5.8,5.4,8.7,2.5l11-11.3c2.5-2.6,1.6-7-1.8-8.3h0Z"/>
            <path class="cls-2" d="M923.7,261.3l-34.5,7.4c-3,.6-4.9,3.6-4.2,6.5l7.4,34.5c.6,3,3.6,4.9,6.5,4.2l34.5-7.4c3-.6,4.9-3.6,4.2-6.5l-7.4-34.5c-.6-3-3.6-4.9-6.5-4.2Z"/>
            <path class="cls-2" d="M915.2,274.5l-12.7,2.7c-3,.6-4.9,3.6-4.2,6.5l2.7,12.7c.6,3,3.6,4.9,6.5,4.2l12.7-2.7c3-.6,4.9-3.6,4.2-6.5l-2.7-12.7c-.6-3-3.6-4.9-6.5-4.2Z"/>
            <path class="cls-2" d="M868,273.2l-34.5,7.4c-3,.6-4.9,3.6-4.2,6.5l7.4,34.5c.6,3,3.6,4.9,6.5,4.2l34.5-7.4c3-.6,4.9-3.6,4.2-6.5l-7.4-34.5c-.6-3-3.6-4.9-6.5-4.2Z"/>
            <path class="cls-2" d="M847.5,287.4l-3.1.7c-1.3.3-2.2,1.6-1.9,2.9l4.6,21.6c.3,1.3,1.6,2.2,3,1.9l3.1-.7c1.3-.3,2.2-1.6,1.9-2.9l-4.6-21.6c-.3-1.3-1.6-2.2-2.9-1.9h0Z"/>
            <path class="cls-2" d="M861.1,284.5l-3.1.7c-1.3.3-2.2,1.6-1.9,3l4.6,21.6c.3,1.3,1.6,2.2,2.9,1.9l3.1-.7c1.3-.3,2.2-1.6,1.9-3l-4.6-21.6c-.3-1.3-1.6-2.2-2.9-1.9Z"/>
            <path class="cls-2" d="M812.3,285.1l-34.5,7.4c-3,.6-4.9,3.5-4.2,6.5l7.4,34.5c.6,3,3.5,4.9,6.5,4.2l34.5-7.4c3-.6,4.9-3.6,4.2-6.5l-7.4-34.5c-.6-3-3.5-4.9-6.5-4.2Z"/>
            <path class="cls-2" d="M808.4,305.3l-14.7-5.9c-3.8-1.5-7.8,1.8-6.9,5.8l3.7,17.2c.9,4,5.8,5.4,8.7,2.5l11-11.3c2.5-2.6,1.6-7-1.8-8.3h0Z"/>
            <path class="cls-2" d="M1034.3,237.7l-34.5,7.4c-3,.6-4.9,3.6-4.2,6.5l7.3,34.5c.6,3,3.6,4.9,6.5,4.2l34.5-7.4c3-.6,4.8-3.6,4.2-6.5l-7.3-34.5c-.6-3-3.6-4.9-6.5-4.2h0Z"/>
            <path class="cls-2" d="M978.6,249.6l-34.5,7.4c-3,.6-4.9,3.6-4.2,6.5l7.4,34.5c.6,3,3.6,4.9,6.5,4.2l34.5-7.4c3-.6,4.9-3.6,4.2-6.5l-7.4-34.5c-.6-3-3.6-4.9-6.5-4.2h0Z"/>
            <path class="cls-2" d="M974.6,269.8l-14.7-5.9c-3.8-1.5-7.8,1.8-6.9,5.8l3.7,17.2c.9,4,5.8,5.4,8.7,2.5l11-11.3c2.5-2.6,1.6-7-1.8-8.3h0Z"/>
            <path class="cls-2" d="M-7.2,518.6l-34.5,7.4c-3,.6-4.9,3.6-4.2,6.5l7.4,34.5c.6,3,3.6,4.9,6.5,4.2l34.5-7.4c3-.6,4.9-3.6,4.2-6.5l-7.4-34.5c-.6-3-3.6-4.9-6.5-4.2Z"/>
            <path class="cls-2" d="M159.1,483.1l-34.5,7.4c-3,.6-4.9,3.6-4.2,6.5l7.4,34.5c.6,3,3.6,4.9,6.5,4.2l34.5-7.4c3-.6,4.9-3.5,4.2-6.5l-7.4-34.5c-.6-3-3.6-4.9-6.5-4.2h0Z"/>
            <path class="cls-2" d="M150.6,496.3l-12.7,2.7c-3,.6-4.9,3.6-4.2,6.5l2.7,12.7c.6,3,3.6,4.9,6.5,4.2l12.7-2.7c3-.6,4.9-3.6,4.2-6.5l-2.7-12.7c-.6-3-3.6-4.9-6.5-4.2Z"/>
            <path class="cls-2" d="M103.4,495l-34.5,7.4c-3,.6-4.9,3.6-4.2,6.5l7.4,34.5c.6,3,3.6,4.9,6.5,4.2l34.5-7.4c3-.6,4.9-3.6,4.2-6.5l-7.4-34.5c-.6-3-3.6-4.9-6.5-4.2Z"/>
            <path class="cls-2" d="M82.9,509.2l-3.1.7c-1.3.3-2.2,1.6-1.9,3l4.6,21.6c.3,1.3,1.6,2.2,2.9,1.9l3.1-.7c1.3-.3,2.2-1.6,1.9-3l-4.6-21.6c-.3-1.3-1.6-2.2-2.9-1.9Z"/>
            <path class="cls-2" d="M96.6,506.2l-3.1.7c-1.3.3-2.2,1.6-1.9,2.9l4.6,21.6c.3,1.3,1.6,2.2,2.9,1.9l3.1-.7c1.3-.3,2.2-1.6,1.9-2.9l-4.6-21.6c-.3-1.3-1.6-2.2-2.9-1.9Z"/>
            <path class="cls-2" d="M47.8,506.9l-34.5,7.4c-3,.6-4.9,3.6-4.2,6.5l7.4,34.5c.6,3,3.6,4.9,6.5,4.2l34.5-7.4c3-.6,4.9-3.6,4.2-6.5l-7.4-34.5c-.6-3-3.6-4.9-6.5-4.2h0Z"/>
            <path class="cls-2" d="M43.8,527l-14.7-5.9c-3.8-1.5-7.8,1.8-6.9,5.8l3.7,17.2c.9,4,5.8,5.4,8.7,2.5l11-11.3c2.5-2.6,1.6-7-1.8-8.3h0Z"/>
            <path class="cls-2" d="M325.4,447.6l-34.5,7.4c-3,.6-4.9,3.6-4.2,6.5l7.4,34.5c.6,3,3.6,4.9,6.5,4.2l34.5-7.4c3-.6,4.9-3.6,4.2-6.5l-7.4-34.5c-.6-3-3.6-4.9-6.5-4.2Z"/>
            <path class="cls-2" d="M316.9,460.8l-12.7,2.7c-3,.6-4.9,3.6-4.2,6.5l2.7,12.7c.6,3,3.6,4.9,6.5,4.2l12.7-2.7c3-.6,4.9-3.6,4.2-6.5l-2.7-12.7c-.6-3-3.6-4.9-6.5-4.2Z"/>
            <path class="cls-2" d="M269.7,459.5l-34.5,7.4c-3,.6-4.9,3.6-4.2,6.5l7.4,34.5c.6,3,3.6,4.9,6.5,4.2l34.5-7.4c3-.6,4.9-3.6,4.2-6.5l-7.4-34.5c-.6-3-3.6-4.9-6.5-4.2h0Z"/>
            <path class="cls-2" d="M249.2,473.7l-3.1.7c-1.3.3-2.2,1.6-1.9,3l4.6,21.6c.3,1.3,1.6,2.2,2.9,1.9l3.1-.7c1.3-.3,2.2-1.6,1.9-3l-4.6-21.6c-.3-1.3-1.6-2.2-3-1.9h0Z"/>
            <path class="cls-2" d="M262.9,470.7l-3.1.7c-1.3.3-2.2,1.6-1.9,2.9l4.6,21.6c.3,1.3,1.6,2.2,2.9,1.9l3.1-.7c1.3-.3,2.2-1.6,1.9-2.9l-4.6-21.6c-.3-1.3-1.6-2.2-2.9-1.9Z"/>
            <path class="cls-2" d="M214,471.4l-34.5,7.4c-3,.6-4.9,3.6-4.2,6.5l7.4,34.5c.6,3,3.6,4.9,6.5,4.2l34.5-7.4c3-.6,4.9-3.6,4.2-6.5l-7.4-34.5c-.6-3-3.6-4.9-6.5-4.2h0Z"/>
            <path class="cls-2" d="M210.1,491.5l-14.7-5.9c-3.8-1.5-7.8,1.8-6.9,5.8l3.7,17.2c.9,4,5.8,5.4,8.7,2.5l11-11.3c2.5-2.6,1.6-7-1.8-8.3h0Z"/>
            <path class="cls-2" d="M491.7,412.1l-34.5,7.4c-3,.6-4.9,3.6-4.2,6.5l7.4,34.5c.6,3,3.6,4.9,6.5,4.2l34.5-7.4c3-.6,4.9-3.5,4.2-6.5l-7.4-34.5c-.6-3-3.6-4.9-6.5-4.2Z"/>
            <path class="cls-2" d="M483.2,425.3l-12.7,2.7c-3,.6-4.9,3.6-4.2,6.5l2.7,12.7c.6,3,3.6,4.9,6.5,4.2l12.7-2.7c3-.6,4.9-3.5,4.2-6.5l-2.7-12.7c-.6-3-3.6-4.9-6.5-4.2Z"/>
            <path class="cls-2" d="M436,424l-34.5,7.4c-3,.6-4.9,3.6-4.2,6.5l7.4,34.5c.6,3,3.5,4.9,6.5,4.2l34.5-7.4c3-.6,4.9-3.6,4.2-6.5l-7.4-34.5c-.6-3-3.5-4.9-6.5-4.2Z"/>
            <path class="cls-2" d="M415.5,438.2l-3.1.7c-1.3.3-2.2,1.6-1.9,3l4.6,21.6c.3,1.3,1.6,2.2,3,1.9l3.1-.7c1.3-.3,2.2-1.6,1.9-2.9l-4.6-21.6c-.3-1.3-1.6-2.2-2.9-1.9h-.1Z"/>
            <path class="cls-2" d="M429.1,435.3l-3.1.7c-1.3.3-2.2,1.6-1.9,2.9l4.6,21.6c.3,1.3,1.6,2.2,3,1.9l3.1-.7c1.3-.3,2.2-1.6,1.9-3l-4.6-21.6c-.3-1.3-1.6-2.2-3-1.9h0Z"/>
            <path class="cls-2" d="M380.3,435.9l-34.5,7.4c-3,.6-4.9,3.6-4.2,6.5l7.4,34.5c.6,3,3.6,4.9,6.5,4.2l34.5-7.4c3-.6,4.9-3.6,4.2-6.5l-7.4-34.5c-.6-3-3.6-4.9-6.5-4.2Z"/>
            <path class="cls-2" d="M376.3,456.1l-14.7-5.9c-3.8-1.5-7.8,1.8-6.9,5.8l3.7,17.2c.9,4,5.8,5.4,8.7,2.5l11-11.3c2.5-2.6,1.6-7-1.8-8.3h0Z"/>
            <path class="cls-2" d="M658,376.6l-34.5,7.4c-3,.6-4.9,3.6-4.2,6.5l7.4,34.5c.6,3,3.6,4.9,6.5,4.2l34.5-7.4c3-.6,4.9-3.6,4.2-6.5l-7.4-34.5c-.6-3-3.6-4.9-6.5-4.2Z"/>
            <path class="cls-2" d="M649.5,389.8l-12.7,2.7c-3,.6-4.9,3.6-4.2,6.5l2.7,12.7c.6,3,3.5,4.9,6.5,4.2l12.7-2.7c3-.6,4.9-3.6,4.2-6.5l-2.7-12.7c-.6-3-3.6-4.9-6.5-4.2Z"/>
            <path class="cls-2" d="M602.3,388.5l-34.5,7.4c-3,.6-4.9,3.6-4.2,6.5l7.4,34.5c.6,3,3.6,4.9,6.5,4.2l34.5-7.4c3-.6,4.9-3.6,4.2-6.5l-7.4-34.5c-.6-3-3.6-4.9-6.5-4.2Z"/>
            <path class="cls-2" d="M581.8,402.7l-3.1.7c-1.3.3-2.2,1.6-1.9,2.9l4.6,21.6c.3,1.3,1.6,2.2,3,1.9l3.1-.7c1.3-.3,2.2-1.6,1.9-2.9l-4.6-21.6c-.3-1.3-1.6-2.2-2.9-1.9h0Z"/>
            <path class="cls-2" d="M595.4,399.8l-3.1.7c-1.3.3-2.2,1.6-1.9,2.9l4.6,21.6c.3,1.3,1.6,2.2,3,1.9l3.1-.7c1.3-.3,2.2-1.6,1.9-3l-4.6-21.6c-.3-1.3-1.6-2.2-2.9-1.9h0Z"/>
            <path class="cls-2" d="M546.6,400.4l-34.5,7.4c-3,.6-4.9,3.6-4.2,6.5l7.4,34.5c.6,3,3.6,4.9,6.5,4.2l34.5-7.4c3-.6,4.9-3.6,4.2-6.5l-7.4-34.5c-.6-3-3.6-4.9-6.5-4.2Z"/>
            <path class="cls-2" d="M542.6,420.6l-14.7-5.9c-3.8-1.5-7.8,1.8-6.9,5.8l3.7,17.2c.9,4,5.8,5.4,8.7,2.5l11-11.3c2.5-2.6,1.6-7-1.8-8.3h0Z"/>
            <path class="cls-2" d="M824.2,341.1l-34.5,7.4c-3,.6-4.9,3.6-4.2,6.5l7.4,34.5c.6,3,3.5,4.9,6.5,4.2l34.5-7.4c3-.6,4.9-3.6,4.2-6.5l-7.4-34.5c-.6-3-3.5-4.9-6.5-4.2Z"/>
            <path class="cls-2" d="M815.7,354.3l-12.7,2.7c-3,.6-4.9,3.5-4.2,6.5l2.7,12.7c.6,3,3.6,4.9,6.5,4.2l12.7-2.7c3-.6,4.9-3.6,4.2-6.5l-2.7-12.7c-.6-3-3.5-4.9-6.5-4.2Z"/>
            <path class="cls-2" d="M768.5,353l-34.5,7.4c-3,.6-4.9,3.6-4.2,6.5l7.4,34.5c.6,3,3.6,4.9,6.5,4.2l34.5-7.4c3-.6,4.9-3.6,4.2-6.5l-7.4-34.5c-.6-3-3.6-4.9-6.5-4.2Z"/>
            <path class="cls-2" d="M748,367.2l-3.1.7c-1.3.3-2.2,1.6-1.9,2.9l4.6,21.6c.3,1.3,1.6,2.2,2.9,1.9l3.1-.7c1.3-.3,2.2-1.6,1.9-2.9l-4.6-21.6c-.3-1.3-1.6-2.2-2.9-1.9Z"/>
            <path class="cls-2" d="M761.7,364.3l-3.1.7c-1.3.3-2.2,1.6-1.9,2.9l4.6,21.6c.3,1.3,1.6,2.2,2.9,1.9l3.1-.7c1.3-.3,2.2-1.6,1.9-2.9l-4.6-21.6c-.3-1.3-1.6-2.2-2.9-1.9Z"/>
            <path class="cls-2" d="M712.9,364.9l-34.5,7.4c-3,.6-4.9,3.6-4.2,6.5l7.4,34.5c.6,3,3.6,4.9,6.5,4.2l34.5-7.4c3-.6,4.9-3.6,4.2-6.5l-7.4-34.5c-.6-3-3.6-4.9-6.5-4.2Z"/>
            <path class="cls-2" d="M708.9,385.1l-14.7-5.9c-3.8-1.5-7.8,1.8-6.9,5.8l3.7,17.2c.9,4,5.8,5.4,8.7,2.5l11-11.3c2.5-2.6,1.6-7-1.8-8.3h0Z"/>
            <path class="cls-2" d="M990.5,305.6l-34.5,7.4c-3,.6-4.9,3.6-4.2,6.5l7.4,34.5c.6,3,3.6,4.9,6.5,4.2l34.5-7.4c3-.6,4.9-3.6,4.2-6.5l-7.4-34.5c-.6-3-3.6-4.9-6.5-4.2Z"/>
            <path class="cls-2" d="M982,318.8l-12.7,2.7c-3,.6-4.9,3.6-4.2,6.5l2.7,12.7c.6,3,3.6,4.9,6.5,4.2l12.7-2.7c3-.6,4.9-3.6,4.2-6.5l-2.7-12.7c-.6-3-3.6-4.9-6.5-4.2Z"/>
            <path class="cls-2" d="M934.8,317.5l-34.5,7.4c-3,.6-4.9,3.6-4.2,6.5l7.4,34.5c.6,3,3.5,4.9,6.5,4.2l34.5-7.4c3-.6,4.9-3.5,4.2-6.5l-7.4-34.5c-.6-3-3.5-4.9-6.5-4.2Z"/>
            <path class="cls-2" d="M914.3,331.7l-3.1.7c-1.3.3-2.2,1.6-1.9,2.9l4.6,21.6c.3,1.3,1.6,2.2,3,1.9l3.1-.7c1.3-.3,2.2-1.6,1.9-2.9l-4.6-21.6c-.3-1.3-1.6-2.2-2.9-1.9h0Z"/>
            <path class="cls-2" d="M928,328.8l-3.1.7c-1.3.3-2.2,1.6-1.9,3l4.6,21.6c.3,1.3,1.6,2.2,3,1.9l3.1-.7c1.3-.3,2.2-1.6,1.9-2.9l-4.6-21.6c-.3-1.3-1.6-2.2-3-1.9h0Z"/>
            <path class="cls-2" d="M879.1,329.4l-34.5,7.4c-3,.6-4.9,3.5-4.2,6.5l7.4,34.5c.6,3,3.6,4.9,6.5,4.2l34.5-7.4c3-.6,4.9-3.6,4.2-6.5l-7.4-34.5c-.6-3-3.6-4.9-6.5-4.2Z"/>
            <path class="cls-2" d="M875.2,349.6l-14.7-5.9c-3.8-1.5-7.8,1.8-6.9,5.8l3.7,17.2c.9,4,5.8,5.4,8.7,2.5l11-11.3c2.5-2.6,1.6-7-1.8-8.3h0Z"/>
            <path class="cls-2" d="M116.2,550.8l-34.5,7.4c-3,.6-4.9,3.5-4.2,6.5l7.4,34.5c.6,3,3.6,4.9,6.5,4.2l34.5-7.4c3-.6,4.9-3.6,4.2-6.5l-7.4-34.5c-.6-3-3.6-4.9-6.5-4.2Z"/>
            <path class="cls-2" d="M107.7,564l-12.7,2.7c-3,.6-4.9,3.6-4.2,6.5l2.7,12.7c.6,3,3.6,4.9,6.5,4.2l12.7-2.7c3-.6,4.9-3.6,4.2-6.5l-2.7-12.7c-.6-3-3.6-4.9-6.5-4.2Z"/>
            <path class="cls-2" d="M60.5,562.7l-34.5,7.4c-3,.6-4.9,3.6-4.2,6.5l7.4,34.5c.6,3,3.6,4.9,6.5,4.2l34.5-7.4c3-.6,4.9-3.6,4.2-6.5l-7.4-34.5c-.6-3-3.6-4.9-6.5-4.2Z"/>
            <path class="cls-2" d="M40,576.9l-3.1.7c-1.3.3-2.2,1.6-1.9,2.9l4.6,21.6c.3,1.3,1.6,2.2,2.9,1.9l3.1-.7c1.3-.3,2.2-1.6,1.9-2.9l-4.6-21.6c-.3-1.3-1.6-2.2-2.9-1.9Z"/>
            <path class="cls-2" d="M53.7,574l-3.1.7c-1.3.3-2.2,1.6-1.9,3l4.6,21.6c.3,1.3,1.6,2.2,2.9,1.9l3.1-.7c1.3-.3,2.2-1.6,1.9-3l-4.6-21.6c-.3-1.3-1.6-2.2-2.9-1.9Z"/>
            <path class="cls-2" d="M4.8,574.6l-34.5,7.4c-3,.6-4.9,3.5-4.2,6.5l7.4,34.5c.6,3,3.6,4.9,6.5,4.2l34.5-7.4c3-.6,4.9-3.5,4.2-6.5l-7.4-34.5c-.6-3-3.6-4.9-6.5-4.2Z"/>
            <path class="cls-2" d="M.9,594.8l-14.7-5.9c-3.8-1.5-7.8,1.8-6.9,5.8l3.7,17.2c.9,4,5.8,5.4,8.7,2.5l11-11.3c2.5-2.6,1.6-7-1.8-8.3h0Z"/>
            <path class="cls-2" d="M282.5,515.3l-34.5,7.4c-3,.6-4.9,3.6-4.2,6.5l7.4,34.5c.6,3,3.6,4.9,6.5,4.2l34.5-7.4c3-.6,4.9-3.6,4.2-6.5l-7.4-34.5c-.6-3-3.6-4.9-6.5-4.2h0Z"/>
            <path class="cls-2" d="M274,528.5l-12.7,2.7c-3,.6-4.9,3.5-4.2,6.5l2.7,12.7c.6,3,3.6,4.9,6.5,4.2l12.7-2.7c3-.6,4.9-3.6,4.2-6.5l-2.7-12.7c-.6-3-3.6-4.9-6.5-4.2Z"/>
            <path class="cls-2" d="M226.8,527.2l-34.5,7.4c-3,.6-4.9,3.5-4.2,6.5l7.4,34.5c.6,3,3.6,4.9,6.5,4.2l34.5-7.4c3-.6,4.9-3.5,4.2-6.5l-7.4-34.5c-.6-3-3.6-4.9-6.5-4.2Z"/>
            <path class="cls-2" d="M206.3,541.4l-3.1.7c-1.3.3-2.2,1.6-1.9,3l4.6,21.6c.3,1.3,1.6,2.2,3,1.9l3.1-.7c1.3-.3,2.2-1.6,1.9-2.9l-4.6-21.6c-.3-1.3-1.6-2.2-2.9-1.9h-.1Z"/>
            <path class="cls-2" d="M220,538.5l-3.1.7c-1.3.3-2.2,1.6-1.9,3l4.6,21.6c.3,1.3,1.6,2.2,2.9,1.9l3.1-.7c1.3-.3,2.2-1.6,1.9-2.9l-4.6-21.6c-.3-1.3-1.6-2.2-2.9-1.9h0Z"/>
            <path class="cls-2" d="M171.1,539.1l-34.5,7.4c-3,.6-4.9,3.6-4.2,6.5l7.4,34.5c.6,3,3.6,4.9,6.5,4.2l34.5-7.4c3-.6,4.9-3.6,4.2-6.5l-7.4-34.5c-.6-3-3.6-4.9-6.5-4.2Z"/>
            <path class="cls-2" d="M167.1,559.3l-14.7-5.9c-3.8-1.5-7.8,1.8-6.9,5.8l3.7,17.2c.9,4,5.8,5.4,8.7,2.5l11-11.3c2.5-2.6,1.6-7-1.8-8.3h0Z"/>
            <path class="cls-2" d="M448.8,479.9l-34.5,7.4c-3,.6-4.9,3.5-4.2,6.5l7.4,34.5c.6,3,3.6,4.9,6.5,4.2l34.5-7.4c3-.6,4.9-3.6,4.2-6.5l-7.4-34.5c-.6-3-3.6-4.9-6.5-4.2h0Z"/>
            <path class="cls-2" d="M440.3,493l-12.7,2.7c-3,.6-4.9,3.6-4.2,6.5l2.7,12.7c.6,3,3.6,4.9,6.5,4.2l12.7-2.7c3-.6,4.9-3.6,4.2-6.5l-2.7-12.7c-.6-3-3.5-4.9-6.5-4.2Z"/>
            <path class="cls-2" d="M393.1,491.7l-34.5,7.4c-3,.6-4.9,3.6-4.2,6.5l7.4,34.5c.6,3,3.6,4.9,6.5,4.2l34.5-7.4c3-.6,4.9-3.5,4.2-6.5l-7.4-34.5c-.6-3-3.6-4.9-6.5-4.2h0Z"/>
            <path class="cls-2" d="M372.5,505.9l-3.1.7c-1.3.3-2.2,1.6-1.9,2.9l4.6,21.6c.3,1.3,1.6,2.2,2.9,1.9l3.1-.7c1.3-.3,2.2-1.6,1.9-2.9l-4.6-21.6c-.3-1.3-1.6-2.2-2.9-1.9h0Z"/>
            <path class="cls-2" d="M386.2,503l-3.1.7c-1.3.3-2.2,1.6-1.9,3l4.6,21.6c.3,1.3,1.6,2.2,2.9,1.9l3.1-.7c1.3-.3,2.2-1.6,1.9-2.9l-4.6-21.6c-.3-1.3-1.6-2.2-2.9-1.9h0Z"/>
            <path class="cls-2" d="M337.4,503.6l-34.5,7.4c-3,.6-4.9,3.6-4.2,6.5l7.4,34.5c.6,3,3.6,4.9,6.5,4.2l34.5-7.4c3-.6,4.9-3.6,4.2-6.5l-7.4-34.5c-.6-3-3.5-4.9-6.5-4.2h0Z"/>
            <path class="cls-2" d="M333.4,523.8l-14.7-5.9c-3.8-1.5-7.8,1.8-6.9,5.8l3.7,17.2c.9,4,5.8,5.4,8.7,2.5l11-11.3c2.5-2.6,1.6-7-1.8-8.3h0Z"/>
            <path class="cls-2" d="M615,444.3l-34.5,7.4c-3,.6-4.9,3.6-4.2,6.5l7.4,34.5c.6,3,3.6,4.9,6.5,4.2l34.5-7.4c3-.6,4.9-3.5,4.2-6.5l-7.4-34.5c-.6-3-3.6-4.9-6.5-4.2Z"/>
            <path class="cls-2" d="M606.5,457.5l-12.7,2.7c-3,.6-4.9,3.6-4.2,6.5l2.7,12.7c.6,3,3.5,4.9,6.5,4.2l12.7-2.7c3-.6,4.9-3.6,4.2-6.5l-2.7-12.7c-.6-3-3.6-4.9-6.5-4.2Z"/>
            <path class="cls-2" d="M559.4,456.2l-34.5,7.4c-3,.6-4.9,3.6-4.2,6.5l7.4,34.5c.6,3,3.5,4.9,6.5,4.2l34.5-7.4c3-.6,4.9-3.6,4.2-6.5l-7.4-34.5c-.6-3-3.6-4.9-6.5-4.2Z"/>
            <path class="cls-2" d="M538.8,470.4l-3.1.7c-1.3.3-2.2,1.6-1.9,2.9l4.6,21.6c.3,1.3,1.6,2.2,2.9,1.9l3.1-.7c1.3-.3,2.2-1.6,1.9-2.9l-4.6-21.6c-.3-1.3-1.6-2.2-2.9-1.9Z"/>
            <path class="cls-2" d="M552.5,467.5l-3.1.7c-1.3.3-2.2,1.6-1.9,2.9l4.6,21.6c.3,1.3,1.6,2.2,2.9,1.9l3.1-.7c1.3-.3,2.2-1.6,1.9-2.9l-4.6-21.6c-.3-1.3-1.6-2.2-2.9-1.9Z"/>
            <path class="cls-2" d="M503.7,468.1l-34.5,7.4c-3,.6-4.9,3.6-4.2,6.5l7.4,34.5c.6,3,3.6,4.9,6.5,4.2l34.5-7.4c3-.6,4.9-3.6,4.2-6.5l-7.4-34.5c-.6-3-3.6-4.9-6.5-4.2h0Z"/>
            <path class="cls-2" d="M499.7,488.3l-14.7-5.9c-3.8-1.5-7.8,1.8-6.9,5.8l3.7,17.2c.9,4,5.8,5.4,8.7,2.5l11-11.3c2.5-2.6,1.6-7-1.8-8.3h0Z"/>
            <path class="cls-2" d="M781.3,408.9l-34.5,7.4c-3,.6-4.9,3.6-4.2,6.5l7.4,34.5c.6,3,3.6,4.9,6.5,4.2l34.5-7.4c3-.6,4.9-3.6,4.2-6.5l-7.4-34.5c-.6-3-3.5-4.9-6.5-4.2Z"/>
            <path class="cls-2" d="M772.8,422l-12.7,2.7c-3,.6-4.9,3.6-4.2,6.5l2.7,12.7c.6,3,3.6,4.9,6.5,4.2l12.7-2.7c3-.6,4.9-3.6,4.2-6.5l-2.7-12.7c-.6-3-3.6-4.9-6.5-4.2Z"/>
            <path class="cls-2" d="M725.6,420.8l-34.5,7.4c-3,.6-4.9,3.6-4.2,6.5l7.4,34.5c.6,3,3.6,4.9,6.5,4.2l34.5-7.4c3-.6,4.9-3.5,4.2-6.5l-7.4-34.5c-.6-3-3.6-4.9-6.5-4.2Z"/>
            <path class="cls-2" d="M705.1,434.9l-3.1.7c-1.3.3-2.2,1.6-1.9,2.9l4.6,21.6c.3,1.3,1.6,2.2,3,1.9l3.1-.7c1.3-.3,2.2-1.6,1.9-2.9l-4.6-21.6c-.3-1.3-1.6-2.2-3-1.9Z"/>
            <path class="cls-2" d="M718.8,432l-3.1.7c-1.3.3-2.2,1.6-1.9,2.9l4.6,21.6c.3,1.3,1.6,2.2,2.9,1.9l3.1-.7c1.3-.3,2.2-1.6,1.9-3l-4.6-21.6c-.3-1.3-1.6-2.2-2.9-1.9h0Z"/>
            <path class="cls-2" d="M670,432.6l-34.5,7.4c-3,.6-4.9,3.5-4.2,6.5l7.4,34.5c.6,3,3.6,4.9,6.5,4.2l34.5-7.4c3-.6,4.9-3.6,4.2-6.5l-7.4-34.5c-.6-3-3.6-4.9-6.5-4.2Z"/>
            <path class="cls-2" d="M666,452.8l-14.7-5.9c-3.8-1.5-7.8,1.8-6.9,5.8l3.7,17.2c.9,4,5.8,5.4,8.7,2.5l11-11.3c2.5-2.6,1.6-7-1.8-8.3h0Z"/>
            <path class="cls-2" d="M947.6,373.4l-34.5,7.4c-3,.6-4.9,3.5-4.2,6.5l7.4,34.5c.6,3,3.6,4.9,6.5,4.2l34.5-7.4c3-.6,4.9-3.6,4.2-6.5l-7.4-34.5c-.6-3-3.6-4.9-6.5-4.2Z"/>
            <path class="cls-2" d="M939.1,386.5l-12.7,2.7c-3,.6-4.9,3.6-4.2,6.5l2.7,12.7c.6,3,3.5,4.9,6.5,4.2l12.7-2.7c3-.6,4.9-3.6,4.2-6.5l-2.7-12.7c-.6-3-3.6-4.9-6.5-4.2Z"/>
            <path class="cls-2" d="M891.9,385.3l-34.5,7.4c-3,.6-4.9,3.6-4.2,6.5l7.4,34.5c.6,3,3.6,4.9,6.5,4.2l34.5-7.4c3-.6,4.9-3.6,4.2-6.5l-7.4-34.5c-.6-3-3.6-4.9-6.5-4.2Z"/>
            <path class="cls-2" d="M871.4,399.4l-3.1.7c-1.3.3-2.2,1.6-1.9,3l4.6,21.6c.3,1.3,1.6,2.2,3,1.9l3.1-.7c1.3-.3,2.2-1.6,1.9-3l-4.6-21.6c-.3-1.3-1.6-2.2-2.9-1.9h0Z"/>
            <path class="cls-2" d="M885.1,396.5l-3.1.7c-1.3.3-2.2,1.6-1.9,3l4.6,21.6c.3,1.3,1.6,2.2,2.9,1.9l3.1-.7c1.3-.3,2.2-1.6,1.9-3l-4.6-21.6c-.3-1.3-1.6-2.2-2.9-1.9Z"/>
            <path class="cls-2" d="M836.2,397.1l-34.5,7.4c-3,.6-4.9,3.6-4.2,6.5l7.4,34.5c.6,3,3.5,4.9,6.5,4.2l34.5-7.4c3-.6,4.9-3.6,4.2-6.5l-7.4-34.5c-.6-3-3.5-4.9-6.5-4.2Z"/>
            <path class="cls-2" d="M832.3,417.4l-14.7-5.9c-3.8-1.5-7.8,1.8-6.9,5.8l3.7,17.2c.9,4,5.8,5.4,8.7,2.5l11-11.3c2.5-2.6,1.6-7-1.8-8.3h0Z"/>
            <path class="cls-2" d="M1002.5,361.6l-34.5,7.4c-3,.6-4.9,3.6-4.2,6.5l7.4,34.5c.6,3,3.6,4.9,6.5,4.2l34.5-7.4c3-.6,4.9-3.6,4.2-6.5l-7.4-34.5c-.6-3-3.6-4.9-6.5-4.2Z"/>
            <path class="cls-2" d="M998.6,381.9l-14.7-5.9c-3.8-1.5-7.8,1.8-6.9,5.8l3.7,17.2c.9,4,5.8,5.4,8.7,2.5l11-11.3c2.5-2.6,1.6-7-1.8-8.3h0Z"/>
            <path class="cls-2" d="M183.1,595.2l-34.5,7.4c-3,.6-4.9,3.6-4.2,6.5l7.4,34.5c.6,3,3.6,4.9,6.5,4.2l34.5-7.4c3-.6,4.9-3.6,4.2-6.5l-7.4-34.5c-.6-3-3.6-4.9-6.5-4.2Z"/>
            <path class="cls-2" d="M349.3,559.7l-34.5,7.4c-3,.6-4.9,3.5-4.2,6.5l7.4,34.5c.6,3,3.6,4.9,6.5,4.2l34.5-7.4c3-.6,4.9-3.5,4.2-6.5l-7.4-34.5c-.6-3-3.6-4.9-6.5-4.2Z"/>
            <path class="cls-2" d="M340.8,572.8l-12.7,2.7c-3,.6-4.9,3.6-4.2,6.5l2.7,12.7c.6,3,3.6,4.9,6.5,4.2l12.7-2.7c3-.6,4.9-3.6,4.2-6.5l-2.7-12.7c-.6-3-3.5-4.9-6.5-4.2Z"/>
            <path class="cls-2" d="M293.6,571.6l-34.5,7.4c-3,.6-4.9,3.6-4.2,6.5l7.4,34.5c.6,3,3.6,4.9,6.5,4.2l34.5-7.4c3-.6,4.9-3.6,4.2-6.5l-7.4-34.5c-.6-3-3.6-4.9-6.5-4.2h0Z"/>
            <path class="cls-2" d="M273.1,585.7l-3.1.7c-1.3.3-2.2,1.6-1.9,3l4.6,21.6c.3,1.3,1.6,2.2,2.9,1.9l3.1-.7c1.3-.3,2.2-1.6,1.9-3l-4.6-21.6c-.3-1.3-1.6-2.2-2.9-1.9Z"/>
            <path class="cls-2" d="M286.8,582.8l-3.1.7c-1.3.3-2.2,1.6-1.9,3l4.6,21.6c.3,1.3,1.6,2.2,3,1.9l3.1-.7c1.3-.3,2.2-1.6,1.9-3l-4.6-21.6c-.3-1.3-1.6-2.2-2.9-1.9h-.1Z"/>
            <path class="cls-2" d="M238,583.5l-34.5,7.4c-3,.6-4.9,3.6-4.2,6.5l7.4,34.5c.6,3,3.6,4.9,6.5,4.2l34.5-7.4c3-.6,4.9-3.5,4.2-6.5l-7.4-34.5c-.6-3-3.6-4.9-6.5-4.2Z"/>
            <path class="cls-2" d="M515.6,524.2l-34.5,7.4c-3,.6-4.9,3.6-4.2,6.5l7.4,34.5c.6,3,3.6,4.9,6.5,4.2l34.5-7.4c3-.6,4.9-3.6,4.2-6.5l-7.4-34.5c-.6-3-3.6-4.9-6.5-4.2h0Z"/>
            <path class="cls-2" d="M507.1,537.4l-12.7,2.7c-3,.6-4.9,3.5-4.2,6.5l2.7,12.7c.6,3,3.6,4.9,6.5,4.2l12.7-2.7c3-.6,4.9-3.6,4.2-6.5l-2.7-12.7c-.6-3-3.6-4.9-6.5-4.2h0Z"/>
            <path class="cls-2" d="M459.9,536.1l-34.5,7.4c-3,.6-4.9,3.6-4.2,6.5l7.4,34.5c.6,3,3.6,4.9,6.5,4.2l34.5-7.4c3-.6,4.9-3.6,4.2-6.5l-7.4-34.5c-.6-3-3.6-4.9-6.5-4.2Z"/>
            <path class="cls-2" d="M439.4,550.2l-3.1.7c-1.3.3-2.2,1.6-1.9,3l4.6,21.6c.3,1.3,1.6,2.2,3,1.9l3.1-.7c1.3-.3,2.2-1.6,1.9-2.9l-4.6-21.6c-.3-1.3-1.6-2.2-3-1.9h0Z"/>
            <path class="cls-2" d="M453.1,547.3l-3.1.7c-1.3.3-2.2,1.6-1.9,3l4.6,21.6c.3,1.3,1.6,2.2,2.9,1.9l3.1-.7c1.3-.3,2.2-1.6,1.9-2.9l-4.6-21.6c-.3-1.3-1.6-2.2-3-1.9h.1Z"/>
            <path class="cls-2" d="M404.2,548l-34.5,7.4c-3,.6-4.9,3.5-4.2,6.5l7.4,34.5c.6,3,3.6,4.9,6.5,4.2l34.5-7.4c3-.6,4.9-3.5,4.2-6.5l-7.4-34.5c-.6-3-3.6-4.9-6.5-4.2Z"/>
            <path class="cls-2" d="M400.3,568.1l-14.7-5.9c-3.8-1.5-7.8,1.8-6.9,5.8l3.7,17.2c.9,4,5.8,5.4,8.7,2.5l11-11.3c2.5-2.6,1.6-7-1.8-8.3h0Z"/>
            <path class="cls-2" d="M681.9,488.7l-34.5,7.4c-3,.6-4.9,3.6-4.2,6.5l7.4,34.5c.6,3,3.6,4.9,6.5,4.2l34.5-7.4c3-.6,4.9-3.6,4.2-6.5l-7.4-34.5c-.6-3-3.6-4.9-6.5-4.2h0Z"/>
            <path class="cls-2" d="M673.4,501.9l-12.7,2.7c-3,.6-4.9,3.5-4.2,6.5l2.7,12.7c.6,3,3.5,4.9,6.5,4.2l12.7-2.7c3-.6,4.9-3.6,4.2-6.5l-2.7-12.7c-.6-3-3.6-4.9-6.5-4.2h0Z"/>
            <path class="cls-2" d="M626.2,500.6l-34.5,7.4c-3,.6-4.9,3.6-4.2,6.5l7.4,34.5c.6,3,3.5,4.9,6.5,4.2l34.5-7.4c3-.6,4.9-3.6,4.2-6.5l-7.4-34.5c-.6-3-3.6-4.9-6.5-4.2h0Z"/>
            <path class="cls-2" d="M605.7,514.8l-3.1.7c-1.3.3-2.2,1.6-1.9,2.9l4.6,21.6c.3,1.3,1.6,2.2,2.9,1.9l3.1-.7c1.3-.3,2.2-1.6,1.9-2.9l-4.6-21.6c-.3-1.3-1.6-2.2-2.9-1.9Z"/>
            <path class="cls-2" d="M619.3,511.8l-3.1.7c-1.3.3-2.2,1.6-1.9,2.9l4.6,21.6c.3,1.3,1.6,2.2,3,1.9l3.1-.7c1.3-.3,2.2-1.6,1.9-2.9l-4.6-21.6c-.3-1.3-1.6-2.2-3-1.9h0Z"/>
            <path class="cls-2" d="M570.5,512.5l-34.5,7.4c-3,.6-4.9,3.6-4.2,6.5l7.4,34.5c.6,3,3.6,4.9,6.5,4.2l34.5-7.4c3-.6,4.9-3.6,4.2-6.5l-7.4-34.5c-.6-3-3.5-4.9-6.5-4.2Z"/>
            <path class="cls-2" d="M566.5,532.7l-14.7-5.9c-3.8-1.5-7.8,1.8-6.9,5.8l3.7,17.2c.9,4,5.8,5.4,8.7,2.5l11-11.3c2.5-2.6,1.6-7-1.8-8.3h0Z"/>
            <path class="cls-2" d="M848.2,453.2l-34.5,7.4c-3,.6-4.9,3.6-4.2,6.5l7.4,34.5c.6,3,3.6,4.9,6.5,4.2l34.5-7.4c3-.6,4.9-3.6,4.2-6.5l-7.4-34.5c-.6-3-3.6-4.9-6.5-4.2Z"/>
            <path class="cls-2" d="M839.7,466.4l-12.7,2.7c-3,.6-4.9,3.5-4.2,6.5l2.7,12.7c.6,3,3.6,4.9,6.5,4.2l12.7-2.7c3-.6,4.9-3.6,4.2-6.5l-2.7-12.7c-.6-3-3.5-4.9-6.5-4.2Z"/>
            <path class="cls-2" d="M792.5,465.1l-34.5,7.4c-3,.6-4.9,3.6-4.2,6.5l7.4,34.5c.6,3,3.6,4.9,6.5,4.2l34.5-7.4c3-.6,4.9-3.6,4.2-6.5l-7.4-34.5c-.6-3-3.6-4.9-6.5-4.2Z"/>
            <path class="cls-2" d="M771.9,479.3l-3.1.7c-1.3.3-2.2,1.6-1.9,2.9l4.6,21.6c.3,1.3,1.6,2.2,2.9,1.9l3.1-.7c1.3-.3,2.2-1.6,1.9-2.9l-4.6-21.6c-.3-1.3-1.6-2.2-3-1.9h0Z"/>
            <path class="cls-2" d="M785.6,476.3l-3.1.7c-1.3.3-2.2,1.6-1.9,3l4.6,21.6c.3,1.3,1.6,2.2,2.9,1.9l3.1-.7c1.3-.3,2.2-1.6,1.9-2.9l-4.6-21.6c-.3-1.3-1.6-2.2-2.9-1.9h0Z"/>
            <path class="cls-2" d="M736.8,477l-34.5,7.4c-3,.6-4.9,3.5-4.2,6.5l7.4,34.5c.6,3,3.6,4.9,6.5,4.2l34.5-7.4c3-.6,4.9-3.5,4.2-6.5l-7.4-34.5c-.6-3-3.6-4.9-6.5-4.2Z"/>
            <path class="cls-2" d="M732.8,497.2l-14.7-5.9c-3.8-1.5-7.8,1.8-6.9,5.8l3.7,17.2c.9,4,5.8,5.4,8.7,2.5l11-11.3c2.5-2.6,1.6-7-1.8-8.3h0Z"/>
            <path class="cls-2" d="M1014.4,417.7l-34.5,7.4c-3,.6-4.9,3.6-4.2,6.5l7.4,34.5c.6,3,3.6,4.9,6.5,4.2l34.4-7.4c3-.6,4.9-3.6,4.2-6.5l-7.4-34.5c-.6-3-3.5-4.9-6.5-4.2h.1Z"/>
            <path class="cls-2" d="M1005.9,430.9l-12.7,2.7c-3,.6-4.9,3.6-4.2,6.5l2.7,12.7c.6,3,3.6,4.9,6.5,4.2l12.7-2.7c3-.6,4.9-3.6,4.2-6.5l-2.7-12.7c-.6-3-3.5-4.9-6.5-4.2Z"/>
            <path class="cls-2" d="M958.7,429.6l-34.5,7.4c-3,.6-4.9,3.6-4.2,6.5l7.4,34.5c.6,3,3.6,4.9,6.5,4.2l34.5-7.4c3-.6,4.9-3.6,4.2-6.5l-7.4-34.5c-.6-3-3.6-4.9-6.5-4.2Z"/>
            <path class="cls-2" d="M938.2,443.8l-3.1.7c-1.3.3-2.2,1.6-1.9,2.9l4.6,21.6c.3,1.3,1.6,2.2,3,1.9l3.1-.7c1.3-.3,2.2-1.6,1.9-2.9l-4.6-21.6c-.3-1.3-1.6-2.2-3-1.9Z"/>
            <path class="cls-2" d="M951.9,440.9l-3.1.7c-1.3.3-2.2,1.6-1.9,2.9l4.6,21.6c.3,1.3,1.6,2.2,2.9,1.9l3.1-.7c1.3-.3,2.2-1.6,1.9-2.9l-4.6-21.6c-.3-1.3-1.6-2.2-2.9-1.9Z"/>
            <path class="cls-2" d="M903.1,441.5l-34.5,7.4c-3,.6-4.9,3.6-4.2,6.5l7.4,34.5c.6,3,3.6,4.9,6.5,4.2l34.5-7.4c3-.6,4.9-3.6,4.2-6.5l-7.4-34.5c-.6-3-3.6-4.9-6.5-4.2Z"/>
            <path class="cls-2" d="M899.1,461.7l-14.7-5.9c-3.8-1.5-7.8,1.8-6.9,5.8l3.7,17.2c.9,4,5.8,5.4,8.7,2.5l11-11.3c2.5-2.6,1.6-7-1.8-8.3h0Z"/>
            <path class="cls-2" d="M472.7,591.9l-34.5,7.4c-3,.6-4.9,3.5-4.2,6.5l7.4,34.5c.6,3,3.5,4.9,6.5,4.2l34.5-7.4c3-.6,4.9-3.6,4.2-6.5l-7.4-34.5c-.6-3-3.6-4.9-6.5-4.2Z"/>
            <path class="cls-2" d="M639,556.4l-34.5,7.4c-3,.6-4.9,3.6-4.2,6.5l7.4,34.5c.6,3,3.6,4.9,6.5,4.2l34.5-7.4c3-.6,4.9-3.6,4.2-6.5l-7.4-34.5c-.6-3-3.6-4.9-6.5-4.2Z"/>
            <path class="cls-2" d="M630.5,569.6l-12.7,2.7c-3,.6-4.9,3.6-4.2,6.5l2.7,12.7c.6,3,3.6,4.9,6.5,4.2l12.7-2.7c3-.6,4.9-3.6,4.2-6.5l-2.7-12.7c-.6-3-3.5-4.9-6.5-4.2Z"/>
            <path class="cls-2" d="M583.3,568.3l-34.5,7.4c-3,.6-4.9,3.6-4.2,6.5l7.4,34.5c.6,3,3.5,4.9,6.5,4.2l34.5-7.4c3-.6,4.9-3.5,4.2-6.5l-7.4-34.5c-.6-3-3.6-4.9-6.5-4.2Z"/>
            <path class="cls-2" d="M562.8,582.5l-3.1.7c-1.3.3-2.2,1.6-1.9,2.9l4.6,21.6c.3,1.3,1.6,2.2,2.9,1.9l3.1-.7c1.3-.3,2.2-1.6,1.9-2.9l-4.6-21.6c-.3-1.3-1.6-2.2-3-1.9h0Z"/>
            <path class="cls-2" d="M576.4,579.6l-3.1.7c-1.3.3-2.2,1.6-1.9,3l4.6,21.6c.3,1.3,1.6,2.2,2.9,1.9l3.1-.7c1.3-.3,2.2-1.6,1.9-2.9l-4.6-21.6c-.3-1.3-1.6-2.2-3-1.9h0Z"/>
            <path class="cls-2" d="M527.6,580.2l-34.5,7.4c-3,.6-4.9,3.6-4.2,6.5l7.4,34.5c.6,3,3.6,4.9,6.5,4.2l34.5-7.4c3-.6,4.9-3.6,4.2-6.5l-7.4-34.5c-.6-3-3.6-4.9-6.5-4.2h0Z"/>
            <path class="cls-2" d="M523.6,600.4l-14.7-5.9c-3.8-1.5-7.8,1.8-6.9,5.8l3.7,17.2c.9,4,5.8,5.4,8.7,2.5l11-11.3c2.5-2.6,1.6-7-1.8-8.3h0Z"/>
            <path class="cls-2" d="M805.2,520.9l-34.5,7.4c-3,.6-4.9,3.5-4.2,6.5l7.4,34.5c.6,3,3.6,4.9,6.5,4.2l34.5-7.4c3-.6,4.9-3.6,4.2-6.5l-7.4-34.5c-.6-3-3.6-4.9-6.5-4.2Z"/>
            <path class="cls-2" d="M796.8,534.1l-12.7,2.7c-3,.6-4.9,3.6-4.2,6.5l2.7,12.7c.6,3,3.5,4.9,6.5,4.2l12.7-2.7c3-.6,4.9-3.6,4.2-6.5l-2.7-12.7c-.6-3-3.6-4.9-6.5-4.2Z"/>
            <path class="cls-2" d="M749.6,532.8l-34.5,7.4c-3,.6-4.9,3.6-4.2,6.5l7.4,34.5c.6,3,3.6,4.9,6.5,4.2l34.5-7.4c3-.6,4.9-3.6,4.2-6.5l-7.4-34.5c-.6-3-3.6-4.9-6.5-4.2Z"/>
            <path class="cls-2" d="M729,547l-3.1.7c-1.3.3-2.2,1.6-1.9,2.9l4.6,21.6c.3,1.3,1.6,2.2,2.9,1.9l3.1-.7c1.3-.3,2.2-1.6,1.9-2.9l-4.6-21.6c-.3-1.3-1.6-2.2-2.9-1.9Z"/>
            <path class="cls-2" d="M742.7,544.1l-3.1.7c-1.3.3-2.2,1.6-1.9,3l4.6,21.6c.3,1.3,1.6,2.2,3,1.9l3.1-.7c1.3-.3,2.2-1.6,1.9-2.9l-4.6-21.6c-.3-1.3-1.6-2.2-2.9-1.9h0Z"/>
            <path class="cls-2" d="M693.9,544.7l-34.5,7.4c-3,.6-4.9,3.5-4.2,6.5l7.4,34.5c.6,3,3.6,4.9,6.5,4.2l34.5-7.4c3-.6,4.9-3.6,4.2-6.5l-7.4-34.5c-.6-3-3.6-4.9-6.5-4.2Z"/>
            <path class="cls-2" d="M689.9,564.9l-14.7-5.9c-3.8-1.5-7.8,1.8-6.9,5.8l3.7,17.2c.9,4,5.8,5.4,8.7,2.5l11-11.3c2.5-2.6,1.6-7-1.8-8.3h0Z"/>
            <path class="cls-2" d="M971.5,485.4l-34.5,7.4c-3,.6-4.9,3.6-4.2,6.5l7.4,34.5c.6,3,3.5,4.9,6.5,4.2l34.5-7.4c3-.6,4.9-3.6,4.2-6.5l-7.4-34.5c-.6-3-3.5-4.9-6.5-4.2h0Z"/>
            <path class="cls-2" d="M963,498.6l-12.7,2.7c-3,.6-4.9,3.6-4.2,6.5l2.7,12.7c.6,3,3.6,4.9,6.5,4.2l12.7-2.7c3-.6,4.9-3.6,4.2-6.5l-2.7-12.7c-.6-3-3.6-4.9-6.5-4.2h0Z"/>
            <path class="cls-2" d="M915.8,497.3l-34.5,7.4c-3,.6-4.9,3.6-4.2,6.5l7.4,34.5c.6,3,3.6,4.9,6.5,4.2l34.5-7.4c3-.6,4.9-3.6,4.2-6.5l-7.4-34.5c-.6-3-3.6-4.9-6.5-4.2h0Z"/>
            <path class="cls-2" d="M895.3,511.5l-3.1.7c-1.3.3-2.2,1.6-1.9,3l4.6,21.6c.3,1.3,1.6,2.2,2.9,1.9l3.1-.7c1.3-.3,2.2-1.6,1.9-2.9l-4.6-21.6c-.3-1.3-1.6-2.2-2.9-1.9h0Z"/>
            <path class="cls-2" d="M909,508.6l-3.1.7c-1.3.3-2.2,1.6-1.9,2.9l4.6,21.6c.3,1.3,1.6,2.2,2.9,1.9l3.1-.7c1.3-.3,2.2-1.6,1.9-2.9l-4.6-21.6c-.3-1.3-1.6-2.2-2.9-1.9h0Z"/>
            <path class="cls-2" d="M860.2,509.2l-34.5,7.4c-3,.6-4.9,3.5-4.2,6.5l7.4,34.5c.6,3,3.6,4.9,6.5,4.2l34.5-7.4c3-.6,4.9-3.6,4.2-6.5l-7.4-34.5c-.6-3-3.6-4.9-6.5-4.2Z"/>
            <path class="cls-2" d="M856.2,529.4l-14.7-5.9c-3.8-1.5-7.8,1.8-6.9,5.8l3.7,17.2c.9,4,5.8,5.4,8.7,2.5l11-11.3c2.5-2.6,1.6-7-1.8-8.3h0Z"/>
            <path class="cls-2" d="M1026.4,473.7l-34.5,7.4c-3,.6-4.9,3.5-4.2,6.5l7.4,34.5c.6,3,3.6,4.9,6.5,4.2l34.5-7.4c3-.6,4.9-3.6,4.2-6.5l-7.4-34.5c-.6-3-3.5-4.9-6.5-4.2h0Z"/>
            <path class="cls-2" d="M1022.5,493.9l-14.7-5.9c-3.8-1.5-7.8,1.8-6.9,5.8l3.7,17.2c.9,4,5.8,5.4,8.7,2.5l11-11.3c2.5-2.6,1.6-7-1.8-8.3h0Z"/>
            <path class="cls-2" d="M872.1,565.3l-34.5,7.4c-3,.6-4.9,3.6-4.2,6.5l7.4,34.5c.6,3,3.5,4.9,6.5,4.2l34.5-7.4c3-.6,4.9-3.6,4.2-6.5l-7.4-34.5c-.6-3-3.6-4.9-6.5-4.2Z"/>
            <path class="cls-2" d="M863.6,578.4l-12.7,2.7c-3,.6-4.9,3.6-4.2,6.5l2.7,12.7c.6,3,3.6,4.9,6.5,4.2l12.7-2.7c3-.6,4.9-3.6,4.2-6.5l-2.7-12.7c-.6-3-3.6-4.9-6.5-4.2Z"/>
            <path class="cls-2" d="M816.4,577.2l-34.5,7.4c-3,.6-4.9,3.6-4.2,6.5l7.4,34.5c.6,3,3.5,4.9,6.5,4.2l34.5-7.4c3-.6,4.9-3.5,4.2-6.5l-7.4-34.5c-.6-3-3.5-4.9-6.5-4.2Z"/>
            <path class="cls-2" d="M795.9,591.4l-3.1.7c-1.3.3-2.2,1.6-1.9,2.9l4.6,21.6c.3,1.3,1.6,2.2,2.9,1.9l3.1-.7c1.3-.3,2.2-1.6,1.9-2.9l-4.6-21.6c-.3-1.3-1.6-2.2-2.9-1.9Z"/>
            <path class="cls-2" d="M809.6,588.4l-3.1.7c-1.3.3-2.2,1.6-1.9,2.9l4.6,21.6c.3,1.3,1.6,2.2,3,1.9l3.1-.7c1.3-.3,2.2-1.6,1.9-2.9l-4.6-21.6c-.3-1.3-1.6-2.2-3-1.9Z"/>
            <path class="cls-2" d="M760.7,589l-34.5,7.4c-3,.6-4.9,3.5-4.2,6.5l7.4,34.5c.6,3,3.6,4.9,6.5,4.2l34.5-7.4c3-.6,4.9-3.5,4.2-6.5l-7.4-34.5c-.6-3-3.6-4.9-6.5-4.2Z"/>
            <path class="cls-2" d="M1038.3,529.8l-34.4,7.4c-3,.6-4.9,3.6-4.2,6.5l7.4,34.5c.6,3,3.5,4.9,6.5,4.2l34.5-7.4c3-.6,4.9-3.6,4.2-6.5l-7.3-34.5c-.6-3-3.6-4.9-6.5-4.2h-.2Z"/>
            <path class="cls-2" d="M982.7,541.7l-34.5,7.4c-3,.6-4.9,3.6-4.2,6.5l7.4,34.5c.6,3,3.6,4.9,6.5,4.2l34.5-7.4c3-.6,4.9-3.6,4.2-6.5l-7.4-34.5c-.6-3-3.6-4.9-6.5-4.2Z"/>
            <path class="cls-2" d="M962.2,555.9l-3.1.7c-1.3.3-2.2,1.6-1.9,3l4.6,21.6c.3,1.3,1.6,2.2,2.9,1.9l3.1-.7c1.3-.3,2.2-1.6,1.9-3l-4.6-21.6c-.3-1.3-1.6-2.2-2.9-1.9Z"/>
            <path class="cls-2" d="M975.8,552.9l-3.1.7c-1.3.3-2.2,1.6-1.9,3l4.6,21.6c.3,1.3,1.6,2.2,2.9,1.9l3.1-.7c1.3-.3,2.2-1.6,1.9-3l-4.6-21.6c-.3-1.3-1.6-2.2-2.9-1.9Z"/>
            <path class="cls-2" d="M927,553.5l-34.5,7.4c-3,.6-4.9,3.6-4.2,6.5l7.4,34.5c.6,3,3.5,4.9,6.5,4.2l34.5-7.4c3-.6,4.9-3.6,4.2-6.5l-7.4-34.5c-.6-3-3.6-4.9-6.5-4.2Z"/>
            <path class="cls-2" d="M923,573.8l-14.7-5.9c-3.8-1.5-7.8,1.8-6.9,5.8l3.7,17.2c.9,4,5.8,5.4,8.7,2.5l11-11.3c2.5-2.6,1.6-7-1.8-8.3h0Z"/>
          </g>
        </g>
      </g>
    </g>
  </g>
</svg>