<svg width="551" height="81" viewBox="0 0 551 81" fill="none" xmlns="http://www.w3.org/2000/svg">
<g clip-path="url(#clip0_2877_1959)">
<path d="M208.927 43.7143V68.2688C208.927 75.6437 204.554 80.1315 197.465 80.1315C190.375 80.1315 186.002 75.6437 186.002 68.2688V43.7143C186.002 36.3394 190.347 31.8516 197.465 31.8516C204.582 31.8516 208.927 36.3394 208.927 43.7143ZM193.091 43.8001V68.2116C193.091 71.699 194.635 73.5856 197.465 73.5856C200.294 73.5856 201.838 71.699 201.838 68.2116V43.8001C201.838 40.3127 200.294 38.4261 197.465 38.4261C194.635 38.4261 193.091 40.3127 193.091 43.8001Z" fill="#939598"/>
<path d="M238.856 79.5026V46.8872H238.713L232.824 72.7852H228.594L222.677 46.8872H222.562V79.5026H215.845V32.5376H225.163L230.737 57.7495H230.88L236.369 32.5376H245.973V79.5026H238.856Z" fill="#B28ABF"/>
<path d="M269.127 79.5026L267.584 68.8405H259.723L258.179 79.5026H251.062L259.18 32.5376H268.241L276.359 79.5026H269.127ZM260.666 62.3803H266.64L263.753 42.5995H263.553L260.666 62.3803Z" fill="#B28ABF"/>
<path d="M305.545 79.5026H297.97L290.995 58.9501L287.908 65.0101V79.5026H280.79V32.5376H287.908V52.1183H288.051L297.912 32.5376H305.344L295.683 51.175L305.545 79.5026Z" fill="#B28ABF"/>
<path d="M325.297 79.5026L323.753 68.8405H315.892L314.349 79.5026H307.231L315.349 32.5376H324.41L332.529 79.5026H325.297ZM316.835 62.3803H322.81L319.923 42.5995H319.723L316.835 62.3803Z" fill="#B28ABF"/>
<path d="M356.74 42.5995V43.943L349.908 44.6004V43.114C349.908 39.8839 348.708 38.4261 346.221 38.4261C344.134 38.4261 342.676 39.5695 342.676 42.2565V43.257C342.676 45.8868 344.02 48.0306 348.65 52.2612C354.968 58.0925 357.112 61.9229 357.112 67.3541V69.6409C357.112 76.5584 352.738 80.1601 346.249 80.1601C339.761 80.1601 335.244 76.3297 335.244 69.4122V66.325L342.076 65.6675V68.8976C342.076 72.042 343.562 73.5856 346.106 73.5856C348.25 73.5856 349.994 72.4422 349.994 69.0977V67.6113C349.994 64.6671 348.65 62.5232 344.02 58.2926C337.702 52.4613 335.559 48.6309 335.559 43.5428V42.3994C335.559 35.4818 339.56 31.8516 346.164 31.8516C352.767 31.8516 356.769 35.6819 356.769 42.5995H356.74Z" fill="#B28ABF"/>
<path d="M368.774 39.1121V52.3755H379.151V58.9501H368.774V72.9281H381.638V79.5026H361.657V32.5376H381.638V39.1121H368.774Z" fill="#B28ABF"/>
<path d="M410.708 32.5376C418.369 32.5376 422.514 36.711 422.514 44.4003V48.145C422.514 55.8629 418.34 60.0077 410.708 60.0077H407.564V79.4741H400.446V32.5376H410.708ZM407.535 53.4618H410.422C413.853 53.4618 415.396 51.6609 415.396 47.6876V44.8577C415.396 40.8844 413.853 39.0835 410.422 39.0835H407.535V53.4332V53.4618Z" fill="#B28ABF"/>
<path d="M446.726 72.7852V79.5026H427.745V32.5376H434.863V72.7852H446.726Z" fill="#B28ABF"/>
<path d="M466.792 79.5026L465.248 68.8405H457.387L455.844 79.5026H448.726L456.873 32.5376H465.934L474.052 79.5026H466.82H466.792ZM458.331 62.3803H464.305L461.418 42.5995H461.218L458.331 62.3803Z" fill="#B28ABF"/>
<path d="M489.26 79.5026H482.142V58.2069L472.28 32.5376H479.798L485.772 49.174H485.915L491.604 32.5376H499.007L489.26 58.2926V79.5026Z" fill="#B28ABF"/>
<path d="M509.183 39.1121V52.3755H519.588V58.9501H509.183V72.9281H522.075V79.5026H502.094V32.5376H522.075V39.1121H509.183Z" fill="#B28ABF"/>
<path d="M537.854 59.6361H534.567V79.5026H527.449V32.5376H537.711C545.372 32.5376 549.517 36.711 549.517 44.4003V47.7448C549.517 52.7186 547.773 56.2059 544.486 58.0639L551.003 79.4741H543.485L537.854 59.6075V59.6361ZM534.567 53.0616H537.454C540.884 53.0616 542.428 51.2607 542.428 47.2874V44.8863C542.428 40.913 540.884 39.1121 537.454 39.1121H534.567V53.0616Z" fill="#939598"/>
<path d="M427.745 32.5088V79.5024H446.726V72.785H434.863V32.5088H427.745Z" fill="white"/>
<path d="M208.927 68.2974V43.7143C208.927 36.3394 204.582 31.8516 197.465 31.8516V38.4261C200.266 38.4261 201.81 40.3127 201.81 43.8001V68.2116C201.81 71.699 200.266 73.5856 197.465 73.5856V80.1601C204.582 80.1601 208.927 75.6723 208.927 68.2974Z" fill="white"/>
<path d="M522.075 39.1119V32.5088H502.094V79.5024H522.075V72.9279H509.212V58.9499H519.588V52.3753H509.212V39.1119H522.075Z" fill="white"/>
<path d="M456.873 32.5088L448.755 79.4738H455.873L457.416 68.8117H465.277L466.821 79.4738H474.053L465.906 32.5088H456.844H456.873ZM458.331 62.38L461.218 42.5993H461.418L464.305 62.38H458.331Z" fill="white"/>
<path d="M489.259 79.5024V58.2924L499.007 32.5088H491.603L485.915 49.1738H485.772L479.798 32.5088H472.309L482.17 58.2066V79.5024H489.259Z" fill="white"/>
<path d="M400.418 32.5088V79.4738H407.536V60.0075H410.68C418.341 60.0075 422.486 55.8341 422.486 48.1447V44.4001C422.486 36.6822 418.312 32.5374 410.68 32.5374H400.418V32.5088ZM415.396 44.8575V47.6874C415.396 51.6321 413.853 53.4615 410.423 53.4615H407.536V39.1119H410.423C413.853 39.1119 415.396 40.9128 415.396 44.8861V44.8575Z" fill="white"/>
<path d="M381.638 39.1119V32.5088H361.657V79.5024H381.638V72.9279H368.774V58.9499H379.151V52.3753H368.774V39.1119H381.638Z" fill="white"/>
<path d="M537.454 53.0614H534.567V39.1119H537.454V32.5088H527.449V79.5024H534.567V59.6359H537.454V53.0614Z" fill="white"/>
<path d="M251.062 79.5024H258.179L259.723 68.8402H267.584L269.127 79.5024H276.359L268.241 32.5088H259.18L251.062 79.4738V79.5024ZM263.553 42.5993H263.753L266.64 62.38H260.666L263.553 42.5993Z" fill="white"/>
<path d="M245.973 79.5024V32.5088H236.369L230.88 57.7493H230.737L225.163 32.5088H215.845V79.5024H222.562V46.887H222.677L228.594 72.785H232.824L238.713 46.887H238.856V79.5024H245.973Z" fill="white"/>
<path d="M335.216 66.3248V69.4119C335.216 76.3295 339.646 80.1599 346.221 80.1599C352.795 80.1599 357.083 76.5296 357.083 69.612V67.3252C357.083 61.8941 354.939 58.0637 348.622 52.2324C343.991 48.0018 342.648 45.858 342.648 43.2281V42.2277C342.648 39.5407 344.134 38.3973 346.192 38.3973C348.679 38.3973 349.88 39.8837 349.88 43.0852V44.5716L356.711 43.9142V42.5707C356.711 35.6531 352.681 31.8228 346.106 31.8228C339.532 31.8228 335.501 35.453 335.501 42.3706V43.514C335.501 48.6021 337.645 52.4325 343.963 58.2638C348.593 62.4944 349.937 64.6383 349.937 67.5825V69.0689C349.937 72.4134 348.193 73.5568 346.049 73.5568C343.505 73.5568 342.019 72.0132 342.019 68.8688V65.6387L335.187 66.2962L335.216 66.3248Z" fill="white"/>
<path d="M307.231 79.5024H314.349L315.892 68.8402H323.753L325.297 79.5024H332.529L324.41 32.5088H315.349L307.231 79.4738V79.5024ZM319.723 42.5993H319.923L322.81 62.38H316.835L319.723 42.5993Z" fill="white"/>
<path d="M280.79 32.5088V79.5024H287.908V65.0099L290.995 58.9499L297.97 79.5024H305.545L295.683 51.1747L305.344 32.5088H297.912L288.051 52.1181H287.908V32.5088H280.79Z" fill="white"/>
<path d="M164.106 31.8516H132.205C127.674 31.8516 124.001 35.5246 124.001 40.0554V71.9562C124.001 76.4871 127.674 80.1601 132.205 80.1601H164.106C168.637 80.1601 172.31 76.4871 172.31 71.9562V40.0554C172.31 35.5246 168.637 31.8516 164.106 31.8516Z" fill="white"/>
<path d="M154.759 43.457H141.667C138.352 43.457 135.664 46.1446 135.664 49.4599V62.5518C135.664 65.867 138.352 68.5546 141.667 68.5546H154.759C158.074 68.5546 160.762 65.867 160.762 62.5518V49.4599C160.762 46.1446 158.074 43.457 154.759 43.457Z" fill="#231F20"/>
<path d="M102.134 31.8516H70.2332C65.7023 31.8516 62.0293 35.5246 62.0293 40.0554V71.9562C62.0293 76.4871 65.7023 80.1601 70.2332 80.1601H102.134C106.665 80.1601 110.338 76.4871 110.338 71.9562V40.0554C110.338 35.5246 106.665 31.8516 102.134 31.8516Z" fill="white"/>
<path d="M79.4089 41.8848H78.3513C76.299 41.8848 74.6353 43.5485 74.6353 45.6008V66.4106C74.6353 68.463 76.299 70.1267 78.3513 70.1267H79.4089C81.4613 70.1267 83.125 68.463 83.125 66.4106V45.6008C83.125 43.5485 81.4613 41.8848 79.4089 41.8848Z" fill="#231F20"/>
<path d="M94.0159 41.8848H92.9582C90.9059 41.8848 89.2422 43.5485 89.2422 45.6008V66.4106C89.2422 68.463 90.9059 70.1267 92.9582 70.1267H94.0159C96.0682 70.1267 97.7319 68.463 97.7319 66.4106V45.6008C97.7319 43.5485 96.0682 41.8848 94.0159 41.8848Z" fill="#231F20"/>
<path d="M40.1047 31.8516H8.20388C3.673 31.8516 0 35.5246 0 40.0554V71.9562C0 76.4871 3.673 80.1601 8.20388 80.1601H40.1047C44.6355 80.1601 48.3085 76.4871 48.3085 71.9562V40.0554C48.3085 35.5246 44.6355 31.8516 40.1047 31.8516Z" fill="white"/>
<path d="M33.8161 51.3466L20.7814 42.6281C17.0654 40.1413 12.063 42.7997 12.063 47.2875V64.7529C12.063 69.2407 17.0654 71.8991 20.7814 69.4122L33.8161 60.6938C37.132 58.4642 37.132 53.6048 33.8161 51.3751V51.3466Z" fill="#231F20"/>
</g>
<path d="M13.9855 6.95652C15.0472 8.23791 15.5781 10.1234 15.5781 12.613C15.5781 15.1025 15.0472 16.9697 13.9855 18.2328C12.9238 19.4959 11.4227 20.1366 9.48231 20.1366C7.7982 20.1366 6.46188 19.5874 5.43677 18.5074V25.2072H0V5.38224H4.42996L4.8876 7.43247C5.94933 5.83988 7.46869 5.05273 9.48231 5.05273C11.4959 5.05273 12.9238 5.69343 13.9855 6.95652ZM5.98594 9.92203C5.58321 10.4895 5.38185 11.2217 5.38185 12.137V13.034C5.38185 13.9493 5.58321 14.6815 5.98594 15.2673C6.38866 15.8347 6.99275 16.1276 7.77989 16.1276C9.35417 16.1276 10.123 15.194 10.123 13.3086V11.8624C10.123 10.0136 9.33587 9.07997 7.77989 9.07997C6.97444 9.07997 6.37036 9.35456 5.98594 9.92203Z" fill="white"/>
<path d="M31.6122 6.97435C33.0583 8.25574 33.7906 10.1229 33.7906 12.5942C33.7906 15.0654 33.0583 16.9143 31.6122 18.214C30.166 19.4954 28.1707 20.1361 25.6445 20.1361C23.1184 20.1361 21.1231 19.4954 19.6952 18.2323C18.2491 16.9509 17.5352 15.0837 17.5352 12.6125C17.5352 10.1412 18.2491 8.25574 19.6952 6.99265C21.1414 5.71126 23.1184 5.08887 25.6445 5.08887C28.1707 5.08887 30.166 5.72956 31.6122 7.01096V6.97435ZM22.9719 11.8253V13.3813C22.9719 15.4132 23.8689 16.4384 25.6445 16.4384C27.4202 16.4384 28.3538 15.4132 28.3538 13.3813V11.8253C28.3538 9.77511 27.4568 8.73169 25.6445 8.73169C23.8323 8.73169 22.9719 9.7568 22.9719 11.8253Z" fill="white"/>
<path d="M49.4615 19.8067L47.2282 11.7705H47.1184L44.8485 19.8067H39.5582L34.2861 5.38184H40.1256L42.304 13.894H42.4871L44.757 5.38184H50.1571L52.3355 13.894H52.5185L54.7335 5.38184H60.0238L54.7335 19.8067H49.4432H49.4615Z" fill="white"/>
<path d="M74.9068 6.90185C76.2981 8.14663 76.9937 10.0321 76.9937 12.5766V13.5102H66.1751C66.1751 14.5536 66.413 15.3407 66.8707 15.8533C67.3283 16.3842 68.0605 16.6404 69.0673 16.6404C69.9826 16.6404 70.6416 16.4574 71.081 16.073C71.502 15.6885 71.7217 15.176 71.7217 14.5536H76.9937C76.9937 16.3109 76.3347 17.6656 74.9984 18.6541C73.6621 19.6426 71.7217 20.1368 69.1772 20.1368C66.5046 20.1368 64.4177 19.5144 62.9533 18.2696C61.4888 17.0249 60.7383 15.1394 60.7383 12.5949C60.7383 10.0504 61.4522 8.23816 62.8983 6.97507C64.3445 5.69368 66.3215 5.07129 68.8477 5.07129C71.3738 5.07129 73.4973 5.69368 74.8885 6.92016L74.9068 6.90185ZM66.1934 10.9474H71.4837C71.4837 10.1969 71.264 9.61108 70.843 9.17175C70.422 8.73241 69.8179 8.51275 69.049 8.51275C67.3466 8.51275 66.3764 9.31819 66.1751 10.9474H66.1934Z" fill="white"/>
<path d="M89.4964 5.18038C89.8259 5.2719 89.9906 5.34513 89.9906 5.36343V9.92153H88.2333C87.0983 9.92153 86.2929 10.2144 85.7986 10.8002C85.3044 11.386 85.0481 12.2463 85.0481 13.3996V19.8249H79.6113V5.38174H84.0596L84.4074 7.56011C84.7369 6.71805 85.2495 6.09566 85.9634 5.65632C86.6773 5.23529 87.4827 5.01562 88.3614 5.01562C88.7824 5.01562 89.1486 5.07054 89.4781 5.16207L89.4964 5.18038Z" fill="white"/>
<path d="M105.677 6.90185C107.069 8.14663 107.764 10.0321 107.764 12.5766V13.5102H96.9456C96.9456 14.5536 97.1835 15.3407 97.6412 15.8533C98.0988 16.3842 98.831 16.6404 99.8378 16.6404C100.753 16.6404 101.412 16.4574 101.851 16.073C102.272 15.6885 102.492 15.176 102.492 14.5536H107.764C107.764 16.3109 107.105 17.6656 105.769 18.6541C104.433 19.6426 102.492 20.1368 99.9477 20.1368C97.2751 20.1368 95.1882 19.5144 93.7238 18.2696C92.2593 17.0249 91.5088 15.1394 91.5088 12.5949C91.5088 10.0504 92.2227 8.23816 93.6689 6.97507C95.115 5.69368 97.092 5.07129 99.6182 5.07129C102.144 5.07129 104.268 5.69368 105.659 6.92016L105.677 6.90185ZM96.9822 10.9474H102.272C102.272 10.1969 102.053 9.61108 101.632 9.17175C101.211 8.73241 100.607 8.51275 99.8378 8.51275C98.1354 8.51275 97.1652 9.31819 96.9639 10.9474H96.9822Z" fill="white"/>
<path d="M120.872 19.8067L120.414 17.7565C119.352 19.349 117.833 20.1362 115.819 20.1362C113.806 20.1362 112.378 19.4955 111.316 18.2324C110.255 16.9693 109.724 15.0655 109.724 12.576C109.724 10.0864 110.255 8.21922 111.316 6.95614C112.378 5.69305 113.879 5.05235 115.819 5.05235C117.467 5.05235 118.822 5.60152 119.865 6.71816V0H125.302V19.8067H120.872ZM115.16 11.8803V13.3265C115.16 15.1754 115.948 16.1089 117.504 16.1089C118.309 16.1089 118.913 15.8344 119.297 15.2669C119.682 14.6994 119.902 13.9672 119.902 13.0519V12.1549C119.902 11.2397 119.7 10.5074 119.297 9.92165C118.895 9.35417 118.291 9.06128 117.504 9.06128C115.929 9.06128 115.16 9.99487 115.16 11.8803Z" fill="white"/>
<path d="M147.195 5.05235C149.136 5.05235 150.637 5.69305 151.698 6.95614C152.76 8.21922 153.291 10.0864 153.291 12.576C153.291 15.0655 152.76 16.951 151.698 18.2324C150.637 19.5138 149.136 20.1362 147.195 20.1362C145.255 20.1362 143.662 19.349 142.6 17.7565L142.143 19.8067H137.713V0H143.15V6.71816C144.193 5.60152 145.529 5.05235 147.195 5.05235ZM143.699 9.92165C143.296 10.4891 143.095 11.2397 143.095 12.1549V13.0519C143.095 13.9672 143.296 14.6994 143.699 15.2669C144.102 15.8344 144.706 16.1089 145.493 16.1089C147.067 16.1089 147.836 15.1754 147.836 13.3265V11.8803C147.836 10.0132 147.049 9.06128 145.493 9.06128C144.687 9.06128 144.083 9.35417 143.699 9.92165Z" fill="white"/>
<path d="M163.084 23.9618C162.004 25.0052 160.485 25.5361 158.544 25.5361C157.355 25.5361 156.311 25.3713 155.396 25.0418V21.7834H157.574C158.947 21.7834 159.753 21.1244 160.009 19.7881L154.279 5.36328H160.119L162.883 14.9554H163.066L165.61 5.36328H170.956L165.83 19.3488C165.08 21.3624 164.164 22.9001 163.084 23.9435V23.9618Z" fill="white"/>
<defs>
<clipPath id="clip0_2877_1959">
<rect width="551.003" height="48.3085" fill="white" transform="translate(0 31.8516)"/>
</clipPath>
</defs>
</svg>
