<svg width="600" height="348" viewBox="0 0 600 348" fill="none" xmlns="http://www.w3.org/2000/svg">
    <path d="M0 5C0 2.23858 2.23858 0 5 0H595C597.761 0 600 2.23858 600 5V348H0V5Z" fill="black" />
    <path
        d="M272.22 96.5833C275.395 96.5833 277.97 99.1586 277.97 102.333V235.666C277.97 238.841 275.395 241.416 272.22 241.416C269.046 241.416 266.47 238.841 266.47 235.666V102.333C266.47 99.1588 269.046 96.5836 272.22 96.5833ZM300 113.25C303.174 113.25 305.75 115.826 305.75 119V219C305.75 222.175 303.174 224.75 300 224.75C296.825 224.75 294.25 222.175 294.25 219V119C294.25 115.826 296.825 113.25 300 113.25ZM355.554 121.583C358.729 121.583 361.304 124.159 361.304 127.333V210.666C361.304 213.841 358.729 216.416 355.554 216.416C352.38 216.416 349.804 213.841 349.804 210.666V127.333C349.804 124.159 352.38 121.583 355.554 121.583ZM244.446 129.916C247.621 129.916 250.196 132.492 250.196 135.666V202.333C250.196 205.508 247.621 208.083 244.446 208.083C241.271 208.083 238.696 205.508 238.696 202.333V135.666C238.696 132.492 241.271 129.916 244.446 129.916ZM216.667 138.25C219.841 138.25 222.417 140.826 222.417 144V194C222.417 197.175 219.841 199.75 216.667 199.75C213.492 199.75 210.917 197.175 210.917 194V144C210.917 140.826 213.492 138.25 216.667 138.25ZM383.334 138.25C386.508 138.25 389.084 140.826 389.084 144V194C389.084 197.175 386.508 199.75 383.334 199.75C380.159 199.75 377.584 197.175 377.584 194V144C377.584 140.826 380.159 138.25 383.334 138.25ZM327.779 146.583C330.954 146.583 333.529 149.159 333.529 152.333V185.666C333.529 188.841 330.954 191.416 327.779 191.416C324.604 191.416 322.029 188.841 322.029 185.666V152.333C322.029 149.159 324.604 146.583 327.779 146.583Z"
        fill="url(#paint0_linear_2075_325)" stroke="#9968BF" />
    <defs>
        <linearGradient id="paint0_linear_2075_325" x1="241.417" y1="110.417" x2="358.583" y2="227.583"
            gradientUnits="userSpaceOnUse">
            <stop stop-color="#F79433" />
            <stop offset="0.375" stop-color="#88B840" />
            <stop offset="0.466346" stop-color="#CC6984" />
            <stop offset="1" stop-color="#662D91" />
        </linearGradient>
    </defs>
</svg>