<?xml version="1.0" encoding="UTF-8"?>
<svg id="Layer_1" xmlns="http://www.w3.org/2000/svg" xmlns:xlink="http://www.w3.org/1999/xlink" version="1.1" viewBox="0 0 2000 1126">
  <!-- Generator: Adobe Illustrator 29.8.2, SVG Export Plug-In . SVG Version: 2.1.1 Build 3)  -->
  <defs>
    <style>
      .st0, .st1 {
        fill: none;
      }

      .st2 {
        clip-path: url(#clippath-1);
      }

      .st1 {
        stroke: #fff;
        stroke-width: 1.049px;
      }

      .st3 {
        clip-path: url(#clippath);
      }
    </style>
    <clipPath id="clippath">
      <rect class="st0" width="2000" height="1126"/>
    </clipPath>
    <clipPath id="clippath-1">
      <rect class="st0" x="-107.996" y="303.642" width="2306.602" height="1098.16"/>
    </clipPath>
  </defs>
  <rect width="2005.3" height="1127.44"/>
  <rect width="2000" height="1126"/>
  <g class="st3">
    <g class="st2">
      <path class="st1" d="M132.92,726.892l-72.304,15.422c-6.232,1.322-10.197,7.449-8.854,13.68l15.443,72.304c1.322,6.232,7.449,10.197,13.681,8.854l72.304-15.422c6.232-1.322,10.197-7.449,8.854-13.68l-15.443-72.304c-1.322-6.232-7.449-10.197-13.68-8.854Z"/>
      <path class="st1" d="M115.148,754.505l-26.71,5.707c-6.232,1.322-10.197,7.449-8.854,13.68l5.707,26.71c1.322,6.232,7.449,10.197,13.68,8.854l26.71-5.707c6.232-1.322,10.197-7.449,8.854-13.68l-5.707-26.71c-1.322-6.232-7.449-10.197-13.68-8.854Z"/>
      <path class="st1" d="M16.155,751.777l-72.304,15.422c-6.232,1.322-10.197,7.449-8.854,13.68l15.443,72.304c1.322,6.232,7.449,10.197,13.68,8.854l72.304-15.422c6.232-1.322,10.197-7.449,8.854-13.68l-15.443-72.304c-1.322-6.232-7.449-10.197-13.68-8.854Z"/>
      <path class="st1" d="M-26.922,781.593l-6.441,1.364c-2.812.608-4.616,3.378-4.008,6.19l9.673,45.279c.608,2.812,3.378,4.616,6.19,4.008l6.441-1.385c2.812-.608,4.616-3.378,4.008-6.19l-9.673-45.279c-.608-2.812-3.378-4.616-6.19-4.008v.021Z"/>
      <path class="st1" d="M1.74,775.487l-6.441,1.364c-2.812.608-4.616,3.378-4.008,6.19l9.673,45.279c.608,2.812,3.378,4.616,6.19,4.008l6.441-1.385c2.812-.608,4.616-3.378,4.008-6.19l-9.673-45.279c-.608-2.812-3.378-4.616-6.19-4.008v.021Z"/>
      <path class="st1" d="M481.81,652.406l-72.283,15.443c-6.232,1.322-10.197,7.449-8.854,13.68l15.422,72.304c1.322,6.232,7.449,10.197,13.68,8.854l72.304-15.422c6.232-1.322,10.197-7.449,8.854-13.68l-15.422-72.304c-1.322-6.232-7.449-10.197-13.68-8.854l-.021-.021Z"/>
      <path class="st1" d="M464.038,680.039l-26.71,5.707c-6.232,1.322-10.197,7.449-8.854,13.68l5.707,26.71c1.322,6.232,7.449,10.197,13.68,8.854l26.71-5.707c6.232-1.322,10.197-7.449,8.854-13.68l-5.707-26.71c-1.322-6.232-7.449-10.197-13.68-8.854Z"/>
      <path class="st1" d="M365.045,677.312l-72.304,15.443c-6.211,1.322-10.197,7.449-8.854,13.68l15.443,72.304c1.322,6.232,7.449,10.197,13.68,8.854l72.304-15.422c6.232-1.322,10.197-7.449,8.854-13.68l-15.422-72.304c-1.322-6.232-7.449-10.197-13.68-8.854l-.021-.021Z"/>
      <path class="st1" d="M321.969,707.127l-6.441,1.385c-2.812.608-4.616,3.378-4.008,6.19l9.673,45.279c.608,2.812,3.378,4.616,6.19,4.008l6.442-1.385c2.812-.608,4.616-3.378,4.008-6.19l-9.673-45.279c-.608-2.812-3.378-4.616-6.19-4.008Z"/>
      <path class="st1" d="M350.63,700.98l-6.442,1.364c-2.812.608-4.616,3.378-4.008,6.19l9.673,45.279c.608,2.812,3.378,4.616,6.19,4.008l6.441-1.364c2.812-.608,4.616-3.378,4.008-6.19l-9.673-45.279c-.608-2.812-3.378-4.616-6.19-4.008Z"/>
      <path class="st1" d="M248.196,702.28l-72.304,15.422c-6.232,1.322-10.197,7.449-8.854,13.68l15.443,72.304c1.322,6.232,7.449,10.197,13.68,8.854l72.304-15.422c6.232-1.322,10.197-7.449,8.854-13.68l-15.422-72.304c-1.322-6.232-7.449-10.197-13.68-8.854h-.021Z"/>
      <path class="st1" d="M239.866,744.58l-30.76-12.295c-7.994-3.21-16.303,3.798-14.52,12.233l7.721,36.089c1.804,8.414,12.254,11.414,18.254,5.246l23.08-23.794c5.329-5.497,3.378-14.667-3.735-17.478h-.042Z"/>
      <path class="st1" d="M830.7,577.941l-72.304,15.422c-6.232,1.322-10.197,7.449-8.854,13.68l15.443,72.304c1.322,6.232,7.449,10.197,13.68,8.854l72.304-15.422c6.232-1.322,10.197-7.449,8.854-13.68l-15.443-72.304c-1.322-6.232-7.449-10.197-13.68-8.854Z"/>
      <path class="st1" d="M812.928,605.553l-26.71,5.707c-6.232,1.322-10.197,7.449-8.854,13.68l5.707,26.71c1.322,6.232,7.449,10.197,13.68,8.854l26.71-5.707c6.232-1.322,10.197-7.449,8.854-13.68l-5.707-26.71c-1.322-6.232-7.449-10.197-13.68-8.854Z"/>
      <path class="st1" d="M713.914,602.825l-72.283,15.422c-6.232,1.322-10.197,7.449-8.854,13.68l15.443,72.283c1.322,6.232,7.449,10.197,13.68,8.854l72.283-15.422c6.232-1.322,10.197-7.449,8.854-13.68l-15.443-72.304c-1.322-6.232-7.449-10.197-13.68-8.854v.021Z"/>
      <path class="st1" d="M670.859,632.641l-6.442,1.364c-2.812.608-4.616,3.378-4.008,6.19l9.673,45.279c.608,2.812,3.378,4.616,6.19,4.008l6.442-1.385c2.812-.608,4.616-3.378,4.008-6.19l-9.673-45.279c-.608-2.812-3.378-4.616-6.19-4.008v.021Z"/>
      <path class="st1" d="M699.52,626.514l-6.441,1.385c-2.812.608-4.616,3.378-4.008,6.19l9.673,45.279c.608,2.812,3.378,4.616,6.19,4.008l6.442-1.364c2.812-.608,4.616-3.378,4.008-6.19l-9.673-45.279c-.608-2.812-3.378-4.616-6.19-4.008v-.021Z"/>
      <path class="st1" d="M597.065,627.815l-72.304,15.422c-6.232,1.322-10.197,7.449-8.854,13.68l15.422,72.304c1.322,6.232,7.449,10.197,13.68,8.854l72.304-15.422c6.232-1.322,10.197-7.449,8.854-13.68l-15.443-72.304c-1.322-6.232-7.449-10.197-13.68-8.854h.021Z"/>
      <path class="st1" d="M588.756,670.136l-30.76-12.296c-7.994-3.21-16.303,3.798-14.52,12.233l7.721,36.089c1.804,8.414,12.254,11.414,18.254,5.246l23.08-23.773c5.329-5.497,3.378-14.667-3.735-17.478h-.042v-.021Z"/>
      <path class="st1" d="M1179.59,503.475l-72.304,15.443c-6.232,1.322-10.197,7.449-8.855,13.68l15.443,72.304c1.322,6.232,7.449,10.197,13.68,8.854l72.304-15.443c6.232-1.322,10.197-7.449,8.854-13.68l-15.422-72.304c-1.322-6.232-7.449-10.197-13.68-8.854h-.021Z"/>
      <path class="st1" d="M1161.818,531.088l-26.71,5.707c-6.232,1.322-10.197,7.449-8.855,13.68l5.707,26.71c1.322,6.232,7.449,10.197,13.68,8.854l26.71-5.707c6.232-1.322,10.197-7.449,8.854-13.68l-5.707-26.71c-1.322-6.232-7.449-10.197-13.68-8.854Z"/>
      <path class="st1" d="M1062.762,528.36l-72.304,15.443c-6.232,1.322-10.197,7.449-8.854,13.68l15.443,72.304c1.322,6.232,7.449,10.197,13.68,8.854l72.304-15.443c6.232-1.322,10.197-7.449,8.854-13.68l-15.443-72.283c-1.322-6.232-7.449-10.197-13.68-8.854v-.021Z"/>
      <path class="st1" d="M1019.728,558.134l-6.442,1.385c-2.812.608-4.616,3.378-4.008,6.19l9.673,45.279c.608,2.812,3.378,4.616,6.19,4.008l6.442-1.364c2.812-.608,4.616-3.378,4.008-6.19l-9.673-45.279c-.608-2.812-3.378-4.616-6.19-4.008v-.021Z"/>
      <path class="st1" d="M1048.41,552.028l-6.442,1.364c-2.812.608-4.616,3.378-4.008,6.19l9.673,45.279c.608,2.812,3.378,4.616,6.19,4.008l6.442-1.364c2.812-.608,4.616-3.378,4.008-6.19l-9.673-45.279c-.609-2.812-3.378-4.616-6.19-4.008Z"/>
      <path class="st1" d="M945.955,553.329l-72.304,15.422c-6.232,1.322-10.197,7.449-8.854,13.68l15.443,72.304c1.322,6.232,7.449,10.197,13.68,8.854l72.283-15.443c6.232-1.322,10.197-7.449,8.854-13.68l-15.422-72.283c-1.322-6.232-7.449-10.197-13.68-8.854Z"/>
      <path class="st1" d="M937.667,595.67l-30.76-12.295c-7.994-3.21-16.303,3.798-14.52,12.233l7.721,36.089c1.804,8.414,12.254,11.414,18.254,5.246l23.08-23.794c5.329-5.497,3.378-14.667-3.735-17.478h-.042Z"/>
      <path class="st1" d="M1528.48,428.989l-72.304,15.443c-6.232,1.322-10.197,7.449-8.854,13.68l15.422,72.283c1.322,6.232,7.449,10.197,13.68,8.854l72.304-15.422c6.232-1.322,10.197-7.449,8.854-13.68l-15.443-72.304c-1.322-6.232-7.449-10.197-13.68-8.854h.021Z"/>
      <path class="st1" d="M1510.708,456.622l-26.71,5.707c-6.232,1.322-10.197,7.449-8.854,13.68l5.707,26.71c1.322,6.232,7.449,10.197,13.68,8.854l26.71-5.707c6.232-1.322,10.197-7.449,8.855-13.68l-5.707-26.71c-1.322-6.232-7.449-10.197-13.68-8.854Z"/>
      <path class="st1" d="M1411.652,453.895l-72.304,15.443c-6.232,1.322-10.197,7.449-8.854,13.68l15.443,72.304c1.322,6.232,7.449,10.197,13.68,8.854l72.304-15.443c6.232-1.322,10.197-7.449,8.855-13.68l-15.443-72.304c-1.322-6.232-7.449-10.197-13.68-8.854Z"/>
      <path class="st1" d="M1368.618,483.668l-6.442,1.385c-2.812.608-4.616,3.378-4.008,6.19l9.673,45.279c.608,2.812,3.378,4.616,6.19,4.008l6.442-1.385c2.812-.608,4.616-3.378,4.008-6.19l-9.673-45.279c-.609-2.812-3.378-4.616-6.19-4.008Z"/>
      <path class="st1" d="M1397.3,477.562l-6.442,1.385c-2.812.608-4.616,3.378-4.008,6.19l9.673,45.279c.609,2.812,3.378,4.616,6.19,4.008l6.442-1.385c2.812-.608,4.616-3.378,4.008-6.19l-9.673-45.279c-.608-2.812-3.378-4.616-6.19-4.008Z"/>
      <path class="st1" d="M1294.845,478.863l-72.304,15.443c-6.232,1.322-10.197,7.449-8.855,13.68l15.443,72.283c1.322,6.232,7.449,10.197,13.68,8.854l72.304-15.422c6.232-1.322,10.197-7.449,8.854-13.68l-15.422-72.304c-1.322-6.232-7.449-10.197-13.68-8.854h-.021Z"/>
      <path class="st1" d="M1286.557,521.226l-30.76-12.296c-7.994-3.21-16.303,3.798-14.52,12.233l7.721,36.089c1.804,8.414,12.254,11.414,18.254,5.246l23.08-23.794c5.329-5.497,3.378-14.666-3.735-17.478h-.042Z"/>
      <path class="st1" d="M1877.37,354.523l-72.304,15.443c-6.232,1.322-10.197,7.449-8.855,13.68l15.443,72.304c1.322,6.232,7.449,10.197,13.68,8.854l72.283-15.443c6.232-1.322,10.197-7.449,8.855-13.68l-15.422-72.304c-1.322-6.232-7.449-10.197-13.68-8.854Z"/>
      <path class="st1" d="M1859.577,382.094l-26.71,5.707c-6.232,1.322-10.197,7.449-8.855,13.68l5.707,26.71c1.322,6.232,7.449,10.197,13.68,8.854l26.71-5.707c6.232-1.322,10.197-7.449,8.854-13.68l-5.707-26.71c-1.322-6.232-7.449-10.197-13.68-8.854Z"/>
      <path class="st1" d="M1760.542,379.429l-72.304,15.443c-6.232,1.322-10.197,7.449-8.855,13.68l15.422,72.304c1.322,6.232,7.449,10.197,13.68,8.854l72.304-15.443c6.232-1.322,10.197-7.449,8.854-13.68l-15.443-72.304c-1.322-6.232-7.449-10.197-13.68-8.854h.021Z"/>
      <path class="st1" d="M1717.508,409.182l-6.442,1.385c-2.812.608-4.616,3.378-4.008,6.19l9.673,45.279c.609,2.812,3.378,4.616,6.19,4.008l6.442-1.385c2.812-.608,4.616-3.378,4.008-6.19l-9.673-45.279c-.608-2.812-3.378-4.616-6.19-4.008Z"/>
      <path class="st1" d="M1746.169,403.097l-6.442,1.385c-2.812.608-4.616,3.378-4.008,6.19l9.673,45.279c.608,2.812,3.378,4.616,6.19,4.008l6.442-1.385c2.812-.608,4.616-3.378,4.008-6.19l-9.673-45.279c-.609-2.812-3.378-4.616-6.19-4.008Z"/>
      <path class="st1" d="M1643.735,404.377l-72.304,15.443c-6.232,1.322-10.197,7.449-8.854,13.68l15.443,72.304c1.322,6.232,7.449,10.197,13.68,8.854l72.304-15.443c6.232-1.322,10.197-7.449,8.854-13.68l-15.422-72.304c-1.322-6.232-7.449-10.197-13.68-8.854h-.021Z"/>
      <path class="st1" d="M1635.447,446.761l-30.76-12.295c-7.994-3.21-16.303,3.798-14.52,12.233l7.721,36.089c1.804,8.414,12.253,11.414,18.254,5.246l23.08-23.794c5.309-5.497,3.378-14.666-3.735-17.478h-.042Z"/>
      <path class="st1" d="M2109.432,304.943l-72.304,15.443c-6.232,1.322-10.197,7.449-8.854,13.68l15.422,72.304c1.322,6.232,7.449,10.197,13.68,8.854l72.304-15.443c6.211-1.322,10.197-7.449,8.854-13.68l-15.422-72.304c-1.343-6.232-7.448-10.197-13.68-8.854Z"/>
      <path class="st1" d="M2066.377,334.716l-6.442,1.385c-2.812.608-4.616,3.378-4.008,6.19l9.673,45.279c.608,2.812,3.378,4.616,6.19,4.008l6.442-1.385c2.812-.608,4.616-3.378,4.008-6.19l-9.673-45.279c-.608-2.812-3.378-4.616-6.19-4.008Z"/>
      <path class="st1" d="M1992.625,329.912l-72.304,15.443c-6.232,1.322-10.197,7.449-8.855,13.68l15.422,72.304c1.322,6.232,7.449,10.197,13.68,8.854l72.304-15.443c6.232-1.322,10.197-7.449,8.855-13.68l-15.443-72.304c-1.322-6.232-7.449-10.197-13.68-8.854h.021Z"/>
      <path class="st1" d="M1984.358,372.316l-30.76-12.295c-7.994-3.21-16.303,3.798-14.52,12.233l7.721,36.089c1.804,8.414,12.254,11.414,18.254,5.246l23.08-23.794c5.329-5.497,3.378-14.666-3.735-17.478h-.042Z"/>
      <path class="st1" d="M273.185,819.906l-72.283,15.422c-6.232,1.322-10.197,7.449-8.854,13.68l15.443,72.304c1.322,6.232,7.449,10.197,13.68,8.854l72.304-15.422c6.232-1.322,10.197-7.449,8.854-13.68l-15.443-72.304c-1.322-6.232-7.449-10.197-13.68-8.854h-.021Z"/>
      <path class="st1" d="M255.371,847.518l-26.71,5.707c-6.232,1.322-10.197,7.449-8.854,13.68l5.707,26.71c1.322,6.232,7.449,10.197,13.68,8.854l26.71-5.707c6.232-1.322,10.197-7.449,8.854-13.68l-5.707-26.71c-1.322-6.232-7.449-10.197-13.68-8.854Z"/>
      <path class="st1" d="M156.336,844.812l-72.304,15.443c-6.232,1.322-10.197,7.449-8.854,13.68l15.443,72.283c1.322,6.232,7.449,10.197,13.68,8.854l72.304-15.443c6.232-1.322,10.197-7.449,8.854-13.68l-15.443-72.283c-1.322-6.232-7.449-10.197-13.68-8.854Z"/>
      <path class="st1" d="M113.26,874.627l-6.441,1.364c-2.812.608-4.616,3.378-4.008,6.19l9.673,45.279c.608,2.812,3.378,4.616,6.19,4.008l6.441-1.364c2.812-.608,4.616-3.378,4.008-6.19l-9.673-45.279c-.608-2.812-3.378-4.616-6.19-4.008Z"/>
      <path class="st1" d="M141.963,868.48l-6.441,1.385c-2.812.608-4.616,3.378-4.008,6.19l9.673,45.279c.608,2.812,3.378,4.616,6.19,4.008l6.441-1.385c2.812-.608,4.616-3.378,4.008-6.19l-9.673-45.279c-.608-2.812-3.378-4.616-6.19-4.008Z"/>
      <path class="st1" d="M39.529,869.78l-72.304,15.443c-6.232,1.322-10.197,7.449-8.854,13.68l15.443,72.283c1.322,6.232,7.449,10.197,13.68,8.854l72.304-15.443c6.232-1.322,10.198-7.449,8.855-13.68l-15.443-72.283c-1.322-6.232-7.449-10.197-13.68-8.854Z"/>
      <path class="st1" d="M31.178,912.038l-30.76-12.295c-7.994-3.21-16.324,3.798-14.52,12.233l7.721,36.089c1.804,8.414,12.254,11.414,18.254,5.246l23.08-23.773c5.329-5.497,3.378-14.666-3.735-17.478h-.042v-.021Z"/>
      <path class="st1" d="M622.075,745.399l-72.304,15.422c-6.232,1.322-10.197,7.449-8.854,13.68l15.443,72.283c1.322,6.232,7.449,10.197,13.68,8.854l72.283-15.443c6.232-1.322,10.197-7.449,8.854-13.68l-15.422-72.304c-1.322-6.232-7.449-10.197-13.68-8.854v.042Z"/>
      <path class="st1" d="M604.261,773.053l-26.71,5.707c-6.232,1.322-10.197,7.449-8.854,13.68l5.707,26.71c1.322,6.232,7.449,10.197,13.68,8.854l26.71-5.707c6.232-1.322,10.197-7.449,8.854-13.68l-5.707-26.71c-1.322-6.232-7.449-10.197-13.68-8.854Z"/>
      <path class="st1" d="M505.205,770.325l-72.304,15.422c-6.232,1.322-10.197,7.449-8.854,13.68l15.422,72.304c1.322,6.232,7.449,10.197,13.68,8.854l72.304-15.443c6.232-1.322,10.197-7.449,8.854-13.68l-15.422-72.304c-1.322-6.232-7.449-10.197-13.68-8.854v.021Z"/>
      <path class="st1" d="M462.15,800.141l-6.441,1.385c-2.812.608-4.616,3.378-4.008,6.19l9.673,45.279c.608,2.812,3.378,4.616,6.19,4.008l6.442-1.385c2.812-.608,4.616-3.378,4.008-6.19l-9.673-45.279c-.608-2.812-3.378-4.616-6.19-4.008Z"/>
      <path class="st1" d="M490.853,793.993l-6.442,1.385c-2.812.608-4.616,3.378-4.008,6.19l9.673,45.279c.608,2.812,3.378,4.616,6.19,4.008l6.441-1.385c2.812-.608,4.616-3.378,4.008-6.19l-9.673-45.279c-.608-2.812-3.378-4.616-6.19-4.008Z"/>
      <path class="st1" d="M388.398,795.315l-72.304,15.422c-6.232,1.322-10.197,7.449-8.854,13.68l15.443,72.304c1.322,6.211,7.449,10.197,13.68,8.854l72.304-15.443c6.232-1.322,10.197-7.449,8.854-13.68l-15.443-72.304c-1.322-6.211-7.449-10.197-13.68-8.854v.021Z"/>
      <path class="st1" d="M380.068,837.594l-30.76-12.296c-7.994-3.21-16.303,3.798-14.52,12.233l7.721,36.089c1.804,8.414,12.254,11.414,18.254,5.246l23.08-23.794c5.329-5.497,3.378-14.666-3.735-17.478h-.042Z"/>
      <path class="st1" d="M970.944,670.933l-72.283,15.443c-6.232,1.322-10.197,7.449-8.854,13.68l15.422,72.304c1.322,6.232,7.449,10.197,13.68,8.854l72.304-15.443c6.232-1.322,10.197-7.449,8.854-13.68l-15.443-72.304c-1.322-6.232-7.449-10.197-13.68-8.854Z"/>
      <path class="st1" d="M953.13,698.588l-26.71,5.707c-6.232,1.322-10.197,7.449-8.854,13.68l5.707,26.71c1.322,6.211,7.449,10.197,13.68,8.854l26.71-5.707c6.232-1.322,10.197-7.449,8.854-13.68l-5.707-26.71c-1.322-6.232-7.449-10.197-13.68-8.854Z"/>
      <path class="st1" d="M854.095,695.86l-72.283,15.443c-6.232,1.322-10.197,7.449-8.854,13.68l15.443,72.304c1.322,6.232,7.449,10.197,13.68,8.854l72.283-15.443c6.232-1.322,10.197-7.449,8.854-13.68l-15.422-72.304c-1.322-6.232-7.449-10.197-13.68-8.854h-.021Z"/>
      <path class="st1" d="M811.019,725.633l-6.442,1.385c-2.812.608-4.616,3.378-4.008,6.19l9.673,45.279c.608,2.812,3.378,4.616,6.19,4.008l6.442-1.385c2.812-.608,4.616-3.378,4.008-6.19l-9.673-45.279c-.608-2.812-3.378-4.616-6.19-4.008Z"/>
      <path class="st1" d="M839.743,719.528l-6.442,1.385c-2.812.608-4.616,3.378-4.008,6.19l9.673,45.279c.608,2.812,3.378,4.616,6.19,4.008l6.442-1.385c2.812-.608,4.616-3.378,4.008-6.19l-9.673-45.279c-.608-2.812-3.378-4.616-6.19-4.008Z"/>
      <path class="st1" d="M737.288,720.829l-72.304,15.443c-6.232,1.322-10.197,7.449-8.854,13.68l15.443,72.304c1.322,6.232,7.449,10.197,13.68,8.854l72.304-15.422c6.232-1.322,10.197-7.449,8.854-13.68l-15.443-72.304c-1.322-6.232-7.449-10.197-13.68-8.854v-.021Z"/>
      <path class="st1" d="M728.958,763.149l-30.76-12.295c-7.994-3.21-16.303,3.798-14.52,12.233l7.721,36.089c1.804,8.414,12.254,11.414,18.254,5.246l23.08-23.794c5.329-5.497,3.378-14.666-3.735-17.478h-.042Z"/>
      <path class="st1" d="M1319.834,596.447l-72.304,15.422c-6.232,1.322-10.197,7.449-8.854,13.68l15.443,72.304c1.322,6.232,7.449,10.197,13.68,8.854l72.304-15.422c6.232-1.322,10.197-7.449,8.855-13.68l-15.443-72.304c-1.322-6.232-7.449-10.197-13.68-8.854Z"/>
      <path class="st1" d="M1302.02,624.08l-26.71,5.707c-6.232,1.322-10.197,7.449-8.855,13.68l5.707,26.71c1.322,6.232,7.449,10.197,13.68,8.854l26.71-5.707c6.232-1.322,10.197-7.449,8.854-13.68l-5.707-26.71c-1.322-6.232-7.449-10.197-13.68-8.854Z"/>
      <path class="st1" d="M1202.985,621.395l-72.283,15.443c-6.232,1.322-10.197,7.449-8.854,13.68l15.422,72.304c1.322,6.232,7.449,10.197,13.68,8.854l72.283-15.422c6.232-1.322,10.197-7.449,8.854-13.68l-15.422-72.283c-1.322-6.232-7.449-10.197-13.68-8.854v-.042Z"/>
      <path class="st1" d="M1159.909,651.168l-6.442,1.364c-2.812.608-4.616,3.378-4.008,6.19l9.673,45.279c.609,2.812,3.378,4.616,6.19,4.008l6.442-1.364c2.812-.608,4.616-3.378,4.008-6.19l-9.673-45.279c-.608-2.812-3.378-4.616-6.19-4.008Z"/>
      <path class="st1" d="M1188.654,645.062l-6.442,1.364c-2.812.608-4.616,3.378-4.008,6.19l9.673,45.279c.609,2.812,3.378,4.616,6.19,4.008l6.442-1.364c2.812-.608,4.616-3.378,4.008-6.19l-9.673-45.279c-.608-2.812-3.378-4.616-6.19-4.008Z"/>
      <path class="st1" d="M1086.178,646.363l-72.304,15.443c-6.232,1.322-10.197,7.449-8.854,13.68l15.443,72.304c1.322,6.211,7.449,10.197,13.68,8.854l72.304-15.422c6.232-1.322,10.197-7.449,8.855-13.68l-15.443-72.304c-1.322-6.211-7.449-10.197-13.68-8.854v-.021Z"/>
      <path class="st1" d="M1077.869,688.705l-30.76-12.295c-7.994-3.21-16.324,3.798-14.52,12.233l7.721,36.089c1.804,8.414,12.253,11.414,18.254,5.246l23.08-23.794c5.33-5.497,3.378-14.667-3.735-17.478h-.042Z"/>
      <path class="st1" d="M1668.724,521.981l-72.304,15.443c-6.232,1.322-10.197,7.449-8.855,13.68l15.443,72.304c1.322,6.232,7.449,10.197,13.68,8.854l72.304-15.443c6.232-1.322,10.197-7.449,8.854-13.68l-15.443-72.304c-1.322-6.232-7.449-10.197-13.68-8.854Z"/>
      <path class="st1" d="M1650.91,549.594l-26.71,5.707c-6.232,1.322-10.197,7.449-8.854,13.68l5.707,26.71c1.322,6.232,7.449,10.197,13.68,8.854l26.71-5.707c6.232-1.322,10.197-7.449,8.855-13.68l-5.707-26.71c-1.322-6.211-7.449-10.197-13.68-8.854Z"/>
      <path class="st1" d="M1551.875,546.908l-72.304,15.443c-6.232,1.322-10.197,7.449-8.855,13.68l15.422,72.304c1.322,6.232,7.449,10.197,13.68,8.854l72.304-15.422c6.232-1.322,10.197-7.449,8.855-13.68l-15.422-72.304c-1.322-6.232-7.449-10.197-13.68-8.854v-.021Z"/>
      <path class="st1" d="M1508.799,576.682l-6.442,1.385c-2.812.608-4.616,3.378-4.008,6.19l9.673,45.279c.608,2.812,3.378,4.616,6.19,4.008l6.442-1.385c2.812-.608,4.616-3.378,4.008-6.19l-9.673-45.279c-.609-2.812-3.378-4.616-6.19-4.008Z"/>
      <path class="st1" d="M1537.544,570.576l-6.442,1.385c-2.812.608-4.616,3.378-4.008,6.19l9.673,45.279c.608,2.812,3.378,4.616,6.19,4.008l6.441-1.385c2.812-.608,4.616-3.378,4.008-6.19l-9.673-45.279c-.609-2.812-3.378-4.616-6.19-4.008Z"/>
      <path class="st1" d="M1435.068,571.877l-72.304,15.443c-6.232,1.322-10.197,7.449-8.855,13.68l15.443,72.304c1.322,6.232,7.449,10.197,13.68,8.854l72.304-15.422c6.232-1.322,10.197-7.449,8.854-13.68l-15.422-72.304c-1.322-6.232-7.449-10.197-13.68-8.854l-.021-.021Z"/>
      <path class="st1" d="M1426.759,614.24l-30.76-12.295c-7.994-3.21-16.303,3.798-14.52,12.233l7.721,36.089c1.804,8.414,12.254,11.414,18.254,5.246l23.08-23.773c5.308-5.497,3.378-14.666-3.735-17.478h-.042v-.021Z"/>
      <path class="st1" d="M2017.593,447.474l-72.304,15.443c-6.232,1.322-10.197,7.449-8.855,13.68l15.443,72.283c1.322,6.232,7.449,10.197,13.68,8.854l72.304-15.443c6.232-1.322,10.197-7.449,8.854-13.68l-15.422-72.304c-1.322-6.232-7.449-10.197-13.68-8.854l-.021.021Z"/>
      <path class="st1" d="M1999.8,475.128l-26.71,5.707c-6.232,1.322-10.197,7.449-8.855,13.68l5.707,26.71c1.322,6.232,7.449,10.197,13.68,8.854l26.71-5.707c6.232-1.322,10.197-7.449,8.854-13.68l-5.707-26.71c-1.322-6.232-7.449-10.197-13.68-8.854Z"/>
      <path class="st1" d="M1900.765,472.443l-72.283,15.443c-6.232,1.322-10.197,7.449-8.854,13.68l15.422,72.304c1.322,6.232,7.449,10.197,13.68,8.854l72.304-15.422c6.232-1.322,10.197-7.449,8.854-13.68l-15.422-72.304c-1.322-6.232-7.449-10.197-13.68-8.854l-.021-.021Z"/>
      <path class="st1" d="M1857.689,502.216l-6.442,1.385c-2.812.608-4.616,3.378-4.008,6.19l9.673,45.279c.609,2.812,3.378,4.616,6.19,4.008l6.442-1.364c2.812-.608,4.616-3.378,4.008-6.19l-9.673-45.279c-.608-2.812-3.378-4.616-6.19-4.008v-.021Z"/>
      <path class="st1" d="M1886.413,496.069l-6.442,1.385c-2.812.608-4.616,3.378-4.008,6.19l9.673,45.279c.609,2.812,3.378,4.616,6.19,4.008l6.442-1.385c2.812-.608,4.616-3.378,4.008-6.19l-9.673-45.279c-.608-2.812-3.378-4.616-6.19-4.008Z"/>
      <path class="st1" d="M1783.958,497.411l-72.304,15.443c-6.232,1.322-10.197,7.449-8.854,13.68l15.422,72.304c1.322,6.232,7.449,10.197,13.68,8.854l72.304-15.443c6.232-1.322,10.197-7.449,8.855-13.68l-15.443-72.283c-1.322-6.232-7.449-10.197-13.68-8.854l.021-.021Z"/>
      <path class="st1" d="M1775.649,539.795l-30.76-12.295c-7.994-3.21-16.324,3.798-14.52,12.233l7.722,36.089c1.804,8.414,12.253,11.414,18.254,5.246l23.08-23.773c5.33-5.497,3.378-14.667-3.735-17.478h-.042v-.021Z"/>
      <path class="st1" d="M2132.848,422.925l-72.304,15.443c-6.232,1.322-10.197,7.449-8.855,13.68l15.422,72.283c1.322,6.232,7.449,10.197,13.68,8.854l72.283-15.422c6.232-1.322,10.197-7.449,8.875-13.68l-15.443-72.304c-1.322-6.232-7.449-10.197-13.659-8.854Z"/>
      <path class="st1" d="M183.172,962.039l-72.304,15.443c-6.232,1.322-10.197,7.449-8.854,13.68l15.443,72.304c1.322,6.232,7.449,10.197,13.68,8.854l72.304-15.443c6.232-1.322,10.197-7.449,8.854-13.68l-15.443-72.304c-1.322-6.232-7.449-10.197-13.68-8.854Z"/>
      <path class="st1" d="M165.316,989.692l-26.71,5.707c-6.232,1.322-10.197,7.45-8.854,13.681l5.707,26.71c1.322,6.232,7.449,10.197,13.68,8.854l26.71-5.707c6.232-1.322,10.197-7.449,8.854-13.68l-5.707-26.711c-1.322-6.232-7.449-10.197-13.68-8.854Z"/>
      <path class="st1" d="M66.323,987.007l-72.304,15.443c-6.232,1.322-10.197,7.449-8.854,13.68l15.443,72.304c1.322,6.232,7.449,10.197,13.68,8.854l72.304-15.443c6.232-1.322,10.197-7.449,8.854-13.68l-15.443-72.283c-1.322-6.232-7.449-10.197-13.681-8.854v-.021Z"/>
      <path class="st1" d="M23.247,1016.781l-6.441,1.364c-2.812.608-4.616,3.378-4.008,6.19l9.673,45.279c.608,2.812,3.378,4.616,6.19,4.008l6.442-1.364c2.812-.608,4.616-3.378,4.008-6.19l-9.673-45.279c-.608-2.812-3.378-4.616-6.19-4.008Z"/>
      <path class="st1" d="M51.95,1010.633l-6.441,1.385c-2.812.608-4.616,3.378-4.008,6.19l9.673,45.279c.608,2.812,3.378,4.616,6.19,4.008l6.441-1.385c2.812-.609,4.616-3.378,4.008-6.19l-9.673-45.279c-.608-2.812-3.378-4.616-6.19-4.008Z"/>
      <path class="st1" d="M532.062,887.552l-72.304,15.443c-6.232,1.322-10.197,7.449-8.854,13.68l15.422,72.304c1.322,6.232,7.449,10.197,13.68,8.854l72.304-15.443c6.232-1.322,10.197-7.449,8.854-13.68l-15.443-72.304c-1.322-6.232-7.449-10.197-13.68-8.854h.021Z"/>
      <path class="st1" d="M514.206,915.228l-26.71,5.707c-6.232,1.322-10.197,7.449-8.854,13.68l5.707,26.71c1.322,6.232,7.449,10.197,13.68,8.854l26.71-5.707c6.211-1.322,10.197-7.449,8.854-13.68l-5.707-26.71c-1.322-6.232-7.449-10.197-13.68-8.854Z"/>
      <path class="st1" d="M415.213,912.521l-72.304,15.443c-6.232,1.322-10.197,7.449-8.854,13.68l15.422,72.283c1.322,6.232,7.449,10.197,13.68,8.854l72.304-15.422c6.211-1.322,10.197-7.449,8.854-13.68l-15.443-72.304c-1.322-6.232-7.449-10.197-13.68-8.854h.021Z"/>
      <path class="st1" d="M372.137,942.294l-6.442,1.364c-2.812.608-4.616,3.378-4.008,6.19l9.673,45.278c.608,2.812,3.378,4.617,6.19,4.009l6.441-1.386c2.812-.608,4.616-3.378,4.008-6.19l-9.673-45.278c-.608-2.812-3.378-4.617-6.19-4.009v.022Z"/>
      <path class="st1" d="M400.84,936.168l-6.441,1.364c-2.812.608-4.616,3.378-4.008,6.19l9.673,45.279c.608,2.812,3.378,4.616,6.19,4.008l6.442-1.385c2.812-.608,4.616-3.378,4.008-6.19l-9.673-45.279c-.608-2.812-3.378-4.616-6.19-4.008v.021Z"/>
      <path class="st1" d="M298.364,937.427l-72.304,15.443c-6.232,1.322-10.197,7.449-8.854,13.68l15.422,72.283c1.322,6.232,7.449,10.197,13.68,8.854l72.283-15.443c6.232-1.322,10.197-7.449,8.854-13.68l-15.422-72.283c-1.322-6.232-7.449-10.197-13.68-8.854h.021Z"/>
      <path class="st1" d="M290.034,979.768l-30.76-12.295c-7.994-3.21-16.303,3.798-14.52,12.233l7.721,36.089c1.804,8.414,12.254,11.414,18.254,5.246l23.08-23.794c5.329-5.497,3.378-14.667-3.735-17.478h-.042Z"/>
      <path class="st1" d="M880.952,813.087l-72.283,15.422c-6.232,1.322-10.197,7.449-8.854,13.68l15.443,72.304c1.322,6.232,7.449,10.197,13.68,8.854l72.283-15.422c6.232-1.322,10.197-7.449,8.854-13.68l-15.422-72.283c-1.322-6.232-7.449-10.197-13.68-8.854l-.021-.021Z"/>
      <path class="st1" d="M863.096,840.741l-26.71,5.707c-6.232,1.322-10.197,7.449-8.854,13.68l5.707,26.71c1.322,6.232,7.449,10.197,13.68,8.854l26.71-5.707c6.232-1.322,10.197-7.449,8.854-13.68l-5.707-26.71c-1.322-6.232-7.449-10.197-13.68-8.854Z"/>
      <path class="st1" d="M764.103,838.056l-72.304,15.443c-6.232,1.322-10.197,7.449-8.854,13.68l15.443,72.283c1.322,6.232,7.449,10.197,13.68,8.854l72.304-15.443c6.232-1.322,10.197-7.449,8.854-13.68l-15.443-72.283c-1.322-6.232-7.449-10.197-13.68-8.854Z"/>
      <path class="st1" d="M721.027,867.829l-6.441,1.384c-2.812.608-4.616,3.379-4.008,6.191l9.673,45.278c.608,2.812,3.378,4.616,6.19,4.008l6.442-1.385c2.812-.608,4.616-3.377,4.008-6.189l-9.673-45.28c-.608-2.812-3.378-4.615-6.19-4.006Z"/>
      <path class="st1" d="M749.73,861.681l-6.442,1.385c-2.812.608-4.616,3.378-4.008,6.19l9.673,45.279c.608,2.812,3.378,4.616,6.19,4.008l6.442-1.364c2.812-.608,4.616-3.378,4.008-6.19l-9.673-45.279c-.608-2.812-3.378-4.616-6.19-4.008v-.021Z"/>
      <path class="st1" d="M647.254,862.961l-72.304,15.422c-6.232,1.322-10.197,7.449-8.854,13.68l15.443,72.304c1.322,6.232,7.449,10.197,13.68,8.854l72.283-15.443c6.232-1.322,10.197-7.449,8.854-13.68l-15.443-72.283c-1.322-6.232-7.449-10.197-13.68-8.854h.021Z"/>
      <path class="st1" d="M638.945,905.324l-30.76-12.296c-7.994-3.21-16.303,3.798-14.52,12.233l7.721,36.089c1.804,8.414,12.254,11.414,18.254,5.246l23.08-23.773c5.329-5.497,3.378-14.667-3.735-17.478h-.042v-.021Z"/>
      <path class="st1" d="M1229.821,738.6l-72.304,15.422c-6.232,1.322-10.197,7.449-8.855,13.68l15.443,72.283c1.322,6.232,7.449,10.197,13.68,8.854l72.304-15.443c6.232-1.322,10.197-7.449,8.854-13.68l-15.422-72.304c-1.322-6.232-7.449-10.197-13.68-8.854l-.021.042Z"/>
      <path class="st1" d="M1211.986,766.276l-26.71,5.707c-6.232,1.322-10.197,7.449-8.854,13.68l5.707,26.71c1.322,6.232,7.449,10.197,13.68,8.854l26.71-5.707c6.232-1.322,10.197-7.449,8.855-13.68l-5.707-26.71c-1.322-6.232-7.449-10.197-13.68-8.854Z"/>
      <path class="st1" d="M1112.993,763.569l-72.283,15.443c-6.232,1.322-10.197,7.449-8.854,13.68l15.443,72.304c1.322,6.232,7.449,10.197,13.68,8.854l72.283-15.443c6.232-1.322,10.197-7.449,8.854-13.68l-15.443-72.304c-1.322-6.232-7.449-10.197-13.68-8.854Z"/>
      <path class="st1" d="M1069.917,793.322l-6.442,1.385c-2.812.608-4.616,3.378-4.008,6.19l9.673,45.279c.608,2.812,3.378,4.616,6.19,4.008l6.442-1.385c2.812-.608,4.616-3.378,4.008-6.19l-9.673-45.279c-.609-2.812-3.378-4.616-6.19-4.008Z"/>
      <path class="st1" d="M1098.62,787.216l-6.442,1.385c-2.812.608-4.616,3.378-4.008,6.19l9.673,45.279c.608,2.812,3.378,4.616,6.19,4.008l6.441-1.385c2.812-.608,4.616-3.378,4.008-6.19l-9.673-45.279c-.609-2.812-3.378-4.616-6.19-4.008Z"/>
      <path class="st1" d="M996.123,788.475l-72.304,15.422c-6.232,1.322-10.197,7.449-8.854,13.68l15.443,72.304c1.322,6.232,7.449,10.197,13.68,8.854l72.304-15.443c6.232-1.322,10.197-7.449,8.854-13.68l-15.443-72.304c-1.322-6.232-7.449-10.197-13.68-8.854v.021Z"/>
      <path class="st1" d="M987.835,830.859l-30.76-12.295c-7.994-3.21-16.324,3.798-14.52,12.233l7.721,36.089c1.804,8.414,12.254,11.414,18.254,5.246l23.08-23.773c5.329-5.497,3.378-14.666-3.735-17.478h-.042v-.021Z"/>
      <path class="st1" d="M1578.711,664.135l-72.304,15.443c-6.232,1.322-10.197,7.449-8.854,13.68l15.422,72.304c1.322,6.232,7.449,10.197,13.68,8.854l72.304-15.443c6.232-1.322,10.197-7.449,8.854-13.68l-15.422-72.304c-1.322-6.232-7.449-10.197-13.68-8.854Z"/>
      <path class="st1" d="M1560.876,691.789l-26.71,5.707c-6.232,1.322-10.197,7.449-8.855,13.68l5.707,26.71c1.322,6.232,7.449,10.197,13.68,8.854l26.71-5.707c6.232-1.322,10.197-7.449,8.854-13.68l-5.707-26.71c-1.322-6.232-7.449-10.197-13.68-8.854Z"/>
      <path class="st1" d="M1461.862,689.104l-72.304,15.422c-6.232,1.322-10.197,7.449-8.854,13.68l15.422,72.304c1.322,6.232,7.449,10.197,13.68,8.854l72.283-15.422c6.232-1.322,10.197-7.449,8.854-13.68l-15.422-72.304c-1.322-6.232-7.449-10.197-13.68-8.854h.021Z"/>
      <path class="st1" d="M1418.786,718.835l-6.441,1.364c-2.812.608-4.616,3.378-4.008,6.19l9.673,45.279c.609,2.812,3.378,4.616,6.19,4.008l6.442-1.385c2.812-.608,4.616-3.378,4.008-6.19l-9.673-45.279c-.608-2.812-3.378-4.616-6.19-4.008v.021Z"/>
      <path class="st1" d="M1447.51,712.73l-6.441,1.385c-2.812.608-4.616,3.378-4.008,6.19l9.673,45.279c.609,2.812,3.378,4.616,6.19,4.008l6.442-1.364c2.812-.608,4.616-3.378,4.008-6.19l-9.673-45.279c-.608-2.812-3.378-4.616-6.19-4.008v-.021Z"/>
      <path class="st1" d="M1345.013,714.009l-72.304,15.422c-6.232,1.322-10.197,7.449-8.854,13.68l15.422,72.304c1.322,6.232,7.449,10.197,13.68,8.854l72.304-15.422c6.232-1.322,10.197-7.449,8.854-13.68l-15.422-72.304c-1.322-6.232-7.449-10.197-13.68-8.854Z"/>
      <path class="st1" d="M1336.725,756.414l-30.76-12.296c-7.994-3.21-16.303,3.798-14.52,12.233l7.722,36.089c1.804,8.414,12.253,11.414,18.254,5.246l23.08-23.794c5.33-5.497,3.378-14.666-3.735-17.478h-.042Z"/>
      <path class="st1" d="M1927.601,589.67l-72.304,15.422c-6.232,1.322-10.197,7.449-8.855,13.68l15.422,72.304c1.322,6.232,7.449,10.197,13.68,8.854l72.283-15.422c6.232-1.322,10.197-7.449,8.855-13.68l-15.422-72.304c-1.322-6.232-7.449-10.197-13.68-8.854h.021Z"/>
      <path class="st1" d="M1909.745,617.324l-26.71,5.707c-6.232,1.322-10.197,7.449-8.854,13.68l5.707,26.71c1.322,6.232,7.449,10.197,13.68,8.854l26.71-5.707c6.232-1.322,10.197-7.449,8.855-13.68l-5.707-26.71c-1.322-6.232-7.449-10.197-13.68-8.854Z"/>
      <path class="st1" d="M1810.752,614.638l-72.283,15.443c-6.232,1.322-10.197,7.449-8.855,13.68l15.422,72.304c1.322,6.232,7.449,10.197,13.68,8.854l72.304-15.422c6.232-1.322,10.197-7.449,8.854-13.68l-15.422-72.304c-1.322-6.232-7.449-10.197-13.68-8.854l-.021-.021Z"/>
      <path class="st1" d="M1767.676,644.37l-6.442,1.364c-2.812.608-4.616,3.378-4.008,6.19l9.673,45.279c.608,2.812,3.378,4.616,6.19,4.008l6.442-1.364c2.812-.608,4.616-3.378,4.008-6.19l-9.673-45.279c-.609-2.812-3.378-4.616-6.19-4.008Z"/>
      <path class="st1" d="M1796.379,638.264l-6.442,1.385c-2.812.608-4.616,3.378-4.008,6.19l9.673,45.279c.608,2.812,3.378,4.616,6.19,4.008l6.442-1.385c2.812-.608,4.616-3.378,4.008-6.19l-9.673-45.279c-.608-2.812-3.378-4.616-6.19-4.008Z"/>
      <path class="st1" d="M1693.945,639.523l-72.304,15.443c-6.211,1.322-10.197,7.449-8.855,13.68l15.422,72.304c1.322,6.232,7.449,10.197,13.68,8.854l72.304-15.443c6.232-1.322,10.197-7.449,8.854-13.68l-15.443-72.304c-1.322-6.232-7.449-10.197-13.68-8.854h.021Z"/>
      <path class="st1" d="M1685.636,681.97l-30.76-12.295c-7.994-3.21-16.303,3.798-14.52,12.233l7.721,36.089c1.804,8.414,12.254,11.414,18.254,5.246l23.08-23.773c5.308-5.497,3.378-14.666-3.735-17.478h-.042v-.021Z"/>
      <path class="st1" d="M2042.835,565.058l-72.283,15.422c-6.232,1.322-10.197,7.449-8.855,13.68l15.422,72.304c1.322,6.232,7.449,10.197,13.68,8.854l72.304-15.422c6.232-1.322,10.197-7.449,8.855-13.68l-15.422-72.304c-1.322-6.232-7.449-10.197-13.68-8.854h-.021Z"/>
      <path class="st1" d="M2034.526,607.504l-30.76-12.296c-7.994-3.21-16.324,3.798-14.52,12.233l7.721,36.089c1.805,8.414,12.254,11.414,18.254,5.246l23.08-23.773c5.33-5.497,3.378-14.666-3.735-17.478h-.042v-.021Z"/>
      <path class="st1" d="M-25.537,1129.538l-72.304,15.443c-6.232,1.322-10.197,7.449-8.854,13.68l15.443,72.283c1.322,6.232,7.449,10.197,13.68,8.854l72.304-15.443c6.232-1.322,10.197-7.449,8.854-13.68l-15.443-72.283c-1.322-6.232-7.449-10.197-13.68-8.855Z"/>
      <path class="st1" d="M323.353,1055.052l-72.283,15.422c-6.232,1.322-10.197,7.449-8.854,13.68l15.443,72.304c1.322,6.232,7.449,10.197,13.68,8.854l72.283-15.443c6.232-1.322,10.197-7.449,8.854-13.68l-15.443-72.283c-1.322-6.232-7.449-10.197-13.68-8.855Z"/>
      <path class="st1" d="M305.582,1082.685l-26.71,5.707c-6.232,1.322-10.197,7.449-8.854,13.68l5.707,26.71c1.322,6.232,7.449,10.197,13.68,8.854l26.71-5.707c6.232-1.322,10.197-7.449,8.854-13.68l-5.707-26.71c-1.322-6.232-7.449-10.197-13.68-8.855Z"/>
      <path class="st1" d="M206.588,1079.979l-72.304,15.443c-6.232,1.322-10.197,7.449-8.854,13.68l15.443,72.304c1.322,6.211,7.449,10.197,13.68,8.854l72.304-15.443c6.232-1.322,10.197-7.449,8.854-13.68l-15.443-72.304c-1.322-6.211-7.449-10.197-13.68-8.854Z"/>
      <path class="st1" d="M163.491,1109.752l-6.441,1.385c-2.812.609-4.616,3.378-4.008,6.19l9.673,45.279c.608,2.812,3.378,4.616,6.19,4.008l6.441-1.385c2.812-.608,4.616-3.378,4.008-6.19l-9.673-45.279c-.608-2.812-3.378-4.616-6.19-4.008Z"/>
      <path class="st1" d="M192.173,1103.626l-6.441,1.364c-2.812.609-4.616,3.378-4.008,6.19l9.673,45.279c.608,2.812,3.378,4.616,6.19,4.008l6.441-1.385c2.812-.609,4.616-3.378,4.008-6.19l-9.673-45.279c-.608-2.812-3.378-4.616-6.19-4.008v.021Z"/>
      <path class="st1" d="M89.718,1104.927l-72.305,15.443c-6.232,1.322-10.197,7.449-8.854,13.68l15.443,72.283c1.322,6.232,7.449,10.197,13.68,8.855l72.305-15.422c6.232-1.322,10.197-7.449,8.854-13.68l-15.443-72.304c-1.322-6.232-7.449-10.197-13.68-8.854Z"/>
      <path class="st1" d="M81.388,1147.247l-30.76-12.295c-7.994-3.21-16.324,3.798-14.52,12.233l7.721,36.089c1.804,8.414,12.254,11.414,18.254,5.246l23.081-23.773c5.329-5.497,3.378-14.667-3.735-17.478h-.042v-.021Z"/>
      <path class="st1" d="M672.243,980.587l-72.283,15.443c-6.232,1.322-10.197,7.449-8.854,13.68l15.422,72.304c1.322,6.211,7.449,10.197,13.68,8.855l72.304-15.422c6.232-1.322,10.197-7.449,8.854-13.68l-15.443-72.304c-1.322-6.211-7.449-10.197-13.68-8.854v-.021Z"/>
      <path class="st1" d="M654.472,1008.199l-26.71,5.707c-6.232,1.322-10.197,7.449-8.854,13.68l5.707,26.71c1.322,6.232,7.449,10.197,13.68,8.854l26.71-5.707c6.232-1.322,10.197-7.449,8.854-13.68l-5.707-26.71c-1.322-6.232-7.449-10.197-13.68-8.854Z"/>
      <path class="st1" d="M555.457,1005.513l-72.304,15.443c-6.232,1.322-10.197,7.449-8.854,13.68l15.422,72.283c1.322,6.232,7.449,10.197,13.68,8.854l72.304-15.422c6.232-1.322,10.197-7.449,8.854-13.68l-15.443-72.304c-1.322-6.232-7.449-10.197-13.68-8.854h.021Z"/>
      <path class="st1" d="M512.381,1035.287l-6.442,1.385c-2.812.609-4.616,3.378-4.008,6.19l9.673,45.279c.608,2.812,3.378,4.616,6.19,4.008l6.442-1.385c2.812-.609,4.616-3.378,4.008-6.19l-9.673-45.279c-.608-2.812-3.378-4.616-6.19-4.008Z"/>
      <path class="st1" d="M541.063,1029.16l-6.442,1.364c-2.812.608-4.616,3.378-4.008,6.19l9.673,45.279c.608,2.812,3.378,4.616,6.19,4.008l6.441-1.364c2.812-.608,4.616-3.378,4.008-6.19l-9.673-45.279c-.608-2.812-3.378-4.616-6.19-4.008Z"/>
      <path class="st1" d="M438.608,1030.44l-72.304,15.422c-6.232,1.322-10.197,7.449-8.854,13.68l15.443,72.304c1.322,6.232,7.449,10.197,13.68,8.855l72.304-15.443c6.232-1.322,10.197-7.449,8.854-13.68l-15.443-72.283c-1.322-6.232-7.449-10.197-13.68-8.854Z"/>
      <path class="st1" d="M430.278,1072.803l-30.76-12.296c-7.994-3.21-16.303,3.798-14.52,12.233l7.721,36.089c1.804,8.414,12.254,11.414,18.254,5.246l23.08-23.794c5.329-5.497,3.378-14.645-3.735-17.478h-.042Z"/>
      <path class="st1" d="M1021.133,906.1l-72.304,15.422c-6.232,1.322-10.197,7.449-8.854,13.68l15.443,72.304c1.322,6.232,7.449,10.197,13.68,8.854l72.283-15.443c6.232-1.322,10.197-7.449,8.855-13.68l-15.422-72.283c-1.322-6.232-7.449-10.197-13.68-8.854Z"/>
      <path class="st1" d="M1003.341,933.734l-26.71,5.707c-6.232,1.322-10.197,7.449-8.854,13.68l5.707,26.71c1.322,6.232,7.449,10.197,13.68,8.854l26.71-5.707c6.232-1.322,10.197-7.449,8.854-13.68l-5.707-26.71c-1.322-6.232-7.449-10.197-13.68-8.854Z"/>
      <path class="st1" d="M904.326,931.048l-72.283,15.422c-6.232,1.322-10.197,7.449-8.854,13.68l15.422,72.304c1.322,6.232,7.449,10.197,13.68,8.855l72.304-15.443c6.232-1.322,10.197-7.449,8.854-13.68l-15.443-72.283c-1.322-6.232-7.449-10.197-13.68-8.854Z"/>
      <path class="st1" d="M861.271,960.822l-6.442,1.385c-2.812.608-4.616,3.378-4.008,6.19l9.673,45.279c.608,2.812,3.378,4.616,6.19,4.008l6.442-1.385c2.812-.608,4.616-3.378,4.008-6.19l-9.673-45.279c-.608-2.812-3.378-4.616-6.19-4.008Z"/>
      <path class="st1" d="M889.932,954.674l-6.441,1.364c-2.812.608-4.616,3.378-4.008,6.19l9.673,45.279c.608,2.812,3.378,4.616,6.19,4.008l6.442-1.385c2.812-.608,4.616-3.378,4.008-6.19l-9.673-45.279c-.608-2.812-3.378-4.616-6.19-4.008v.021Z"/>
      <path class="st1" d="M787.498,955.975l-72.304,15.443c-6.232,1.322-10.197,7.449-8.854,13.68l15.443,72.304c1.322,6.232,7.449,10.197,13.68,8.855l72.283-15.443c6.232-1.322,10.197-7.449,8.854-13.68l-15.422-72.304c-1.322-6.232-7.449-10.197-13.68-8.854Z"/>
      <path class="st1" d="M779.168,998.338l-30.76-12.295c-7.994-3.21-16.303,3.798-14.52,12.233l7.721,36.089c1.804,8.414,12.254,11.414,18.254,5.246l23.08-23.773c5.329-5.497,3.378-14.666-3.735-17.478h-.042v-.021Z"/>
      <path class="st1" d="M1370.044,831.635l-72.304,15.443c-6.232,1.322-10.197,7.449-8.854,13.68l15.443,72.304c1.322,6.232,7.449,10.197,13.68,8.854l72.304-15.443c6.232-1.322,10.197-7.449,8.854-13.68l-15.422-72.304c-1.322-6.232-7.449-10.197-13.68-8.854h-.021Z"/>
      <path class="st1" d="M1352.231,859.247l-26.71,5.707c-6.211,1.322-10.197,7.449-8.855,13.68l5.707,26.71c1.322,6.232,7.449,10.197,13.68,8.854l26.71-5.707c6.232-1.322,10.197-7.449,8.854-13.68l-5.707-26.71c-1.322-6.232-7.449-10.197-13.68-8.854Z"/>
      <path class="st1" d="M1253.195,856.562l-72.283,15.422c-6.232,1.322-10.197,7.449-8.854,13.68l15.422,72.304c1.322,6.211,7.449,10.197,13.68,8.854l72.304-15.443c6.232-1.322,10.197-7.449,8.854-13.68l-15.422-72.304c-1.322-6.211-7.449-10.197-13.68-8.854l-.021.021Z"/>
      <path class="st1" d="M1210.161,886.335l-6.442,1.385c-2.812.608-4.616,3.378-4.008,6.19l9.673,45.279c.609,2.812,3.378,4.616,6.19,4.008l6.442-1.364c2.812-.608,4.616-3.378,4.008-6.19l-9.673-45.279c-.608-2.812-3.378-4.616-6.19-4.008v-.021Z"/>
      <path class="st1" d="M1238.822,880.208l-6.442,1.385c-2.812.608-4.616,3.378-4.008,6.19l9.673,45.279c.608,2.812,3.378,4.616,6.19,4.008l6.442-1.385c2.812-.608,4.616-3.378,4.008-6.19l-9.673-45.279c-.609-2.812-3.378-4.616-6.19-4.008Z"/>
      <path class="st1" d="M1136.388,881.488l-72.304,15.443c-6.232,1.322-10.197,7.449-8.854,13.68l15.443,72.304c1.322,6.232,7.449,10.197,13.68,8.854l72.304-15.443c6.232-1.322,10.197-7.449,8.855-13.68l-15.422-72.304c-1.322-6.232-7.449-10.197-13.68-8.854h-.021Z"/>
      <path class="st1" d="M1128.079,923.892l-30.76-12.294c-7.994-3.21-16.303,3.797-14.52,12.231l7.721,36.09c1.804,8.414,12.253,11.414,18.254,5.246l23.08-23.794c5.33-5.497,3.378-14.668-3.735-17.479h-.042Z"/>
      <path class="st1" d="M1718.934,757.17l-72.283,15.443c-6.232,1.322-10.197,7.449-8.855,13.68l15.422,72.283c1.322,6.232,7.449,10.197,13.68,8.854l72.304-15.422c6.232-1.322,10.197-7.449,8.855-13.68l-15.443-72.283c-1.322-6.232-7.449-10.197-13.68-8.854v-.021Z"/>
      <path class="st1" d="M1701.12,784.782l-26.71,5.707c-6.232,1.322-10.197,7.449-8.854,13.68l5.707,26.71c1.322,6.232,7.449,10.197,13.68,8.854l26.71-5.707c6.232-1.322,10.197-7.449,8.855-13.68l-5.707-26.71c-1.322-6.232-7.449-10.197-13.68-8.854Z"/>
      <path class="st1" d="M1602.085,782.096l-72.304,15.443c-6.232,1.322-10.197,7.449-8.854,13.68l15.443,72.304c1.322,6.232,7.449,10.197,13.68,8.854l72.304-15.443c6.232-1.322,10.197-7.449,8.855-13.68l-15.422-72.304c-1.322-6.232-7.449-10.197-13.68-8.854h-.021Z"/>
      <path class="st1" d="M1559.051,811.87l-6.442,1.364c-2.812.608-4.616,3.378-4.008,6.19l9.673,45.279c.608,2.812,3.378,4.616,6.19,4.008l6.441-1.385c2.812-.608,4.616-3.378,4.008-6.19l-9.673-45.279c-.609-2.812-3.378-4.616-6.19-4.008v.021Z"/>
      <path class="st1" d="M1587.712,805.722l-6.442,1.385c-2.812.608-4.616,3.378-4.008,6.19l9.673,45.279c.609,2.812,3.378,4.616,6.19,4.008l6.442-1.364c2.812-.608,4.616-3.378,4.008-6.19l-9.673-45.279c-.608-2.812-3.378-4.616-6.19-4.008v-.021Z"/>
      <path class="st1" d="M1485.278,807.023l-72.304,15.422c-6.232,1.322-10.197,7.449-8.855,13.68l15.443,72.304c1.322,6.232,7.449,10.197,13.68,8.854l72.304-15.422c6.232-1.322,10.197-7.449,8.854-13.68l-15.443-72.283c-1.322-6.232-7.449-10.197-13.68-8.854v-.021Z"/>
      <path class="st1" d="M1476.969,849.428l-30.76-12.295c-7.994-3.21-16.303,3.798-14.52,12.233l7.721,36.089c1.804,8.414,12.254,11.414,18.254,5.246l23.08-23.773c5.329-5.497,3.378-14.666-3.735-17.478h-.042v-.021Z"/>
      <path class="st1" d="M2067.824,682.683l-72.304,15.422c-6.232,1.322-10.197,7.449-8.855,13.68l15.443,72.304c1.322,6.232,7.449,10.197,13.68,8.854l72.304-15.422c6.211-1.322,10.176-7.449,8.854-13.68l-15.422-72.304c-1.322-6.232-7.449-10.197-13.68-8.854h-.021Z"/>
      <path class="st1" d="M2050.011,710.296l-26.71,5.707c-6.232,1.322-10.197,7.449-8.855,13.68l5.707,26.71c1.322,6.232,7.449,10.197,13.68,8.854l26.71-5.707c6.232-1.322,10.197-7.449,8.854-13.68l-5.707-26.71c-1.322-6.232-7.449-10.197-13.68-8.854Z"/>
      <path class="st1" d="M1950.975,707.589l-72.304,15.443c-6.232,1.322-10.197,7.449-8.855,13.68l15.422,72.304c1.322,6.232,7.449,10.197,13.68,8.854l72.304-15.443c6.211-1.322,10.197-7.449,8.854-13.68l-15.422-72.304c-1.322-6.232-7.449-10.197-13.68-8.854Z"/>
      <path class="st1" d="M1907.92,737.383l-6.442,1.364c-2.812.608-4.616,3.378-4.008,6.19l9.673,45.279c.609,2.812,3.378,4.616,6.19,4.008l6.442-1.364c2.812-.608,4.616-3.378,4.008-6.19l-9.673-45.279c-.608-2.812-3.378-4.616-6.19-4.008Z"/>
      <path class="st1" d="M1936.602,731.257l-6.442,1.385c-2.812.608-4.616,3.378-4.008,6.19l9.673,45.279c.608,2.812,3.378,4.616,6.19,4.008l6.441-1.385c2.812-.608,4.616-3.378,4.008-6.19l-9.673-45.279c-.609-2.812-3.378-4.616-6.19-4.008Z"/>
      <path class="st1" d="M1834.147,732.558l-72.304,15.422c-6.232,1.322-10.197,7.449-8.854,13.68l15.443,72.283c1.322,6.232,7.449,10.197,13.68,8.854l72.304-15.443c6.232-1.322,10.197-7.449,8.854-13.68l-15.443-72.304c-1.322-6.232-7.449-10.197-13.68-8.854v.042Z"/>
      <path class="st1" d="M1825.859,774.983l-30.76-12.296c-7.994-3.21-16.303,3.798-14.52,12.233l7.721,36.089c1.804,8.414,12.253,11.414,18.254,5.246l23.08-23.794c5.309-5.497,3.378-14.666-3.735-17.478h-.042Z"/>
      <path class="st1" d="M582.23,1122.74l-72.304,15.443c-6.211,1.322-10.197,7.449-8.854,13.68l15.443,72.304c1.322,6.211,7.449,10.197,13.68,8.855l72.304-15.422c6.211-1.322,10.197-7.449,8.854-13.68l-15.443-72.304c-1.322-6.232-7.449-10.197-13.68-8.854v-.021Z"/>
      <path class="st1" d="M931.12,1048.275l-72.283,15.422c-6.232,1.322-10.197,7.449-8.854,13.68l15.422,72.304c1.322,6.232,7.449,10.197,13.68,8.855l72.304-15.443c6.232-1.322,10.197-7.449,8.854-13.68l-15.443-72.283c-1.322-6.232-7.449-10.197-13.68-8.854Z"/>
      <path class="st1" d="M913.306,1075.887l-26.71,5.707c-6.232,1.322-10.197,7.449-8.854,13.68l5.707,26.71c1.322,6.232,7.449,10.197,13.68,8.854l26.71-5.707c6.211-1.322,10.197-7.449,8.854-13.68l-5.707-26.71c-1.322-6.232-7.449-10.197-13.68-8.855Z"/>
      <path class="st1" d="M814.313,1073.202l-72.304,15.443c-6.232,1.322-10.197,7.449-8.854,13.68l15.443,72.304c1.322,6.232,7.449,10.197,13.68,8.855l72.304-15.443c6.211-1.322,10.197-7.449,8.854-13.68l-15.443-72.283c-1.322-6.232-7.449-10.197-13.68-8.854v-.021Z"/>
      <path class="st1" d="M771.195,1102.975l-6.441,1.385c-2.812.608-4.616,3.378-4.008,6.19l9.673,45.279c.608,2.812,3.378,4.616,6.19,4.008l6.442-1.385c2.812-.609,4.616-3.378,4.008-6.19l-9.673-45.279c-.608-2.812-3.378-4.616-6.19-4.008Z"/>
      <path class="st1" d="M799.94,1096.869l-6.442,1.385c-2.812.608-4.616,3.378-4.008,6.19l9.673,45.279c.608,2.812,3.378,4.616,6.19,4.008l6.442-1.385c2.812-.608,4.616-3.378,4.008-6.19l-9.673-45.279c-.608-2.812-3.378-4.616-6.19-4.008Z"/>
      <path class="st1" d="M697.464,1098.128l-72.283,15.443c-6.232,1.322-10.197,7.449-8.854,13.68l15.422,72.304c1.322,6.232,7.449,10.197,13.68,8.855l72.304-15.443c6.232-1.322,10.197-7.449,8.854-13.68l-15.443-72.304c-1.322-6.232-7.449-10.197-13.68-8.854Z"/>
      <path class="st1" d="M689.113,1140.47l-30.76-12.296c-7.994-3.21-16.303,3.798-14.52,12.233l7.721,36.089c1.804,8.414,12.254,11.414,18.254,5.246l23.08-23.773c5.329-5.497,3.378-14.666-3.735-17.478h-.042v-.021Z"/>
      <path class="st1" d="M1279.989,973.747l-72.304,15.443c-6.232,1.322-10.197,7.449-8.854,13.68l15.422,72.283c1.322,6.232,7.449,10.197,13.68,8.854l72.304-15.422c6.232-1.322,10.197-7.449,8.855-13.68l-15.443-72.304c-1.322-6.232-7.449-10.197-13.68-8.854h.021Z"/>
      <path class="st1" d="M1262.197,1001.401l-26.71,5.707c-6.232,1.322-10.197,7.449-8.854,13.68l5.707,26.71c1.322,6.232,7.449,10.197,13.68,8.854l26.71-5.707c6.232-1.322,10.197-7.449,8.855-13.68l-5.707-26.71c-1.322-6.232-7.449-10.197-13.68-8.854Z"/>
      <path class="st1" d="M1163.182,998.736l-72.304,15.443c-6.232,1.322-10.197,7.449-8.855,13.68l15.443,72.283c1.322,6.232,7.449,10.197,13.68,8.855l72.304-15.422c6.232-1.322,10.197-7.449,8.854-13.68l-15.422-72.304c-1.322-6.232-7.449-10.197-13.68-8.854h-.021Z"/>
      <path class="st1" d="M1120.085,1028.51l-6.442,1.364c-2.812.608-4.616,3.378-4.008,6.19l9.673,45.279c.608,2.812,3.378,4.616,6.19,4.008l6.442-1.385c2.812-.609,4.616-3.378,4.008-6.19l-9.673-45.279c-.608-2.812-3.378-4.616-6.19-4.008v.021Z"/>
      <path class="st1" d="M1148.83,1022.404l-6.442,1.385c-2.812.608-4.616,3.378-4.008,6.19l9.673,45.279c.608,2.812,3.378,4.616,6.19,4.008l6.442-1.385c2.812-.608,4.616-3.378,4.008-6.19l-9.673-45.279c-.609-2.812-3.378-4.616-6.19-4.008Z"/>
      <path class="st1" d="M1046.354,1023.663l-72.304,15.443c-6.232,1.322-10.197,7.449-8.854,13.68l15.443,72.304c1.322,6.211,7.449,10.197,13.68,8.854l72.283-15.422c6.232-1.322,10.197-7.449,8.855-13.68l-15.422-72.304c-1.322-6.211-7.449-10.197-13.68-8.854v-.021Z"/>
      <path class="st1" d="M1038.003,1066.026l-30.76-12.295c-7.994-3.21-16.324,3.798-14.52,12.233l7.721,36.089c1.804,8.414,12.254,11.414,18.254,5.246l23.08-23.773c5.33-5.497,3.378-14.666-3.735-17.478h-.042v-.021Z"/>
      <path class="st1" d="M1628.879,899.281l-72.304,15.443c-6.232,1.322-10.197,7.449-8.855,13.68l15.443,72.304c1.322,6.232,7.449,10.197,13.68,8.854l72.304-15.443c6.232-1.322,10.197-7.449,8.854-13.68l-15.443-72.304c-1.322-6.232-7.449-10.197-13.68-8.854Z"/>
      <path class="st1" d="M1611.086,926.936l-26.71,5.707c-6.232,1.322-10.197,7.449-8.855,13.68l5.707,26.71c1.322,6.211,7.449,10.197,13.68,8.854l26.71-5.707c6.232-1.322,10.197-7.449,8.854-13.68l-5.707-26.71c-1.322-6.232-7.449-10.197-13.68-8.854Z"/>
      <path class="st1" d="M1512.072,924.25l-72.283,15.422c-6.232,1.322-10.197,7.449-8.854,13.68l15.422,72.304c1.322,6.232,7.449,10.197,13.68,8.855l72.304-15.443c6.232-1.322,10.197-7.449,8.854-13.68l-15.422-72.283c-1.322-6.232-7.449-10.197-13.68-8.854h-.021Z"/>
      <path class="st1" d="M1468.954,954.023l-6.442,1.364c-2.812.608-4.616,3.378-4.008,6.19l9.673,45.279c.608,2.812,3.378,4.616,6.19,4.008l6.441-1.364c2.812-.608,4.616-3.378,4.008-6.19l-9.673-45.279c-.609-2.812-3.378-4.616-6.19-4.008Z"/>
      <path class="st1" d="M1497.699,947.876l-6.442,1.385c-2.812.608-4.616,3.378-4.008,6.19l9.673,45.279c.608,2.812,3.378,4.616,6.19,4.008l6.442-1.385c2.812-.608,4.616-3.378,4.008-6.19l-9.673-45.279c-.608-2.812-3.378-4.616-6.19-4.008Z"/>
      <path class="st1" d="M1395.223,949.198l-72.304,15.422c-6.232,1.322-10.197,7.449-8.854,13.68l15.443,72.304c1.322,6.232,7.449,10.197,13.68,8.854l72.304-15.443c6.232-1.322,10.197-7.449,8.854-13.68l-15.422-72.283c-1.322-6.232-7.449-10.197-13.68-8.854h-.021Z"/>
      <path class="st1" d="M1386.914,991.581l-30.76-12.295c-7.994-3.21-16.324,3.798-14.52,12.233l7.721,36.089c1.804,8.414,12.253,11.414,18.254,5.246l23.08-23.773c5.308-5.497,3.378-14.666-3.735-17.478h-.042v-.021Z"/>
      <path class="st1" d="M1977.769,824.816l-72.304,15.422c-6.232,1.322-10.197,7.449-8.854,13.68l15.422,72.304c1.322,6.232,7.449,10.197,13.68,8.854l72.304-15.443c6.232-1.322,10.197-7.449,8.855-13.68l-15.443-72.304c-1.322-6.232-7.449-10.197-13.68-8.854l.021.021Z"/>
      <path class="st1" d="M1959.997,852.449l-26.71,5.707c-6.232,1.322-10.197,7.449-8.854,13.68l5.707,26.71c1.322,6.232,7.449,10.197,13.68,8.854l26.71-5.707c6.232-1.322,10.197-7.449,8.855-13.68l-5.707-26.71c-1.322-6.232-7.449-10.197-13.68-8.854Z"/>
      <path class="st1" d="M1860.962,849.784l-72.304,15.422c-6.232,1.322-10.197,7.449-8.855,13.68l15.443,72.304c1.322,6.232,7.449,10.197,13.68,8.854l72.304-15.443c6.232-1.322,10.197-7.449,8.855-13.68l-15.422-72.304c-1.322-6.211-7.449-10.197-13.68-8.854l-.021.021Z"/>
      <path class="st1" d="M1817.886,879.558l-6.442,1.385c-2.812.608-4.616,3.378-4.008,6.19l9.673,45.279c.608,2.812,3.378,4.616,6.19,4.008l6.442-1.385c2.812-.608,4.616-3.378,4.008-6.19l-9.673-45.279c-.608-2.812-3.378-4.616-6.19-4.008Z"/>
      <path class="st1" d="M1846.589,873.41l-6.442,1.385c-2.812.608-4.616,3.378-4.008,6.19l9.673,45.279c.608,2.812,3.378,4.616,6.19,4.008l6.442-1.385c2.812-.608,4.616-3.378,4.008-6.19l-9.673-45.279c-.608-2.812-3.378-4.616-6.19-4.008Z"/>
      <path class="st1" d="M1744.113,874.711l-72.304,15.422c-6.211,1.322-10.197,7.449-8.854,13.68l15.422,72.304c1.322,6.232,7.449,10.197,13.68,8.854l72.304-15.443c6.232-1.322,10.197-7.449,8.855-13.68l-15.443-72.283c-1.322-6.232-7.449-10.197-13.68-8.854h.021Z"/>
      <path class="st1" d="M1735.804,917.116l-30.76-12.296c-7.994-3.21-16.324,3.798-14.52,12.233l7.721,36.089c1.805,8.414,12.254,11.414,18.254,5.246l23.08-23.773c5.33-5.497,3.378-14.666-3.735-17.478h-.042v-.021Z"/>
      <path class="st1" d="M2093.003,800.246l-72.283,15.422c-6.232,1.322-10.197,7.449-8.854,13.68l15.443,72.283c1.322,6.232,7.449,10.197,13.68,8.854l72.283-15.422c6.232-1.322,10.197-7.449,8.854-13.68l-15.422-72.304c-1.322-6.232-7.449-10.197-13.68-8.854l-.021.021Z"/>
      <path class="st1" d="M2084.694,842.672l-30.76-12.295c-7.994-3.21-16.303,3.798-14.52,12.233l7.721,36.089c1.804,8.414,12.253,11.414,18.254,5.246l23.08-23.773c5.329-5.497,3.378-14.666-3.735-17.478h-.042v-.021Z"/>
      <path class="st1" d="M1420.254,1066.781l-72.304,15.422c-6.232,1.322-10.197,7.449-8.855,13.68l15.443,72.304c1.322,6.232,7.449,10.197,13.68,8.855l72.304-15.443c6.232-1.322,10.197-7.449,8.854-13.68l-15.443-72.283c-1.322-6.232-7.449-10.197-13.68-8.854Z"/>
      <path class="st1" d="M1402.399,1094.436l-26.71,5.707c-6.232,1.322-10.197,7.449-8.854,13.68l5.707,26.71c1.322,6.232,7.449,10.197,13.68,8.855l26.71-5.707c6.232-1.322,10.197-7.449,8.855-13.68l-5.707-26.71c-1.322-6.232-7.449-10.197-13.68-8.854Z"/>
      <path class="st1" d="M1303.405,1091.708l-72.304,15.443c-6.232,1.322-10.197,7.449-8.855,13.68l15.443,72.283c1.322,6.232,7.449,10.197,13.68,8.855l72.304-15.422c6.232-1.322,10.197-7.449,8.854-13.68l-15.443-72.304c-1.322-6.232-7.449-10.197-13.68-8.854Z"/>
      <path class="st1" d="M1260.329,1121.481l-6.442,1.385c-2.812.608-4.616,3.378-4.008,6.19l9.673,45.279c.608,2.812,3.378,4.616,6.19,4.008l6.442-1.385c2.812-.608,4.616-3.378,4.008-6.19l-9.673-45.279c-.609-2.812-3.378-4.616-6.19-4.008Z"/>
      <path class="st1" d="M1289.033,1115.376l-6.442,1.364c-2.812.608-4.616,3.378-4.008,6.19l9.673,45.279c.608,2.812,3.378,4.616,6.19,4.008l6.441-1.385c2.812-.608,4.616-3.378,4.008-6.19l-9.673-45.279c-.609-2.812-3.378-4.616-6.19-4.008v.021Z"/>
      <path class="st1" d="M1186.598,1116.676l-72.304,15.443c-6.232,1.322-10.197,7.449-8.854,13.68l15.422,72.283c1.322,6.232,7.449,10.197,13.68,8.854l72.304-15.443c6.232-1.322,10.197-7.449,8.854-13.68l-15.443-72.283c-1.322-6.232-7.449-10.197-13.68-8.855h.021Z"/>
      <path class="st1" d="M1769.144,992.295l-72.304,15.443c-6.232,1.322-10.197,7.449-8.854,13.68l15.443,72.304c1.322,6.232,7.449,10.197,13.68,8.855l72.304-15.443c6.232-1.322,10.197-7.449,8.855-13.68l-15.443-72.304c-1.322-6.232-7.449-10.197-13.68-8.854Z"/>
      <path class="st1" d="M1751.289,1019.97l-26.71,5.707c-6.232,1.322-10.197,7.449-8.855,13.68l5.707,26.71c1.322,6.232,7.449,10.197,13.68,8.855l26.71-5.707c6.232-1.322,10.197-7.449,8.854-13.68l-5.707-26.71c-1.322-6.232-7.449-10.197-13.68-8.854Z"/>
      <path class="st1" d="M1652.295,1017.242l-72.304,15.422c-6.232,1.322-10.197,7.449-8.854,13.68l15.422,72.304c1.322,6.232,7.449,10.197,13.68,8.855l72.304-15.443c6.232-1.322,10.197-7.449,8.855-13.68l-15.443-72.283c-1.322-6.232-7.449-10.197-13.68-8.854h.021Z"/>
      <path class="st1" d="M1609.219,1047.016l-6.442,1.364c-2.812.608-4.616,3.378-4.008,6.19l9.673,45.279c.609,2.812,3.378,4.616,6.19,4.008l6.442-1.364c2.812-.608,4.616-3.378,4.008-6.19l-9.673-45.279c-.608-2.812-3.378-4.616-6.19-4.008Z"/>
      <path class="st1" d="M1637.922,1040.91l-6.441,1.385c-2.812.609-4.616,3.378-4.008,6.19l9.673,45.279c.609,2.812,3.378,4.616,6.19,4.008l6.442-1.364c2.812-.609,4.616-3.378,4.008-6.19l-9.673-45.279c-.608-2.812-3.378-4.616-6.19-4.008v-.021Z"/>
      <path class="st1" d="M1535.488,1042.211l-72.304,15.422c-6.232,1.322-10.197,7.449-8.855,13.68l15.443,72.304c1.322,6.232,7.449,10.197,13.68,8.854l72.304-15.443c6.232-1.322,10.197-7.449,8.854-13.68l-15.422-72.283c-1.322-6.232-7.449-10.197-13.68-8.854h-.021Z"/>
      <path class="st1" d="M1527.137,1084.595l-30.76-12.295c-7.994-3.21-16.324,3.798-14.52,12.232l7.722,36.089c1.804,8.414,12.253,11.414,18.254,5.246l23.08-23.773c5.309-5.497,3.378-14.666-3.735-17.478h-.042v-.021Z"/>
      <path class="st1" d="M2118.035,917.828l-72.304,15.443c-6.232,1.322-10.197,7.449-8.855,13.68l15.422,72.284c1.322,6.232,7.449,10.197,13.68,8.855l72.283-15.422c6.232-1.322,10.197-7.449,8.875-13.681l-15.443-72.304c-1.322-6.232-7.449-10.197-13.659-8.854Z"/>
      <path class="st1" d="M2001.185,942.756l-72.283,15.443c-6.232,1.322-10.197,7.449-8.855,13.68l15.443,72.283c1.322,6.232,7.449,10.197,13.68,8.855l72.304-15.422c6.232-1.322,10.197-7.449,8.854-13.68l-15.422-72.304c-1.322-6.232-7.449-10.197-13.68-8.854h-.042Z"/>
      <path class="st1" d="M1958.109,972.53l-6.442,1.385c-2.812.608-4.616,3.378-4.008,6.19l9.673,45.279c.608,2.812,3.378,4.616,6.19,4.008l6.441-1.385c2.812-.608,4.616-3.378,4.008-6.19l-9.673-45.279c-.609-2.812-3.378-4.616-6.19-4.008Z"/>
      <path class="st1" d="M1986.813,966.424l-6.442,1.364c-2.812.608-4.616,3.378-4.008,6.19l9.673,45.279c.608,2.812,3.378,4.616,6.19,4.008l6.442-1.385c2.812-.608,4.616-3.378,4.008-6.19l-9.673-45.279c-.609-2.812-3.378-4.617-6.19-4.009v.022Z"/>
      <path class="st1" d="M1884.378,967.725l-72.304,15.443c-6.232,1.322-10.197,7.449-8.854,13.68l15.422,72.304c1.322,6.211,7.449,10.197,13.68,8.854l72.283-15.443c6.232-1.322,10.197-7.449,8.854-13.68l-15.422-72.304c-1.322-6.211-7.449-10.197-13.68-8.854h.021Z"/>
      <path class="st1" d="M1876.048,1010.15l-30.76-12.296c-7.994-3.21-16.324,3.798-14.52,12.233l7.721,36.089c1.804,8.414,12.254,11.414,18.254,5.246l23.08-23.794c5.329-5.497,3.378-14.645-3.735-17.478h-.042Z"/>
      <path class="st1" d="M2027.979,1059.983l-72.304,15.443c-6.232,1.322-10.197,7.449-8.854,13.68l15.422,72.283c1.322,6.232,7.449,10.197,13.68,8.855l72.304-15.422c6.232-1.322,10.197-7.449,8.854-13.68l-15.422-72.304c-1.322-6.232-7.449-10.197-13.68-8.855Z"/>
      <path class="st1" d="M2010.187,1087.637l-26.71,5.707c-6.232,1.322-10.197,7.449-8.854,13.68l5.707,26.71c1.322,6.232,7.449,10.197,13.68,8.855l26.71-5.707c6.232-1.322,10.197-7.449,8.855-13.68l-5.707-26.71c-1.322-6.232-7.449-10.197-13.68-8.854Z"/>
      <path class="st1" d="M1911.13,1084.931l-72.304,15.443c-6.232,1.322-10.197,7.449-8.854,13.68l15.422,72.304c1.322,6.211,7.449,10.197,13.68,8.854l72.283-15.422c6.232-1.322,10.197-7.449,8.854-13.68l-15.422-72.304c-1.322-6.211-7.449-10.197-13.68-8.855l.021-.021Z"/>
      <path class="st1" d="M1868.096,1114.725l-6.442,1.385c-2.812.609-4.616,3.378-4.008,6.19l9.673,45.279c.608,2.812,3.378,4.616,6.19,4.008l6.442-1.364c2.812-.609,4.616-3.378,4.008-6.19l-9.673-45.279c-.608-2.812-3.378-4.616-6.19-4.008v-.021Z"/>
      <path class="st1" d="M1896.778,1108.598l-6.441,1.364c-2.812.609-4.616,3.378-4.008,6.19l9.673,45.279c.609,2.812,3.378,4.616,6.19,4.008l6.442-1.364c2.812-.609,4.616-3.378,4.008-6.19l-9.673-45.279c-.608-2.812-3.378-4.616-6.19-4.008Z"/>
      <path class="st1" d="M1794.323,1109.878l-72.304,15.443c-6.232,1.322-10.197,7.449-8.854,13.68l15.443,72.283c1.322,6.232,7.449,10.197,13.68,8.854l72.304-15.443c6.232-1.322,10.197-7.449,8.855-13.68l-15.422-72.283c-1.322-6.232-7.449-10.197-13.68-8.854h-.021Z"/>
      <path class="st1" d="M2143.213,1035.413l-72.283,15.422c-6.232,1.322-10.197,7.449-8.854,13.68l15.422,72.304c1.322,6.232,7.449,10.197,13.659,8.854l72.304-15.443c6.211-1.322,10.198-7.449,8.855-13.68l-15.422-72.283c-1.343-6.232-7.448-10.197-13.68-8.854Z"/>
    </g>
  </g>
</svg>