<?xml version="1.0" encoding="UTF-8"?>
<svg id="Layer_1" xmlns="http://www.w3.org/2000/svg" xmlns:xlink="http://www.w3.org/1999/xlink" version="1.1" viewBox="0 0 600 338">
  <!-- Generator: Adobe Illustrator 29.8.2, SVG Export Plug-In . SVG Version: 2.1.1 Build 3)  -->
  <defs>
    <style>
      .st0 {
        fill: none;
      }

      .st1 {
        fill: #fff;
      }

      .st2 {
        stroke: #000;
        stroke-width: .975px;
      }

      .st3 {
        clip-path: url(#clippath);
      }
    </style>
    <clipPath id="clippath">
      <rect class="st0" x=".5" y="100.5" width="599" height="237.5"/>
    </clipPath>
  </defs>
  <g id="mask2_2885_353">
    <rect class="st2" width="600" height="338"/>
  </g>
  <g class="st3">
    <path class="st1" d="M483.674,184.298l6.274,23.417h0l9.963-2.669-.879-3.278-6.413,1.718-1.868-6.969,5.174-1.387-.878-3.278h0l-5.173,1.386-1.772-6.613,6.414-1.718-.883-3.292-9.962,2.669.004.014h-.001ZM472.098,193.266c.679,2.537,2.26,4.16,6.189,6.224,2.874,1.49,3.83,2.38,4.224,3.848l.198.741c.447,1.668-.269,2.471-1.338,2.757-.313.084-.606.111-.876.083-.808-.101-1.41-.713-1.722-1.876l-.432-1.61-.033.012-.005-.018-3.318,1.24.018.011.412,1.539c.924,3.449,3.645,4.767,6.923,3.889.004,0,.007-.002.01-.003.003,0,.006,0,.01-.002,3.236-.867,4.935-3.247,4.011-6.696l-.306-1.14c-.725-2.708-2.306-4.332-6.235-6.395-2.874-1.491-3.83-2.38-4.182-3.691l-.133-.499c-.359-1.34.215-2.105,1.255-2.384.456-.122.851-.12,1.19.008.573.23.984.831,1.251,1.827l.199.741.019-.007.005.017,3.318-1.24-.179-.67.014-.004c-.695-2.594-2.286-4.013-4.432-4.183-.719-.063-1.5.012-2.33.235-3.278.878-4.802,3.227-3.878,6.676l.153.57h0ZM614.181,259.162l-14.391-53.705c-2.044-7.628-9.884-12.155-17.512-10.111l-53.706,14.391c-7.628,2.044-12.154,9.884-10.111,17.512l14.391,53.705c2.044,7.628,9.884,12.155,17.512,10.111l53.706-14.39c7.628-2.044,12.154-9.885,10.111-17.513h0ZM583.102,261.352l-22.041,5.906c-5.581,1.496-11.318-1.817-12.814-7.398l-5.905-22.04c-1.496-5.582,1.816-11.319,7.398-12.814l22.04-5.906c5.582-1.495,11.319,1.817,12.814,7.398l5.906,22.04c1.495,5.582-1.817,11.319-7.398,12.814h0ZM531.411,174.49l1.95,21.593,3.548-.951-.002-.015.014-.004-.653-5.507,3.906-1.047,2.194,5.11.014-.004,3.606-.966-.006-.013h.004l-2.844-6.144-7.476-16.175-.011.003-.006-.014-4.518,1.21.014-.003.266,2.927h0ZM534.718,175.998l.04-.01,4.083,9.477-2.978.798-1.203-10.248.058-.016h0ZM572.615,185.564h0l3.549-.951-2.654-9.905,1.298-.348.14-.038h0l.201-.054-.004-.014,5.462,9.153,3.749-1.004-6.11-9.805c1.391-1.365,1.794-3.337,1.13-5.817l-.447-1.667c-1.028-3.834-3.652-5.362-7.472-4.338l-.13.035-.004-.015-4.988,1.337,6.278,23.431h.002ZM571.515,164.275l.691-.185h.002c1.71-.459,2.72.233,3.251,2.214l.321,1.197c.531,1.981.002,3.085-1.709,3.544h-.002l-.747.201-.69.185-1.864-6.955.747-.2h0ZM559.971,188.953h.004l9.962-2.67-.878-3.278h-.004l-6.41,1.718-1.867-6.969,5.173-1.386-.878-3.278h-.004l-5.17,1.385-1.772-6.612,6.414-1.719-.882-3.292-9.963,2.669.004.014h-.004l6.275,23.418h0ZM547.181,181l2.845,10.618.012-.003h0l3.535-.947h.002s-2.834-10.576-2.834-10.576l1.419-14.144-.007.002.002-.016-3.692.989-.61,9.069-.036.01-.033.009-1.892-2.726-3.315-4.785-3.734,1.001.009.013-.018.005,8.347,11.481h0ZM515.604,182.083c-1.028-3.834-3.652-5.361-7.472-4.338l-5.116,1.371h0l-.014.004-.004-.015,6.275,23.417.013-.003h0l1.556-.417,1.98-.53h0l.013-.004-2.6-9.706.556-.149,1.011-.271c3.806-1.02,5.333-3.644,4.302-7.492l-.5-1.867ZM511.04,188.128c-.086.029-.162.063-.255.088l-1.439.386-1.917-7.155,1.44-.386c1.709-.458,2.718.233,3.25,2.211l.375,1.401c.057.212.095.408.128.6.251,1.498-.256,2.41-1.582,2.855ZM417.248,227.195h0l3.35-.897-4.358-16.262.055-.015,6.41,12.122h.002l2.11-.565-.524-13.7.069-.018,4.358,16.262h.002l3.548-.95-6.274-23.418h-.002l-.004-.014-4.789,1.283.636,13.319-.069.018-3.23-6.213-2.924-5.628-4.646,1.245,6.278,23.432h.002ZM391.029,261.393c-2.043-7.627-9.884-12.154-17.512-10.11l-53.706,14.39c-7.627,2.044-12.154,9.885-10.11,17.512l14.39,53.706c2.044,7.628,9.884,12.154,17.512,10.111l53.706-14.391c7.628-2.044,12.155-9.884,10.111-17.512l-14.391-53.706h0ZM375.94,302.676l-18.011,20.558c-5.134,5.863-14.755,3.644-16.78-3.912l-7.878-29.403c-2.025-7.555,5.198-14.287,12.576-11.777l25.877,8.798.013.048c6.588,2.258,8.78,10.439,4.203,15.688h0ZM495.461,233.412c-2.044-7.628-9.884-12.155-17.512-10.111l-53.706,14.391c-7.628,2.043-12.154,9.884-10.111,17.512l14.391,53.705c2.044,7.628,9.884,12.155,17.512,10.111l53.706-14.391c7.628-2.043,12.154-9.884,10.11-17.512l-14.39-53.705h0ZM456.951,297.991l-1.78.477c-3.455.926-7.007-1.125-7.933-4.58l-9.387-35.034c-.926-3.455,1.125-7.006,4.58-7.932l1.78-.477c3.456-.926,7.007,1.124,7.933,4.58l9.387,35.033c.926,3.455-1.125,7.007-4.58,7.933ZM481.543,291.401l-1.78.477c-3.456.926-7.007-1.125-7.933-4.58l-9.387-35.034c-.926-3.455,1.125-7.006,4.58-7.932l1.78-.477c3.455-.926,7.007,1.125,7.933,4.58l9.387,35.034c.926,3.455-1.125,7.006-4.58,7.932ZM409.016,210.276c-.985-3.678-3.751-5.335-7.3-4.384h-.001c-3.549.95-5.115,3.769-4.13,7.446l3.28,12.243c.986,3.677,3.766,5.33,7.301,4.383h0l.004.014c3.549-.951,5.116-3.769,4.13-7.446l-3.284-12.257h0ZM407.609,226.585c-.103.041-.203.085-.318.116-1.411.378-2.433-.356-2.899-2.095l-3.261-12.172c-.466-1.738.052-2.885,1.463-3.263.176-.047.345-.077.508-.089,1.137-.085,1.969.667,2.377,2.187l3.261,12.172c.428,1.596.017,2.685-1.131,3.144h0ZM462.811,214.981v.005h.001l3.549-.95-.655-5.523,3.918-1.05,2.194,5.11h0l3.606-.966-10.326-22.347-4.518,1.211,2.227,24.501.003.009h.001ZM464.209,194.891l4.082,9.477-2.978.798-1.203-10.249.099-.026h0ZM449.63,218.518h0l3.549-.949-1.936-7.227.728-3.432,6.223,9.314h.002l3.777-1.012-8.702-12.807,2.327-10.583-.009.002.004-.016-3.706.993-2.297,11.094-.07.019-2.616-9.763h-.001l-.004-.014-3.549.951,6.278,23.431h.002ZM522.904,198.885h0l9.464-2.535-.897-3.35h-.005l-5.91,1.584-5.377-20.066h-.005l-.004-.015-3.549.951,6.279,23.432h.004ZM434.806,222.486v.005h.001l3.549-.951-.655-5.522,3.918-1.051,2.194,5.11h0l3.606-.966-10.326-22.347-4.518,1.211,2.227,24.502.003.009h.001ZM436.204,202.395l4.082,9.477-2.978.799-1.203-10.249.099-.027h0Z"/>
  </g>
</svg>