<svg width="24" height="24" viewBox="0 0 24 24" fill="none" xmlns="http://www.w3.org/2000/svg">
    <path
        d="M13.2447 14.2681H10.2296V13.9637C10.2296 13.4382 10.2845 13.0232 10.3957 12.7188C10.5062 12.3866 10.6723 12.1106 10.9212 11.834C11.17 11.5574 11.6677 11.1146 12.4704 10.423C12.9132 10.0637 13.1064 9.75925 13.1064 9.45482C13.1064 9.1504 13.0237 8.92935 12.8576 8.76324C12.6915 8.59714 12.4148 8.5144 12.0833 8.5144C11.7517 8.5144 11.3917 8.65272 11.1428 8.90156C10.894 9.1504 10.7279 9.59314 10.673 10.2014L7.57506 9.81419C7.68558 8.67988 8.10053 7.76725 8.8199 7.07567C9.53927 6.38409 10.6458 6.02472 12.1117 6.02472C13.5776 6.02472 14.2136 6.27356 14.9052 6.74409C15.8734 7.40788 16.3433 8.26556 16.3433 9.3443C16.3433 10.423 16.205 10.2298 15.9561 10.6441C15.7073 11.059 15.209 11.5845 14.4346 12.1933C13.9092 12.6083 13.5492 12.9677 13.4108 13.2165C13.2725 13.4654 13.1898 13.7976 13.1898 14.2125L13.2447 14.2681ZM10.1191 15.0702H13.3553V17.9192H10.1191V15.0702Z"
        fill="#FFFFFF" />
    <path
        d="M12 24H0V12C0 5.38295 5.38295 0 12 0C18.6171 0 24 5.38295 24 12C24 18.6171 18.6171 24 12 24ZM1.26316 22.7368H12C17.9204 22.7368 22.7368 17.9204 22.7368 12C22.7368 6.07958 17.9204 1.26316 12 1.26316C6.07958 1.26316 1.26316 6.07958 1.26316 12V22.7368Z"
        fill="#FFFFFF" />
</svg>