<svg width="24" height="24" viewBox="0 0 24 24" fill="none" xmlns="http://www.w3.org/2000/svg">
    <path
        d="M18.5446 3.00006H15.8267C15.1378 3.00006 14.5792 3.55859 14.5792 4.24758V19.7525C14.5792 20.4415 15.1378 21 15.8267 21H18.5446C19.2335 21 19.7921 20.4415 19.7921 19.7525V4.24758C19.7921 3.55859 19.2335 3.00006 18.5446 3.00006Z"
        fill="#FFFFFF" />
    <path
        d="M8.96534 3H6.24753C5.55854 3 5 3.55853 5 4.24752V19.7524C5 20.4414 5.55854 20.9999 6.24753 20.9999H8.96534C9.65433 20.9999 10.2129 20.4414 10.2129 19.7524V4.24752C10.2129 3.55853 9.65433 3 8.96534 3Z"
        fill="#FFFFFF" />
</svg>