<svg width="24" height="24" viewBox="0 0 24 24" fill="none" xmlns="http://www.w3.org/2000/svg">
    <g clip-path="url(#clip0_2776_492)">
        <path
            d="M15.66 3.42999V0.639995C15.66 0.429995 15.41 0.319995 15.23 0.459995L10.36 4.91999C10.25 5.02999 10.25 5.16999 10.36 5.27999L15.23 9.74C15.37 9.88 15.66 9.74 15.66 9.56V7.09999C15.66 6.95999 15.77 6.84999 15.91 6.84999H17.53C17.67 6.84999 17.78 6.95999 17.78 7.09999V17.98C17.78 18.12 17.67 18.23 17.53 18.23H6.5C6.36 18.23 6.25 18.12 6.25 17.98V7.09999C6.25 6.95999 6.36 6.84999 6.5 6.84999H7.51C7.65 6.84999 7.76 6.73999 7.76 6.59999V3.88999C7.76 3.74999 7.65 3.63999 7.51 3.63999H3.25C3.11 3.63999 3 3.74999 3 3.88999V21.15C3 21.29 3.11 21.4 3.25 21.4H20.75C20.89 21.4 21 21.29 21 21.15V3.88999C21 3.74999 20.89 3.63999 20.75 3.63999H15.88C15.74 3.63999 15.63 3.52999 15.63 3.38999L15.67 3.42999H15.66Z"
            fill="#FFFFFF" />
    </g>
    <defs>
        <clipPath id="clip0_2776_492">
            <rect width="24" height="24" fill="white" />
        </clipPath>
    </defs>
</svg>