<svg width="24" height="24" viewBox="0 0 24 24" fill="none" xmlns="http://www.w3.org/2000/svg">
    <path
        d="M13.2868 14.2934H10.2735V13.9867C10.2735 13.46 10.3268 13.0467 10.4401 12.74C10.5535 12.4067 10.7201 12.1334 10.9668 11.8534C11.2135 11.5734 11.7135 11.1334 12.5135 10.44C12.9535 10.08 13.1468 9.77337 13.1468 9.47337C13.1468 9.17337 13.0668 8.94671 12.9001 8.78004C12.7335 8.61337 12.4601 8.53337 12.1268 8.53337C11.7935 8.53337 11.4335 8.67337 11.1868 8.92004C10.9401 9.16671 10.7735 9.61337 10.7201 10.22L7.62012 9.83337C7.73345 8.70004 8.14678 7.78671 8.86678 7.09337C9.58678 6.40004 10.6935 6.04004 12.1601 6.04004C13.6268 6.04004 14.2601 6.28671 14.9535 6.76004C15.9201 7.42671 16.3935 8.28004 16.3935 9.36004C16.3935 10.44 16.2535 10.2467 16.0068 10.66C15.7601 11.0734 15.2601 11.6 14.4868 12.2067C13.9601 12.62 13.6001 12.98 13.4668 13.2267C13.3268 13.4734 13.2468 13.8067 13.2468 14.22L13.3001 14.2734L13.2868 14.2934ZM10.1601 15.1H13.3935V17.9467H10.1601V15.1Z"
        fill="#FFFFFF" />
    <path
        d="M24 15.18V1.04667C24 0.466667 23.5333 0 22.9533 0H3.28667H1.04667C0.466667 0 0 0.466667 0 1.04667V22.9533C0 23.5333 0.466667 24 1.04667 24H8.82H22.9533C23.5333 24 24 23.5333 24 22.9533V15.18ZM15.18 22.28H8.82H1.71333V5.84V1.71333H8.82H15.18H22.2867V18.36V22.28H15.18Z"
        fill="#FFFFFF" />
</svg>