<svg width="24" height="24" viewBox="0 0 24 24" fill="none" xmlns="http://www.w3.org/2000/svg">
    <path
        d="M15.6355 2.70844V0.771158C15.6355 0.0953619 14.8374 -0.265063 14.3498 0.230521L10.7143 3.65456C10.4039 3.96993 10.4039 4.46551 10.7143 4.78088L14.3498 8.20492C14.8374 8.65545 15.6355 8.29503 15.6355 7.66428V6.04237H17.7635V17.7562H6.23645V6.04237H6.99015C7.38916 6.04237 7.74385 5.68195 7.74385 5.27647V3.5194C7.74385 3.11392 7.38916 2.75349 6.99015 2.75349H3.7537C3.35469 2.75349 3 3.11392 3 3.5194V20.2341C3 20.6396 3.35469 21 3.7537 21H20.2463C20.6453 21 21 20.6396 21 20.2341V3.5194C21 3.11392 20.6453 2.75349 20.2463 2.75349H15.6355V2.70844Z"
        fill="#FFFFFF" />
</svg>