<!--
  - Copyright 2024 ByOmakase, LLC (https://byomakase.org)
  -
  - Licensed under the Apache License, Version 2.0 (the "License");
  - you may not use this file except in compliance with the License.
  - You may obtain a copy of the License at
  -
  -     http://www.apache.org/licenses/LICENSE-2.0
  -
  - Unless required by applicable law or agreed to in writing, software
  - distributed under the License is distributed on an "AS IS" BASIS,
  - WITHOUT WARRANTIES OR CONDITIONS OF ANY KIND, either express or implied.
  - See the License for the specific language governing permissions and
  - limitations under the License.
  -->

<svg width="30" height="30" viewBox="0 0 30 30" fill="none" xmlns="http://www.w3.org/2000/svg">
  <g filter="url(#filter0_d_313_115)">
    <path
      d="M25.3001 19.16C27.5701 15.37 27.5701 10.63 25.3001 6.84C25.6501 6.52 25.6801 5.98 25.3601 5.63C25.3601 5.63 25.3401 5.61 25.3301 5.6L22.3901 2.66C22.0601 2.33 21.5201 2.33 21.1801 2.66C21.1801 2.66 21.1601 2.68 21.1501 2.69C17.3701 0.43 12.6301 0.43 8.84006 2.7C8.52006 2.35 7.99006 2.32 7.64006 2.64C7.63006 2.64 7.62006 2.66 7.61006 2.67L4.67006 5.61C4.34006 5.95 4.34006 6.49 4.67006 6.82C4.67006 6.82 4.69006 6.84 4.70006 6.85C2.43006 10.64 2.43006 15.38 4.70006 19.17C4.35006 19.49 4.32006 20.03 4.64006 20.38C4.64006 20.38 4.66006 20.4 4.67006 20.41L7.61006 23.35C7.95006 23.68 8.49006 23.68 8.82006 23.35C8.82006 23.35 8.84006 23.33 8.85006 23.32C12.6401 25.59 17.3801 25.59 21.1701 23.32C21.4901 23.67 22.0301 23.7 22.3801 23.38C22.3801 23.38 22.4001 23.36 22.4101 23.35L25.3501 20.41C25.6801 20.07 25.6801 19.53 25.3501 19.2C25.3501 19.2 25.3301 19.18 25.3201 19.18L25.3001 19.16ZM24.6501 18.58L22.2301 16.44C23.2601 14.27 23.2601 11.74 22.2301 9.57L24.6501 7.43C26.6501 10.88 26.6401 15.14 24.6501 18.59V18.58ZM21.7901 3.27L24.7301 6.2L21.5801 8.99L19.0001 6.42C19.1101 6.29 21.7801 3.28 21.7901 3.26V3.27ZM21.4101 16.16C21.2501 16.19 21.0901 16.27 20.9801 16.39L18.4001 18.97C18.2801 19.09 18.2001 19.24 18.1701 19.4C16.1801 20.38 13.8401 20.38 11.8501 19.4C11.8201 19.24 11.7401 19.08 11.6201 18.97L9.04006 16.39C8.92006 16.27 8.77006 16.19 8.61006 16.16C7.63006 14.17 7.63006 11.83 8.61006 9.84C8.77006 9.81 8.93006 9.73 9.05006 9.61L11.6301 7.03C11.7501 6.91 11.8301 6.76 11.8601 6.6C13.8501 5.62 16.1901 5.62 18.1801 6.6C18.2101 6.76 18.2901 6.92 18.4101 7.03L20.9901 9.61C21.1101 9.73 21.2601 9.81 21.4301 9.84C22.4101 11.83 22.4101 14.17 21.4301 16.16H21.4101ZM20.5801 3.35L18.4401 5.77C16.2701 4.73 13.7401 4.73 11.5701 5.77L9.43006 3.35C12.8801 1.35 17.1401 1.35 20.5901 3.35H20.5801ZM8.20006 3.27L10.9901 6.42L8.42006 9L5.26006 6.21L8.19006 3.27H8.20006ZM5.35006 7.42L7.77006 9.56C6.74006 11.73 6.74006 14.26 7.77006 16.43L5.35006 18.57C3.35006 15.12 3.35006 10.86 5.35006 7.41V7.42ZM8.21006 22.73L5.27006 19.8L8.42006 17.01L11.0001 19.58C11.0001 19.58 8.21006 22.73 8.21006 22.74V22.73ZM9.42006 22.65L11.5601 20.23C13.7301 21.27 16.2601 21.27 18.4301 20.23L20.5701 22.65C17.1201 24.65 12.8601 24.65 9.41006 22.65H9.42006ZM21.8001 22.73L19.0101 19.58L21.5801 17C21.5801 17 24.7301 19.79 24.7401 19.79L21.8101 22.73H21.8001Z"
      fill="white"/>
  </g>
  <defs>
    <filter id="filter0_d_313_115" x="0.997559" y="0.996248" width="28.0049" height="28.0263" filterUnits="userSpaceOnUse" color-interpolation-filters="sRGB">
      <feFlood flood-opacity="0" result="BackgroundImageFix"/>
      <feColorMatrix in="SourceAlpha" type="matrix" values="0 0 0 0 0 0 0 0 0 0 0 0 0 0 0 0 0 0 127 0" result="hardAlpha"/>
      <feOffset dy="2"/>
      <feGaussianBlur stdDeviation="1"/>
      <feComposite in2="hardAlpha" operator="out"/>
      <feColorMatrix type="matrix" values="0 0 0 0 0 0 0 0 0 0 0 0 0 0 0 0 0 0 0.65 0"/>
      <feBlend mode="normal" in2="BackgroundImageFix" result="effect1_dropShadow_313_115"/>
      <feBlend mode="normal" in="SourceGraphic" in2="effect1_dropShadow_313_115" result="shape"/>
    </filter>
  </defs>
</svg>
