<svg width="24" height="24" viewBox="0 0 24 24" fill="none" xmlns="http://www.w3.org/2000/svg">
<g clip-path="url(#clip0_970_543)">
<path d="M9.39829 14.6081H8.31263L4.52248 18.3983V13.4904H3V21H10.5096V19.4775H5.60171L9.39829 15.6745V14.6081Z" fill="#FFFFFF"/>
<path d="M9.39187 9.39186V8.30621L5.60814 4.52248H10.5096V3H3.00643V10.5032H4.52891V5.60171L8.32549 9.39186H9.39187Z" fill="#FFFFFF"/>
<path d="M14.6146 14.5953V15.6809L18.3983 19.4647H13.4968V20.9872H21V13.4839H19.4775V18.3854L15.6809 14.5953H14.6146Z" fill="#FFFFFF"/>
<path d="M14.6081 9.38544H15.6938L19.4775 5.60171V10.5032H21V3H13.4968V4.52248H18.3983L14.6081 8.31906V9.38544Z" fill="#FFFFFF"/>
</g>
<defs>
<clipPath id="clip0_970_543">
<rect width="18" height="18" fill="white" transform="translate(3 3)"/>
</clipPath>
</defs>
</svg>
