<svg width="24" height="24" viewBox="0 0 24 24" fill="none" xmlns="http://www.w3.org/2000/svg">
    <g clip-path="url(#clip0_2332_386)">
        <path
            d="M16.5 4.7V19.2C16.5 19.3 16.6 19.4 16.7 19.4H18C18.1 19.4 18.2 19.3 18.2 19.2V4.7C18.2 4.6 18.1 4.5 18 4.5H16.7C16.6 4.5 16.5 4.6 16.5 4.7Z"
            fill="#FFFFFF" />
        <path
            d="M14 11.8C14 11.8 14 11.8 13.9 11.7L6.2 4.6C6.2 4.6 6.1 4.6 6 4.6C6 4.6 5.9 4.6 5.8 4.6C5.8 4.6 5.7 4.6 5.7 4.7C5.7 4.7 5.7 4.8 5.7 4.9V19.2V19.4C5.7 19.4 5.9 19.5 6 19.5H6.2L13.9 12.4C13.9 12.4 14 12.2 14 12.1C14 12.1 14 12 14 11.9V11.8Z"
            fill="#FFFFFF" />
    </g>
    <defs>
        <clipPath id="clip0_2332_386">
            <rect width="24" height="24" fill="white" />
        </clipPath>
    </defs>
</svg>