<svg width="24" height="24" viewBox="0 0 24 24" fill="none" xmlns="http://www.w3.org/2000/svg">
    <g clip-path="url(#clip0_2332_380)">
        <path
            d="M7.7 4.5H6.4C6.3 4.5 6.2 4.6 6.2 4.7V19.2C6.2 19.3 6.3 19.4 6.4 19.4H7.7C7.8 19.4 7.9 19.3 7.9 19.2V4.7C7.9 4.6 7.8 4.5 7.7 4.5Z"
            fill="#FFFFFF" />
        <path
            d="M9.39999 12C9.39999 12.1 9.39999 12.2 9.49999 12.3L17.2 19.4C17.2 19.4 17.3 19.4 17.4 19.4C17.5 19.4 17.6 19.4 17.7 19.3V19.1V4.9C17.7 4.9 17.7 4.8 17.7 4.7C17.7 4.7 17.7 4.7 17.6 4.6C17.6 4.6 17.5 4.6 17.4 4.6C17.4 4.6 17.3 4.6 17.2 4.6L9.49999 11.7C9.49999 11.7 9.49999 11.7 9.39999 11.8C9.39999 11.8 9.39999 11.9 9.39999 12Z"
            fill="#FFFFFF" />
    </g>
    <defs>
        <clipPath id="clip0_2332_380">
            <rect width="24" height="24" fill="white" />
        </clipPath>
    </defs>
</svg>