<svg width="24" height="24" viewBox="0 0 24 24" fill="none" xmlns="http://www.w3.org/2000/svg">
    <g clip-path="url(#clip0_2290_368)">
        <path
            d="M4.9 17.5V14.7C4.9 14.2 4.5 13.8 4 13.8C3.4 13.8 3 14.2 3 14.7V17.5C3 19.4 4.6 21 6.5 21H9.3C9.8 21 10.2 20.6 10.2 20.1C10.2 19.6 9.8 19.2 9.3 19.2H6.5C5.6 19.2 4.9 18.5 4.9 17.6V17.5ZM3 6.5V9.3C3 9.8 3.4 10.2 3.9 10.2C4.4 10.2 4.8 9.8 4.8 9.3V6.5C4.8 5.6 5.5 4.9 6.4 4.9H9.2C9.7 4.9 10.1 4.5 10.1 4C10.1 3.5 9.7 3.1 9.2 3.1H6.4C4.6 3 3 4.6 3 6.5ZM19.1 17.5C19.1 18.4 18.4 19.1 17.5 19.1H14.7C14.2 19.1 13.8 19.5 13.8 20C13.8 20.5 14.2 20.9 14.7 20.9H17.5C19.4 20.9 21 19.3 21 17.4V14.6C21 14.1 20.6 13.7 20.1 13.7C19.6 13.7 19.2 14.1 19.2 14.6V17.4L19.1 17.5ZM17.5 3H14.7C14.2 3 13.8 3.4 13.8 3.9C13.8 4.4 14.2 4.8 14.7 4.8H17.5C18.4 4.8 19.1 5.5 19.1 6.4V9.2C19.1 9.7 19.5 10.1 20 10.1C20.5 10.1 20.9 9.7 20.9 9.2V6.4C20.9 4.5 19.3 2.9 17.4 2.9L17.5 3Z"
            fill="#FFFFFF" />
    </g>
    <defs>
        <clipPath id="clip0_2290_368">
            <rect width="18" height="18" fill="white" transform="translate(3 3)" />
        </clipPath>
    </defs>
</svg>