<svg width="24" height="24" viewBox="0 0 24 24" fill="none" xmlns="http://www.w3.org/2000/svg">
<path d="M21.7397 4.24526V18.7449C21.7397 18.8823 21.8476 18.9902 21.9849 18.9902H23.3093C23.4467 18.9902 23.5546 18.8823 23.5546 18.7449V4.24526C23.5546 4.10791 23.4467 4 23.3093 4H21.9849C21.8476 4 21.7397 4.10791 21.7397 4.24526Z" fill="#FFFFFF"/>
<path d="M19.2282 11.3087C19.1988 11.2597 19.1694 11.2106 19.1203 11.1714L11.4585 4.09811C11.4094 4.05887 11.3407 4.03925 11.2819 4.02944C11.2132 4.02944 11.1543 4.02944 11.0857 4.05887C11.0268 4.0883 10.9778 4.12754 10.9385 4.18641C10.8993 4.23546 10.8797 4.30413 10.8698 4.3728V18.637C10.8698 18.7253 10.8993 18.8136 10.9581 18.8823C11.0268 18.951 11.1249 18.9902 11.223 19C11.3113 19 11.3898 18.9706 11.4487 18.9117L19.1498 11.7992C19.2184 11.7109 19.2577 11.6128 19.2675 11.4951C19.2675 11.4362 19.2479 11.3774 19.2282 11.3283V11.3087Z" fill="#FFFFFF"/>
<path d="M8.25049 11.1714L0.58862 4.09811C0.539568 4.05887 0.470896 4.03925 0.412034 4.02944C0.343362 4.02944 0.284499 4.02944 0.215827 4.05887C0.156965 4.0883 0.107914 4.12754 0.0686725 4.18641C0.0294312 4.23546 0.00981033 4.30413 0 4.3728V18.637C0 18.7253 0.0294311 18.8136 0.0882931 18.8823C0.156965 18.951 0.255069 18.9902 0.353172 19C0.392413 19 0.441465 19 0.480706 18.9804C0.519947 18.9608 0.559189 18.9411 0.58862 18.9117L8.28973 11.7992C8.36821 11.7109 8.40745 11.603 8.40745 11.4853C8.40745 11.3676 8.34859 11.2597 8.2603 11.1812L8.25049 11.1714Z" fill="#FFFFFF"/>
</svg>
