<svg width="16" height="16" viewBox="0 0 16 16" fill="none" xmlns="http://www.w3.org/2000/svg">
    <g clip-path="url(#clip0_3340_647)">
        <path
            d="M8 16C12.4113 16 16 12.4113 16 8C16 3.58866 12.4113 3.1373e-07 8 6.99382e-07C3.58866 1.08503e-06 3.13731e-07 3.58866 6.99382e-07 8C1.08503e-06 12.4113 3.58866 16 8 16ZM5.52866 7.52866L8.862 4.19534C8.992 4.06534 9.16266 4 9.33334 4C9.504 4 9.67469 4.06534 9.80469 4.19534C10.0653 4.456 10.0653 4.87734 9.80469 5.138L6.94266 8L9.80466 10.862C10.0653 11.1227 10.0653 11.544 9.80466 11.8047C9.544 12.0653 9.12266 12.0653 8.862 11.8047L5.52866 8.47131C5.268 8.21066 5.268 7.78934 5.52866 7.52866Z"
            fill="#EEEEEE" />
    </g>
    <defs>
        <clipPath id="clip0_3340_647">
            <rect width="16" height="16" fill="white" transform="translate(16 16) rotate(180)" />
        </clipPath>
    </defs>
</svg>