<svg width="24" height="24" viewBox="0 0 24 24" fill="none" xmlns="http://www.w3.org/2000/svg">
<path d="M16.3748 11.2936C16.3453 11.2444 16.3159 11.1953 16.2667 11.156L8.58978 4.06881C8.54063 4.02949 8.47182 4.00983 8.41284 4C8.34404 4 8.28506 4 8.21625 4.02949C8.15727 4.05898 8.10813 4.0983 8.06881 4.15727C8.02949 4.20642 8.00983 4.27523 8 4.34404V18.6363C8 18.7248 8.02949 18.8132 8.08847 18.882C8.15727 18.9509 8.25557 18.9902 8.35387 19C8.44233 19 8.52097 18.9705 8.57995 18.9115L16.2962 11.7851C16.365 11.6966 16.4043 11.5983 16.4142 11.4803C16.4142 11.4214 16.3945 11.3624 16.3748 11.3132V11.2936Z" fill="#FFFFFF"/>
</svg>
