<svg width="24" height="24" viewBox="0 0 24 24" fill="none" xmlns="http://www.w3.org/2000/svg">
    <path
        d="M12.07 3.19C11.87 3.1 11.64 3.13 11.47 3.27L4.45 9.09H0.57C0.26 9.09 0 9.34 0 9.66V14.64C0 14.95 0.25 15.21 0.57 15.21H4.45L11.47 21.02C11.64 21.16 11.88 21.19 12.07 21.1C12.27 21.01 12.4 20.81 12.4 20.59V3.7C12.4 3.48 12.27 3.28 12.07 3.19Z"
        fill="#FFFFFF" />
    <path
        d="M17.38 17.58C18.56 16 19.19 14.12 19.19 12.14C19.19 10.02 18.48 8.03 17.14 6.39C17.04 6.27 16.9 6.19 16.74 6.19H16.7C16.52 6.19 16.39 6.28 16.32 6.35L16.16 6.51C15.96 6.71 15.94 7.03 16.12 7.25C17.25 8.65 17.85 10.34 17.85 12.14C17.85 13.82 17.32 15.41 16.32 16.76C16.16 16.98 16.18 17.29 16.37 17.48L16.53 17.64C16.63 17.74 16.77 17.8 16.92 17.8L17.01 18.46L16.96 17.79C17.12 17.78 17.27 17.7 17.36 17.57L17.38 17.58Z"
        fill="#FFFFFF" />
</svg>