<svg width="24" height="24" viewBox="0 0 24 24" fill="none" xmlns="http://www.w3.org/2000/svg">
    <mask id="mask0_2332_417" style="mask-type:luminance" maskUnits="userSpaceOnUse" x="0" y="4" width="24" height="16">
        <path d="M24 4.5H0V19.4H24V4.5Z" fill="white" />
    </mask>
    <g mask="url(#mask0_2332_417)">
        <path d="M24 19.5H0V4.5H24V19.4V19.5ZM1.1 18.4H23V5.6H1.1V18.4Z" fill="#FFFFFF" />
        <path
            d="M8.6 13.3C8.6 13.6 8.6 13.8 8.4 14.1C8.2 14.3 8 14.5 7.8 14.6C7.5 14.7 7.3 14.8 6.9 14.8H4.3V9.5H7.1C7.4 9.5 7.6 9.5 7.7 9.7C7.9 9.8 8 10 8.1 10.2C8.2 10.4 8.2 10.6 8.2 10.8C8.2 11 8.2 11.3 8 11.5C7.9 11.7 7.7 11.9 7.4 12C7.7 12 7.9 12.3 8.1 12.5C8.3 12.7 8.4 13 8.4 13.4L8.6 13.3ZM7.5 13.1C7.5 13 7.5 12.8 7.5 12.7C7.5 12.6 7.4 12.5 7.3 12.4C7.3 12.4 7.1 12.4 7 12.4H5.4V13.8H6.9C7 13.8 7.1 13.8 7.2 13.8C7.3 13.8 7.4 13.7 7.4 13.5C7.4 13.4 7.4 13.3 7.4 13.2L7.5 13.1ZM5.3 10.2V11.5H6.7C6.8 11.5 6.9 11.5 7 11.5C7 11.5 7.2 11.4 7.2 11.3C7.2 11.2 7.2 11.1 7.2 10.9C7.2 10.7 7.2 10.6 7.2 10.5C7.2 10.4 7.1 10.3 7 10.3C7 10.3 6.8 10.3 6.7 10.3H5.3V10.2ZM9.4 14.7V9.4H10.4V14.7H9.4ZM15.5 10.3H13.8V14.7H12.8V10.3H11.1V9.4H15.5V10.3ZM15.7 12C15.7 11.7 15.7 11.4 15.9 11.1C16 10.8 16.2 10.5 16.4 10.2C16.6 9.9 16.9 9.7 17.2 9.6C17.5 9.4 17.9 9.4 18.3 9.4C18.7 9.4 19.2 9.5 19.6 9.7C20 9.9 20.2 10.2 20.4 10.5L19.6 11C19.6 10.8 19.4 10.6 19.2 10.5C19.1 10.4 18.9 10.3 18.7 10.3C18.5 10.3 18.4 10.3 18.2 10.3C17.9 10.3 17.7 10.3 17.5 10.5C17.3 10.6 17.2 10.7 17 10.9C16.9 11.1 16.8 11.3 16.7 11.5C16.7 11.7 16.7 11.9 16.7 12.1C16.7 12.3 16.7 12.6 16.8 12.8C16.8 13 17 13.2 17.1 13.4C17.2 13.6 17.4 13.7 17.6 13.8C17.8 13.8 18 13.9 18.2 13.9C18.4 13.9 18.5 13.9 18.7 13.9C18.9 13.9 19 13.8 19.2 13.6C19.3 13.5 19.5 13.3 19.5 13.1L20.3 13.6C20.2 13.9 20 14.1 19.8 14.3C19.6 14.5 19.3 14.6 19 14.7C18.7 14.7 18.4 14.8 18.1 14.8C17.8 14.8 17.4 14.8 17.1 14.6C16.8 14.4 16.5 14.2 16.3 14C16.1 13.7 15.9 13.4 15.8 13.1C15.7 12.8 15.6 12.4 15.6 12.1L15.7 12Z"
            fill="#FFFFFF" />
    </g>
</svg>