<svg width="24" height="24" viewBox="0 0 24 24" fill="none" xmlns="http://www.w3.org/2000/svg">
    <g clip-path="url(#clip0_970_525)">
        <path
            d="M7.00267 11.9653C7.09867 11.912 7.17334 11.832 7.22667 11.736C7.28534 11.6347 7.31734 11.5173 7.31734 11.3787C7.31734 11.24 7.29067 11.128 7.23734 11.0267C7.18934 10.9253 7.12 10.8507 7.02934 10.7973C6.944 10.744 6.848 10.7173 6.736 10.7173H5.31734V12.056H6.69334C6.80534 12.056 6.912 12.0293 7.008 11.976L7.00267 11.9653Z"
            fill="#FFFFFF" />
        <path
            d="M7.21066 12.9627C7.12 12.8987 7.01866 12.8667 6.896 12.8667H5.312V14.264H6.84266C6.96533 14.264 7.07733 14.232 7.17866 14.1733C7.28533 14.1093 7.36533 14.024 7.424 13.9173C7.48266 13.8107 7.51466 13.6987 7.51466 13.576C7.51466 13.4427 7.488 13.32 7.43466 13.2187C7.38133 13.1067 7.30666 13.0267 7.21066 12.9627Z"
            fill="#FFFFFF" />
        <path
            d="M0 5V19.9333H24V5H0ZM8.32533 14.52C8.17067 14.7173 7.96267 14.872 7.696 14.9733C7.43467 15.08 7.152 15.128 6.84267 15.128H4.28267V9.82667H7.12C7.37067 9.82667 7.584 9.896 7.76 10.0293C7.94667 10.1573 8.08533 10.328 8.176 10.536C8.27733 10.7387 8.32533 10.952 8.32533 11.176C8.32533 11.432 8.26133 11.672 8.13333 11.9013C8.00533 12.1307 7.81333 12.3013 7.568 12.408C7.872 12.4987 8.112 12.6587 8.28267 12.8933C8.464 13.128 8.54933 13.416 8.54933 13.7573C8.54933 14.056 8.47467 14.3067 8.32 14.5093L8.32533 14.52ZM10.3893 15.1333H9.36V9.832H10.3893V15.1333ZM15.4613 10.7333H13.7653V15.1333H12.7413V10.7333H11.0453V9.832H15.456V10.7333H15.4613ZM19.9093 14.616C19.6747 14.8027 19.4133 14.9413 19.12 15.032C18.8267 15.128 18.5333 15.176 18.2453 15.176C17.8667 15.176 17.52 15.1013 17.2053 14.9467C16.8907 14.7867 16.6187 14.5787 16.3893 14.3173C16.1653 14.056 15.9893 13.7573 15.8613 13.4373C15.7387 13.1067 15.6747 12.776 15.6747 12.4453C15.6747 12.1147 15.7333 11.8053 15.8453 11.496C15.9627 11.1813 16.1387 10.8987 16.3627 10.6427C16.5867 10.3813 16.8587 10.1787 17.184 10.0293C17.5093 9.87467 17.8773 9.8 18.288 9.8C18.7733 9.8 19.1947 9.90667 19.552 10.12C19.9093 10.3333 20.176 10.6107 20.352 10.9573L19.5627 11.5013C19.472 11.304 19.3547 11.144 19.2107 11.032C19.0667 10.9147 18.912 10.8293 18.7467 10.7867C18.5813 10.7387 18.4213 10.712 18.2613 10.712C18 10.712 17.776 10.7653 17.584 10.8667C17.3973 10.9733 17.2373 11.1067 17.104 11.2773C16.976 11.448 16.88 11.6347 16.8107 11.8427C16.752 12.0507 16.72 12.2587 16.72 12.472C16.72 12.7067 16.7573 12.9307 16.832 13.1493C16.9067 13.3627 17.0133 13.5547 17.1467 13.7253C17.2853 13.8907 17.4507 14.024 17.6373 14.12C17.8293 14.216 18.0427 14.264 18.272 14.264C18.4373 14.264 18.6027 14.2373 18.7733 14.184C18.944 14.1307 19.0987 14.04 19.2427 13.9227C19.3867 13.8053 19.4987 13.6507 19.5787 13.4587L20.4213 13.944C20.3147 14.2053 20.144 14.4293 19.904 14.616H19.9093Z"
            fill="#FFFFFF" />
    </g>
    <defs>
        <clipPath id="clip0_970_525">
            <rect width="24" height="14.9333" fill="white" transform="translate(0 5)" />
        </clipPath>
    </defs>
</svg>