<svg width="24" height="24" viewBox="0 0 24 24" fill="none" xmlns="http://www.w3.org/2000/svg">
    <g clip-path="url(#clip0_3292_391)">
        <path d="M3 3V21H21V3H3ZM19.69 19.7H4.3V4.3H19.69V19.7Z" fill="#FFFFFF" />
        <path d="M9.46 11.25L10.46 11.8V7.83L9.46 8.75V11.25Z" fill="#FFFFFF" />
        <path d="M9.46 12.66V15.26L10.46 16.18V12.1L9.46 12.65V12.66Z" fill="#FFFFFF" />
        <path d="M6.81 15.4L5.78 16.37H10.26L9.23 15.4H6.81Z" fill="#FFFFFF" />
        <path d="M9.22 8.6L10.25 7.63H5.77L6.8 8.6H9.22Z" fill="#FFFFFF" />
        <path d="M6.55 15.24V12.64L5.55 12.09V16.17L6.55 15.25V15.24Z" fill="#FFFFFF" />
        <path d="M6.55 8.74L5.55 7.82V11.79L6.55 11.24V8.74Z" fill="#FFFFFF" />
        <path d="M12.8 14.35L11.85 14.6V16.12L12.8 16.37V14.35Z" fill="#FFFFFF" />
        <path d="M12.8 11.08L11.85 11.33V12.85L12.8 13.1V11.08Z" fill="#FFFFFF" />
        <path d="M15.62 12.1L14.62 12.65V15.45L15.62 16.37V12.1Z" fill="#FFFFFF" />
        <path d="M15.62 7.83L14.62 8.75V11.25L15.62 11.8V7.83Z" fill="#FFFFFF" />
        <path d="M18.45 12.1L17.45 12.65V15.45L18.45 16.37V12.1Z" fill="#FFFFFF" />
        <path d="M18.45 7.83L17.45 8.75V11.25L18.45 11.8V7.83Z" fill="#FFFFFF" />
    </g>
    <defs>
        <clipPath id="clip0_3292_391">
            <rect width="18" height="18" fill="white" transform="translate(3 3)" />
        </clipPath>
    </defs>
</svg>