<svg width="24" height="24" viewBox="0 0 24 24" fill="none" xmlns="http://www.w3.org/2000/svg">
    <g clip-path="url(#clip0_2332_404)">
        <path
            d="M16.2 11.8C16.2 11.8 16.2 11.8 16.1 11.7L8.4 4.6C8.4 4.6 8.3 4.6 8.2 4.6C8.2 4.6 8.1 4.6 8 4.6C8 4.6 7.9 4.6 7.9 4.7C7.9 4.7 7.9 4.8 7.9 4.9V19.2V19.4C7.9 19.4 8.1 19.5 8.2 19.5H8.4L16.1 12.4C16.1 12.4 16.2 12.2 16.2 12.1C16.2 12.1 16.2 12 16.2 11.9V11.8Z"
            fill="#FFFFFF" />
    </g>
    <defs>
        <clipPath id="clip0_2332_404">
            <rect width="24" height="24" fill="white" />
        </clipPath>
    </defs>
</svg>