<svg width="24" height="24" viewBox="0 0 24 24" fill="none" xmlns="http://www.w3.org/2000/svg">
    <path
        d="M24 15.18V1.04667C24 0.466666 23.5333 0 22.9533 0H3.28667H1.04667C0.466667 0 0 0.473333 0 1.04667V22.9533C0 23.5333 0.466667 24 1.04667 24H8.82H22.9533C23.5333 24 24 23.5333 24 22.9533V15.18ZM15.18 22.28H8.82H1.71333V5.83333V1.70667H8.82H15.18H22.2867V18.3533V22.2733H15.18V22.28Z"
        fill="#FFFFFF" />
    <g clip-path="url(#clip0_2776_424)">
        <path
            d="M17.22 10.98V4.47334C17.22 4.28668 17.1067 4.11334 16.94 4.04001C16.7667 3.96668 16.5733 3.98668 16.4267 4.10668L13.4067 6.61334L17.22 10.98Z"
            fill="#FFFFFF" />
        <path
            d="M10.92 8.67334L10.4533 9.06001H7.15334C6.88667 9.06001 6.66667 9.27334 6.66667 9.54667V13.7867C6.66667 14.0533 6.88001 14.2733 7.15334 14.2733H10.4533L16.4267 19.22C16.5733 19.34 16.7733 19.3667 16.94 19.2867C17.1133 19.2133 17.22 19.04 17.22 18.8533V15.8933L10.92 8.67334Z"
            fill="#FFFFFF" />
        <path d="M8.35706 4.23593L6.85039 5.55121L18.6791 19.1012L20.1858 17.7859L8.35706 4.23593Z" fill="#FFFFFF" />
    </g>
    <defs>
        <clipPath id="clip0_2776_424">
            <rect width="13.52" height="15.3333" fill="white" transform="translate(6.66667 4)" />
        </clipPath>
    </defs>
</svg>