<svg width="24" height="24" viewBox="0 0 24 24" fill="none" xmlns="http://www.w3.org/2000/svg">
    <g clip-path="url(#clip0_3478_62)">
        <path d="M8.92 14.63H5.82V17.73H8.92V14.63Z" fill="#1FA7EC" />
        <path
            d="M16.64 11.58C16.36 11.58 16.13 11.81 16.13 12.09V14.31C16.13 15.31 15.32 16.12 14.32 16.12C13.32 16.12 12.51 15.31 12.51 14.31V9.67C12.51 8.11 11.25 6.84 9.68 6.84C8.11 6.84 6.85 8.1 6.85 9.67V12.08C6.85 12.36 7.08 12.59 7.36 12.59C7.64 12.59 7.87 12.36 7.87 12.08V9.67C7.87 8.67 8.68 7.86 9.68 7.86C10.68 7.86 11.49 8.67 11.49 9.67V14.31C11.49 15.87 12.76 17.14 14.32 17.14C15.88 17.14 17.15 15.87 17.15 14.31V12.09C17.15 11.81 16.92 11.58 16.64 11.58Z"
            fill="#1FA7EC" />
        <path d="M18.18 6.27H15.08V9.37H18.18V6.27Z" fill="#1FA7EC" />
        <path d="M3 3V21H21V3H3ZM19.71 19.71H4.29V4.29H19.72V19.72H19.71V19.71Z" fill="#1FA7EC" />
    </g>
    <defs>
        <clipPath id="clip0_3478_62">
            <rect width="18" height="18" fill="#1FA7EC" transform="translate(3 3)" />
        </clipPath>
    </defs>
</svg>