<svg width="24" height="24" viewBox="0 0 24 24" fill="none" xmlns="http://www.w3.org/2000/svg">
    <path d="M24 18.5H0V5.5H24V18.4V18.5ZM0.9 17.5H23.1V6.5H0.9V17.6V17.5Z" fill="#FFFFFF" />
    <path d="M12.2 7.5H11.7V16.7H12.2V7.5Z" fill="#FFFFFF" />
    <path d="M8.5 11.5H4.9V12.5H8.5V11.5Z" fill="#FFFFFF" />
    <path d="M4.3 11.5H2.8V12.5H4.3V11.5Z" fill="#FFFFFF" />
    <path d="M9.8 11.5H9.1V12.5H9.8V11.5Z" fill="#FFFFFF" />
    <path d="M3.6 9.4H2.9V10.4H3.6V9.4Z" fill="#FFFFFF" />
    <path d="M9.8 9.4H4.1V10.4H9.8V9.4Z" fill="#FFFFFF" />
    <path d="M7.7 14.6H9.8V13.6H7.7V14.6Z" fill="#FFFFFF" />
    <path d="M2.9 14.6H7.2V13.6H2.9V14.6Z" fill="#FFFFFF" />
    <path d="M16.5 8.2H15.6V15.9H16.5V8.2Z" fill="#FFFFFF" />
    <path d="M14.9 11.1H14V12.9H14.9V11.1Z" fill="#FFFFFF" />
    <path d="M18.1 9.8H17.2V14.3H18.1V9.8Z" fill="#FFFFFF" />
    <path d="M19.7 11.1H18.8V12.9H19.7V11.1Z" fill="#FFFFFF" />
    <path d="M21.3 9.8H20.4V14.3H21.3V9.8Z" fill="#FFFFFF" />
</svg>