<svg width="24" height="24" viewBox="0 0 24 24" fill="none" xmlns="http://www.w3.org/2000/svg">
    <path
        d="M15.5301 1.00092C15.0204 1.00092 14.607 1.41525 14.607 1.924V4.872C14.607 7.29567 16.5787 9.26833 19.0033 9.26833H22.0769C22.5866 9.26833 23 8.854 23 8.34525C23 7.8365 22.5857 7.42217 22.0769 7.42217H19.0024C17.5962 7.42217 16.4522 6.27725 16.4522 4.872V1.924C16.4522 1.41525 16.0379 1.00092 15.5301 1.00092Z"
        fill="#FFFFFF" />
    <path
        d="M8.47184 1C7.96309 1 7.54876 1.41433 7.54876 1.92308V4.872C7.54876 6.27725 6.40384 7.42125 4.99859 7.42125H1.92409C1.41534 7.42125 1.00101 7.83558 1.00101 8.34433C1.00101 8.85308 1.41534 9.26742 1.92409 9.26742H4.99859C7.42226 9.26742 9.39492 7.29475 9.39492 4.87108V1.92308C9.39492 1.41433 8.98059 1 8.47184 1Z"
        fill="#FFFFFF" />
    <path
        d="M22.076 14.4805H19.0024C16.5778 14.4805 14.606 16.4522 14.606 18.8768V22.0769C14.606 22.5866 15.0204 23 15.5282 23C16.036 23 16.4513 22.5857 16.4513 22.0769V18.8759C16.4513 17.4697 17.5962 16.3257 19.0024 16.3257H22.076C22.5856 16.3257 22.999 15.9114 22.999 15.4036C22.999 14.8957 22.5847 14.4805 22.076 14.4805Z"
        fill="#FFFFFF" />
    <path
        d="M8.47083 22.9991C8.97958 22.9991 9.39391 22.5848 9.39391 22.076V18.8759C9.39391 16.4513 7.42125 14.4796 4.99758 14.4796H1.92308C1.41433 14.4796 1 14.8939 1 15.4018C1 15.9096 1.41433 16.3248 1.92308 16.3248H1.9955H4.9985C6.40375 16.3248 7.54775 17.4688 7.54775 18.875V22.0751C7.54775 22.5848 7.96208 22.9982 8.47083 22.9982V22.9991Z"
        fill="#FFFFFF" />
</svg>