<svg width="24" height="24" viewBox="0 0 24 24" fill="none" xmlns="http://www.w3.org/2000/svg">
    <path
        d="M24 15.18V1.04667C24 0.466672 23.5333 0 22.9533 0H3.28667H1.04667C0.466667 0 0 0.473338 0 1.04667V22.9533C0 23.5333 0.466667 24 1.04667 24H8.82H22.9533C23.5333 24 24 23.5333 24 22.9533V15.18ZM15.18 22.28H8.82H1.71333V5.83333V1.70667H8.82H15.18H22.2867V18.3533V22.2733H15.18V22.28Z"
        fill="#FFFFFF" />
    <path
        d="M16.9999 4.37338C16.8266 4.30005 16.6332 4.32005 16.4866 4.44005L10.5132 9.39338H7.21323C6.94656 9.39338 6.72656 9.60672 6.72656 9.88006V14.12C6.72656 14.3867 6.9399 14.6067 7.21323 14.6067H10.5132L16.4866 19.5534C16.6332 19.6734 16.8332 19.7 16.9999 19.62C17.1732 19.5467 17.2799 19.3734 17.2799 19.1867V4.80672C17.2799 4.62006 17.1666 4.44672 16.9999 4.37338Z"
        fill="#FFFFFF" />
</svg>