<svg width="24" height="24" viewBox="0 0 24 24" fill="none" xmlns="http://www.w3.org/2000/svg">
<path d="M16.8698 4.24526V18.7449C16.8698 18.8823 16.9778 18.9902 17.1151 18.9902H18.4395C18.5768 18.9902 18.6848 18.8823 18.6848 18.7449V4.24526C18.6848 4.10791 18.5768 4 18.4395 4H17.1151C16.9778 4 16.8698 4.10791 16.8698 4.24526Z" fill="#FFFFFF"/>
<path d="M14.3584 11.3087C14.329 11.2597 14.2995 11.2106 14.2505 11.1714L6.58862 4.09811C6.53957 4.05887 6.4709 4.03925 6.41203 4.02944C6.34336 4.02944 6.2845 4.02944 6.21583 4.05887C6.15697 4.0883 6.10791 4.12754 6.06867 4.18641C6.02943 4.23546 6.00981 4.30413 6 4.3728V18.637C6 18.7253 6.02943 18.8136 6.08829 18.8823C6.15697 18.951 6.25507 18.9902 6.35317 19C6.44146 19 6.51995 18.9706 6.57881 18.9117L14.2799 11.7992C14.3486 11.7109 14.3878 11.6128 14.3976 11.4951C14.3976 11.4362 14.378 11.3774 14.3584 11.3283V11.3087Z" fill="#FFFFFF"/>
</svg>
