<svg width="24" height="24" viewBox="0 0 24 24" fill="none" xmlns="http://www.w3.org/2000/svg">
    <path d="M14.9 13V11.8H13.8L12.3 13H14.9Z" fill="#FFFFFF" />
    <path d="M3.2 17.4V4.2H20.4L21.8 3.1H1.9V18.4L3.2 17.4Z" fill="#FFFFFF" />
    <path d="M6.5 9H5.3V10.2H6.5V9Z" fill="#FFFFFF" />
    <path d="M16.4 10.2H18.7V9H17.5L16.4 9.8V10.2Z" fill="#FFFFFF" />
    <path d="M7.1 11.8H5.3V13H7.1V11.8Z" fill="#FFFFFF" />
    <path d="M7.7 10.2H12.6L14.1 9H7.7V10.2Z" fill="#FFFFFF" />
    <path d="M20.8 6.4V17.5H16.9V19.5L11.2 17.5H6.4L4.9 18.7H10.8L18.1 21.1V18.7H22V5.5L20.8 6.4Z" fill="#FFFFFF" />
    <path d="M8.3 11.8V13H8.9L10.5 11.8H8.3Z" fill="#FFFFFF" />
    <path d="M18.7 11.8H15.9V13H18.7V11.8Z" fill="#FFFFFF" />
</svg>