<svg width="24" height="24" viewBox="0 0 24 24" fill="none" xmlns="http://www.w3.org/2000/svg">
    <g clip-path="url(#clip0_970_510)">
        <path d="M24 19.9333H0V5H24V19.9333ZM1.06667 18.8667H22.9333V6.06667H1.06667V18.8667Z" fill="#FFFFFF" />
        <path
            d="M8.55467 13.768C8.55467 14.0667 8.48 14.3173 8.32534 14.52C8.17067 14.7173 7.96267 14.872 7.696 14.9733C7.43467 15.08 7.152 15.128 6.84267 15.128H4.28267V9.82667H7.12C7.37067 9.82667 7.584 9.896 7.76 10.0293C7.94667 10.1573 8.08534 10.328 8.176 10.536C8.27734 10.7387 8.32534 10.952 8.32534 11.176C8.32534 11.432 8.26134 11.672 8.13334 11.9013C8.00534 12.1307 7.81334 12.3013 7.568 12.408C7.872 12.4987 8.112 12.6587 8.28267 12.8933C8.464 13.128 8.54934 13.416 8.54934 13.7573L8.55467 13.768ZM7.52 13.5707C7.52 13.4373 7.49334 13.3147 7.44 13.2133C7.38667 13.1013 7.312 13.0213 7.216 12.9573C7.12534 12.8933 7.024 12.8613 6.90134 12.8613H5.31734V14.2587H6.848C6.97067 14.2587 7.08267 14.2267 7.184 14.168C7.29067 14.104 7.37067 14.0187 7.42934 13.912C7.488 13.8053 7.52 13.6933 7.52 13.5707ZM5.31734 10.712V12.0507H6.69334C6.80534 12.0507 6.912 12.024 7.008 11.9707C7.104 11.9173 7.17867 11.8373 7.232 11.7413C7.29067 11.64 7.32267 11.5227 7.32267 11.384C7.32267 11.2453 7.296 11.1333 7.24267 11.032C7.19467 10.9307 7.12534 10.856 7.03467 10.8027C6.94934 10.7493 6.85334 10.7227 6.74134 10.7227H5.32267L5.31734 10.712ZM9.36 15.1333V9.832H10.3893V15.1333H9.36ZM15.4613 10.7333H13.7653V15.1333H12.7413V10.7333H11.0453V9.832H15.456V10.7333H15.4613ZM15.6747 12.4453C15.6747 12.12 15.7333 11.8053 15.8453 11.496C15.9627 11.1813 16.1387 10.8987 16.3627 10.6427C16.5867 10.3813 16.8587 10.1787 17.184 10.0293C17.5093 9.87467 17.8773 9.8 18.288 9.8C18.7733 9.8 19.1947 9.90667 19.552 10.12C19.9093 10.3333 20.176 10.6107 20.352 10.9573L19.5627 11.5013C19.472 11.304 19.3547 11.144 19.2107 11.032C19.0667 10.9147 18.912 10.8293 18.7467 10.7867C18.5813 10.7387 18.4213 10.712 18.2613 10.712C18 10.712 17.776 10.7653 17.584 10.8667C17.3973 10.9733 17.2373 11.1067 17.104 11.2773C16.976 11.448 16.88 11.6347 16.8107 11.8427C16.752 12.0507 16.72 12.2587 16.72 12.472C16.72 12.7067 16.7573 12.9307 16.832 13.1493C16.9067 13.3627 17.0133 13.5547 17.1467 13.7253C17.2853 13.8907 17.4507 14.024 17.6373 14.12C17.8293 14.216 18.0427 14.264 18.272 14.264C18.4373 14.264 18.6027 14.2373 18.7733 14.184C18.944 14.1307 19.0987 14.04 19.2427 13.9227C19.3867 13.8053 19.4987 13.6507 19.5787 13.4587L20.4213 13.944C20.3147 14.2053 20.144 14.4293 19.904 14.616C19.6693 14.8027 19.408 14.9413 19.1147 15.032C18.8213 15.128 18.528 15.176 18.24 15.176C17.8613 15.176 17.5147 15.1013 17.2 14.9467C16.8853 14.7867 16.6133 14.5787 16.384 14.3173C16.16 14.056 15.984 13.7573 15.856 13.4373C15.7333 13.1067 15.6693 12.776 15.6693 12.4453H15.6747Z"
            fill="#FFFFFF" />
    </g>
    <defs>
        <clipPath id="clip0_970_510">
            <rect width="24" height="14.9333" fill="white" transform="translate(0 5)" />
        </clipPath>
    </defs>
</svg>