<svg width="24" height="24" viewBox="0 0 24 24" fill="none" xmlns="http://www.w3.org/2000/svg">
    <g clip-path="url(#clip0_2332_393)">
        <path
            d="M1.6 4.5H0.2C0.1 4.5 0 4.6 0 4.7V19.2C0 19.3 0.1 19.4 0.2 19.4H1.5C1.6 19.4 1.7 19.3 1.7 19.2V4.7C1.7 4.6 1.6 4.5 1.5 4.5H1.6Z"
            fill="#FFFFFF" />
        <path
            d="M4.3 12C4.3 12.1 4.3 12.2 4.4 12.3L12.1 19.4C12.1 19.4 12.2 19.4 12.3 19.4C12.4 19.4 12.5 19.4 12.6 19.3V19.1V4.9C12.6 4.9 12.6 4.8 12.6 4.7C12.6 4.7 12.6 4.7 12.5 4.6C12.5 4.6 12.4 4.6 12.3 4.6C12.3 4.6 12.2 4.6 12.1 4.6L4.4 11.7C4.4 11.7 4.4 11.7 4.3 11.8C4.3 11.8 4.3 11.9 4.3 12Z"
            fill="#FFFFFF" />
        <path
            d="M15.2 12C15.2 12.1 15.2 12.2 15.3 12.3L23 19.4C23 19.4 23 19.4 23.1 19.4C23.1 19.4 23.1 19.4 23.2 19.4C23.2 19.4 23.4 19.4 23.5 19.3V19.1V4.9C23.5 4.9 23.5 4.8 23.5 4.7C23.5 4.7 23.5 4.7 23.4 4.6C23.3 4.5 23.3 4.6 23.2 4.6C23.2 4.6 23.1 4.6 23 4.6L15.3 11.7C15.3 11.7 15.2 11.9 15.2 12Z"
            fill="#FFFFFF" />
    </g>
    <defs>
        <clipPath id="clip0_2332_393">
            <rect width="24" height="24" fill="white" />
        </clipPath>
    </defs>
</svg>