<svg width="24" height="24" viewBox="0 0 24 24" fill="none" xmlns="http://www.w3.org/2000/svg">
    <path
        d="M22.9991 5.39725C22.9991 2.97267 21.0264 1 18.6018 1H15.5273C15.0186 1 14.6052 1.41433 14.6052 1.92308C14.6052 2.43183 15.0195 2.84617 15.5273 2.84617H15.5842H18.6037C20.0089 2.84617 21.1529 3.99017 21.1529 5.39633V8.34433C21.1529 8.85308 21.5672 9.26742 22.076 9.26742C22.5847 9.26742 22.9991 8.85308 22.9991 8.34433V5.39725Z"
        fill="#FFFFFF" />
    <path
        d="M8.47083 1.001H5.39633C2.97267 1.001 1 2.97367 1 5.39825V8.34625C1 8.85591 1.41433 9.26933 1.92308 9.26933C2.43183 9.26933 2.84617 8.855 2.84617 8.34625V5.39733C2.84617 3.99117 3.99108 2.84717 5.39725 2.84717H8.47174C8.98141 2.84717 9.39483 2.43283 9.39483 1.92408C9.39483 1.41533 8.98049 1.001 8.47083 1.001Z"
        fill="#FFFFFF" />
    <path
        d="M22.0769 14.4796C21.5681 14.4796 21.1547 14.8939 21.1547 15.4027L21.1529 18.6046C21.1529 20.0108 20.0089 21.1547 18.6036 21.1547H15.5291C15.0195 21.1547 14.606 21.5691 14.606 22.0769C14.606 22.5848 15.0204 23 15.5291 23H18.6036C21.0282 23 23 21.0283 23 18.6037V15.4027C23 14.893 22.5856 14.4796 22.0769 14.4796Z"
        fill="#FFFFFF" />
    <path
        d="M1.924 14.4796C1.41525 14.4796 1.00092 14.8939 1.00092 15.4027V18.6037C1.00092 21.0283 2.97358 23 5.39816 23H8.47266C8.98141 23 9.39574 22.5857 9.39574 22.0769C9.39574 21.5682 8.98141 21.1547 8.47266 21.1547L5.39725 21.1529C3.99108 21.1529 2.84708 20.0089 2.84708 18.6037V15.4027C2.84708 14.893 2.43275 14.4796 1.924 14.4796Z"
        fill="#FFFFFF" />
</svg>