<svg width="24" height="24" viewBox="0 0 24 24" fill="none" xmlns="http://www.w3.org/2000/svg">
    <g clip-path="url(#clip0_3292_373)">
        <path
            d="M3 3V21H21V3H3ZM9.33 15.31V12.57L10.47 11.94L9.33 11.31V8.68L10.58 7.53V16.45L9.33 15.3V15.31ZM10.58 16.49H5.46L6.75 15.27H9.27L10.57 16.49H10.58ZM9.27 8.73H6.75L5.45 7.51H10.56L9.26 8.73H9.27ZM6.67 8.68V11.31L5.53 11.94L6.67 12.57V15.31L5.42 16.46V7.54L6.67 8.69V8.68ZM12.92 14.19V16.53L11.72 16.21V14.5L12.92 14.18V14.19ZM11.73 12.95V11.24L12.93 10.92V13.26L11.73 12.94V12.95ZM14.49 11.32V8.69L15.74 7.54V16.65L14.49 15.5V12.57L15.63 11.94L14.49 11.31V11.32ZM17.33 11.32V8.69L18.58 7.54V16.65L17.33 15.5V12.57L18.47 11.94L17.33 11.31V11.32Z"
            fill="#FFFFFF" />
    </g>
    <defs>
        <clipPath id="clip0_3292_373">
            <rect width="18" height="18" fill="white" transform="translate(3 3)" />
        </clipPath>
    </defs>
</svg>