<svg width="24" height="24" viewBox="0 0 24 24" fill="none" xmlns="http://www.w3.org/2000/svg">
    <g clip-path="url(#clip0_2332_400)">
        <path
            d="M22 4.7V19.2C22 19.3 22.1 19.4 22.2 19.4H23.5C23.6 19.4 23.7 19.3 23.7 19.2V4.7C23.7 4.6 23.6 4.5 23.5 4.5H22.2C22.1 4.5 22 4.6 22 4.7Z"
            fill="#FFFFFF" />
        <path
            d="M19.5 11.8C19.5 11.8 19.5 11.8 19.4 11.7L11.7 4.6C11.7 4.6 11.6 4.6 11.5 4.6C11.5 4.6 11.4 4.6 11.3 4.6C11.3 4.6 11.2 4.6 11.2 4.7C11.2 4.7 11.2 4.8 11.2 4.9V19.2V19.4C11.2 19.4 11.4 19.5 11.5 19.5H11.7L19.4 12.4C19.4 12.4 19.5 12.2 19.5 12.1C19.5 12.1 19.5 12 19.5 11.9V11.8Z"
            fill="#FFFFFF" />
        <path
            d="M8.5 11.7L0.799999 4.6C0.799999 4.6 0.699999 4.6 0.599999 4.6C0.599999 4.6 0.499999 4.6 0.399999 4.6C0.399999 4.6 0.299999 4.6 0.299999 4.7C0.299999 4.7 0.299999 4.8 0.299999 4.9V19.2V19.4C0.299999 19.4 0.499999 19.5 0.599999 19.5C0.599999 19.5 0.599999 19.5 0.699999 19.5C0.699999 19.5 0.699999 19.5 0.799999 19.5L8.5 12.4C8.5 12.4 8.6 12.2 8.6 12.1C8.6 12 8.6 11.9 8.5 11.8V11.7Z"
            fill="#FFFFFF" />
    </g>
    <defs>
        <clipPath id="clip0_2332_400">
            <rect width="24" height="24" fill="white" />
        </clipPath>
    </defs>
</svg>