<svg width="16" height="16" viewBox="0 0 16 16" fill="none" xmlns="http://www.w3.org/2000/svg">
    <g clip-path="url(#clip0_3450_507)">
        <path
            d="M8 0C3.5824 0 0 3.5824 0 8C0 12.4176 3.5824 16 8 16C12.4176 16 16 12.4176 16 8C16 3.5824 12.4176 0 8 0ZM4.32 12.0032C3.6128 12.0032 3.04 11.4304 3.04 10.7232C3.04 10.016 3.6128 9.4432 4.32 9.4432C5.0272 9.4432 5.6 10.0176 5.6 10.7232C5.6 11.4304 5.0272 12.0032 4.32 12.0032ZM11.9264 9.8032C11.9264 11.0176 10.9424 12.0016 9.728 12.0016C8.5136 12.0016 7.528 11.0176 7.528 9.8032V6.1984V6.1952C7.528 5.4192 6.8976 4.7904 6.1216 4.792C5.3456 4.792 4.7168 5.4224 4.7184 6.1984V8.072C4.7184 8.2912 4.5408 8.4672 4.3216 8.4688C4.1024 8.4688 3.9232 8.2912 3.9232 8.072V6.1936C3.9232 4.9792 4.9104 3.9952 6.1248 3.9968C7.3392 3.9968 8.3232 4.984 8.3216 6.1984V9.8032C8.3216 10.5808 8.9504 11.2096 9.7264 11.208C10.5024 11.208 11.1312 10.5792 11.1312 9.8032V8.08C11.1312 7.8608 11.3088 7.6832 11.528 7.6832C11.7472 7.6832 11.9248 7.8608 11.9248 8.08V9.8032H11.9264ZM11.68 6.6208C10.9728 6.6208 10.4 6.048 10.4 5.3408C10.4 4.6336 10.9728 4.0608 11.68 4.0608C12.3872 4.0608 12.96 4.6352 12.96 5.3408C12.96 6.048 12.3872 6.6208 11.68 6.6208Z"
            fill="white" />
    </g>
    <defs>
        <clipPath id="clip0_3450_507">
            <rect width="16" height="16" fill="white" />
        </clipPath>
    </defs>
</svg>