<svg width="24" height="24" viewBox="0 0 24 24" fill="none" xmlns="http://www.w3.org/2000/svg">
<path d="M1.57068 4H0.245419C0.107984 4 0 4.10798 0 4.24542V18.7546C0 18.892 0.107984 19 0.245419 19H1.57068C1.70811 19 1.8161 18.892 1.8161 18.7546V4.24542C1.8161 4.10798 1.70811 4 1.57068 4Z" fill="#FFFFFF"/>
<path d="M4.28011 11.4902C4.28011 11.5982 4.31937 11.7061 4.39791 11.7945L12.1041 18.9116C12.163 18.9705 12.2513 19 12.3298 19C12.428 19 12.5262 18.9509 12.5949 18.8822C12.6538 18.8135 12.6832 18.7251 12.6832 18.6368V4.36322C12.6832 4.2945 12.6538 4.2356 12.6145 4.1767C12.5753 4.12762 12.5262 4.07853 12.4673 4.04908C12.4084 4.01963 12.3397 4.00982 12.2709 4.01963C12.2022 4.01963 12.1433 4.04908 12.0942 4.08835L4.42736 11.1662C4.42736 11.1662 4.34882 11.2546 4.31937 11.3037C4.28992 11.3527 4.28011 11.4116 4.28011 11.4705V11.4902Z" fill="#FFFFFF"/>
<path d="M15.1571 11.4804C15.1571 11.5982 15.1963 11.7061 15.2749 11.7945L22.981 18.9116C22.981 18.9116 23.0497 18.9607 23.089 18.9804C23.1283 19 23.1675 19 23.2166 19C23.3148 19 23.4129 18.9509 23.4817 18.8822C23.5406 18.8135 23.57 18.7251 23.57 18.6368V4.36322C23.57 4.2945 23.5406 4.2356 23.5013 4.1767C23.462 4.12762 23.4129 4.07853 23.354 4.04908C23.2951 4.01963 23.2264 4.00982 23.1577 4.01963C23.089 4.01963 23.0301 4.04908 22.981 4.08835L15.3141 11.1662C15.2258 11.2448 15.1767 11.3527 15.1669 11.4705L15.1571 11.4804Z" fill="#FFFFFF"/>
</svg>
