<svg width="24" height="24" viewBox="0 0 24 24" fill="none" xmlns="http://www.w3.org/2000/svg">
<path d="M13.7932 4.24542V18.7546C13.7932 18.892 13.9699 19 14.176 19H16.2768C16.4928 19 16.6597 18.892 16.6597 18.7546V4.24542C16.6597 4.10798 16.4928 4 16.2768 4H14.176C13.9601 4 13.7932 4.10798 13.7932 4.24542Z" fill="#FFFFFF"/>
<path d="M7 4.24542V18.7546C7 18.892 7.1767 19 7.38285 19H9.48364C9.69961 19 9.86649 18.892 9.86649 18.7546V4.24542C9.86649 4.10798 9.69961 4 9.48364 4H7.38285C7.16689 4 7 4.10798 7 4.24542Z" fill="#FFFFFF"/>
</svg>
