<svg width="24" height="24" viewBox="0 0 24 24" fill="none" xmlns="http://www.w3.org/2000/svg">
    <g clip-path="url(#clip0_2172_588)">
        <path d="M1.9 3.1V18.7H10.8L18.1 21.1V18.7H22V3.1H1.9ZM20.8 17.5H16.9V19.5L11.2 17.5H3.2V4.2H20.8V17.5Z"
            fill="#FFFFFF" />
        <path d="M5.3 11.8H7.1V13H5.3V11.8Z" fill="#FFFFFF" />
        <path d="M15.9 11.8H18.7V13H15.9V11.8Z" fill="#FFFFFF" />
        <path d="M8.3 11.8H14.9V13H8.3V11.8Z" fill="#FFFFFF" />
        <path d="M5.3 9H6.5V10.2H5.3V9Z" fill="#CCCCCC" />
        <path d="M7.7 9H15.5V10.2H7.7V9Z" fill="#FFFFFF" />
        <path d="M16.4 9H18.7V10.2H16.4V9Z" fill="#FFFFFF" />
    </g>
    <defs>
        <clipPath id="clip0_2172_588">
            <rect width="24" height="24" fill="white" />
        </clipPath>
    </defs>
</svg>