<svg width="24" height="24" viewBox="0 0 24 24" fill="none" xmlns="http://www.w3.org/2000/svg">
    <g clip-path="url(#clip0_970_517)">
        <path
            d="M19.9509 13.1429L21 12.9784V11.0216L19.9509 10.8571C19.0877 10.7114 18.7842 9.56793 19.4591 9.01312L20.2508 8.36098L19.2766 6.67418L18.3077 7.03699C17.4875 7.34429 16.6555 6.51306 16.963 5.69227L17.3258 4.72336L15.639 3.74918L14.9869 4.5409C14.4331 5.21449 13.2889 4.91398 13.1429 4.04906L12.9784 3H11.0216L10.8571 4.04906C10.7106 4.91239 9.56803 5.21586 9.01312 4.5409L8.36098 3.74918L6.67418 4.72336L7.03699 5.69227C7.34422 6.51236 6.51306 7.3445 5.69227 7.03699L4.72336 6.67418L3.74918 8.36098L4.5409 9.01312C4.84922 9.26695 4.98035 9.68355 4.87523 10.0752C4.87312 10.0787 4.73812 10.7407 4.04906 10.8571L3 11.0216V12.9784L4.04906 13.1429C4.44281 13.2097 4.76414 13.505 4.8675 13.8963C4.8675 13.8998 5.08055 14.5429 4.5409 14.9869L3.74918 15.639L4.72336 17.3258L5.69227 16.963C6.50845 16.6572 7.34595 17.4837 7.03699 18.3077L6.67418 19.2766L8.36098 20.2508L9.01312 19.4591C9.56631 18.7872 10.7103 19.0838 10.8571 19.9509L11.0216 21H12.9784L13.1429 19.9509C13.2877 19.093 14.4283 18.7802 14.9869 19.4591L15.639 20.2508L17.3258 19.2766L16.963 18.3077C16.6572 17.4915 17.4837 16.6541 18.3077 16.963L19.2766 17.3258L20.2508 15.639L19.4591 14.9869C18.7854 14.433 19.086 13.2896 19.9509 13.1429ZM12 16.7461C9.38297 16.7461 7.25391 14.617 7.25391 12C7.25391 9.38297 9.38297 7.25391 12 7.25391C14.617 7.25391 16.7461 9.38297 16.7461 12C16.7461 14.617 14.617 16.7461 12 16.7461ZM12 8.30859C9.96445 8.30859 8.30859 9.96445 8.30859 12C8.30859 14.0355 9.96445 15.6914 12 15.6914C14.0355 15.6914 15.6914 14.0355 15.6914 12C15.6914 9.96445 14.0355 8.30859 12 8.30859ZM12 14.6367C10.5463 14.6367 9.36328 13.4541 9.36328 12C9.36328 10.5459 10.5463 9.36328 12 9.36328C13.4537 9.36328 14.6367 10.5459 14.6367 12C14.6367 13.4541 13.4537 14.6367 12 14.6367Z"
            fill="#CCCCCC" />
    </g>
    <defs>
        <clipPath id="clip0_970_517">
            <rect width="18" height="18" fill="white" transform="translate(3 3)" />
        </clipPath>
    </defs>
</svg>