<svg width="24" height="24" viewBox="0 0 24 24" fill="none" xmlns="http://www.w3.org/2000/svg">
    <mask id="mask0_2332_427" style="mask-type:luminance" maskUnits="userSpaceOnUse" x="0" y="4" width="24" height="16">
        <path d="M24 4.5H0V19.4H24V4.5Z" fill="white" />
    </mask>
    <g mask="url(#mask0_2332_427)">
        <path
            d="M7 11.5C7 11.5 7.2 11.4 7.2 11.3C7.2 11.2 7.2 11.1 7.2 10.9C7.2 10.7 7.2 10.6 7.2 10.5C7.2 10.4 7.1 10.3 7 10.3C7 10.3 6.8 10.3 6.7 10.3H5.3V11.6H6.7C6.8 11.6 6.9 11.6 7 11.6V11.5Z"
            fill="#FFFFFF" />
        <path
            d="M7.2 12.5C7.2 12.5 7 12.5 6.9 12.5H5.3V13.9H6.8C6.9 13.9 7 13.9 7.1 13.9C7.2 13.9 7.3 13.8 7.3 13.6C7.3 13.5 7.3 13.4 7.3 13.3C7.3 13.2 7.3 13 7.3 12.9C7.3 12.8 7.2 12.7 7.1 12.6L7.2 12.5Z"
            fill="#FFFFFF" />
        <path
            d="M0 4.5V19.4H24V4.5H0ZM8.3 14.1C8.1 14.3 7.9 14.5 7.7 14.6C7.4 14.7 7.2 14.8 6.8 14.8H4.2V9.5H7C7.3 9.5 7.5 9.5 7.6 9.7C7.8 9.8 7.9 10 8 10.2C8.1 10.4 8.1 10.6 8.1 10.8C8.1 11 8.1 11.3 7.9 11.5C7.8 11.7 7.6 11.9 7.3 12C7.6 12 7.8 12.3 8 12.5C8.2 12.7 8.3 13 8.3 13.4C8.3 13.8 8.3 13.9 8.1 14.2L8.3 14.1ZM10.4 14.7H9.4V9.4H10.4V14.7ZM15.5 10.3H13.8V14.7H12.8V10.3H11.1V9.4H15.5V10.3ZM19.9 14.1C19.7 14.3 19.4 14.4 19.1 14.5C18.8 14.5 18.5 14.6 18.2 14.6C17.9 14.6 17.5 14.6 17.2 14.4C16.9 14.2 16.6 14 16.4 13.8C16.2 13.5 16 13.2 15.9 12.9C15.8 12.6 15.7 12.2 15.7 11.9C15.7 11.6 15.7 11.3 15.9 11C16 10.7 16.2 10.4 16.4 10.1C16.6 9.8 16.9 9.6 17.2 9.5C17.5 9.3 17.9 9.3 18.3 9.3C18.7 9.3 19.2 9.4 19.6 9.6C20 9.8 20.2 10.1 20.4 10.4L19.6 10.9C19.6 10.7 19.4 10.5 19.2 10.4C19.1 10.3 18.9 10.2 18.7 10.2C18.5 10.2 18.4 10.2 18.2 10.2C17.9 10.2 17.7 10.2 17.5 10.4C17.3 10.5 17.2 10.6 17 10.8C16.9 11 16.8 11.2 16.7 11.4C16.7 11.6 16.7 11.8 16.7 12C16.7 12.2 16.7 12.5 16.8 12.7C16.8 12.9 17 13.1 17.1 13.3C17.2 13.5 17.4 13.6 17.6 13.7C17.8 13.7 18 13.8 18.2 13.8C18.4 13.8 18.5 13.8 18.7 13.8C18.9 13.8 19 13.7 19.2 13.5C19.3 13.4 19.5 13.2 19.5 13L20.3 13.5C20.2 13.8 20 14 19.8 14.2L19.9 14.1Z"
            fill="#FFFFFF" />
    </g>
</svg>