<svg width="24" height="24" viewBox="0 0 24 24" fill="none" xmlns="http://www.w3.org/2000/svg">
<path d="M7.56941 4H6.24522C6.1079 4 6 4.1079 6 4.24522V18.7426C6 18.8799 6.1079 18.9878 6.24522 18.9878H7.56941C7.70673 18.9878 7.81462 18.8799 7.81462 18.7426V4.24522C7.81462 4.1079 7.70673 4 7.56941 4Z" fill="#FFFFFF"/>
<path d="M9.26735 11.4883C9.26735 11.5963 9.30663 11.7043 9.38518 11.7927L17.0933 18.9116C17.1522 18.9705 17.2406 19 17.3191 19C17.4173 19 17.5155 18.9509 17.5842 18.8822C17.6431 18.8134 17.6726 18.7251 17.6726 18.6367V4.35954C17.6726 4.2908 17.6431 4.23189 17.6039 4.17297C17.5646 4.12388 17.5155 4.07478 17.4566 4.04532C17.3977 4.01587 17.3289 4.00605 17.2602 4.01587C17.1915 4.01587 17.1325 4.04532 17.0835 4.0846L9.41464 11.1643C9.41464 11.1643 9.33608 11.2526 9.30663 11.3017C9.27717 11.3508 9.26735 11.4097 9.26735 11.4687V11.4883Z" fill="#FFFFFF"/>
</svg>
