<svg width="24" height="24" viewBox="0 0 24 24" fill="none" xmlns="http://www.w3.org/2000/svg">
    <g clip-path="url(#clip0_2349_319)">
        <path
            d="M9.8 4.6H6.4C5.9 4.6 5.6 5 5.6 5.4V18.7C5.6 19.2 6 19.5 6.4 19.5H9.7C10.2 19.5 10.5 19.1 10.5 18.7V5.4C10.5 4.9 10.1 4.6 9.7 4.6H9.8Z"
            fill="#FFFFFF" />
        <path
            d="M17.8 4.6H14.4C13.9 4.6 13.6 5 13.6 5.4V18.7C13.6 19.2 14 19.5 14.4 19.5H17.7C18.2 19.5 18.5 19.1 18.5 18.7V5.4C18.5 4.9 18.1 4.6 17.7 4.6H17.8Z"
            fill="#FFFFFF" />
    </g>
    <defs>
        <clipPath id="clip0_2349_319">
            <rect width="24" height="24" fill="white" />
        </clipPath>
    </defs>
</svg>