<svg width="24" height="24" viewBox="0 0 24 24" fill="none" xmlns="http://www.w3.org/2000/svg">
    <rect x="1.33334" y="1.33334" width="21.3333" height="21.3333" fill="#FFFFFF" fill-opacity="0.45" />
    <path
        d="M22.5 24H1.5C0.673333 24 0 23.3267 0 22.5V1.5C0 0.666667 0.673333 0 1.5 0H22.5C23.3267 0 24 0.666667 24 1.5V22.5C24 23.3267 23.3267 24 22.5 24ZM1.5 1C1.22 1 1 1.22 1 1.5V22.5C1 22.78 1.22 23 1.5 23H22.5C22.78 23 23 22.78 23 22.5V1.5C23 1.22 22.78 1 22.5 1H1.5Z"
        fill="#FFFFFF" />
    <path
        d="M18.8534 7.27994H5.14669C4.80669 7.27994 4.47336 7.41994 4.24002 7.65994C4.00002 7.89994 3.86002 8.2266 3.86002 8.5666V15.4266C3.86002 15.7666 4.00002 16.0999 4.24002 16.3333C4.48002 16.5733 4.80669 16.7133 5.14669 16.7133H18.86C19.2 16.7133 19.5334 16.5733 19.7667 16.3333C20 16.0933 20.1467 15.7666 20.1467 15.4266V8.5666C20.1467 8.2266 20.0067 7.89327 19.7667 7.65994C19.5267 7.41994 19.2 7.27994 18.86 7.27994H18.8534ZM6.86669 14.5666C6.39336 14.5666 6.00669 14.1799 6.00669 13.7066C6.00669 13.2333 6.39336 12.8466 6.86669 12.8466C7.34002 12.8466 7.72669 13.2333 7.72669 13.7066C7.72669 14.1799 7.34002 14.5666 6.86669 14.5666ZM6.86669 11.1466C6.39336 11.1466 6.00669 10.7599 6.00669 10.2866C6.00669 9.81327 6.39336 9.4266 6.86669 9.4266C7.34002 9.4266 7.72669 9.81327 7.72669 10.2866C7.72669 10.7599 7.34002 11.1466 6.86669 11.1466ZM9.43336 10.2866C9.43336 9.81327 9.82002 9.4266 10.2934 9.4266C10.7667 9.4266 11.1534 9.81327 11.1534 10.2866C11.1534 10.7599 10.7667 11.1466 10.2934 11.1466C9.82002 11.1466 9.43336 10.7599 9.43336 10.2866ZM13.7267 14.1399H10.2934C10.0534 14.1399 9.86002 13.9466 9.86002 13.7066C9.86002 13.4666 10.0534 13.2733 10.2934 13.2733H13.7267C13.9667 13.2733 14.1534 13.4666 14.1534 13.7066C14.1534 13.9466 13.9667 14.1399 13.7267 14.1399ZM13.7134 11.1466C13.24 11.1466 12.8534 10.7599 12.8534 10.2866C12.8534 9.81327 13.24 9.4266 13.7134 9.4266C14.1867 9.4266 14.5734 9.81327 14.5734 10.2866C14.5734 10.7599 14.1867 11.1466 13.7134 11.1466ZM17.1467 14.5666C16.6734 14.5666 16.2867 14.1799 16.2867 13.7066C16.2867 13.2333 16.6734 12.8466 17.1467 12.8466C17.62 12.8466 18.0067 13.2333 18.0067 13.7066C18.0067 14.1799 17.62 14.5666 17.1467 14.5666ZM17.1467 11.1466C16.6734 11.1466 16.2867 10.7599 16.2867 10.2866C16.2867 9.81327 16.6734 9.4266 17.1467 9.4266C17.62 9.4266 18.0067 9.81327 18.0067 10.2866C18.0067 10.7599 17.62 11.1466 17.1467 11.1466Z"
        fill="#FFFFFF" />
</svg>