<svg width="24" height="24" viewBox="0 0 24 24" fill="none" xmlns="http://www.w3.org/2000/svg">
    <g clip-path="url(#clip0_3186_429)">
        <path
            d="M7.67 0H7.33C6.41321 0 5.67 0.743207 5.67 1.66V22.34C5.67 23.2568 6.41321 24 7.33 24H7.67C8.58679 24 9.33 23.2568 9.33 22.34V1.66C9.33 0.743207 8.58679 0 7.67 0Z"
            fill="#FFFFFF" />
        <path
            d="M16.67 0H16.33C15.4132 0 14.67 0.743207 14.67 1.66V22.34C14.67 23.2568 15.4132 24 16.33 24H16.67C17.5868 24 18.33 23.2568 18.33 22.34V1.66C18.33 0.743207 17.5868 0 16.67 0Z"
            fill="#FFFFFF" />
    </g>
    <defs>
        <clipPath id="clip0_3186_429">
            <rect width="24" height="24" fill="white" />
        </clipPath>
    </defs>
</svg>