<svg width="24" height="24" viewBox="0 0 24 24" fill="none" xmlns="http://www.w3.org/2000/svg">
    <g clip-path="url(#clip0_3263_81)">
        <path
            d="M23 22.5067C23 22.7733 22.7733 23.0133 22.4933 23.0133H1.49333C1.21333 23.0133 0.986667 22.7867 0.986667 22.5067V1.49333C0.986667 1.21333 1.2 0.986664 1.49333 0.986664H12.6667V-0.0133362H1.49333C0.666667 -2.84798e-06 0 0.666664 0 1.49333V22.4933C0 23.32 0.666667 23.9867 1.49333 23.9867H22.4933C23.32 23.9867 23.9867 23.32 23.9867 22.4933V11.32H22.9867V22.4933L23 22.5067Z"
            fill="#FFFFFF" />
        <path
            d="M16.36 7.92H23.6267C23.8267 7.92 24 7.76 24 7.54667V5.42667C24 5.22667 23.84 5.05333 23.6267 5.05333H18.88V0.373333C18.88 0.173333 18.72 0 18.5067 0H16.36C16.16 0 15.9867 0.16 15.9867 0.373333V7.54667C15.9867 7.74667 16.1467 7.92 16.36 7.92Z"
            fill="#FFFFFF" />
    </g>
    <defs>
        <clipPath id="clip0_3263_81">
            <rect width="24" height="24" fill="white" />
        </clipPath>
    </defs>
</svg>