<svg width="18" height="18" viewBox="0 0 18 18" fill="none" xmlns="http://www.w3.org/2000/svg">
    <g clip-path="url(#clip0_3988_1164)">
        <path
            d="M16.875 0H1.125C0.505 0 0 0.5 0 1.125V16.875C0 17.495 0.505 18 1.125 18H16.875C17.5 18 18 17.495 18 16.875V1.125C18 0.5 17.5 0 16.875 0ZM5.2 9.795V13.295H3.25V9.795H5.2ZM3.25 8.185V4.705H5.2V8.185H3.25ZM8.385 9.795V13.295H6.435V9.795H8.385ZM6.435 8.185V4.705H8.385V8.185H6.435ZM9.62 8.185V4.705H11.57V8.185H9.62ZM14.75 8.185H12.8V4.705H14.75V8.185Z"
            fill="white" />
    </g>
    <defs>
        <clipPath id="clip0_3988_1164">
            <rect width="18" height="18" fill="white" />
        </clipPath>
    </defs>
</svg>