<svg width="24" height="24" viewBox="0 0 24 24" fill="none" xmlns="http://www.w3.org/2000/svg">
    <g clip-path="url(#clip0_3205_358)">
        <path
            d="M17 4.37001C16.83 4.30001 16.63 4.32001 16.49 4.44001L10.52 9.39001H7.22C6.95 9.39001 6.73 9.60001 6.73 9.88001V14.12C6.73 14.39 6.94 14.61 7.22 14.61H10.52L16.49 19.56C16.64 19.68 16.84 19.71 17 19.63C17.17 19.56 17.28 19.38 17.28 19.2V4.81001C17.28 4.62001 17.17 4.45001 17 4.38001V4.37001Z"
            fill="#FFFFFF" />
        <path
            d="M22.5 0H0V24H22.5C23.33 24 24 23.33 24 22.5V1.5C24 0.67 23.33 0 22.5 0ZM23 22.5C23 22.77 22.77 23 22.5 23H2.37H1V1H22.5C22.77 1 23 1.22 23 1.5V22.5Z"
            fill="#FFFFFF" />
    </g>
    <defs>
        <clipPath id="clip0_3205_358">
            <rect width="24" height="24" fill="white" />
        </clipPath>
    </defs>
</svg>