<svg width="24" height="24" viewBox="0 0 24 24" fill="none" xmlns="http://www.w3.org/2000/svg">
    <g clip-path="url(#clip0_3149_134)">
        <path
            d="M22.5 24H1.5C0.666667 24 0 23.3267 0 22.5V1.5C0 0.666667 0.666667 0 1.5 0H22.5C23.3267 0 24 0.666667 24 1.5V22.5C24 23.3267 23.3267 24 22.5 24ZM1.5 1C1.22 1 1 1.22 1 1.5V22.5C1 22.7667 1.22 23 1.5 23H22.5C22.7667 23 23 22.7667 23 22.5V1.5C23 1.22 22.7667 1 22.5 1H1.5Z"
            fill="#FFFFFF" />
        <path
            d="M8.39333 15.6067V20.3067C8.39333 20.5067 8.55333 20.6733 8.76 20.6733H10.88C11.08 20.6733 11.2467 20.5133 11.2467 20.3067V13.1267C11.2467 12.9267 11.0867 12.76 10.88 12.76H3.7C3.5 12.76 3.33333 12.92 3.33333 13.1267V15.2467C3.33333 15.4467 3.49333 15.6133 3.7 15.6133H8.4L8.39333 15.6067Z"
            fill="#FFFFFF" />
        <path
            d="M15.6067 8.39333V3.69333C15.6067 3.49333 15.4467 3.32666 15.24 3.32666H13.12C12.92 3.32666 12.7533 3.48666 12.7533 3.69333V10.8733C12.7533 11.0733 12.9133 11.24 13.12 11.24H20.3C20.5 11.24 20.6667 11.08 20.6667 10.8733V8.75333C20.6667 8.55333 20.5067 8.38666 20.3 8.38666H15.6L15.6067 8.39333Z"
            fill="#FFFFFF" />
    </g>
    <defs>
        <clipPath id="clip0_3149_134">
            <rect width="24" height="24" fill="white" />
        </clipPath>
    </defs>
</svg>