<svg width="24" height="24" viewBox="0 0 24 24" fill="none" xmlns="http://www.w3.org/2000/svg">
    <g clip-path="url(#clip0_2776_487)">
        <path
            d="M19.14 3H14.43C14.29 3 14.18 3.11 14.18 3.25V20.74C14.18 20.88 14.29 20.99 14.43 20.99H19.14C19.28 20.99 19.39 20.88 19.39 20.74V3.25C19.39 3.11 19.28 3 19.14 3Z"
            fill="#FFFFFF" />
        <path
            d="M9.57 3H4.86C4.72 3 4.61 3.11 4.61 3.25V20.74C4.61 20.88 4.72 20.99 4.86 20.99H9.57C9.71 20.99 9.82 20.88 9.82 20.74V3.25C9.82 3.11 9.71 3 9.57 3Z"
            fill="#FFFFFF" />
    </g>
    <defs>
        <clipPath id="clip0_2776_487">
            <rect width="24" height="24" fill="white" />
        </clipPath>
    </defs>
</svg>