<svg width="18" height="18" viewBox="0 0 18 18" fill="none" xmlns="http://www.w3.org/2000/svg">
    <g clip-path="url(#clip0_3988_1168)">
        <path
            d="M16.875 0H1.125C0.5 0 0 0.5 0 1.125V16.875C0 17.495 0.5 18 1.125 18H16.875C17.495 18 18 17.495 18 16.875V1.125C18 0.5 17.495 0 16.875 0ZM8.225 5.64V7.215H3.25V5.64H8.22H8.225ZM3.25 4.64V3.065H8.25V4.64H3.25ZM8.225 8.21V9.785H3.25V8.21H8.22H8.225ZM8.225 10.785V12.36H3.25V10.785H8.22H8.225ZM8.225 13.36V14.935H3.25V13.36H8.22H8.225ZM14.75 13.36V14.935H9.75V13.36H14.75ZM9.75 12.36V10.785H14.75V12.36H9.75ZM14.75 9.785H9.75V8.21H14.75V9.785Z"
            fill="white" />
    </g>
    <defs>
        <clipPath id="clip0_3988_1168">
            <rect width="18" height="18" fill="white" />
        </clipPath>
    </defs>
</svg>