<svg width="24" height="24" viewBox="0 0 24 24" fill="none" xmlns="http://www.w3.org/2000/svg">
    <g clip-path="url(#clip0_3149_120)">
        <path
            d="M22.5 24H1.5C0.673333 24 0 23.3267 0 22.5V1.5C0 0.666667 0.673333 0 1.5 0H22.5C23.3267 0 24 0.666667 24 1.5V22.5C24 23.3267 23.3267 24 22.5 24ZM1.5 1C1.22 1 1 1.22 1 1.5V22.5C1 22.78 1.22 23 1.5 23H22.5C22.78 23 23 22.78 23 22.5V1.5C23 1.22 22.78 1 22.5 1H1.5Z"
            fill="#FFFFFF" />
        <path
            d="M18.8533 7.28H5.14667C4.80667 7.28 4.47333 7.42 4.24 7.66C4 7.9 3.86 8.22667 3.86 8.56667V15.4267C3.86 15.7667 4 16.1 4.24 16.3333C4.48 16.5733 4.80667 16.7133 5.14667 16.7133H18.86C19.2 16.7133 19.5333 16.5733 19.7667 16.3333C20 16.0933 20.1467 15.7667 20.1467 15.4267V8.56667C20.1467 8.22667 20.0067 7.89333 19.7667 7.66C19.5267 7.42 19.2 7.28 18.86 7.28H18.8533ZM6.86667 14.5667C6.39333 14.5667 6.00667 14.18 6.00667 13.7067C6.00667 13.2333 6.39333 12.8467 6.86667 12.8467C7.34 12.8467 7.72667 13.2333 7.72667 13.7067C7.72667 14.18 7.34 14.5667 6.86667 14.5667ZM6.86667 11.1467C6.39333 11.1467 6.00667 10.76 6.00667 10.2867C6.00667 9.81333 6.39333 9.42667 6.86667 9.42667C7.34 9.42667 7.72667 9.81333 7.72667 10.2867C7.72667 10.76 7.34 11.1467 6.86667 11.1467ZM9.43333 10.2867C9.43333 9.81333 9.82 9.42667 10.2933 9.42667C10.7667 9.42667 11.1533 9.81333 11.1533 10.2867C11.1533 10.76 10.7667 11.1467 10.2933 11.1467C9.82 11.1467 9.43333 10.76 9.43333 10.2867ZM13.7267 14.14H10.2933C10.0533 14.14 9.86 13.9467 9.86 13.7067C9.86 13.4667 10.0533 13.2733 10.2933 13.2733H13.7267C13.9667 13.2733 14.1533 13.4667 14.1533 13.7067C14.1533 13.9467 13.9667 14.14 13.7267 14.14ZM13.7133 11.1467C13.24 11.1467 12.8533 10.76 12.8533 10.2867C12.8533 9.81333 13.24 9.42667 13.7133 9.42667C14.1867 9.42667 14.5733 9.81333 14.5733 10.2867C14.5733 10.76 14.1867 11.1467 13.7133 11.1467ZM17.1467 14.5667C16.6733 14.5667 16.2867 14.18 16.2867 13.7067C16.2867 13.2333 16.6733 12.8467 17.1467 12.8467C17.62 12.8467 18.0067 13.2333 18.0067 13.7067C18.0067 14.18 17.62 14.5667 17.1467 14.5667ZM17.1467 11.1467C16.6733 11.1467 16.2867 10.76 16.2867 10.2867C16.2867 9.81333 16.6733 9.42667 17.1467 9.42667C17.62 9.42667 18.0067 9.81333 18.0067 10.2867C18.0067 10.76 17.62 11.1467 17.1467 11.1467Z"
            fill="#FFFFFF" />
    </g>
    <defs>
        <clipPath id="clip0_3149_120">
            <rect width="24" height="24" fill="white" />
        </clipPath>
    </defs>
</svg>