<svg width="24" height="24" viewBox="0 0 24 24" fill="none" xmlns="http://www.w3.org/2000/svg">
    <g clip-path="url(#clip0_3263_76)">
        <path
            d="M23 22.5067C23 22.7733 22.7733 23.0133 22.4933 23.0133H1.49333C1.21333 23.0133 0.986667 22.7867 0.986667 22.5067V1.49333C0.986667 1.21333 1.2 0.986664 1.49333 0.986664H12.6667V-0.0133362H1.49333C0.666667 -2.84798e-06 0 0.666664 0 1.49333V22.4933C0 23.32 0.666667 23.9867 1.49333 23.9867H22.4933C23.32 23.9867 23.9867 23.32 23.9867 22.4933V11.32H22.9867V22.4933L23 22.5067Z"
            fill="#FFFFFF" />
        <path
            d="M23.6267 0H16.36C16.16 0 15.9867 0.16 15.9867 0.373333V2.49333C15.9867 2.69333 16.1467 2.86667 16.36 2.86667H21.1067V7.56C21.1067 7.76 21.2667 7.93333 21.48 7.93333H23.6267C23.8267 7.93333 24 7.77333 24 7.56V0.373333C24 0.173333 23.84 0 23.6267 0Z"
            fill="#FFFFFF" />
    </g>
    <defs>
        <clipPath id="clip0_3263_76">
            <rect width="24" height="24" fill="white" />
        </clipPath>
    </defs>
</svg>