<svg width="24" height="24" viewBox="0 0 24 24" fill="none" xmlns="http://www.w3.org/2000/svg">
    <g clip-path="url(#clip0_3149_155)">
        <path
            d="M17 4.37001C16.83 4.30001 16.63 4.32001 16.49 4.44001L10.52 9.39001H7.22C6.95 9.39001 6.73 9.60001 6.73 9.88001V14.12C6.73 14.39 6.94 14.61 7.22 14.61H10.52L16.49 19.56C16.64 19.68 16.84 19.71 17 19.63C17.17 19.56 17.28 19.38 17.28 19.2V4.81001C17.28 4.62001 17.17 4.45001 17 4.38001V4.37001Z"
            fill="#FFFFFF" />
        <path
            d="M22.5 24H1.5C0.67 24 0 23.33 0 22.5V1.5C0 0.67 0.67 0 1.5 0H22.5C23.33 0 24 0.67 24 1.5V22.5C24 23.33 23.33 24 22.5 24ZM1.5 1C1.22 1 1 1.22 1 1.5V22.5C1 22.77 1.22 23 1.5 23H22.5C22.77 23 23 22.77 23 22.5V1.5C23 1.22 22.77 1 22.5 1H1.5Z"
            fill="#FFFFFF" />
    </g>
    <defs>
        <clipPath id="clip0_3149_155">
            <rect width="24" height="24" fill="white" />
        </clipPath>
    </defs>
</svg>