<svg width="24" height="24" viewBox="0 0 24 24" fill="none" xmlns="http://www.w3.org/2000/svg">
    <g clip-path="url(#clip0_3186_402)">
        <path fill-rule="evenodd" clip-rule="evenodd"
            d="M12.98 13C13.51 12.47 13.51 11.59 12.98 11.06L2.36 0.41C2.09 0.14 1.74 0 1.38 0C1.02 0 0.660001 0.15 0.410001 0.41C-0.139999 0.95 -0.139999 1.82 0.410001 2.36L10.07 12.02L0.410001 21.67C-0.119999 22.2 -0.119999 23.08 0.410001 23.61C0.940001 24.14 1.82 24.14 2.35 23.61L12.97 12.99H12.99V13.01L12.98 13Z"
            fill="#FFFFFF" />
        <path fill-rule="evenodd" clip-rule="evenodd"
            d="M23.61 13C24.14 12.47 24.14 11.59 23.61 11.06L12.98 0.41C12.71 0.14 12.36 0 12 0C11.64 0 11.28 0.15 11.02 0.41C10.49 0.94 10.49 1.82 11.02 2.35L20.68 12.01L11.02 21.67C10.49 22.2 10.49 23.08 11.02 23.61C11.55 24.14 12.43 24.14 12.96 23.61L23.58 12.99H23.6V13.01L23.61 13Z"
            fill="#FFFFFF" />
    </g>
    <defs>
        <clipPath id="clip0_3186_402">
            <rect width="24" height="24" fill="white" />
        </clipPath>
    </defs>
</svg>