<svg width="24" height="24" viewBox="0 0 24 24" fill="none" xmlns="http://www.w3.org/2000/svg">
    <g clip-path="url(#clip0_3153_479)">
        <path fill-rule="evenodd" clip-rule="evenodd"
            d="M19.4133 0.266667C19.24 0.0933333 19.0133 0 18.7733 0C18.5333 0 18.3067 0.0933333 18.1333 0.266667L11.8267 6.57333L5.53333 0.266667C5.36 0.0933333 5.13333 0 4.89333 0C4.65333 0 4.44 0.0933333 4.26667 0.266667C4.09333 0.44 4 0.666667 4 0.906667C4 1.14667 4.09333 1.37333 4.26667 1.54667L11.2 8.48C11.3733 8.65333 11.6 8.74667 11.84 8.74667C12.08 8.74667 12.3067 8.65333 12.48 8.48L19.4133 1.53333C19.76 1.18667 19.76 0.613333 19.4133 0.266667Z"
            fill="#FFFFFF" />
        <path fill-rule="evenodd" clip-rule="evenodd"
            d="M12.48 15.5333C12.1333 15.1866 11.56 15.1866 11.2133 15.5333L4.26667 22.4666C4.09333 22.64 4 22.8666 4 23.1066C4 23.3466 4.09333 23.5733 4.26667 23.7466C4.61333 24.0933 5.18667 24.0933 5.53333 23.7466L11.84 17.44L18.1467 23.7466C18.4933 24.0933 19.0667 24.0933 19.4133 23.7466C19.76 23.4 19.76 22.8266 19.4133 22.48L12.48 15.5466V15.5333Z"
            fill="#FFFFFF" />
    </g>
    <defs>
        <clipPath id="clip0_3153_479">
            <rect width="15.68" height="24" fill="white" transform="translate(4)" />
        </clipPath>
    </defs>
</svg>