<svg width="24" height="24" viewBox="0 0 24 24" fill="none" xmlns="http://www.w3.org/2000/svg">
    <g clip-path="url(#clip0_3149_150)">
        <mask id="mask0_3149_150" style="mask-type:luminance" maskUnits="userSpaceOnUse" x="6" y="4" width="15"
            height="16">
            <path d="M20.19 4H6.67V19.33H20.19V4Z" fill="white" />
        </mask>
        <g mask="url(#mask0_3149_150)">
            <path
                d="M17.22 10.98V4.46999C17.22 4.27999 17.11 4.10999 16.94 4.03999C16.77 3.96999 16.57 3.98999 16.43 4.10999L13.41 6.61999L17.22 10.99V10.98Z"
                fill="#FFFFFF" />
            <path
                d="M10.92 8.66998L10.45 9.05998H7.15C6.88 9.05998 6.66 9.26998 6.66 9.54998V13.79C6.66 14.06 6.87 14.28 7.15 14.28H10.45L16.42 19.23C16.57 19.35 16.77 19.38 16.93 19.3C17.1 19.23 17.21 19.05 17.21 18.87V15.91L10.91 8.68998L10.92 8.66998Z"
                fill="#FFFFFF" />
            <path d="M8.36 4.23999L6.85 5.55999L18.68 19.11L20.19 17.79L8.36 4.23999Z" fill="#FFFFFF" />
        </g>
        <path
            d="M22.5 24H1.5C0.67 24 0 23.33 0 22.5V1.5C0 0.67 0.67 0 1.5 0H22.5C23.33 0 24 0.67 24 1.5V22.5C24 23.33 23.33 24 22.5 24ZM1.5 1C1.22 1 1 1.22 1 1.5V22.5C1 22.78 1.22 23 1.5 23H22.5C22.78 23 23 22.78 23 22.5V1.5C23 1.22 22.78 1 22.5 1H1.5Z"
            fill="#FFFFFF" />
    </g>
    <defs>
        <clipPath id="clip0_3149_150">
            <rect width="24" height="24" fill="white" />
        </clipPath>
    </defs>
</svg>