<svg width="18" height="18" viewBox="0 0 18 18" fill="none" xmlns="http://www.w3.org/2000/svg">
    <g clip-path="url(#clip0_3647_58)">
        <path d="M3 10.86H8.19V12.5H3V10.86Z" fill="white" />
        <path d="M3 8.17999H8.19V9.81999H3V8.17999Z" fill="white" />
        <path d="M8.22 4.45V2.81H3V4.45H8.22Z" fill="white" />
        <path d="M3 5.48999H8.19V7.12999H3V5.48999Z" fill="white" />
        <path d="M3 13.55H8.19V15.19H3V13.55Z" fill="white" />
        <path d="M9.78027 13.55H15.0003V15.19H9.78027V13.55Z" fill="white" />
        <path d="M9.78027 10.86H15.0003V12.5H9.78027V10.86Z" fill="white" />
        <path d="M9.78027 8.17999H15.0003V9.81999H9.78027V8.17999Z" fill="white" />
        <mask id="mask0_3647_58" style="mask-type:luminance" maskUnits="userSpaceOnUse" x="0" y="0" width="19"
            height="18">
            <path d="M18.01 0H0V18H18.01V0Z" fill="white" />
        </mask>
        <g mask="url(#mask0_3647_58)">
            <path
                d="M16.89 18H1.12C0.5 18 0 17.5 0 16.88V1.12C0 0.5 0.5 0 1.12 0H16.88C17.5 0 18 0.5 18 1.12V16.87C18 17.49 17.5 17.99 16.88 17.99H16.89V18ZM1.12 0.75C0.91 0.75 0.74 0.92 0.74 1.13V16.88C0.74 17.08 0.91 17.26 1.12 17.26H16.88C17.08 17.26 17.26 17.09 17.26 16.88V1.12C17.26 0.91 17.09 0.74 16.88 0.74H1.12V0.75Z"
                fill="white" />
        </g>
    </g>
    <defs>
        <clipPath id="clip0_3647_58">
            <rect width="18" height="18" fill="white" />
        </clipPath>
    </defs>
</svg>