<svg width="18" height="18" viewBox="0 0 18 18" fill="none" xmlns="http://www.w3.org/2000/svg">
    <g clip-path="url(#clip0_3377_369)">
        <mask id="mask0_3377_369" style="mask-type:luminance" maskUnits="userSpaceOnUse" x="0" y="0" width="18"
            height="18">
            <path d="M18 0H0V18H18V0Z" fill="white" />
        </mask>
        <g mask="url(#mask0_3377_369)">
            <path
                d="M16.88 18H1.12C0.5 18 0 17.5 0 16.88V1.12C0 0.5 0.5 0 1.12 0H16.87C17.49 0 17.99 0.5 17.99 1.12V16.87C17.99 17.49 17.49 17.99 16.87 17.99L16.88 18ZM1.12 0.75C0.91 0.75 0.74 0.92 0.74 1.13V16.88C0.74 17.08 0.91 17.26 1.12 17.26H16.87C17.07 17.26 17.25 17.09 17.25 16.88V1.12C17.25 0.91 17.08 0.74 16.87 0.74H1.12V0.75Z"
                fill="white" />
        </g>
        <path d="M5.92031 11.64H2.82031V14.74H5.92031V11.64Z" fill="white" />
        <path d="M5.92031 11.64H2.82031V14.74H5.92031V11.64Z" fill="white" />
        <path
            d="M13.6396 8.58998C13.3596 8.58998 13.1296 8.81998 13.1296 9.09998V11.32C13.1296 12.32 12.3196 13.13 11.3196 13.13C10.3196 13.13 9.50961 12.32 9.50961 11.32V6.67998C9.50961 5.11998 8.24961 3.84998 6.67961 3.84998C5.11961 3.84998 3.84961 5.10998 3.84961 6.67998V9.08998C3.84961 9.36998 4.07961 9.59998 4.35961 9.59998C4.63961 9.59998 4.86961 9.36998 4.86961 9.08998V6.67998C4.86961 5.67998 5.67961 4.86998 6.67961 4.86998C7.67961 4.86998 8.48961 5.67998 8.48961 6.67998V11.32C8.48961 12.88 9.75961 14.15 11.3196 14.15C12.8796 14.15 14.1496 12.88 14.1496 11.32V9.09998C14.1496 8.81998 13.9196 8.58998 13.6396 8.58998Z"
            fill="white" />
        <path
            d="M13.6396 8.58998C13.3596 8.58998 13.1296 8.81998 13.1296 9.09998V11.32C13.1296 12.32 12.3196 13.13 11.3196 13.13C10.3196 13.13 9.50961 12.32 9.50961 11.32V6.67998C9.50961 5.11998 8.24961 3.84998 6.67961 3.84998C5.11961 3.84998 3.84961 5.10998 3.84961 6.67998V9.08998C3.84961 9.36998 4.07961 9.59998 4.35961 9.59998C4.63961 9.59998 4.86961 9.36998 4.86961 9.08998V6.67998C4.86961 5.67998 5.67961 4.86998 6.67961 4.86998C7.67961 4.86998 8.48961 5.67998 8.48961 6.67998V11.32C8.48961 12.88 9.75961 14.15 11.3196 14.15C12.8796 14.15 14.1496 12.88 14.1496 11.32V9.09998C14.1496 8.81998 13.9196 8.58998 13.6396 8.58998Z"
            fill="white" />
        <path d="M15.1801 3.27002H12.0801V6.37002H15.1801V3.27002Z" fill="white" />
        <path d="M15.1801 3.27002H12.0801V6.37002H15.1801V3.27002Z" fill="white" />
    </g>
    <defs>
        <clipPath id="clip0_3377_369">
            <rect width="18" height="18" fill="white" />
        </clipPath>
    </defs>
</svg>