<svg width="24" height="24" viewBox="0 0 24 24" fill="none" xmlns="http://www.w3.org/2000/svg">
    <g clip-path="url(#clip0_3149_139)">
        <path
            d="M13.29 14.29H10.28V13.98C10.28 13.45 10.33 13.04 10.45 12.73C10.56 12.4 10.73 12.12 10.98 11.84C11.23 11.56 11.73 11.12 12.53 10.43C12.97 10.07 13.16 9.76 13.16 9.46C13.16 9.16 13.08 8.93 12.91 8.77C12.74 8.6 12.47 8.52 12.14 8.52C11.81 8.52 11.45 8.66 11.2 8.91C10.95 9.16 10.79 9.6 10.73 10.21L7.63 9.82C7.74 8.69 8.16 7.77 8.88 7.08C9.6 6.39 10.71 6.03 12.17 6.03C13.63 6.03 14.27 6.28 14.96 6.75C15.93 7.42 16.4 8.27 16.4 9.35C16.4 10.13 16.26 10.24 16.01 10.65C15.76 11.06 15.26 11.59 14.49 12.2C13.96 12.61 13.6 12.97 13.47 13.22C13.26 13.58 13.29 14.29 13.29 14.29ZM10.16 15.1H13.39V17.95H10.16V15.1Z"
            fill="#FFFFFF" />
        <path
            d="M22.5 24H1.5C0.67 24 0 23.33 0 22.5V1.5C0 0.67 0.67 0 1.5 0H22.5C23.33 0 24 0.67 24 1.5V22.5C24 23.33 23.33 24 22.5 24ZM1.5 1C1.22 1 1 1.22 1 1.5V22.5C1 22.78 1.22 23 1.5 23H22.5C22.78 23 23 22.78 23 22.5V1.5C23 1.22 22.78 1 22.5 1H1.5Z"
            fill="#FFFFFF" />
    </g>
    <defs>
        <clipPath id="clip0_3149_139">
            <rect width="24" height="24" fill="white" />
        </clipPath>
    </defs>
</svg>