<svg width="24" height="24" viewBox="0 0 24 24" fill="none" xmlns="http://www.w3.org/2000/svg">
    <g clip-path="url(#clip0_3153_444)">
        <path
            d="M22.5 24H1.5C0.673333 24 0 23.3267 0 22.5V1.5C0 0.666667 0.673333 0 1.5 0H22.5C23.3267 0 24 0.666667 24 1.5V22.5C24 23.3267 23.3267 24 22.5 24ZM1.5 1C1.22 1 1 1.22 1 1.5V22.5C1 22.78 1.22 23 1.5 23H22.5C22.78 23 23 22.78 23 22.5V1.5C23 1.22 22.78 1 22.5 1H1.5Z"
            fill="#FFFFFF" />
        <path
            d="M11.1467 10.2933C11.1467 9.81999 10.76 9.43332 10.2867 9.43332C9.81333 9.43332 9.42667 9.81999 9.42667 10.2933C9.42667 10.7667 9.81333 11.1533 10.2867 11.1533C10.76 11.1533 11.1467 10.7667 11.1467 10.2933Z"
            fill="#FFFFFF" />
        <path
            d="M13.7267 13.2733H10.2933C10.0533 13.2733 9.86 13.4667 9.86 13.7067C9.86 13.9467 10.0533 14.14 10.2933 14.14H13.7267C13.9667 14.14 14.1533 13.9467 14.1533 13.7067C14.1533 13.4667 13.9667 13.2733 13.7267 13.2733Z"
            fill="#FFFFFF" />
        <path
            d="M6.86 9.42667C6.38667 9.42667 6 9.81333 6 10.2867C6 10.76 6.38667 11.1467 6.86 11.1467C7.33333 11.1467 7.72 10.76 7.72 10.2867C7.72 9.81333 7.33333 9.42667 6.86 9.42667Z"
            fill="#FFFFFF" />
        <path
            d="M13.7067 9.42667C13.2333 9.42667 12.8467 9.81333 12.8467 10.2867C12.8467 10.76 13.2333 11.1467 13.7067 11.1467C14.18 11.1467 14.5667 10.76 14.5667 10.2867C14.5667 9.81333 14.18 9.42667 13.7067 9.42667Z"
            fill="#FFFFFF" />
        <path
            d="M6.86 12.8467C6.38667 12.8467 6 13.2333 6 13.7067C6 14.18 6.38667 14.5667 6.86 14.5667C7.33333 14.5667 7.72 14.18 7.72 13.7067C7.72 13.2333 7.33333 12.8467 6.86 12.8467Z"
            fill="#FFFFFF" />
        <path
            d="M1.33334 1.33334V22.6667H22.6667V1.33334H1.33334ZM20.1467 15.4267C20.1467 15.7667 20 16.0933 19.7667 16.3333C19.5333 16.5733 19.2 16.7133 18.86 16.7133H5.14667C4.80667 16.7133 4.48 16.5733 4.24 16.3333C4 16.1 3.86 15.7667 3.86 15.4267V8.56668C3.86 8.22668 4 7.90001 4.24 7.66001C4.47334 7.42001 4.80667 7.28001 5.14667 7.28001H18.86C19.2 7.28001 19.5267 7.42001 19.7667 7.66001C20.0067 7.89334 20.1467 8.22668 20.1467 8.56668V15.4267Z"
            fill="#FFFFFF" />
        <path
            d="M17.1467 12.8467C16.6733 12.8467 16.2867 13.2333 16.2867 13.7067C16.2867 14.18 16.6733 14.5667 17.1467 14.5667C17.62 14.5667 18.0067 14.18 18.0067 13.7067C18.0067 13.2333 17.62 12.8467 17.1467 12.8467Z"
            fill="#FFFFFF" />
        <path
            d="M17.1467 9.42667C16.6733 9.42667 16.2867 9.81333 16.2867 10.2867C16.2867 10.76 16.6733 11.1467 17.1467 11.1467C17.62 11.1467 18.0067 10.76 18.0067 10.2867C18.0067 9.81333 17.62 9.42667 17.1467 9.42667Z"
            fill="#FFFFFF" />
    </g>
    <defs>
        <clipPath id="clip0_3153_444">
            <rect width="24" height="24" fill="white" />
        </clipPath>
    </defs>
</svg>