<svg width="24" height="24" viewBox="0 0 24 24" fill="none" xmlns="http://www.w3.org/2000/svg">
    <g clip-path="url(#clip0_3186_408)">
        <path fill-rule="evenodd" clip-rule="evenodd"
            d="M11.02 11.01C10.49 11.54 10.49 12.42 11.02 12.95L21.64 23.6C21.91 23.87 22.26 24.01 22.62 24.01C22.98 24.01 23.34 23.86 23.6 23.6C24.14 23.06 24.14 22.19 23.6 21.65L13.94 11.99L23.59 2.32999C24.12 1.79999 24.12 0.919993 23.59 0.389993C23.06 -0.140007 22.18 -0.140007 21.65 0.389993L11.03 11.01H11.01V10.99L11.02 11.01Z"
            fill="#FFFFFF" />
        <path fill-rule="evenodd" clip-rule="evenodd"
            d="M0.389993 11.01C-0.140007 11.54 -0.140007 12.42 0.389993 12.95L11.01 23.6C11.28 23.87 11.63 24.01 11.99 24.01C12.35 24.01 12.71 23.86 12.97 23.6C13.5 23.07 13.5 22.19 12.97 21.66L3.30999 12L12.97 2.32999C13.5 1.79999 13.5 0.919993 12.97 0.389993C12.44 -0.140007 11.56 -0.140007 11.03 0.389993L0.409993 11.02H0.389993V11V11.01Z"
            fill="#FFFFFF" />
    </g>
    <defs>
        <clipPath id="clip0_3186_408">
            <rect width="24" height="24" fill="white" />
        </clipPath>
    </defs>
</svg>