<svg width="18" height="18" viewBox="0 0 18 18" fill="none" xmlns="http://www.w3.org/2000/svg">
    <g clip-path="url(#clip0_3988_1117)">
        <path
            d="M0 16.875V1.125C0 0.5 0.505 0 1.125 0H16.875C17.5 0 18 0.5 18 1.125V16.875C18 17.495 17.5 18 16.875 18H1.125C0.505 18 0 17.495 0 16.875ZM17.25 1.125C17.25 0.915 17.085 0.75 16.875 0.75H1.125C0.915 0.75 0.75 0.915 0.75 1.125V16.875C0.75 17.085 0.915 17.25 1.125 17.25H16.875C17.085 17.25 17.25 17.085 17.25 16.875V1.125Z"
            fill="white" />
        <path d="M8.38457 4.70496V8.18496H6.43457V4.70496H8.38457Z" fill="white" />
        <path d="M11.5701 4.70496V8.18496H9.62012V4.70496H11.5701Z" fill="white" />
        <path d="M14.7498 4.70496V8.18496H12.7998V4.70496H14.7498Z" fill="white" />
        <path d="M5.2 4.70496V8.18496H3.25V4.70496H5.2Z" fill="white" />
        <path d="M5.2 9.79504V13.295H3.25V9.79504H5.2Z" fill="white" />
        <path d="M8.38457 9.79504V13.295H6.43457V9.79504H8.38457Z" fill="white" />
    </g>
    <defs>
        <clipPath id="clip0_3988_1117">
            <rect width="18" height="18" fill="white" />
        </clipPath>
    </defs>
</svg>