<svg width="24" height="24" viewBox="0 0 24 24" fill="none" xmlns="http://www.w3.org/2000/svg">
    <g clip-path="url(#clip0_3205_370)">
        <mask id="mask0_3205_370" style="mask-type:luminance" maskUnits="userSpaceOnUse" x="0" y="0" width="24"
            height="24">
            <path d="M24 0H0V24H24V0Z" fill="white" />
        </mask>
        <g mask="url(#mask0_3205_370)">
            <path
                d="M17.22 10.98V4.46999C17.22 4.27999 17.11 4.10999 16.94 4.03999C16.77 3.96999 16.57 3.98999 16.43 4.10999L13.41 6.61999L17.22 10.99V10.98Z"
                fill="#FFFFFF" />
            <path
                d="M10.92 8.66998L10.45 9.05998H7.15C6.88 9.05998 6.66 9.26998 6.66 9.54998V13.79C6.66 14.06 6.87 14.28 7.15 14.28H10.45L16.42 19.23C16.57 19.35 16.77 19.38 16.93 19.3C17.1 19.23 17.21 19.05 17.21 18.87V15.91L10.91 8.68998V8.66998H10.92Z"
                fill="#FFFFFF" />
            <path d="M8.36001 4.23999L6.85001 5.55999L18.68 19.11L20.19 17.79L8.36001 4.23999Z" fill="#FFFFFF" />
        </g>
        <path
            d="M22.5 0H0V24H22.5C23.33 24 24 23.33 24 22.5V1.5C24 0.67 23.33 0 22.5 0ZM23 22.5C23 22.77 22.77 23 22.5 23H2.37H1V1H22.5C22.77 1 23 1.22 23 1.5V22.5Z"
            fill="#FFFFFF" />
    </g>
    <defs>
        <clipPath id="clip0_3205_370">
            <rect width="24" height="24" fill="white" />
        </clipPath>
    </defs>
</svg>