<svg width="24" height="24" viewBox="0 0 24 24" fill="none" xmlns="http://www.w3.org/2000/svg">
    <g clip-path="url(#clip0_3149_127)">
        <path
            d="M6.18 17.82V13.12C6.18 12.92 6.02 12.7533 5.81333 12.7533H3.69333C3.49333 12.7533 3.32667 12.9133 3.32667 13.12V20.3C3.32667 20.5 3.48667 20.6667 3.69333 20.6667H10.8733C11.0733 20.6667 11.24 20.5067 11.24 20.3V18.18C11.24 17.98 11.08 17.8133 10.8733 17.8133H6.17333L6.18 17.82Z"
            fill="#FFFFFF" />
        <path
            d="M22.5 24H1.5C0.666667 24 0 23.3267 0 22.5V1.5C0 0.666667 0.666667 0 1.5 0H22.5C23.3267 0 24 0.666667 24 1.5V22.5C24 23.3267 23.3267 24 22.5 24ZM1.5 1C1.22 1 1 1.22 1 1.5V22.5C1 22.7667 1.22 23 1.5 23H22.5C22.7667 23 23 22.7667 23 22.5V1.5C23 1.22 22.7667 1 22.5 1H1.5Z"
            fill="#FFFFFF" />
        <path
            d="M17.82 6.18001V10.88C17.82 11.08 17.98 11.2467 18.1867 11.2467H20.3067C20.5067 11.2467 20.6733 11.0867 20.6733 10.88V3.70001C20.6733 3.50001 20.5133 3.33334 20.3067 3.33334H13.1267C12.9267 3.33334 12.76 3.49334 12.76 3.70001V5.82001C12.76 6.02001 12.92 6.18668 13.1267 6.18668H17.8267L17.82 6.18001Z"
            fill="#FFFFFF" />
    </g>
    <defs>
        <clipPath id="clip0_3149_127">
            <rect width="24" height="24" fill="white" />
        </clipPath>
    </defs>
</svg>