<svg width="24" height="24" viewBox="0 0 24 24" fill="none" xmlns="http://www.w3.org/2000/svg">
    <g clip-path="url(#clip0_2662_620)">
        <path
            d="M23.75 12.14C23.75 8.47 22.41 4.93 19.97 2.19C19.87 2.08 19.72 2.01 19.57 2.01H19.55C19.4 2.01 19.27 2.06 19.16 2.17L19 2.33C18.8 2.53 18.79 2.87 18.98 3.09C21.19 5.59 22.41 8.8 22.41 12.15C22.41 15.5 21.27 18.49 19.2 20.94C19.02 21.16 19.03 21.48 19.23 21.68L19.39 21.84C19.49 21.94 19.63 22 19.78 22C19.96 22 20.1 21.92 20.2 21.8C22.48 19.1 23.73 15.67 23.73 12.13L23.75 12.14Z"
            fill="#FFFFFF" />
        <path
            d="M12.07 3.19C11.87 3.1 11.64 3.13 11.47 3.27L4.45 9.09H0.57C0.26 9.09 0 9.34 0 9.66V14.64C0 14.95 0.25 15.21 0.57 15.21H4.45L11.47 21.02C11.64 21.16 11.88 21.19 12.07 21.1C12.27 21.01 12.4 20.81 12.4 20.59V3.7C12.4 3.48 12.27 3.28 12.07 3.19Z"
            fill="#FFFFFF" />
        <path
            d="M17.38 17.58C18.56 16 19.19 14.12 19.19 12.14C19.19 10.02 18.48 8.03 17.14 6.39C17.04 6.27 16.9 6.19 16.74 6.19H16.7C16.52 6.19 16.39 6.28 16.32 6.35L16.16 6.51C15.96 6.71 15.94 7.03 16.12 7.25C17.25 8.65 17.85 10.34 17.85 12.14C17.85 13.82 17.32 15.41 16.32 16.76C16.16 16.98 16.18 17.29 16.37 17.48L16.53 17.64C16.63 17.74 16.77 17.8 16.92 17.8L17.01 18.46L16.96 17.79C17.12 17.78 17.27 17.7 17.36 17.57L17.38 17.58Z"
            fill="#FFFFFF" />
    </g>
    <defs>
        <clipPath id="clip0_2662_620">
            <rect width="23.75" height="20" fill="white" transform="translate(0 2)" />
        </clipPath>
    </defs>
</svg>