<svg width="24" height="24" viewBox="0 0 24 24" fill="none" xmlns="http://www.w3.org/2000/svg">
    <path d="m 12,5 c -0.24136,0 -0.438666,0.1973346 -0.438666,0.4386666 0,0.2413321 0.197306,0.4386667 0.438666,0.4386667 3.37596,0 6.122666,2.7466693 6.122666,6.1226667 0,3.375959 -2.746706,6.122666 -6.122666,6.122666 -3.3759973,0 -6.1226667,-2.746707 -6.1226667,-6.122666 0,-1.13736 0.3173334,-2.2520401 0.9186708,-3.2226694 0.061329,-0.099997 0.081331,-0.2186613 0.054665,-0.3346653 C 6.824004,8.3279959 6.7560013,8.2320026 6.6573294,8.1706639 6.5839973,8.1253319 6.5026667,8.103996 6.4226707,8.103996 c -0.1466734,0 -0.2893333,0.073342 -0.372008,0.2053333 C 5.3626653,9.4186706 5,10.69464 5,12 c 0,3.859987 3.1400041,7 7,7 3.859987,0 7,-3.140013 7,-7 0,-3.859996 -3.140013,-7 -7,-7 z" fill="#cccccc"/>
</svg>
