<svg width="24" height="24" viewBox="0 0 24 24" fill="none" xmlns="http://www.w3.org/2000/svg">
    <path d="M11 11L14 13L11 15V11Z" stroke="white" stroke-linecap="round" stroke-linejoin="round" />
    <g clip-path="url(#clip0_1970_451)">
        <path
            d="M18.7 10.9C18.09 9.09 16.8 7.65 15.06 6.83C14.22 6.43 13.32 6.21 12.39 6.16C11.43 6.11 10.48 6.25 9.57 6.59C9.27 6.7 8.98 6.83 8.69 6.98L8.99 5.64C9.02 5.5 8.99 5.36 8.92 5.24C8.84 5.12 8.73 5.04 8.59 5.01C8.31 4.95 8.03 5.13 7.97 5.41L7.38 8.06C7.34 8.21 7.38 8.38 7.47 8.51C7.56 8.64 7.7 8.73 7.86 8.75L10.58 9.14C10.87 9.19 11.13 8.98 11.17 8.7C11.19 8.56 11.16 8.42 11.07 8.31C10.98 8.2 10.86 8.12 10.72 8.11L9.23 7.89C9.46 7.77 9.7 7.66 9.94 7.57C11.47 7 13.14 7.08 14.62 7.78C16.1 8.48 17.2 9.71 17.71 11.24C18.68 14.13 17.21 17.32 14.35 18.5C12.85 19.12 11.17 19.11 9.67 18.47C8.16 17.83 7.02 16.64 6.44 15.13C6.14 14.33 6.01 13.51 6.08 12.66C6.08 12.51 6.04 12.37 5.93 12.26C5.83 12.16 5.7 12.1 5.54 12.1C5.27 12.1 5.05 12.32 5.03 12.6C4.96 13.59 5.11 14.56 5.46 15.49C5.8 16.39 6.31 17.19 6.98 17.87C7.63 18.53 8.39 19.05 9.25 19.42C10.15 19.8 11.09 19.99 12.04 19.99C12.99 19.99 13.88 19.81 14.75 19.45C18.11 18.06 19.85 14.3 18.7 10.89V10.9Z"
            fill="white" />
    </g>
    <defs>
        <clipPath id="clip0_1970_451">
            <rect width="14.05" height="15" fill="white" transform="translate(5 5)" />
        </clipPath>
    </defs>
</svg>