<svg width="24" height="24" viewBox="0 0 24 24" fill="none" xmlns="http://www.w3.org/2000/svg">
    <g clip-path="url(#clip0_2056_384)">
        <path
            d="M12 4.5C11.74 4.5 11.53 4.71 11.53 4.97C11.53 5.23 11.74 5.44 12 5.44C15.62 5.44 18.56 8.38 18.56 12C18.56 15.62 15.62 18.56 12 18.56C8.38 18.56 5.44 15.62 5.44 12C5.44 10.78 5.78 9.59 6.42 8.55C6.49 8.44 6.51 8.32 6.48 8.19C6.45 8.07 6.38 7.96 6.27 7.9C6.19 7.85 6.1 7.83 6.02 7.83C5.86 7.83 5.71 7.91 5.62 8.05C4.88 9.24 4.49 10.61 4.49 12C4.49 16.14 7.85 19.5 11.99 19.5C16.13 19.5 19.49 16.14 19.49 12C19.49 7.86 16.13 4.5 11.99 4.5H12Z"
            fill="#FFFFFF" />
        <path
            d="M12 4.5C11.74 4.5 11.53 4.71 11.53 4.97C11.53 5.23 11.74 5.44 12 5.44C15.62 5.44 18.56 8.38 18.56 12C18.56 15.62 15.62 18.56 12 18.56C8.38 18.56 5.44 15.62 5.44 12C5.44 10.78 5.78 9.59 6.42 8.55C6.49 8.44 6.51 8.32 6.48 8.19C6.45 8.07 6.38 7.96 6.27 7.9C6.19 7.85 6.1 7.83 6.02 7.83C5.86 7.83 5.71 7.91 5.62 8.05C4.88 9.24 4.49 10.61 4.49 12C4.49 16.14 7.85 19.5 11.99 19.5C16.13 19.5 19.49 16.14 19.49 12C19.49 7.86 16.13 4.5 11.99 4.5H12Z"
            fill="#FFFFFF" />
    </g>
    <defs>
        <clipPath id="clip0_2056_384">
            <rect width="24" height="24" fill="white" />
        </clipPath>
    </defs>
</svg>