<svg width="24" height="24" viewBox="0 0 24 24" fill="none" xmlns="http://www.w3.org/2000/svg">
    <g clip-path="url(#clip0_2056_370)">
        <path
            d="M10.8 14.9C10.74 14.9 10.67 14.88 10.61 14.85C10.48 14.78 10.4 14.64 10.4 14.5V10.5C10.4 10.35 10.48 10.22 10.61 10.15C10.74 10.08 10.9 10.09 11.02 10.17L14.02 12.17C14.13 12.24 14.2 12.37 14.2 12.5C14.2 12.63 14.13 12.76 14.02 12.83L11.02 14.83C10.95 14.87 10.88 14.9 10.8 14.9ZM11.2 11.25V13.76L13.08 12.51L11.2 11.26V11.25Z"
            fill="white" />
        <mask id="mask0_2056_370" style="mask-type:luminance" maskUnits="userSpaceOnUse" x="4" y="4" width="16"
            height="16">
            <path d="M19.03 4.5H4.98V19.5H19.03V4.5Z" fill="white" />
        </mask>
        <g mask="url(#mask0_2056_370)">
            <path
                d="M18.68 10.4C18.07 8.59 16.78 7.15 15.04 6.33C14.2 5.93 13.3 5.71 12.37 5.66C11.41 5.61 10.46 5.75 9.55 6.09C9.25 6.2 8.96 6.33 8.67 6.48L8.97 5.14C9 5 8.97 4.86 8.9 4.74C8.82 4.62 8.71 4.54 8.57 4.51C8.29 4.45 8.01 4.63 7.95 4.91L7.36 7.56C7.32 7.71 7.36 7.88 7.45 8.01C7.54 8.14 7.68 8.23 7.84 8.25L10.56 8.64C10.85 8.69 11.11 8.48 11.15 8.2C11.17 8.06 11.14 7.92 11.05 7.81C10.96 7.7 10.84 7.62 10.7 7.61L9.21 7.39C9.44 7.27 9.68 7.16 9.92 7.07C11.45 6.5 13.12 6.58 14.6 7.28C16.08 7.98 17.18 9.21 17.69 10.74C18.66 13.63 17.19 16.82 14.33 18C12.83 18.62 11.15 18.61 9.65 17.97C8.14 17.33 7 16.14 6.42 14.63C6.12 13.83 5.99 13.01 6.06 12.16C6.06 12.01 6.02 11.87 5.91 11.76C5.81 11.66 5.68 11.6 5.52 11.6C5.25 11.6 5.03 11.82 5.01 12.1C4.94 13.09 5.09 14.06 5.44 14.99C5.78 15.89 6.29 16.69 6.96 17.37C7.61 18.03 8.37 18.55 9.23 18.92C10.13 19.3 11.07 19.49 12.02 19.49C12.97 19.49 13.86 19.31 14.73 18.95C18.09 17.56 19.83 13.8 18.68 10.39V10.4Z"
                fill="white" />
        </g>
    </g>
    <defs>
        <clipPath id="clip0_2056_370">
            <rect width="24" height="24" fill="white" />
        </clipPath>
    </defs>
</svg>