<svg width="24" height="24" viewBox="0 0 24 24" fill="none" xmlns="http://www.w3.org/2000/svg">
    <g clip-path="url(#clip0_2056_345)">
        <path
            d="M7.84 19.5C7.76 19.5 7.69 19.48 7.62 19.45C7.47 19.37 7.37 19.21 7.37 19.04V4.97C7.37 4.8 7.47 4.64 7.62 4.56C7.77 4.48 7.96 4.49 8.1 4.59L18.41 11.62C18.54 11.71 18.62 11.85 18.62 12.01C18.62 12.17 18.54 12.31 18.41 12.4L8.1 19.43C8.02 19.48 7.93 19.51 7.84 19.51V19.5ZM8.31 5.86V18.15L17.32 12.01L8.31 5.87V5.86Z"
            fill="white" />
    </g>
    <defs>
        <clipPath id="clip0_2056_345">
            <rect width="24" height="24" fill="white" />
        </clipPath>
    </defs>
</svg>