<svg width="24" height="24" viewBox="0 0 24 24" fill="none" xmlns="http://www.w3.org/2000/svg">
    <g clip-path="url(#clip0_2688_422)">
        <path
            d="M1.947 0.471002C1.569 0.0690018 0.935 0.0500018 0.534 0.428002C0.131 0.807002 0.112 1.44 0.49 1.841L6.109 7.813L4.575 9.085H0.695C0.385 9.085 0.125 9.335 0.125 9.655V14.635C0.125 14.945 0.375 15.205 0.695 15.205H4.575L11.595 21.015C11.765 21.155 12.005 21.185 12.195 21.095C12.395 21.005 12.525 20.805 12.525 20.585V14.633L21.024 23.666C21.222 23.875 21.487 23.98 21.753 23.98C22 23.98 22.246 23.89 22.439 23.708C22.841 23.329 22.86 22.696 22.482 22.294L1.947 0.471002Z"
            fill="#FFFFFF" />
        <path
            d="M17.976 12.136C17.976 12.912 17.851 13.667 17.63 14.391L18.669 15.495C19.092 14.437 19.317 13.305 19.317 12.136C19.317 10.016 18.607 8.026 17.267 6.386C17.167 6.266 17.027 6.186 16.867 6.186H16.827C16.647 6.186 16.517 6.276 16.447 6.346L16.287 6.506C16.087 6.706 16.067 7.026 16.247 7.246C17.377 8.646 17.976 10.336 17.976 12.136Z"
            fill="#FFFFFF" />
        <path
            d="M12.525 3.695C12.525 3.475 12.395 3.275 12.195 3.185C11.995 3.095 11.765 3.125 11.595 3.265L9.103 5.331L12.525 8.967V3.695Z"
            fill="#FFFFFF" />
        <path
            d="M20.095 2.185C19.995 2.075 19.845 2.005 19.695 2.005H19.675C19.525 2.005 19.395 2.055 19.285 2.165L19.125 2.325C18.925 2.525 18.915 2.865 19.105 3.085C21.315 5.585 22.535 8.795 22.535 12.145C22.535 14.311 22.052 16.323 21.156 18.139L22.1 19.142C23.237 16.994 23.855 14.589 23.855 12.125L23.875 12.135C23.875 8.465 22.535 4.925 20.095 2.185Z"
            fill="#FFFFFF" />
    </g>
    <defs>
        <clipPath id="clip0_2688_422">
            <rect width="24" height="24" fill="white" />
        </clipPath>
    </defs>
</svg>